<svg width="240" height="160" viewBox="0 0 240 160" fill="none" xmlns="http://www.w3.org/2000/svg">
<g clip-path="url(#clip0)">
<path d="M132.897 79.0238C132.399 78.3377 131.649 77.8778 130.813 77.745C129.976 77.6123 129.121 77.8175 128.436 78.3158C109.481 92.1158 90.4665 78.9298 89.584 78.3158C88.8955 77.8201 88.0389 77.6187 87.2021 77.7558C86.3654 77.8929 85.6174 78.3572 85.1226 79.0468C84.6277 79.7363 84.4266 80.5947 84.5634 81.4328C84.7003 82.2709 85.1639 83.0201 85.8523 83.5158C93.0493 88.1979 101.414 90.762 109.995 90.9159C118 90.9113 125.788 88.3084 132.192 83.4977C132.532 83.2505 132.82 82.9387 133.039 82.58C133.259 82.2213 133.405 81.8227 133.471 81.4071C133.536 80.9916 133.519 80.5673 133.42 80.1583C133.322 79.7494 133.144 79.3638 132.897 79.0238Z" fill="#1A1A1A"/>
<path d="M100.414 138.95C99.5669 138.95 98.7543 139.287 98.1552 139.887C97.5561 140.487 97.2197 141.301 97.2197 142.15C97.2197 142.999 97.5561 143.812 98.1552 144.413C98.7543 145.013 99.5669 145.35 100.414 145.35H119.583C120.43 145.35 121.243 145.013 121.842 144.413C122.441 143.812 122.777 142.999 122.777 142.15C122.777 141.301 122.441 140.487 121.842 139.887C121.243 139.287 120.43 138.95 119.583 138.95H100.414Z" fill="#1A1A1A"/>
<path d="M78.5363 153.6C75.5532 153.597 72.6935 152.408 70.5841 150.296C68.4747 148.183 67.288 145.318 67.2849 142.33V17.6698C67.2875 14.6816 68.4737 11.8167 70.5831 9.70373C72.6926 7.59077 75.5531 6.40243 78.5363 6.39978H139.496C142.479 6.40348 145.338 7.59216 147.447 9.70495C149.556 11.8177 150.742 14.6821 150.745 17.6698V116.024C152.717 114.453 154.861 113.111 157.135 112.024V17.6717C157.137 13.5936 155.726 9.6412 153.141 6.48987C155.959 6.7028 158.594 7.97232 160.518 10.045C162.443 12.1178 163.516 14.8411 163.524 17.6717V109.736C165.62 109.23 167.76 108.929 169.914 108.836V17.6717C169.914 15.3514 169.458 13.0538 168.571 10.91C167.685 8.76622 166.386 6.8182 164.748 5.17737C163.11 3.53653 161.165 2.23507 159.025 1.34705C156.885 0.459021 154.591 0.00183104 152.275 0.00183105H78.5363C73.8577 0.00183105 69.3706 1.8636 66.0623 5.17737C62.754 8.49113 60.8955 12.9854 60.8955 17.6717V142.332C60.8955 147.018 62.754 151.513 66.0623 154.827C69.3706 158.14 73.8577 160.002 78.5363 160.002H141.323C139.872 158.117 138.863 155.93 138.37 153.602L78.5363 153.6Z" fill="#1A1A1A"/>
<path d="M224.024 59.1997H239.998V52.7998C239.998 49.8294 238.82 46.9805 236.723 44.8801C234.626 42.7797 231.782 41.5999 228.816 41.5999H187.285C184.32 41.5999 181.475 42.7797 179.378 44.8801C177.281 46.9805 176.104 49.8294 176.104 52.7998V115.2H171.088C167.551 115.199 164.049 115.897 160.781 117.253C157.514 118.608 154.545 120.595 152.044 123.1C149.543 125.605 147.559 128.579 146.206 131.852C144.852 135.125 144.156 138.633 144.156 142.176V150.404C144.156 151.665 144.404 152.913 144.886 154.078C145.368 155.242 146.074 156.301 146.964 157.192C147.854 158.084 148.91 158.791 150.073 159.273C151.236 159.756 152.482 160.004 153.741 160.004H230.414C232.956 160.004 235.393 158.993 237.191 157.192C238.988 155.392 239.998 152.95 239.998 150.404V124.804C239.998 122.258 238.988 119.816 237.191 118.016C235.393 116.215 232.956 115.204 230.414 115.204H224.024V59.2039V59.1997ZM233.609 52.7998H224.024C224.024 51.5268 224.529 50.3059 225.428 49.4058C226.327 48.5056 227.545 47.9998 228.816 47.9998C230.087 47.9998 231.307 48.5056 232.205 49.4058C233.104 50.3059 233.609 51.5268 233.609 52.7998ZM150.546 150.4V142.172C150.552 136.717 152.718 131.487 156.569 127.629C160.42 123.772 165.642 121.602 171.088 121.596H198.419C195.429 124.123 193.026 127.274 191.379 130.828C189.732 134.382 188.88 138.253 188.882 142.172V150.4C188.893 151.492 189.091 152.575 189.468 153.6H153.741C152.894 153.6 152.082 153.263 151.483 152.664C150.884 152.065 150.547 151.252 150.546 150.404V150.4ZM230.414 121.6C231.261 121.6 232.074 121.937 232.673 122.537C233.272 123.137 233.609 123.951 233.609 124.8V150.4C233.609 151.249 233.272 152.062 232.673 152.663C232.074 153.263 231.261 153.6 230.414 153.6H198.467C197.619 153.6 196.807 153.263 196.208 152.663C195.608 152.062 195.272 151.249 195.272 150.4V142.172C195.278 136.717 197.444 131.487 201.295 127.629C205.146 123.772 210.368 121.602 215.814 121.596H230.418L230.414 121.6ZM215.81 115.2H182.493V52.7998C182.493 51.5268 182.998 50.3059 183.896 49.4058C184.795 48.5056 186.014 47.9998 187.285 47.9998H218.753C218.025 49.4951 217.642 51.1358 217.633 52.7998V115.2H215.81Z" fill="#1A1A1A"/>
<path d="M158.051 144H155.655C154.552 144 153.658 144.895 153.658 146V148.4C153.658 149.504 154.552 150.4 155.655 150.4H158.051C159.154 150.4 160.048 149.504 160.048 148.4V146C160.048 144.895 159.154 144 158.051 144Z" fill="#1A1A1A"/>
<path d="M167.636 144H165.24C164.137 144 163.243 144.895 163.243 146V148.4C163.243 149.504 164.137 150.4 165.24 150.4H167.636C168.739 150.4 169.633 149.504 169.633 148.4V146C169.633 144.895 168.739 144 167.636 144Z" fill="#1A1A1A"/>
<path d="M210.774 89.7158C210.774 94.0478 207.18 97.7739 200.429 97.7739C193.678 97.7739 190.084 94.0498 190.084 89.7158C190.051 88.3789 190.421 87.0633 191.146 85.9399C191.87 84.8166 192.915 83.9378 194.145 83.418V82.6538C193.15 82.1152 192.325 81.309 191.763 80.3259C191.201 79.3429 190.923 78.2221 190.962 77.0898C190.962 73.0618 194.491 69.8738 200.429 69.8738C206.367 69.8738 209.891 73.0618 209.891 77.0898C209.918 78.2194 209.636 79.3348 209.076 80.3154C208.515 81.296 207.699 82.1045 206.713 82.6538V83.418C207.943 83.9378 208.988 84.8166 209.712 85.9399C210.437 87.0633 210.807 88.3789 210.774 89.7158ZM205.295 89.178C205.295 87.028 203.647 85.178 200.429 85.178C197.17 85.178 195.563 87.022 195.563 89.178C195.563 91.366 197.16 93.178 200.429 93.178C203.645 93.168 205.295 91.366 205.295 89.178ZM196.29 77.6599C196.153 78.5082 196.279 79.3782 196.651 80.1523C197.024 80.9265 197.624 81.5676 198.372 81.9893C199.119 82.411 199.978 82.5929 200.831 82.5105C201.685 82.4281 202.494 82.0852 203.147 81.5283C203.8 80.9714 204.267 80.2274 204.485 79.3962C204.703 78.5651 204.661 77.6871 204.365 76.8806C204.069 76.0741 203.533 75.3779 202.83 74.886C202.126 74.3941 201.289 74.1302 200.431 74.1299C199.924 74.0688 199.41 74.1134 198.921 74.261C198.431 74.4086 197.978 74.6558 197.589 74.9873C197.2 75.3188 196.883 75.7273 196.659 76.1873C196.435 76.6472 196.309 77.1487 196.288 77.6599H196.29Z" fill="#E02E6C"/>
<path d="M89.0815 59.5278L96.9805 63.686L95.4733 54.886L101.863 48.6479L93.0329 47.3618L89.0839 39.3479L85.1344 47.3618L76.3047 48.6479L82.694 54.886L81.1868 63.686L89.0815 59.5278Z" fill="#1A1A1A"/>
<path d="M141.262 48.6379L132.432 47.3518L128.483 39.3379L124.534 47.3518L115.704 48.6379L122.093 54.876L120.586 63.676L128.485 59.5178L136.384 63.676L134.875 54.876L141.262 48.6379Z" fill="#1A1A1A"/>
<path d="M31.9937 83.9862C29.5963 84.755 27.0712 85.0433 24.5626 84.8346C22.0539 84.6259 19.6112 83.9243 17.3733 82.7699C15.1353 81.6155 13.1461 80.0307 11.5196 78.1063C9.89312 76.1819 8.66125 73.9554 7.89378 71.5541L0.194567 47.4701C-0.0114657 46.8241 -0.0441813 46.1353 0.100484 45.4728C0.245149 44.8103 0.561943 44.1977 1.0184 43.6969C1.47486 43.1961 2.05518 42.8247 2.70069 42.6202C3.34619 42.4157 4.03399 42.3853 4.69495 42.5321L41.4824 50.7042L44.4053 59.8461C45.1728 62.2474 45.4609 64.7767 45.2525 67.2894C45.0442 69.8022 44.3435 72.2492 43.191 74.4908C42.0385 76.7325 40.4563 78.7249 38.5351 80.3541C36.6139 81.9833 34.3911 83.2175 31.9937 83.9862Z" fill="#E02E6C"/>
<path d="M7.62399 49.738L36.508 56.156L38.3053 61.7981C38.8171 63.399 39.0091 65.0852 38.8703 66.7605C38.7314 68.4357 38.2644 70.067 37.4961 71.5615C36.7277 73.056 35.6727 74.3843 34.3918 75.4705C33.111 76.5566 31.6292 77.3796 30.0309 77.8921C28.4326 78.4069 26.7488 78.6007 25.0757 78.4626C23.4025 78.3246 21.7729 77.8573 20.2804 77.0874C18.7878 76.3175 17.4616 75.2602 16.3776 73.9761C15.2936 72.692 14.4734 71.2062 13.9636 69.604L7.6157 49.738H7.62399ZM3.82216 42.436C3.21784 42.4397 2.62272 42.586 2.08528 42.8628C1.54783 43.1396 1.08324 43.5391 0.728628 44.0293C0.374014 44.5194 0.13948 45.0863 0.0442104 45.6841C-0.0510588 46.2818 -0.00441482 46.8936 0.180216 47.47L7.87553 71.554C9.43876 76.387 12.8506 80.4026 17.3638 82.7209C21.877 85.0392 27.1233 85.4713 31.954 83.9226C36.7846 82.3739 40.8058 78.9704 43.1362 74.458C45.4666 69.9456 45.9162 64.6922 44.3871 59.8481L41.4641 50.7061L4.6767 42.5339C4.39574 42.4694 4.10845 42.4373 3.82021 42.438L3.82216 42.436Z" fill="#1A1A1A"/>
<path d="M31.9857 83.9862C36.827 82.4336 40.854 79.0182 43.1816 74.4915C45.5091 69.9649 45.9463 64.6975 44.3968 59.848L36.6996 35.762C36.4929 35.1164 36.1202 34.5367 35.6184 34.0816C35.1166 33.6265 34.5034 33.3123 33.8415 33.1702C33.1796 33.0282 32.4921 33.0635 31.8482 33.2728C31.2043 33.482 30.6268 33.8579 30.1742 34.3621L4.96191 62.4119L7.88531 71.554C8.65278 73.9554 9.88466 76.1819 11.5112 78.1063C13.1377 80.0307 15.1269 81.6152 17.3648 82.7696C19.6027 83.924 22.046 84.6256 24.5546 84.8343C27.0632 85.043 29.5883 84.755 31.9857 83.9862Z" fill="#E02E6C"/>
<path d="M31.9652 41.9361L38.3127 61.8021C38.8244 63.403 39.0165 65.0892 38.8776 66.7645C38.7388 68.4397 38.2718 70.0712 37.5034 71.5657C36.7351 73.0602 35.6801 74.3885 34.3992 75.4747C33.1183 76.5608 31.6366 77.3836 30.0382 77.896C28.4398 78.411 26.7555 78.6051 25.082 78.4669C23.4086 78.3286 21.7789 77.861 20.2862 77.0906C18.7936 76.3203 17.4672 75.2623 16.3835 73.9776C15.2998 72.6929 14.4797 71.2068 13.9705 69.6041L12.1737 63.962L31.973 41.9361H31.9652ZM33.0294 33.0821C32.4913 33.081 31.9589 33.1944 31.468 33.4151C30.9771 33.6358 30.5389 33.9587 30.182 34.3621L4.96973 62.4119L7.89264 71.554C9.45587 76.3871 12.8677 80.4027 17.3809 82.721C21.8941 85.0393 27.1409 85.4714 31.9716 83.9227C36.8022 82.3739 40.8229 78.9705 43.1533 74.4581C45.4837 69.9456 45.9338 64.692 44.4047 59.848L36.7074 35.762C36.46 34.9806 35.9695 34.2987 35.3078 33.8162C34.6462 33.3337 33.8478 33.0759 33.0294 33.0801V33.0821Z" fill="#1A1A1A"/>
<path d="M71.0671 137.318C70.5723 137.318 70.0847 137.203 69.6417 136.982C36.6621 120.46 29.1522 82.9822 28.8447 81.3822C28.6859 80.5484 28.8642 79.6854 29.3405 78.9833C29.8168 78.2811 30.552 77.7972 31.3845 77.6381C32.217 77.4789 33.0785 77.6575 33.7795 78.1346C34.4805 78.6117 34.9636 79.3482 35.1225 80.182C35.1924 80.54 42.3905 116.182 72.4988 131.254C73.1437 131.576 73.6609 132.107 73.9666 132.761C74.2723 133.414 74.3484 134.152 74.1825 134.855C74.0167 135.557 73.6187 136.183 73.0531 136.63C72.4875 137.077 71.7877 137.319 71.0671 137.318Z" fill="#1A1A1A"/>
<path d="M26.3945 117.034C26.3945 117.034 35.4318 133.946 49.6404 119.204C49.6404 119.204 40.6011 102.292 26.3945 117.034Z" fill="#20961A"/>
<path d="M38.2674 128.446C37.6435 128.446 37.0203 128.402 36.4023 128.316C28.2817 127.184 23.7674 118.902 23.5797 118.55L22.4814 116.496L24.0965 114.82C29.2 109.528 34.3935 107.196 39.6328 107.934C47.7554 109.066 52.2682 117.348 52.4559 117.7L53.5562 119.754L51.9387 121.43C47.4461 126.086 42.8558 128.446 38.2674 128.446ZM30.556 117.496C32.1692 119.785 34.58 121.384 37.3129 121.98C38.8244 122.054 40.3341 121.805 41.7417 121.248C43.1492 120.692 44.4222 119.841 45.4752 118.752C43.8635 116.465 41.4554 114.865 38.7247 114.268C37.2132 114.197 35.7034 114.447 34.2954 115.003C32.8875 115.558 31.6132 116.406 30.556 117.49V117.496Z" fill="#1A1A1A"/>
<path d="M41.5647 105.724C41.5647 105.724 60.6994 104.944 53.641 85.712C53.641 85.712 34.5044 86.492 41.5647 105.724Z" fill="#20961A"/>
<path d="M39.3658 109.018L38.5673 106.83C36.0315 99.9238 36.2292 94.2038 39.1483 89.8298C43.7048 82.9958 53.1255 82.538 53.5128 82.522L55.8386 82.426L56.6376 84.614C59.1714 91.52 58.9757 97.24 56.0565 101.614C51.5 108.448 42.0917 108.906 41.6964 108.922L39.3658 109.018ZM51.4201 89.2639C48.6605 89.7228 46.1722 91.1988 44.4438 93.4019C43.7194 94.7333 43.2861 96.2038 43.1725 97.7158C43.0589 99.2279 43.2674 100.747 43.7847 102.172C46.5429 101.712 49.0296 100.236 50.7571 98.0339C51.4814 96.7029 51.915 95.2328 52.0289 93.7212C52.1429 92.2095 51.9347 90.6908 51.4181 89.2659L51.4201 89.2639Z" fill="#1A1A1A"/>
</g>
<defs>
<clipPath id="clip0">
<rect width="240" height="160" fill="white"/>
</clipPath>
</defs>
</svg>
