<svg width="275" height="220" viewBox="0 0 275 220" fill="none" xmlns="http://www.w3.org/2000/svg">
<path d="M178.022 44.9514H112.266L136.324 8.02716L150.758 3.21191L189.247 19.2664L187.643 27.2937L168.398 28.8997L178.022 44.9514Z" fill="#EB4242"/>
<path d="M258.212 141.336H274.25V134.915C274.247 131.935 273.062 129.079 270.957 126.973C268.852 124.866 265.999 123.681 263.022 123.678H221.324C218.348 123.682 215.495 124.867 213.39 126.974C211.286 129.08 210.102 131.936 210.099 134.915V175.048H205.06C201.509 175.046 197.991 175.745 194.71 177.105C191.428 178.464 188.446 180.458 185.935 182.972C183.424 185.486 181.432 188.471 180.074 191.756C178.717 195.041 178.019 198.562 178.021 202.117V210.367C178.021 212.919 179.035 215.368 180.838 217.173C182.641 218.978 185.087 219.992 187.637 219.992H264.627C267.177 219.992 269.622 218.978 271.426 217.173C273.229 215.368 274.242 212.919 274.242 210.367V184.673C274.242 182.121 273.229 179.673 271.426 177.868C269.622 176.063 267.177 175.048 264.627 175.048H258.212V141.336ZM263.022 130.1C263.654 130.099 264.28 130.223 264.864 130.465C265.448 130.707 265.978 131.061 266.425 131.508C266.872 131.956 267.226 132.487 267.468 133.071C267.709 133.656 267.833 134.282 267.833 134.915H258.217C258.216 134.283 258.34 133.657 258.581 133.073C258.822 132.488 259.176 131.958 259.623 131.51C260.069 131.063 260.599 130.708 261.182 130.466C261.765 130.224 262.391 130.1 263.022 130.1ZM216.514 151.451V134.915C216.513 134.282 216.637 133.656 216.878 133.071C217.12 132.487 217.474 131.956 217.921 131.508C218.368 131.061 218.898 130.707 219.482 130.465C220.066 130.223 220.692 130.099 221.324 130.1H252.918C252.185 131.599 251.801 133.246 251.794 134.915V175.048H216.514V151.451ZM187.612 213.579C186.762 213.577 185.947 213.237 185.346 212.636C184.744 212.034 184.406 211.218 184.403 210.367V202.117C184.405 196.642 186.578 191.392 190.446 187.521C194.313 183.649 199.558 181.474 205.027 181.472H232.45C229.454 184.011 227.047 187.174 225.396 190.739C223.746 194.304 222.891 198.187 222.893 202.117V210.367C222.904 211.462 223.099 212.548 223.47 213.579H187.612ZM264.627 181.472C265.474 181.475 266.287 181.813 266.887 182.413C267.488 183.012 267.828 183.825 267.833 184.673V210.358C267.83 211.21 267.492 212.025 266.89 212.627C266.289 213.229 265.474 213.568 264.624 213.57H232.549C231.699 213.568 230.884 213.229 230.283 212.627C229.681 212.025 229.343 211.21 229.341 210.358V202.108C229.342 196.634 231.515 191.384 235.383 187.512C239.25 183.641 244.495 181.466 249.964 181.464H264.624L264.627 181.472Z" fill="#1A1A1A"/>
<path d="M190.755 210.367C191.389 210.367 192.01 210.178 192.537 209.825C193.065 209.472 193.476 208.971 193.719 208.384C193.962 207.797 194.026 207.151 193.902 206.528C193.778 205.905 193.472 205.333 193.024 204.884C192.575 204.434 192.003 204.128 191.381 204.004C190.758 203.881 190.113 203.944 189.527 204.187C188.94 204.43 188.439 204.842 188.087 205.37C187.734 205.898 187.546 206.519 187.546 207.155C187.546 208.007 187.884 208.824 188.486 209.426C189.088 210.028 189.904 210.367 190.755 210.367Z" fill="#1A1A1A"/>
<path d="M200.378 210.367C201.012 210.367 201.633 210.178 202.16 209.825C202.688 209.472 203.099 208.971 203.342 208.384C203.585 207.797 203.649 207.151 203.525 206.528C203.401 205.905 203.095 205.333 202.647 204.884C202.198 204.434 201.626 204.128 201.004 204.004C200.381 203.881 199.736 203.944 199.15 204.187C198.563 204.43 198.062 204.842 197.71 205.37C197.357 205.898 197.169 206.519 197.169 207.155C197.169 208.007 197.507 208.824 198.109 209.426C198.711 210.028 199.527 210.367 200.378 210.367Z" fill="#1A1A1A"/>
<path d="M173.403 111.221C173.164 107.892 171.614 104.793 169.094 102.608C166.574 100.422 163.289 99.3282 159.963 99.5664C156.644 99.8082 153.556 101.356 151.374 103.871C149.192 106.386 148.094 109.663 148.32 112.986C148.429 114.635 148.866 116.245 149.604 117.722C150.342 119.2 151.367 120.515 152.62 121.591C154.9 123.577 157.82 124.671 160.842 124.674C161.142 124.679 161.442 124.668 161.741 124.641C163.387 124.532 164.996 124.095 166.472 123.356C167.948 122.617 169.262 121.591 170.337 120.337C171.436 119.104 172.275 117.66 172.802 116.093C173.329 114.526 173.533 112.869 173.403 111.221ZM161.315 118.253C159.694 118.352 158.097 117.823 156.856 116.776C156.244 116.249 155.742 115.606 155.379 114.884C155.016 114.163 154.798 113.377 154.738 112.571C154.631 110.939 155.17 109.331 156.238 108.093C157.306 106.855 158.818 106.088 160.447 105.957H160.894C162.377 105.971 163.807 106.505 164.936 107.467C166.171 108.532 166.932 110.045 167.054 111.672C167.152 113.304 166.605 114.91 165.53 116.141C164.455 117.373 162.938 118.131 161.309 118.253H161.315Z" fill="#1A1A1A"/>
<path d="M124.899 124.641C126.544 124.523 128.15 124.081 129.625 123.342C131.099 122.603 132.414 121.58 133.494 120.332C134.573 119.085 135.397 117.636 135.918 116.07C136.438 114.503 136.645 112.85 136.527 111.203C136.409 109.556 135.968 107.949 135.23 106.473C134.491 104.997 133.47 103.681 132.223 102.6C130.977 101.519 129.53 100.695 127.965 100.174C126.4 99.6529 124.748 99.4455 123.103 99.5636C119.784 99.8053 116.696 101.353 114.514 103.868C112.332 106.383 111.234 109.66 111.46 112.984C111.569 114.632 112.005 116.242 112.743 117.72C113.482 119.197 114.507 120.512 115.759 121.588C118.033 123.569 120.943 124.664 123.957 124.674C124.272 124.679 124.586 124.668 124.899 124.641ZM117.875 112.541C117.768 110.912 118.308 109.307 119.377 108.075C120.446 106.843 121.958 106.083 123.583 105.96H124.031C125.514 105.973 126.944 106.508 128.073 107.47C128.995 108.266 129.66 109.318 129.984 110.493C130.307 111.668 130.274 112.913 129.889 114.07C129.504 115.226 128.784 116.242 127.821 116.988C126.857 117.734 125.694 118.176 124.479 118.258C122.858 118.358 121.262 117.829 120.02 116.781C119.387 116.262 118.87 115.616 118.5 114.885C118.131 114.154 117.918 113.354 117.875 112.535V112.541Z" fill="#1A1A1A"/>
<path d="M190.752 187.283C187.429 190.473 185.282 194.694 184.658 199.259C185.282 194.694 187.429 190.473 190.752 187.283Z" fill="#1A1A1A"/>
<path d="M111.848 213.579C108.854 213.574 105.985 212.382 103.868 210.263C101.752 208.145 100.561 205.272 100.556 202.276V77.1869C100.561 74.1906 101.752 71.3183 103.868 69.1996C105.985 67.081 108.854 65.8887 111.848 65.8844H173.049C176.042 65.8887 178.912 67.081 181.028 69.1996C183.145 71.3183 184.336 74.1906 184.34 77.1869V175.884C186.318 174.31 188.469 172.968 190.752 171.883V77.1869C190.76 73.0984 189.342 69.1353 186.744 65.9806C189.57 66.1968 192.212 67.4694 194.143 69.5457C196.075 71.6219 197.155 74.3497 197.17 77.1869V169.559C199.273 169.047 201.422 168.746 203.585 168.66V77.1869C203.585 74.8592 203.128 72.5541 202.238 70.4034C201.349 68.2528 200.045 66.2986 198.4 64.6527C196.756 63.0067 194.804 61.7012 192.655 60.8108C190.507 59.9204 188.204 59.4624 185.879 59.4631H111.848C109.522 59.4624 107.22 59.9204 105.071 60.8108C102.923 61.7012 100.97 63.0067 99.326 64.6527C97.6817 66.2986 96.3775 68.2528 95.4879 70.4034C94.5984 72.5541 94.1409 74.8592 94.1416 77.1869V202.276C94.1398 204.605 94.5965 206.911 95.4856 209.062C96.3746 211.214 97.6787 213.169 99.3231 214.816C100.968 216.463 102.92 217.769 105.069 218.66C107.218 219.551 109.522 220.009 111.848 220.008H174.876C173.423 218.116 172.415 215.922 171.925 213.587L111.848 213.579Z" fill="#1A1A1A"/>
<path d="M171.766 153.505L142 146.377L111.334 154.929C111.334 154.929 105.304 170.604 117.942 181.032C126.016 187.334 133.757 194.053 141.131 201.162C141.232 201.297 141.363 201.406 141.513 201.481C141.663 201.556 141.829 201.595 141.997 201.595C142.165 201.595 142.33 201.556 142.48 201.481C142.631 201.406 142.761 201.297 142.862 201.162C146.648 197.565 154.25 191.595 166.052 181.032C169.871 177.695 172.497 173.199 173.528 168.229C174.56 163.26 173.941 158.09 171.766 153.505Z" fill="white"/>
<path d="M141.935 204.776H141.743C141.16 204.744 140.588 204.594 140.065 204.335C139.541 204.075 139.075 203.712 138.696 203.266C132.175 196.948 125.323 190.981 118.169 185.391L115.891 183.496C104.471 174.086 105.946 159.951 108.32 153.763L108.897 152.254L141.935 143.038L173.947 150.711L174.62 152.028C177.145 157.235 177.885 163.131 176.725 168.801C175.566 174.472 172.571 179.602 168.205 183.397C161.79 189.145 156.691 193.449 152.584 196.914C149.312 199.664 146.746 201.864 145.078 203.431C144.24 204.264 143.116 204.745 141.935 204.776ZM113.836 157.55C112.708 161.265 112.684 165.228 113.765 168.956C114.847 172.684 116.989 176.017 119.93 178.549L122.207 180.444C130.29 187.121 137.988 193.449 142.029 197.524C143.677 196.047 145.749 194.312 148.381 192.065C152.455 188.631 157.521 184.327 163.872 178.645C167.011 175.966 169.231 172.369 170.221 168.36C171.211 164.352 170.92 160.133 169.389 156.299L141.996 149.718L113.836 157.55Z" fill="#1A1A1A"/>
<path d="M165.444 139.312C158.608 133.457 150.018 130.034 141.932 135.718C133.85 130.034 125.254 133.471 118.421 139.315C112.103 144.741 103.569 147.15 90.9979 146.347C90.9218 146.343 90.8463 146.363 90.7821 146.404C90.7179 146.446 90.6683 146.506 90.6401 146.577C90.6119 146.648 90.6066 146.726 90.625 146.8C90.6434 146.874 90.6844 146.941 90.7425 146.99C119.001 169.177 141.935 148.019 141.935 148.019C141.935 148.019 164.869 169.21 193.128 146.99C193.184 146.94 193.224 146.873 193.241 146.8C193.259 146.726 193.253 146.649 193.225 146.579C193.197 146.509 193.148 146.449 193.085 146.407C193.022 146.366 192.948 146.344 192.872 146.347C180.295 147.147 171.762 144.708 165.444 139.312Z" fill="white"/>
<path d="M166.73 160.281C157.818 160.161 149.16 157.291 141.938 152.061C135.202 156.909 113.713 169.111 88.7566 149.493C88.1643 149.025 87.7361 148.381 87.534 147.654C87.332 146.926 87.3667 146.154 87.633 145.447C87.8935 144.724 88.3839 144.106 89.029 143.688C89.6741 143.27 90.4384 143.076 91.2045 143.135C102.526 143.874 110.515 141.85 116.353 136.873C125.174 129.297 134.188 127.594 141.949 131.923C149.71 127.589 158.724 129.291 167.546 136.873C173.384 141.881 181.337 143.872 192.694 143.135C193.457 143.082 194.217 143.277 194.862 143.689C195.506 144.102 196.002 144.711 196.274 145.426C196.547 146.141 196.584 146.926 196.378 147.663C196.172 148.401 195.735 149.053 195.131 149.523C187.174 156.258 177.148 160.056 166.73 160.281ZM141.966 143.649L144.147 145.64C149.53 150.198 156.169 153.011 163.186 153.705C170.202 154.399 177.263 152.941 183.433 149.526C176.082 149.169 169.043 146.443 163.367 141.754C156.054 135.492 149.48 134.329 143.801 138.35L141.941 139.667L140.081 138.35C134.372 134.337 127.795 135.492 120.515 141.754C114.844 146.447 107.805 149.173 100.455 149.523C106.628 152.95 113.698 154.415 120.723 153.722C127.749 153.029 134.397 150.212 139.785 145.645L141.966 143.649Z" fill="#1A1A1A"/>
<path d="M186.199 62.6421H108.578C107.778 62.6425 106.985 62.485 106.246 62.1786C105.506 61.8722 104.834 61.4229 104.268 60.8564C103.702 60.29 103.254 59.6174 102.947 58.8772C102.641 58.1371 102.484 57.3437 102.484 56.5426V52.6926C102.484 51.8915 102.641 51.0982 102.947 50.358C103.254 49.6178 103.702 48.9453 104.268 48.3788C104.834 47.8124 105.506 47.3631 106.246 47.0567C106.985 46.7503 107.778 46.5928 108.578 46.5931H186.199C187 46.5928 187.792 46.7503 188.532 47.0567C189.271 47.3631 189.943 47.8124 190.509 48.3788C191.075 48.9453 191.524 49.6178 191.83 50.358C192.136 51.0982 192.293 51.8915 192.293 52.6926V56.5426C192.288 58.1588 191.644 59.7072 190.502 60.85C189.361 61.9928 187.814 62.6371 186.199 62.6421Z" fill="white"/>
<path d="M186.2 65.8514H108.576C106.11 65.8499 103.746 64.8695 102.003 63.1254C100.259 61.3812 99.2771 59.0158 99.2734 56.5481V52.6981C99.2749 50.229 100.255 47.8614 102 46.1155C103.744 44.3696 106.109 43.3881 108.576 43.3866H186.2C188.666 43.3888 191.031 44.3706 192.774 46.1165C194.518 47.8623 195.498 50.2295 195.499 52.6981V56.5481C195.487 59.0126 194.503 61.3726 192.762 63.1148C191.02 64.857 188.662 65.8405 186.2 65.8514ZM108.543 49.7968C108.162 49.7954 107.785 49.8695 107.434 50.015C107.082 50.1604 106.763 50.3743 106.495 50.6442C106.227 50.9141 106.014 51.2346 105.871 51.5872C105.727 51.9397 105.655 52.3173 105.658 52.6981V56.5481C105.656 56.9282 105.73 57.3048 105.874 57.6563C106.019 58.0078 106.231 58.3271 106.5 58.5959C106.768 58.8646 107.087 59.0774 107.438 59.2221C107.79 59.3667 108.166 59.4402 108.545 59.4383H186.167C186.547 59.4402 186.923 59.3667 187.274 59.2221C187.625 59.0774 187.944 58.8646 188.213 58.5959C188.481 58.3271 188.694 58.0078 188.838 57.6563C188.983 57.3048 189.056 56.9282 189.054 56.5481V52.6981C189.056 52.318 188.983 51.9414 188.838 51.5899C188.694 51.2384 188.481 50.9191 188.213 50.6503C187.944 50.3816 187.625 50.1687 187.274 50.0241C186.923 49.8795 186.547 49.806 186.167 49.8078L108.543 49.7968Z" fill="#1A1A1A"/>
<path d="M188.54 31.9136H188.315L166.727 30.3406C165.892 30.2617 165.122 29.8582 164.581 29.2167C164.041 28.5753 163.773 27.7472 163.836 26.9104C163.899 26.0735 164.288 25.2949 164.918 24.7417C165.549 24.1886 166.371 23.9052 167.208 23.9523L188.796 25.5253C189.624 25.5845 190.396 25.964 190.95 26.5833C191.503 27.2026 191.794 28.0132 191.761 28.8434C191.727 29.6736 191.373 30.4583 190.772 31.0314C190.171 31.6044 189.37 31.9208 188.54 31.9136Z" fill="#1A1A1A"/>
<path d="M52.9234 219.431H31.0166V195.341H52.9234V219.431ZM37.4177 213.001H46.4838V201.762H37.4177V213.001Z" fill="#1A1A1A"/>
<path d="M29.0616 178.293L3.27291 202.361C3.24304 202.38 3.2196 202.408 3.20565 202.441C3.19169 202.473 3.18788 202.509 3.19471 202.544C3.20153 202.579 3.21868 202.611 3.24391 202.635C3.26913 202.66 3.30126 202.677 3.3361 202.683L13.6466 204.589C32.3616 208.024 51.5447 208.024 70.2597 204.589L80.5565 202.694C80.5913 202.688 80.6234 202.671 80.6487 202.646C80.6739 202.622 80.691 202.59 80.6979 202.555C80.7047 202.52 80.7009 202.484 80.6869 202.452C80.673 202.419 80.6495 202.391 80.6197 202.372L53.9326 178.068C53.5672 177.812 29.4792 178.035 29.0616 178.293Z" fill="#0EB267"/>
<path d="M41.954 210.367C32.2712 210.371 22.6082 209.49 13.0856 207.735L0.60749 205.455L0.0580355 203.142C-0.0515222 202.555 -0.00542339 201.95 0.191734 201.386C0.388892 200.823 0.730218 200.321 1.18167 199.93L27.322 175.56C28.7973 174.628 54.2013 174.405 55.6436 175.334L56.0914 175.686L82.5861 199.798L84.1905 200.827L83.8691 203.14C83.7493 203.806 83.4309 204.42 82.9557 204.902C82.4806 205.383 81.8709 205.709 81.207 205.837L70.847 207.732C61.3159 209.487 51.6449 210.369 41.954 210.367ZM9.84657 200.607L14.2422 201.41C32.5752 204.781 51.3684 204.781 69.7014 201.41L73.9679 200.64L52.6051 181.184C48.66 181.087 34.355 181.217 30.4099 181.376L9.84657 200.607Z" fill="#1A1A1A"/>
<path d="M32.3935 161.243L8.53072 182.061C8.50085 182.08 8.47741 182.108 8.46346 182.14C8.44951 182.173 8.44569 182.209 8.45252 182.243C8.45935 182.278 8.4765 182.31 8.50172 182.335C8.52695 182.36 8.55908 182.376 8.59391 182.383L13.6626 183.315C32.3776 186.75 51.5607 186.75 70.2757 183.315L75.3444 182.383C75.3793 182.376 75.4114 182.36 75.4366 182.335C75.4618 182.31 75.479 182.278 75.4858 182.243C75.4926 182.209 75.4888 182.173 75.4749 182.14C75.4609 182.108 75.4375 182.08 75.4076 182.061L51.8003 161.243C51.4157 160.988 32.7782 160.988 32.3935 161.243Z" fill="#0EB267"/>
<path d="M41.9647 189.082C32.2819 189.086 22.619 188.206 13.0963 186.45L5.87924 185.133L5.32979 182.82C5.22431 182.223 5.27854 181.608 5.48698 181.039C5.69542 180.469 6.05065 179.965 6.51661 179.578L30.6926 158.549C32.2009 157.616 52.0224 157.616 53.5307 158.549L53.9483 158.837L77.3303 179.462L78.9787 180.491L78.6573 182.834C78.5341 183.509 78.2066 184.13 77.7191 184.612C77.2317 185.095 76.6078 185.416 75.932 185.532L70.8962 186.464C61.3515 188.212 51.6678 189.088 41.9647 189.082ZM15.3628 180.348C32.966 183.446 50.9743 183.446 68.5775 180.348L50.4455 164.398C47.2697 164.302 36.8465 164.269 33.6707 164.398L15.3628 180.348Z" fill="#1A1A1A"/>
<path d="M41.314 138.834L13.6655 161.598C13.6356 161.617 13.6122 161.645 13.5982 161.677C13.5843 161.71 13.5805 161.746 13.5873 161.781C13.5941 161.815 13.6113 161.847 13.6365 161.872C13.6617 161.897 13.6938 161.914 13.7287 161.92C32.4003 165.355 51.541 165.355 70.2126 161.92C70.2474 161.914 70.2796 161.897 70.3048 161.872C70.33 161.847 70.3472 161.815 70.354 161.781C70.3608 161.746 70.357 161.71 70.3431 161.677C70.3291 161.645 70.3057 161.617 70.2758 161.598L42.63 138.834C42.4336 138.708 42.2053 138.641 41.972 138.641C41.7388 138.641 41.5104 138.708 41.314 138.834Z" fill="#0EB267"/>
<path d="M41.9536 167.695C32.2918 167.698 22.65 166.817 13.1484 165.063L11.0001 164.678L10.4506 162.365C10.3324 161.753 10.3868 161.121 10.6075 160.538C10.8283 159.955 11.2068 159.445 11.7006 159.065L39.6376 136.141C40.3396 135.686 41.1582 135.443 41.9948 135.443C42.8314 135.443 43.65 135.686 44.352 136.141L44.6734 136.367L72.1956 159.002L73.8632 160.102L73.5417 162.415C73.4156 163.075 73.0944 163.682 72.6198 164.157C72.1451 164.632 71.5389 164.953 70.8796 165.08C61.3364 166.825 51.6548 167.7 41.9536 167.695ZM20.8793 159.83C34.8819 161.789 49.0885 161.789 63.0911 159.83L41.9866 142.461L20.8793 159.83Z" fill="#1A1A1A"/>
<path d="M42.2429 120.054L45.9957 127.63C46.0155 127.681 46.0511 127.723 46.0971 127.752C46.1431 127.781 46.1971 127.794 46.2512 127.79L54.6221 129.011C54.6823 129.018 54.7393 129.042 54.7866 129.08C54.8338 129.118 54.8695 129.168 54.8895 129.226C54.9096 129.283 54.9131 129.345 54.8999 129.404C54.8866 129.463 54.857 129.517 54.8144 129.561L48.7539 135.454C48.6892 135.536 48.6552 135.638 48.6578 135.743L50.1001 144.092C50.1059 144.152 50.096 144.212 50.0715 144.267C50.0469 144.322 50.0084 144.369 49.9599 144.405C49.9114 144.44 49.8545 144.463 49.7948 144.469C49.7351 144.476 49.6746 144.467 49.6193 144.444L42.1468 140.495C42.1051 140.464 42.0545 140.447 42.0025 140.447C41.9506 140.447 41.9 140.464 41.8583 140.495L34.3939 144.452C34.3389 144.479 34.2774 144.491 34.2161 144.486C34.1548 144.481 34.0961 144.459 34.0465 144.422C33.9968 144.386 33.9581 144.337 33.9346 144.28C33.9111 144.223 33.9037 144.161 33.9132 144.1L35.3555 135.751C35.3644 135.696 35.3592 135.64 35.3404 135.588C35.3217 135.536 35.29 135.49 35.2484 135.454L29.1741 129.555C29.1281 129.513 29.0954 129.459 29.0801 129.399C29.0647 129.338 29.0675 129.275 29.088 129.216C29.1086 129.158 29.1459 129.106 29.1954 129.069C29.245 129.031 29.3044 129.009 29.3664 129.005L37.7374 127.784C37.8335 127.784 37.9297 127.688 37.9929 127.625L41.6962 120.054C41.7214 120.003 41.7604 119.96 41.8087 119.93C41.857 119.9 41.9127 119.884 41.9696 119.884C42.0264 119.884 42.0821 119.9 42.1304 119.93C42.1788 119.96 42.2177 120.003 42.2429 120.054Z" fill="#EB424C"/>
<path d="M34.19 147.697C33.4512 147.7 32.7312 147.464 32.1378 147.023C31.6059 146.639 31.1919 146.114 30.9423 145.508C30.6928 144.901 30.6178 144.236 30.7257 143.589L31.9125 136.749L26.94 131.901C26.4667 131.441 26.1317 130.857 25.973 130.216C25.8142 129.575 25.8379 128.902 26.0415 128.274C26.2451 127.645 26.6204 127.087 27.1249 126.661C27.6294 126.235 28.243 125.959 28.896 125.865L35.7642 124.869L38.8439 118.641C39.1337 118.047 39.586 117.547 40.1482 117.201C40.7105 116.854 41.3595 116.674 42.0197 116.683C42.6786 116.681 43.3248 116.864 43.8858 117.209C44.4468 117.555 44.9004 118.051 45.1956 118.641L48.2753 124.869L55.1435 125.865C55.7965 125.959 56.4101 126.235 56.9146 126.661C57.4191 127.087 57.7944 127.645 57.998 128.274C58.2016 128.902 58.2253 129.575 58.0665 130.216C57.9077 130.857 57.5728 131.441 57.0995 131.901L52.1544 136.749L53.3413 143.589C53.4524 144.241 53.3791 144.911 53.1296 145.524C52.88 146.137 52.4642 146.668 51.9292 147.056C51.3975 147.448 50.7652 147.68 50.1064 147.726C49.4476 147.771 48.7896 147.628 48.2094 147.312L42.0829 144.1L35.9565 147.312C35.3988 147.556 34.7984 147.686 34.19 147.697ZM32.8768 141.595C32.8438 141.595 32.8438 141.628 32.8768 141.595V141.595ZM41.8247 136.876L43.6214 137.679L45.8989 138.9L45.1599 134.629L48.3357 131.42L44.0692 130.809L43.0747 129.107L41.9208 126.794L39.9977 130.68L35.5389 131.42L38.6186 134.445L38.4263 136.403L37.9785 138.938L41.8247 136.876Z" fill="#1A1A1A"/>
<path d="M47.9539 169.623C49.2227 169.623 50.4629 169.246 51.5179 168.54C52.5728 167.835 53.395 166.832 53.8805 165.659C54.3661 164.485 54.4931 163.194 54.2456 161.949C53.9981 160.703 53.3871 159.559 52.49 158.661C51.5928 157.763 50.4498 157.151 49.2054 156.904C47.9611 156.656 46.6712 156.783 45.4991 157.269C44.3269 157.755 43.325 158.578 42.6202 159.634C41.9153 160.69 41.5391 161.931 41.5391 163.201C41.5391 164.904 42.2149 166.538 43.4179 167.742C44.621 168.946 46.2526 169.623 47.9539 169.623Z" fill="#EB424C"/>
<path d="M47.9514 172.835C46.0496 172.835 44.1906 172.27 42.6093 171.213C41.0281 170.155 39.7956 168.652 39.0679 166.893C38.3401 165.134 38.1497 163.199 38.5207 161.332C38.8917 159.465 39.8075 157.75 41.1522 156.404C42.497 155.058 44.2103 154.141 46.0755 153.77C47.9407 153.398 49.8741 153.589 51.6311 154.317C53.3881 155.046 54.8898 156.28 55.9464 157.862C57.0029 159.445 57.5669 161.306 57.5669 163.21C57.5575 165.76 56.5414 168.202 54.7402 170.005C52.939 171.808 50.4987 172.825 47.9514 172.835ZM47.9514 159.992C47.3168 159.992 46.6964 160.181 46.1687 160.534C45.641 160.886 45.2297 161.388 44.9868 161.975C44.744 162.562 44.6804 163.208 44.8042 163.831C44.9281 164.454 45.2337 165.026 45.6824 165.475C46.1312 165.925 46.7029 166.231 47.3254 166.355C47.9478 166.478 48.593 166.415 49.1794 166.172C49.7657 165.929 50.2668 165.517 50.6194 164.989C50.972 164.461 51.1602 163.84 51.1602 163.204C51.158 162.353 50.8193 161.537 50.218 160.935C49.6167 160.334 48.8018 159.994 47.9514 159.992Z" fill="#1A1A1A"/>
<path d="M29.0614 192.291C30.3301 192.291 31.5704 191.914 32.6253 191.209C33.6802 190.503 34.5024 189.5 34.9879 188.327C35.4735 187.153 35.6005 185.862 35.353 184.617C35.1055 183.371 34.4945 182.227 33.5974 181.329C32.7002 180.431 31.5572 179.819 30.3128 179.572C29.0685 179.324 27.7787 179.451 26.6065 179.937C25.4343 180.423 24.4325 181.246 23.7276 182.302C23.0227 183.358 22.6465 184.599 22.6465 185.869C22.6465 187.573 23.3223 189.206 24.5254 190.41C25.7284 191.614 27.36 192.291 29.0614 192.291Z" fill="#EB4242"/>
<path d="M29.0588 195.514C27.1571 195.514 25.298 194.949 23.7168 193.892C22.1355 192.834 20.9031 191.331 20.1753 189.572C19.4475 187.814 19.2571 185.878 19.6281 184.011C19.9991 182.144 20.9149 180.429 22.2597 179.083C23.6044 177.737 25.3177 176.82 27.1829 176.449C29.0482 176.077 30.9815 176.268 32.7385 176.997C34.4955 177.725 35.9972 178.959 37.0538 180.542C38.1103 182.124 38.6743 183.985 38.6743 185.889C38.6649 188.439 37.6488 190.881 35.8476 192.684C34.0464 194.487 31.6061 195.504 29.0588 195.514ZM29.0588 182.671C28.4242 182.671 27.8038 182.86 27.2761 183.213C26.7484 183.566 26.3371 184.067 26.0943 184.654C25.8514 185.241 25.7878 185.887 25.9117 186.51C26.0355 187.133 26.3411 187.705 26.7898 188.155C27.2386 188.604 27.8104 188.91 28.4328 189.034C29.0553 189.158 29.7004 189.094 30.2868 188.851C30.8731 188.608 31.3743 188.196 31.7269 187.668C32.0794 187.14 32.2676 186.519 32.2676 185.883C32.2691 185.03 31.9319 184.211 31.3302 183.606C30.7285 183.001 29.9116 182.66 29.0588 182.658V182.671Z" fill="#1A1A1A"/>
<path d="M197.265 35.3182C201.694 35.3182 205.285 31.7242 205.285 27.2909C205.285 22.8576 201.694 19.2637 197.265 19.2637C192.836 19.2637 189.246 22.8576 189.246 27.2909C189.246 31.7242 192.836 35.3182 197.265 35.3182Z" fill="white"/>
<path d="M197.106 37.1167C194.886 37.1167 192.716 36.4577 190.87 35.223C189.024 33.9883 187.585 32.2334 186.735 30.1802C185.886 28.127 185.663 25.8677 186.097 23.688C186.53 21.5084 187.599 19.5062 189.169 17.9348C190.739 16.3633 192.739 15.2932 194.916 14.8596C197.094 14.426 199.351 14.6485 201.402 15.499C203.453 16.3495 205.206 17.7897 206.44 19.6375C207.673 21.4854 208.332 23.6578 208.332 25.8802C208.328 28.8592 207.144 31.7151 205.04 33.8216C202.935 35.928 200.082 37.113 197.106 37.1167ZM197.106 21.0622C196.155 21.0622 195.225 21.3446 194.434 21.8737C193.643 22.4028 193.026 23.1548 192.662 24.0347C192.298 24.9146 192.203 25.8828 192.388 26.8168C192.574 27.7509 193.032 28.6089 193.705 29.2823C194.377 29.9558 195.235 30.4144 196.168 30.6002C197.101 30.786 198.068 30.6906 198.947 30.3261C199.826 29.9617 200.577 29.3445 201.106 28.5526C201.635 27.7608 201.917 26.8298 201.917 25.8774C201.915 24.6023 201.407 23.3802 200.505 22.4798C199.602 21.5794 198.38 21.0745 197.106 21.0759V21.0622Z" fill="#1A1A1A"/>
<path d="M109.765 49.7996C109.111 49.7963 108.473 49.595 107.935 49.2221C107.589 48.9825 107.293 48.6768 107.065 48.3224C106.837 47.9681 106.682 47.5722 106.607 47.1574C106.533 46.7427 106.541 46.3172 106.631 45.9056C106.721 45.494 106.892 45.1043 107.133 44.7589L130.034 11.5251C138.023 -0.0633891 148.413 -2.95364 160.897 2.98636L192.647 17.3689C193.031 17.5417 193.376 17.7884 193.664 18.0948C193.952 18.4013 194.177 18.7616 194.326 19.1551C194.475 19.5486 194.545 19.9677 194.533 20.3883C194.52 20.8089 194.424 21.2229 194.252 21.6066C194.079 21.9903 193.833 22.3362 193.526 22.6246C193.22 22.913 192.86 23.1381 192.467 23.2873C192.074 23.4364 191.655 23.5066 191.235 23.4938C190.815 23.4809 190.402 23.3854 190.018 23.2126L158.196 8.79711C148.543 4.20461 141.485 6.19561 135.295 15.1551L112.394 48.3971C112.108 48.8324 111.717 49.189 111.258 49.434C110.799 49.679 110.285 49.8048 109.765 49.7996Z" fill="#1A1A1A"/>
<path d="M180.595 48.6556C180.097 48.6557 179.606 48.5397 179.161 48.3168C178.715 48.0938 178.328 47.7701 178.029 47.3713L162.142 26.0726C161.871 25.7368 161.67 25.3498 161.551 24.9346C161.433 24.5194 161.399 24.0845 161.452 23.656C161.506 23.2275 161.645 22.8142 161.861 22.4407C162.077 22.0671 162.367 21.7412 162.712 21.4822C163.057 21.2232 163.451 21.0366 163.87 20.9334C164.289 20.8303 164.724 20.8127 165.15 20.8819C165.576 20.951 165.983 21.1053 166.348 21.3357C166.713 21.566 167.028 21.8677 167.274 22.2226L183.15 43.5103C183.658 44.191 183.876 45.0448 183.758 45.8859C183.64 46.727 183.194 47.4872 182.518 48.0011C181.969 48.4299 181.292 48.6605 180.595 48.6556Z" fill="#1A1A1A"/>
<path d="M173.367 65.8514H108.576C106.11 65.8499 103.746 64.8695 102.003 63.1254C100.259 61.3812 99.2771 59.0158 99.2734 56.5481V52.6981C99.2749 50.229 100.255 47.8614 102 46.1155C103.744 44.3696 106.109 43.3881 108.576 43.3866H173.367C175.834 43.3881 178.199 44.3696 179.944 46.1155C181.688 47.8614 182.668 50.229 182.67 52.6981V56.5481C182.657 59.0131 181.673 61.3735 179.931 63.1158C178.189 64.8581 175.83 65.8412 173.367 65.8514ZM108.532 49.7968C108.152 49.7968 107.777 49.872 107.426 50.0182C107.076 50.1643 106.758 50.3784 106.491 50.6481C106.224 50.9178 106.013 51.2379 105.87 51.5897C105.727 51.9416 105.655 52.3183 105.658 52.6981V56.5481C105.656 56.9282 105.73 57.3048 105.874 57.6563C106.019 58.0078 106.231 58.3271 106.5 58.5959C106.768 58.8646 107.087 59.0774 107.438 59.2221C107.79 59.3667 108.166 59.4402 108.545 59.4383H173.337C173.717 59.4402 174.093 59.3667 174.444 59.2221C174.795 59.0774 175.114 58.8646 175.383 58.5959C175.651 58.3271 175.864 58.0078 176.009 57.6563C176.153 57.3048 176.226 56.9282 176.225 56.5481V52.6981C176.226 52.318 176.153 51.9414 176.009 51.5899C175.864 51.2384 175.651 50.9191 175.383 50.6503C175.114 50.3816 174.795 50.1687 174.444 50.0241C174.093 49.8795 173.717 49.806 173.337 49.8078L108.532 49.7968Z" fill="#1A1A1A"/>
</svg>
