<svg width="232" height="160" viewBox="0 0 232 160" fill="none" xmlns="http://www.w3.org/2000/svg">
<g clip-path="url(#clip0)">
<path d="M91.374 138.95C90.5253 138.95 89.7114 139.287 89.1113 139.887C88.5112 140.487 88.1738 141.301 88.1738 142.15C88.1738 142.999 88.5112 143.812 89.1113 144.413C89.7114 145.013 90.5253 145.35 91.374 145.35H110.574C111.422 145.35 112.236 145.013 112.836 144.413C113.437 143.812 113.774 142.999 113.774 142.15C113.774 141.301 113.437 140.487 112.836 139.887C112.236 139.287 111.422 138.95 110.574 138.95H91.374Z" fill="#1A1A1A"/>
<path d="M69.4561 153.6C66.468 153.597 63.6031 152.409 61.4902 150.296C59.3774 148.183 58.1892 145.318 58.186 142.33V17.6699C58.1897 14.6821 59.378 11.8178 61.4907 9.70508C63.6035 7.59235 66.4682 6.40361 69.4561 6.3999H130.514C133.502 6.40308 136.367 7.59156 138.48 9.70435C140.593 11.8171 141.782 14.6817 141.786 17.6699V116.024C143.761 114.452 145.908 113.11 148.186 112.024V17.6719C148.188 13.5944 146.774 9.64274 144.186 6.49194C147.008 6.70484 149.647 7.97408 151.574 10.0464C153.502 12.1187 154.577 14.8416 154.586 17.6719V109.736C156.685 109.231 158.829 108.93 160.986 108.838V17.6719C160.986 15.3512 160.529 13.0534 159.641 10.9094C158.753 8.76547 157.451 6.8176 155.81 5.17676C154.169 3.53592 152.221 2.23432 150.077 1.34644C147.933 0.458553 145.635 0.00169058 143.314 0.00195324H69.4561C64.7698 0.00248356 60.2756 1.86433 56.9619 5.17798C53.6483 8.49163 51.7867 12.9857 51.7861 17.6719V142.332C51.7867 147.018 53.6483 151.512 56.9619 154.826C60.2756 158.14 64.7698 160.001 69.4561 160.002H132.348C130.893 158.118 129.883 155.931 129.392 153.602L69.4561 153.6Z" fill="#1A1A1A"/>
<path d="M27.2 121.074C33.193 120.191 38.6416 117.107 42.4827 112.423C46.3239 107.739 48.2819 101.792 47.974 95.7419L45.9256 47.718H2.05989L0.0159431 95.7439C-0.292305 101.794 1.66557 107.743 5.50764 112.427C9.34972 117.111 14.7999 120.195 20.7938 121.076V146.918C20.7911 148.615 20.116 150.241 18.9163 151.441C17.7167 152.64 16.0904 153.315 14.3939 153.318H6.39387V159.718H41.5936V153.318H33.5936C31.897 153.315 30.2708 152.64 29.0711 151.441C27.8715 150.241 27.1963 148.615 27.1937 146.918L27.2 121.074ZM39.7996 54.1179L40.616 73.3181H7.38362L8.20003 54.1179H39.7996ZM6.4178 96.0161L7.11165 79.718H40.888L41.5819 96.0161C41.7048 98.4934 41.3203 100.969 40.4515 103.293C39.5827 105.616 38.2479 107.737 36.5296 109.526C34.9172 111.229 32.9745 112.586 30.8201 113.513C28.6658 114.44 26.3452 114.918 23.9998 114.918C21.6544 114.918 19.3339 114.44 17.1795 113.513C15.0252 112.586 13.0824 111.229 11.47 109.526C9.75213 107.737 8.41772 105.616 7.54866 103.293C6.67959 100.97 6.29399 98.4935 6.41585 96.0161H6.4178Z" fill="#1A1A1A"/>
<path d="M17.6004 92.5179C19.3677 92.5179 20.8004 91.0852 20.8004 89.3179C20.8004 87.5506 19.3677 86.1179 17.6004 86.1179C15.8331 86.1179 14.4004 87.5506 14.4004 89.3179C14.4004 91.0852 15.8331 92.5179 17.6004 92.5179Z" fill="#1A1A1A"/>
<path d="M30.4002 102.118C32.1675 102.118 33.6002 100.685 33.6002 98.918C33.6002 97.1507 32.1675 95.718 30.4002 95.718C28.6329 95.718 27.2002 97.1507 27.2002 98.918C27.2002 100.685 28.6329 102.118 30.4002 102.118Z" fill="#1A1A1A"/>
<path d="M88.6598 84.9977C85.8125 85.0248 82.9667 84.8519 80.1437 84.4799C79.3235 84.3328 78.593 83.8716 78.1076 83.1943C77.6222 82.5169 77.4203 81.6769 77.5446 80.8529C77.6689 80.029 78.1095 79.2859 78.7731 78.7819C79.4367 78.2779 80.2707 78.0524 81.0978 78.1537C81.2978 78.1857 102.026 81.1158 120.362 70.9118C121.105 70.4988 121.98 70.3979 122.798 70.631C123.615 70.8641 124.306 71.4123 124.719 72.1549C125.132 72.8975 125.233 73.7736 125 74.5907C124.767 75.4078 124.218 76.0989 123.476 76.5119C112.762 82.2063 100.792 85.1237 88.6598 84.9977Z" fill="#1A1A1A"/>
<path d="M124.91 38.1179C125.498 39.0813 125.808 40.1893 125.804 41.3181C125.804 43.0155 125.13 44.6433 123.929 45.8435C122.729 47.0437 121.101 47.718 119.404 47.718C117.706 47.718 116.078 47.0437 114.878 45.8435C113.678 44.6433 113.004 43.0155 113.004 41.3181C112.999 40.1895 113.308 39.0815 113.896 38.1179H124.91ZM127.79 31.718H111.014C109.043 33.4276 107.642 35.6985 106.998 38.2266C106.354 40.7547 106.497 43.4192 107.41 45.8633C108.322 48.3074 109.96 50.4143 112.103 51.9019C114.246 53.3894 116.793 54.1865 119.402 54.1865C122.01 54.1865 124.557 53.3894 126.7 51.9019C128.844 50.4143 130.481 48.3074 131.393 45.8633C132.306 43.4192 132.449 40.7547 131.805 38.2266C131.161 35.6985 129.76 33.4276 127.79 31.718Z" fill="#1A1A1A"/>
<path d="M86.5122 38.1179C87.0999 39.0815 87.4088 40.1895 87.4043 41.3181C87.4043 43.0155 86.73 44.6433 85.5298 45.8435C84.3295 47.0437 82.7013 47.718 81.0039 47.718C79.3065 47.718 77.6787 47.0437 76.4785 45.8435C75.2783 44.6433 74.604 43.0155 74.604 41.3181C74.5995 40.1895 74.9083 39.0815 75.4961 38.1179H86.5102H86.5122ZM89.3901 31.718H72.6162C70.6453 33.4275 69.2439 35.6984 68.5996 38.2266C67.9553 40.7547 68.0989 43.4193 69.0112 45.8635C69.9236 48.3078 71.5609 50.4149 73.7041 51.9026C75.8473 53.3903 78.394 54.1875 81.0029 54.1875C83.6119 54.1875 86.1585 53.3903 88.3017 51.9026C90.445 50.4149 92.0828 48.3078 92.9951 45.8635C93.9074 43.4193 94.051 40.7547 93.4067 38.2266C92.7625 35.6984 91.361 33.4275 89.3901 31.718Z" fill="#1A1A1A"/>
<path d="M167.402 114.918H162.378C155.224 114.918 148.362 117.76 143.303 122.819C138.244 127.878 135.402 134.74 135.402 141.894V150.122C135.402 152.668 136.414 155.11 138.214 156.91C140.015 158.711 142.456 159.722 145.002 159.722H221.802C224.348 159.722 226.79 158.711 228.59 156.91C230.391 155.11 231.402 152.668 231.402 150.122V124.522C231.402 121.976 230.391 119.534 228.59 117.734C226.79 115.933 224.348 114.922 221.802 114.922H215.402L167.402 114.918ZM141.802 150.122V141.894C141.809 136.439 143.979 131.209 147.836 127.352C151.693 123.494 156.923 121.324 162.378 121.318H189.754C186.76 123.845 184.353 126.996 182.703 130.55C181.053 134.104 180.2 137.976 180.202 141.894V150.122C180.213 151.214 180.412 152.297 180.789 153.322H145.002C144.582 153.322 144.165 153.239 143.777 153.078C143.388 152.917 143.035 152.681 142.738 152.383C142.441 152.086 142.206 151.732 142.045 151.344C141.884 150.955 141.802 150.538 141.802 150.118V150.122ZM221.802 121.322C222.651 121.322 223.465 121.659 224.065 122.259C224.665 122.859 225.002 123.673 225.002 124.522V150.122C225.002 150.971 224.665 151.785 224.065 152.385C223.465 152.985 222.651 153.322 221.802 153.322H189.802C188.954 153.322 188.14 152.985 187.54 152.385C186.939 151.785 186.603 150.971 186.603 150.122V141.894C186.609 136.439 188.778 131.209 192.636 127.352C196.493 123.494 201.723 121.324 207.178 121.318H221.804L221.802 121.322ZM209.002 114.922H173.802H209.002Z" fill="#1A1A1A"/>
<path d="M150.62 143.184H148.22C147.115 143.184 146.22 144.08 146.22 145.184V147.584C146.22 148.689 147.115 149.584 148.22 149.584H150.62C151.724 149.584 152.62 148.689 152.62 147.584V145.184C152.62 144.08 151.724 143.184 150.62 143.184Z" fill="#1A1A1A"/>
<path d="M160.22 143.184H157.82C156.716 143.184 155.82 144.08 155.82 145.184V147.584C155.82 148.689 156.716 149.584 157.82 149.584H160.22C161.325 149.584 162.22 148.689 162.22 147.584V145.184C162.22 144.08 161.325 143.184 160.22 143.184Z" fill="#1A1A1A"/>
<path d="M214 34H172V118H214V34Z" fill="#20961A"/>
<path d="M201.002 81.1221L195.474 80.322L193.002 75.322L190.53 80.322L185.002 81.1221L189.002 85.02L188.056 90.5259L193.002 87.926L197.946 90.5259L197.002 85.02L201.002 81.1221Z" fill="#FFDB05"/>
<path d="M201.002 100.324L195.474 99.5239L193.002 94.5239L190.53 99.5239L185.002 100.324L189.002 104.224L188.056 109.73L193.002 107.13L197.946 109.73L197.002 104.224L201.002 100.324Z" fill="#FFDB05"/>
<path d="M201.002 61.9241L195.474 61.124L193.002 56.124L190.53 61.124L185.002 61.9241L189.002 65.824L188.056 71.3301L193.002 68.73L197.946 71.3301L197.002 65.824L201.002 61.9241Z" fill="#FFDB05"/>
<path d="M208.112 36.5178L210.602 39.0078V114.918H175.402V39.0078L177.892 36.5178H208.112ZM210.762 30.1179H175.242L169.002 36.3579V121.318H217.002V36.3579L210.762 30.1179Z" fill="#1A1A1A"/>
<path d="M193.002 41.3179C192.369 41.3179 191.75 41.5056 191.224 41.8572C190.698 42.2088 190.288 42.7085 190.045 43.2932C189.803 43.8779 189.74 44.5214 189.863 45.1421C189.987 45.7628 190.292 46.333 190.739 46.7805C191.187 47.228 191.757 47.533 192.377 47.6565C192.998 47.78 193.642 47.7166 194.227 47.4744C194.811 47.2322 195.311 46.8219 195.663 46.2957C196.014 45.7694 196.202 45.1507 196.202 44.5178C196.202 43.6691 195.865 42.8552 195.265 42.2551C194.664 41.655 193.851 41.3179 193.002 41.3179Z" fill="#FFF19D"/>
</g>
<defs>
<clipPath id="clip0">
<rect width="231.402" height="160" fill="white"/>
</clipPath>
</defs>
</svg>
