<svg width="222" height="160" viewBox="0 0 222 160" fill="none" xmlns="http://www.w3.org/2000/svg">
<g clip-path="url(#clip0)">
<path d="M205.394 81.604H221.394V75.2041C221.394 72.2337 220.214 69.3848 218.113 67.2844C216.013 65.184 213.164 64.0042 210.194 64.0042H168.594C165.623 64.0042 162.774 65.184 160.674 67.2844C158.573 69.3848 157.394 72.2337 157.394 75.2041V115.204H152.37C145.215 115.204 138.354 118.046 133.295 123.105C128.236 128.164 125.394 135.025 125.394 142.18V150.404C125.394 152.95 126.405 155.392 128.206 157.192C130.006 158.993 132.448 160.004 134.994 160.004H211.793C214.34 160.004 216.782 158.993 218.582 157.192C220.382 155.392 221.394 152.95 221.394 150.404V124.804C221.394 122.258 220.382 119.816 218.582 118.016C216.782 116.216 214.34 115.204 211.793 115.204H205.394V81.604ZM210.194 70.4041C211.467 70.4041 212.688 70.9099 213.588 71.8101C214.488 72.7102 214.994 73.9311 214.994 75.2041H205.394C205.394 73.9311 205.899 72.7102 206.799 71.8101C207.699 70.9099 208.921 70.4041 210.194 70.4041ZM163.793 91.686V75.2041C163.793 73.9311 164.3 72.7102 165.2 71.8101C166.1 70.9099 167.321 70.4041 168.594 70.4041H200.114C199.385 71.8998 199.002 73.5403 198.994 75.2041V115.204H163.793V91.686ZM137.875 127.656C137.16 128.36 136.496 129.114 135.888 129.912C136.495 129.112 137.16 128.356 137.875 127.65V127.656ZM134.99 153.602C134.141 153.602 133.327 153.265 132.727 152.665C132.127 152.065 131.79 151.251 131.79 150.402V142.172C131.816 140.175 132.125 138.191 132.706 136.28V136.258C132.746 136.13 132.764 135.996 132.806 135.872C132.908 135.554 133.04 135.254 133.158 134.944C133.104 135.092 133.06 135.242 133.008 135.39C133.257 134.675 133.546 133.973 133.874 133.29L133.854 133.332C133.884 133.274 133.902 133.21 133.932 133.154C134 133.02 134.044 132.872 134.11 132.738C134.176 132.604 134.268 132.476 134.34 132.338C134.314 132.386 134.296 132.434 134.27 132.482C135.226 130.702 136.439 129.073 137.87 127.646C139.767 125.731 142.024 124.209 144.512 123.17C146.999 122.131 149.668 121.595 152.364 121.592H179.74C176.745 124.119 174.339 127.27 172.689 130.824C171.039 134.378 170.185 138.25 170.187 142.168V150.404C170.197 151.496 170.396 152.579 170.773 153.604L134.99 153.602ZM132.043 139.222C132.117 138.71 132.244 138.222 132.35 137.718C132.24 138.204 132.115 138.704 132.043 139.216V139.222ZM211.798 121.604C212.647 121.604 213.46 121.941 214.061 122.541C214.661 123.141 214.998 123.955 214.998 124.804V150.404C214.998 151.253 214.661 152.067 214.061 152.667C213.46 153.267 212.647 153.604 211.798 153.604H179.798C178.949 153.604 178.135 153.267 177.535 152.667C176.935 152.067 176.598 151.253 176.598 150.404V142.174C176.604 136.719 178.774 131.489 182.631 127.632C186.489 123.774 191.719 121.605 197.174 121.598H211.8L211.798 121.604Z" fill="#1A1A1A"/>
<path d="M132.812 135.876C132.774 136 132.754 136.132 132.716 136.26C132.806 135.966 132.916 135.68 133.014 135.394C132.96 135.558 132.866 135.708 132.812 135.876Z" fill="#1A1A1A"/>
<path d="M134.118 132.74C134.05 132.874 134.006 133.022 133.94 133.156C133.916 133.2 133.904 133.248 133.882 133.294C134.014 133.026 134.138 132.75 134.282 132.494C134.23 132.572 134.166 132.648 134.118 132.74Z" fill="#1A1A1A"/>
<path d="M138.112 150.398C139.879 150.398 141.312 148.965 141.312 147.198C141.312 145.431 139.879 143.998 138.112 143.998C136.345 143.998 134.912 145.431 134.912 147.198C134.912 148.965 136.345 150.398 138.112 150.398Z" fill="#1A1A1A"/>
<path d="M147.712 150.398C149.479 150.398 150.912 148.965 150.912 147.198C150.912 145.431 149.479 143.998 147.712 143.998C145.944 143.998 144.512 145.431 144.512 147.198C144.512 148.965 145.944 150.398 147.712 150.398Z" fill="#1A1A1A"/>
<path d="M81.2998 138.95C80.4511 138.95 79.6372 139.287 79.0371 139.887C78.437 140.487 78.0996 141.301 78.0996 142.15C78.0996 142.999 78.437 143.813 79.0371 144.413C79.6372 145.013 80.4511 145.35 81.2998 145.35H100.5C101.349 145.35 102.163 145.013 102.763 144.413C103.363 143.813 103.7 142.999 103.7 142.15C103.7 141.301 103.363 140.487 102.763 139.887C102.163 139.287 101.349 138.95 100.5 138.95H81.2998Z" fill="#1A1A1A"/>
<path d="M130.756 48.8779C130.878 47.7717 131.202 46.6974 131.712 45.708V116.024C133.687 114.453 135.834 113.111 138.112 112.024V17.6741C138.114 13.5966 136.7 9.6447 134.112 6.4939C136.934 6.7068 139.572 7.97604 141.5 10.0483C143.428 12.1206 144.503 14.8438 144.512 17.6741V109.736C146.611 109.231 148.754 108.93 150.912 108.838V17.6741C150.912 12.9877 149.05 8.49321 145.736 5.17944C142.423 1.86568 137.928 0.00390625 133.242 0.00390625H59.3838C54.6974 0.00390625 50.2029 1.86568 46.8892 5.17944C43.5754 8.49321 41.7139 12.9877 41.7139 17.6741V142.334C41.7149 147.02 43.577 151.513 46.8906 154.826C50.2043 158.139 54.6981 160 59.3838 160H122.276C120.821 158.117 119.811 155.929 119.32 153.6H59.3838C56.3965 153.597 53.5322 152.409 51.4194 150.297C49.3067 148.185 48.118 145.321 48.1138 142.334V44.4861C48.7299 45.0458 49.2268 45.7238 49.5752 46.4797C49.9236 47.2357 50.1162 48.054 50.1416 48.886C51.5616 58.006 54.8296 66.9561 69.0576 66.9561C80.3956 66.9561 84.1819 58.5221 86.6899 50.7361C86.8776 49.8856 87.3481 49.124 88.0249 48.5759C88.7018 48.0278 89.5446 47.7257 90.4155 47.719C91.2864 47.7123 92.1341 48.0013 92.8193 48.5388C93.5046 49.0764 93.9867 49.8305 94.1875 50.678C96.7035 58.478 100.466 66.9561 111.828 66.9561C126.068 66.9521 129.334 58.0059 130.756 48.8779ZM80.9219 35.1819C76.8278 33.8828 72.5483 33.2647 68.2539 33.3521C61.4603 33.4893 54.7039 34.3944 48.1138 36.05V17.6699C48.1169 14.6819 49.3051 11.8172 51.418 9.70435C53.5308 7.5915 56.3958 6.40308 59.3838 6.3999H120.436C123.423 6.40361 126.288 7.59235 128.401 9.70508C130.514 11.8178 131.702 14.6821 131.706 17.6699V35.7981C125.457 34.2928 119.064 33.4726 112.638 33.3521C108.341 33.2644 104.059 33.8824 99.9619 35.1819C91.4479 38.2739 89.5499 38.3121 80.9219 35.1841V35.1819Z" fill="#1A1A1A"/>
<path d="M20.2339 119.11L19.1997 118.4L18.084 119.152C16.8302 119.997 15.4713 120.675 14.042 121.168L12.7998 121.6V126.918C12.7994 128.275 13.0668 129.619 13.5864 130.873C14.106 132.126 14.8678 133.265 15.8281 134.224L19.2021 137.6L22.5737 134.224C23.534 133.265 24.2958 132.126 24.8154 130.873C25.335 129.619 25.6025 128.275 25.6021 126.918V121.604L24.6899 121.306C23.1071 120.791 21.6064 120.051 20.2339 119.11Z" fill="#1A1A1A"/>
<path d="M44.7935 145.338V150.404C44.7935 151.253 44.4566 152.067 43.8564 152.667C43.2563 153.267 42.4424 153.604 41.5938 153.604H37.8057C38.1837 152.579 38.3825 151.497 38.3936 150.404V108.804C38.383 107.711 38.1842 106.629 37.8057 105.604H41.5938C42.285 105.618 42.9519 105.862 43.4897 106.296V99.394C42.8654 99.2695 42.2304 99.2065 41.5938 99.2061H27.1938V86.4041H35.1938C36.0425 86.4041 36.8564 86.0669 37.4565 85.4668C38.0567 84.8667 38.3936 84.0528 38.3936 83.2041C38.3936 82.3554 38.0567 81.5415 37.4565 80.9414C36.8564 80.3413 36.0425 80.0042 35.1938 80.0042H14.1938L5.26562 83.416C4.56777 83.6835 3.9857 84.1868 3.62012 84.8386C3.25453 85.4905 3.12852 86.2499 3.26416 86.9849C3.3998 87.7198 3.78861 88.3841 4.36279 88.8625C4.93697 89.341 5.66034 89.6032 6.40771 89.604C6.79612 89.6079 7.18162 89.5402 7.54541 89.4041L15.3735 86.4041H20.8076V99.2041H9.60742C7.06134 99.2041 4.61969 100.216 2.81934 102.016C1.01899 103.816 0.0078125 106.258 0.0078125 108.804V150.404C0.0078125 152.95 1.01899 155.392 2.81934 157.192C4.61969 158.993 7.06134 160.004 9.60742 160.004H41.6074C43.622 160 45.5838 159.359 47.2129 158.174C48.842 156.989 50.0554 155.319 50.6797 153.404C48.0482 151.274 46.0189 148.494 44.7935 145.338ZM9.59375 153.6C8.74506 153.6 7.93117 153.263 7.33105 152.663C6.73094 152.063 6.39355 151.249 6.39355 150.4V108.8C6.39355 107.951 6.73094 107.137 7.33105 106.537C7.93117 105.937 8.74506 105.6 9.59375 105.6H28.7935C29.6421 105.6 30.456 105.937 31.0562 106.537C31.6563 107.137 31.9937 107.951 31.9937 108.8V150.404C31.9937 151.253 31.6563 152.067 31.0562 152.667C30.456 153.267 29.6421 153.604 28.7935 153.604L9.59375 153.6Z" fill="#1A1A1A"/>
<path d="M127.616 76.5879L136.956 74.8821L150.912 67.9021V60.76L135.348 68.6699L127.306 70.1379C127.102 69.5673 126.738 69.0673 126.258 68.6975C125.778 68.3277 125.201 68.1036 124.598 68.052C124.479 68.0517 124.361 68.0611 124.244 68.0801C117.188 69.1581 111.492 69.78 105.082 70.198C104.86 70.214 104.644 70.22 104.422 70.22C99.9599 70.22 95.3095 67.4199 90.2075 67.4199C84.0415 67.4199 79.4575 70.3999 75.6455 70.3999C75.5175 70.3999 75.3937 70.3999 75.2637 70.3999C69.1843 70.1388 63.1323 69.4337 57.1558 68.29C56.963 68.2501 56.7667 68.23 56.5698 68.23C55.8825 68.2873 55.2239 68.532 54.666 68.9375C54.1081 69.343 53.6723 69.8939 53.4058 70.53L41.7139 68.2419V74.852L52.2378 76.824C51.6584 84.4543 51.6584 92.1177 52.2378 99.748L41.7236 97.6221L41.7778 104.234L52.9775 106.41C52.9995 106.54 53.0156 106.708 53.0356 106.838C53.1201 107.701 53.4152 108.53 53.895 109.252C54.3749 109.974 55.0248 110.568 55.7876 110.98C66.4171 115.669 77.898 118.12 89.5156 118.18C101.907 118.019 114.13 115.286 125.41 110.152C126.324 109.613 127.06 108.819 127.528 107.867C127.996 106.915 128.176 105.847 128.044 104.794L135.656 103.408L150.934 95.7659V88.614L134.05 97.196L127.678 98.3579C127.284 91.1071 127.264 83.8408 127.616 76.5879ZM74.9155 76.7881C75.1582 76.8014 75.4015 76.8081 75.6455 76.8081C78.2025 76.6916 80.7263 76.1788 83.126 75.2881C85.3965 74.4371 87.7854 73.9452 90.2075 73.8301C92.176 73.9695 94.1167 74.3731 95.9775 75.03C98.7 75.9672 101.545 76.5021 104.422 76.6179C104.78 76.6179 105.138 76.606 105.498 76.582C110.898 76.23 115.782 75.7339 121.248 74.9819C121.172 76.2339 121.14 77.544 121.09 78.832C116.115 79.7278 111.096 80.3579 106.054 80.72C103.465 80.7104 100.895 80.2657 98.4536 79.4041C95.9498 78.5539 93.3391 78.0597 90.6978 77.936H90.6416C87.5017 78.0674 84.395 78.6321 81.4097 79.614C79.3043 80.3604 77.0914 80.7582 74.8579 80.792C67.6579 80.114 61.9878 79.3 58.5098 78.74C58.5998 77.498 58.7099 76.282 58.8359 75.116C64.1607 75.9717 69.5286 76.5301 74.9155 76.7881ZM89.4956 111.788C79.1128 111.719 68.8476 109.587 59.2959 105.516C58.4194 98.7713 58.0693 91.9688 58.2495 85.1699C61.8495 85.7399 67.3178 86.502 74.2778 87.158C74.6778 87.196 75.0775 87.2119 75.4775 87.2119C78.0952 87.0821 80.6834 86.5964 83.1699 85.7681C85.5985 84.9557 88.1247 84.4727 90.6816 84.332H90.7119C92.7499 84.474 94.7603 84.8829 96.6919 85.5481C99.8469 86.6645 103.18 87.1906 106.526 87.1001C111.498 86.7381 116.184 86.178 120.96 85.366C120.93 91.414 121.136 97.82 121.636 104.802C111.507 109.287 100.572 111.664 89.4956 111.788Z" fill="#13A3E2"/>
</g>
<defs>
<clipPath id="clip0">
<rect width="221.394" height="160" fill="white"/>
</clipPath>
</defs>
</svg>
