<svg width="248" height="207" viewBox="0 0 248 207" fill="none" xmlns="http://www.w3.org/2000/svg">
<g clip-path="url(#clip0)">
<path d="M12.3027 122.663C12.3027 122.663 15.1005 125.401 23.8125 123.698C30.912 121.998 37.8584 119.712 44.58 116.862L43.8041 65.2542L47.2177 55.3417L55.4149 51.3025H129.576L132.612 21.6758L120.658 20.9926L108.188 24.069L93.3299 30.5611L78.1294 32.7838L61.0627 31.2468L44.5977 36.5305L28.4616 43.721L13.0704 44.5751L12.3027 122.663Z" fill="#EE3F3A"/>
<path d="M22.735 127.882C19.2229 127.83 15.7269 127.397 12.3086 126.588L13.6868 120.378C26.288 123.181 30.7355 120.213 34.3041 117.83C36.8454 116.175 39.5769 114.833 42.4394 113.832L44.5833 119.812C42.2086 120.643 39.9404 121.752 37.8262 123.116C33.4484 126.306 28.1498 127.98 22.735 127.882Z" fill="#191000"/>
<path d="M132.603 51.2921L126.27 50.7748C127.219 39.0223 128.484 29.4408 129.19 24.1572C120.872 23.1488 112.453 24.8889 105.216 29.1123C95.6615 34.296 84.7263 36.3598 73.9416 35.0144C62.269 33.2303 50.3373 35.4964 40.1301 41.4364C31.7579 46.2557 22.0463 48.2191 12.4609 47.0306L13.5083 40.7611C21.619 41.6632 29.8076 39.9828 36.9085 35.9589C48.3172 29.296 61.6609 26.7393 74.7225 28.7137C84.0976 29.8859 93.6051 28.1242 101.939 23.6708C111.401 18.1402 122.552 16.248 133.307 18.3482L136.264 18.8811L135.52 24.7289C134.837 29.8909 133.557 39.5009 132.603 51.2921Z" fill="#191000"/>
<path d="M25.4086 200.64H15.8794V36.5203H9.5257V200.64H-0.00292969V206.995H25.4061L25.4086 200.64Z" fill="#191000"/>
<path d="M203.041 129.003H218.921V122.648C218.921 119.697 217.75 116.867 215.665 114.78C213.58 112.694 210.751 111.521 207.802 111.521H166.507C163.558 111.521 160.73 112.694 158.645 114.78C156.559 116.867 155.388 119.697 155.388 122.648V162.371H150.403C143.301 162.371 136.491 165.194 131.47 170.218C126.448 175.242 123.628 182.057 123.628 189.162V197.336C123.628 198.587 123.874 199.827 124.353 200.983C124.832 202.139 125.534 203.189 126.419 204.074C127.304 204.959 128.354 205.66 129.509 206.139C130.665 206.617 131.903 206.864 133.154 206.863H209.384C211.91 206.863 214.331 205.859 216.117 204.073C217.902 202.286 218.906 199.863 218.906 197.336V171.904C218.906 169.377 217.903 166.953 216.117 165.166C214.332 163.379 211.91 162.375 209.384 162.374H203.028V128.995L203.041 129.003ZM207.805 117.877C209.068 117.878 210.278 118.38 211.171 119.274C212.064 120.167 212.566 121.379 212.568 122.642H203.039C203.042 121.379 203.545 120.168 204.438 119.275C205.331 118.383 206.542 117.88 207.805 117.879V117.877ZM161.752 139.014V122.645C161.754 121.382 162.256 120.171 163.149 119.277C164.042 118.384 165.253 117.881 166.515 117.879H197.805C197.081 119.364 196.701 120.993 196.693 122.645V162.368H161.757L161.752 139.014ZM136.027 174.739C135.317 175.437 134.659 176.185 134.057 176.977C134.66 176.186 135.318 175.439 136.027 174.742V174.739ZM133.167 200.503C132.326 200.502 131.52 200.168 130.925 199.573C130.331 198.979 129.996 198.172 129.994 197.331V189.157C130.022 187.174 130.329 185.204 130.907 183.307V183.283C130.946 183.156 130.964 183.024 131.005 182.895C131.108 182.579 131.238 182.282 131.354 181.974C131.3 182.121 131.251 182.269 131.202 182.417C131.451 181.706 131.739 181.01 132.066 180.331L132.045 180.375C132.073 180.315 132.097 180.251 132.122 180.194C132.19 180.059 132.234 179.914 132.301 179.78C132.368 179.645 132.453 179.521 132.526 179.387C132.5 179.433 132.482 179.482 132.456 179.529C133.406 177.762 134.61 176.144 136.03 174.726C137.912 172.824 140.152 171.314 142.621 170.282C145.089 169.25 147.737 168.717 150.413 168.713H177.583C174.61 171.223 172.22 174.353 170.582 177.884C168.944 181.415 168.098 185.262 168.101 189.154V197.328C168.111 198.411 168.308 199.485 168.685 200.501L133.167 200.503ZM130.237 186.223C130.315 185.705 130.434 185.224 130.547 184.73C130.434 185.226 130.305 185.728 130.237 186.225V186.223ZM209.398 168.726C210.238 168.727 211.045 169.062 211.639 169.657C212.233 170.253 212.567 171.06 212.568 171.901V197.333C212.566 198.174 212.232 198.981 211.638 199.575C211.043 200.17 210.238 200.504 209.398 200.506H177.627C176.786 200.505 175.98 200.171 175.385 199.576C174.79 198.981 174.455 198.175 174.454 197.333V189.159C174.458 183.74 176.612 178.543 180.442 174.711C184.272 170.878 189.466 168.723 194.883 168.718H209.403L209.398 168.726Z" fill="#191000"/>
<path d="M131.007 182.908C130.966 183.032 130.948 183.167 130.912 183.289C130.997 182.996 131.106 182.714 131.204 182.427C131.14 182.6 131.057 182.743 131.007 182.908Z" fill="#191000"/>
<path d="M132.303 179.793C132.233 179.927 132.192 180.072 132.125 180.207C132.104 180.251 132.092 180.3 132.068 180.344C132.2 180.085 132.327 179.803 132.459 179.544C132.415 179.63 132.347 179.707 132.303 179.793Z" fill="#191000"/>
<path d="M136.265 197.328C138.019 197.328 139.441 195.906 139.441 194.151C139.441 192.396 138.019 190.973 136.265 190.973C134.512 190.973 133.09 192.396 133.09 194.151C133.09 195.906 134.512 197.328 136.265 197.328Z" fill="#191000"/>
<path d="M145.795 197.328C147.548 197.328 148.97 195.906 148.97 194.151C148.97 192.396 147.548 190.973 145.795 190.973C144.041 190.973 142.619 192.396 142.619 194.151C142.619 195.906 144.041 197.328 145.795 197.328Z" fill="#191000"/>
<path d="M79.8787 185.961C79.0365 185.961 78.2286 186.296 77.6331 186.892C77.0375 187.488 76.7031 188.296 76.7031 189.139C76.7031 189.981 77.0375 190.79 77.6331 191.386C78.2286 191.982 79.0365 192.316 79.8787 192.316H98.9347C99.7769 192.316 100.584 191.982 101.18 191.386C101.775 190.79 102.11 189.981 102.11 189.139C102.11 188.296 101.775 187.488 101.18 186.892C100.584 186.296 99.7769 185.961 98.9347 185.961H79.8787Z" fill="#191000"/>
<path d="M128.965 96.5088C129.086 95.41 129.408 94.3429 129.914 93.36V163.191C131.874 161.63 134.006 160.296 136.268 159.217V65.5055C136.272 61.4567 134.87 57.5321 132.303 54.4025C135.103 54.6166 137.719 55.8781 139.631 57.9357C141.542 59.9933 142.609 62.6961 142.618 65.5055V156.937C144.702 156.432 146.83 156.133 148.972 156.045V65.5055C148.971 60.8516 147.124 56.3885 143.835 53.0977C140.546 49.8069 136.085 47.9578 131.434 47.9572H58.1314C53.4801 47.9572 49.0192 49.8058 45.7302 53.0968C42.4413 56.3877 40.5938 60.8514 40.5938 65.5055V189.307C40.5937 191.611 41.047 193.893 41.9284 196.022C42.8098 198.151 44.1017 200.085 45.7302 201.715C47.3588 203.344 49.292 204.636 51.4198 205.518C53.5475 206.4 55.8284 206.853 58.1314 206.853H120.548C119.107 204.981 118.104 202.809 117.615 200.498H58.139C55.1736 200.496 52.3302 199.317 50.2329 197.219C48.1355 195.121 46.9559 192.277 46.9525 189.309V92.1566C47.563 92.7126 48.0556 93.386 48.4008 94.1364C48.7459 94.8867 48.9363 95.6986 48.9614 96.5243C50.3733 105.581 53.6166 114.471 67.7409 114.471C78.9922 114.471 82.7388 106.096 85.2394 98.3616C85.4273 97.519 85.8952 96.7651 86.5664 96.2226C87.2376 95.6802 88.0724 95.3811 88.9352 95.3745C89.7979 95.3679 90.6378 95.6542 91.3172 96.1863C91.9966 96.7184 92.4756 97.4651 92.6764 98.3047C95.1744 106.049 98.9111 114.471 110.186 114.471C124.313 114.458 127.547 105.57 128.965 96.5088ZM79.5038 82.9115C75.4414 81.6218 71.195 81.01 66.934 81.1003C60.1914 81.2359 53.4851 82.1344 46.9443 83.7785V65.5055C46.9477 62.5379 48.1275 59.6927 50.2247 57.5943C52.3218 55.4958 55.1656 54.3153 58.1314 54.3119H118.733C121.698 54.3153 124.542 55.4958 126.639 57.5943C128.736 59.6927 129.916 62.5379 129.919 65.5055V83.5068C123.716 82.013 117.369 81.1989 110.99 81.0795C106.727 80.9888 102.479 81.6009 98.4146 82.8909C89.9483 85.9804 88.0657 86.0165 79.5038 82.9115Z" fill="#191000"/>
<path d="M110.452 124.435C110.736 124.117 110.953 123.745 111.09 123.341C111.227 122.937 111.281 122.51 111.25 122.085C111.218 121.659 111.101 121.245 110.906 120.865C110.711 120.486 110.443 120.15 110.115 119.877C109.788 119.604 109.409 119.399 109.001 119.276C108.593 119.152 108.164 119.112 107.74 119.158C107.316 119.203 106.906 119.333 106.534 119.541C106.161 119.748 105.835 120.029 105.573 120.365C91.583 137.163 75.2142 129.443 74.4875 129.088C73.7331 128.711 72.8596 128.648 72.0595 128.915C71.2593 129.182 70.5976 129.756 70.2204 130.511C69.8432 131.266 69.7813 132.14 70.048 132.941C70.3148 133.741 70.8884 134.403 71.6428 134.78C75.7385 136.558 80.1597 137.463 84.6241 137.435C92.1466 137.43 101.803 134.822 110.452 124.435Z" fill="#191000"/>
<path d="M206.873 59.5125C216.87 59.5125 224.974 51.4032 224.974 41.4C224.974 31.3967 216.87 23.2875 206.873 23.2875C196.876 23.2875 188.771 31.3967 188.771 41.4C188.771 51.4032 196.876 59.5125 206.873 59.5125Z" fill="#FFDB05"/>
<path d="M206.707 25.4222C209.848 25.4222 212.918 26.354 215.53 28.1C218.141 29.846 220.176 32.3276 221.378 35.2311C222.58 38.1346 222.894 41.3295 222.282 44.4118C221.669 47.4941 220.156 50.3254 217.936 52.5477C215.715 54.7699 212.885 56.2833 209.805 56.8964C206.724 57.5095 203.531 57.1951 200.63 55.9924C197.728 54.7897 195.248 52.753 193.503 50.1399C191.758 47.5268 190.827 44.4547 190.827 41.312C190.832 37.0992 192.506 33.0603 195.483 30.0814C198.46 27.1025 202.497 25.427 206.707 25.4222ZM206.707 19.0671C202.308 19.0671 198.009 20.3725 194.352 22.8176C190.695 25.2628 187.844 28.738 186.161 32.8041C184.478 36.8702 184.037 41.3445 184.895 45.661C185.753 49.9776 187.871 53.9426 190.982 57.0546C194.092 60.1667 198.054 62.286 202.368 63.1447C206.682 64.0033 211.153 63.5626 215.217 61.8784C219.281 60.1941 222.754 57.3419 225.198 53.6825C227.641 50.0231 228.946 45.721 228.946 41.3199C228.946 35.4182 226.602 29.758 222.432 25.5848C218.261 21.4117 212.605 19.0671 206.707 19.0671Z" fill="#191000"/>
<path d="M209.885 0H203.534V12.7124H209.885V0Z" fill="#191000"/>
<path d="M209.885 69.9143H203.534V82.6267H209.885V69.9143Z" fill="#191000"/>
<path d="M178.128 38.1346H165.423V44.4895H178.128V38.1346Z" fill="#191000"/>
<path d="M248 38.1346H235.295V44.4895H248V38.1346Z" fill="#191000"/>
<path d="M233.658 9.85229L224.677 18.8395L229.168 23.3331L238.149 14.3459L233.658 9.85229Z" fill="#191000"/>
<path d="M184.252 59.2919L175.271 68.2791L179.761 72.7726L188.743 63.7855L184.252 59.2919Z" fill="#191000"/>
<path d="M179.761 9.85419L175.271 14.3478L184.252 23.335L188.743 18.8414L179.761 9.85419Z" fill="#191000"/>
<path d="M229.168 59.291L224.677 63.7845L233.658 72.7717L238.149 68.2781L229.168 59.291Z" fill="#191000"/>
</g>
<defs>
<clipPath id="clip0">
<rect width="248" height="207" fill="white"/>
</clipPath>
</defs>
</svg>
