<svg width="198" height="176" viewBox="0 0 198 176" fill="none" xmlns="http://www.w3.org/2000/svg">
<g filter="url(#filter0_di)">
<path fill-rule="evenodd" clip-rule="evenodd" d="M97.7352 53.5288C97.976 52.084 98.2512 50.9832 98.7672 50.1232V125.7C100.9 124.014 103.17 122.57 105.647 121.4V19.9888C105.647 15.4136 104.03 11.2512 101.347 7.9832C107.574 8.4648 112.527 13.6592 112.527 19.9888V118.958C114.763 118.407 117.034 118.098 119.407 117.994V19.9888C119.373 9.4968 110.876 1 100.384 1H86.624H20.9888C10.4968 1 2 9.4968 2 19.9888V154.011C2 164.503 10.4968 173 20.9888 173H86.624H88.5848C87.0712 171.005 85.936 168.666 85.42 166.12H20.9888C14.3152 166.12 8.88 160.685 8.88 154.011V48.816C10.1872 49.8136 10.7032 51.224 11.0472 53.5288C12.5608 63.3328 16.104 72.9648 31.3776 72.9648C43.5552 72.9648 47.6488 63.8832 50.332 55.524C51.708 51.2584 57.0056 51.1552 58.3816 55.4552C61.0992 63.8488 65.124 72.9648 77.336 72.9648C92.6784 72.9648 96.1872 63.3672 97.7352 53.5288ZM44.14 38.84C40.0464 37.3952 35.0928 36.8792 30.5176 36.8792C23.5 36.8792 15.7944 38.1176 8.88 39.7688V19.9888C8.88 13.3152 14.3152 7.88 20.9888 7.88H86.624C93.2976 7.88 98.7328 13.3152 98.7328 19.9888V39.4936C92.0936 37.98 84.8696 36.8792 78.2304 36.8792C73.6552 36.8792 68.7016 37.3952 64.608 38.84C55.4576 42.1424 53.428 42.1768 44.14 38.84ZM195.156 88.72H177.956V99.556V124.84H184.836C190.546 124.84 195.156 129.45 195.156 135.16V162.68C195.156 168.39 190.546 173 184.836 173H150.436H102.276C96.5657 173 91.9561 168.39 91.9561 162.68V153.839C91.9561 137.809 104.925 124.84 120.955 124.84H126.356V81.84C126.356 75.2008 131.757 69.8 138.396 69.8H183.116C189.755 69.8 195.156 75.2008 195.156 81.84V88.72ZM188.276 81.84C188.276 78.9848 185.971 76.68 183.116 76.68C180.261 76.68 177.956 78.9848 177.956 81.84H188.276ZM133.236 81.84V99.556V124.84H169.115H171.076V81.84C171.076 79.9824 171.523 78.2624 172.28 76.68H149.232H138.396C135.541 76.68 133.236 78.9848 133.236 81.84ZM103.874 139.839C104.35 139.276 104.853 138.741 105.372 138.222C104.739 138.854 104.131 139.535 103.566 140.224C102.787 141.22 102.089 142.289 101.485 143.416C101.5 143.386 101.508 143.356 101.516 143.328L101.516 143.328L101.516 143.328L101.516 143.328L101.517 143.326C101.519 143.317 101.522 143.307 101.525 143.298C101.497 143.349 101.465 143.4 101.433 143.45C101.39 143.519 101.347 143.588 101.313 143.657C101.248 143.744 101.21 143.845 101.173 143.942C101.152 143.998 101.132 144.054 101.106 144.104C101.106 144.173 101.072 144.242 101.038 144.31C101.048 144.31 101.055 144.308 101.06 144.304C100.745 144.996 100.46 145.689 100.204 146.382C100.212 146.356 100.221 146.331 100.229 146.306C100.255 146.228 100.281 146.151 100.315 146.065C100.302 146.098 100.288 146.132 100.275 146.165L100.259 146.204L100.223 146.293L100.223 146.293L100.223 146.293L100.222 146.294L100.222 146.294C100.117 146.551 100.017 146.796 99.9369 147.062L100.143 146.547L99.8337 147.475V147.51C99.5919 148.315 99.3922 149.121 99.2343 149.96C99.2997 149.652 99.3775 149.349 99.4553 149.058L99.4138 149.223L99.4137 149.223C99.3435 149.502 99.2752 149.774 99.218 150.047C99.1799 150.254 99.1443 150.463 99.1113 150.674C98.9393 151.706 98.8361 152.773 98.8361 153.839V162.68C98.8361 164.572 100.384 166.12 102.276 166.12H140.701C140.322 165.019 140.082 163.884 140.082 162.68V153.839C140.082 144.964 144.072 137.052 150.333 131.72H133.202H126.322H120.921C114.832 131.72 109.328 134.231 105.338 138.222C104.825 138.734 104.336 139.274 103.874 139.839ZM100.204 146.382L100.19 146.422C100.184 146.438 100.178 146.456 100.171 146.473C100.163 146.497 100.153 146.521 100.143 146.546C100.163 146.492 100.183 146.437 100.204 146.382ZM101.072 144.276L101.06 144.304C101.072 144.294 101.072 144.276 101.072 144.276ZM188.276 135.16C188.276 133.268 186.728 131.72 184.836 131.72H177.956H171.076H169.115C156.903 131.72 146.996 141.627 146.996 153.839V162.68C146.996 164.572 148.544 166.12 150.436 166.12H184.836C186.728 166.12 188.276 164.572 188.276 162.68V135.16ZM101.244 143.913L101.244 143.914L101.209 143.992C101.186 144.042 101.162 144.092 101.138 144.141C101.123 144.157 101.115 144.181 101.107 144.205L101.089 144.24L101.072 144.276C101.089 144.258 101.098 144.233 101.106 144.207L101.107 144.205L101.138 144.141L101.141 144.138C101.164 144.092 101.187 144.043 101.209 143.992L101.278 143.846C101.326 143.744 101.374 143.641 101.422 143.542C101.446 143.503 101.469 143.463 101.485 143.416C101.464 143.457 101.443 143.499 101.422 143.542L101.416 143.553C101.39 143.596 101.364 143.639 101.347 143.691C101.313 143.759 101.279 143.836 101.244 143.913ZM109.053 159.24C109.053 161.14 107.513 162.68 105.613 162.68C103.713 162.68 102.173 161.14 102.173 159.24C102.173 157.34 103.713 155.8 105.613 155.8C107.513 155.8 109.053 157.34 109.053 159.24ZM115.933 162.68C117.833 162.68 119.373 161.14 119.373 159.24C119.373 157.34 117.833 155.8 115.933 155.8C114.033 155.8 112.493 157.34 112.493 159.24C112.493 161.14 114.033 162.68 115.933 162.68ZM41.1128 153.805C41.1128 151.913 42.6608 150.365 44.5528 150.365H65.1928C67.0848 150.365 68.6328 151.913 68.6328 153.805C68.6328 155.697 67.0848 157.245 65.1928 157.245H44.5528C42.6608 157.245 41.1128 155.697 41.1128 153.805ZM77.2327 78.9156C78.7119 80.1196 78.8839 82.3212 77.6799 83.766C68.2887 95.0148 57.8311 97.8356 49.7127 97.8356C41.5599 97.8356 35.7463 95.0492 35.6431 94.9804C33.9231 94.1204 33.2351 92.0564 34.0951 90.3708C34.9551 88.6852 37.0191 87.9628 38.7047 88.8228C39.4959 89.2012 57.2119 97.5604 72.3823 79.3628C73.5863 77.8836 75.7535 77.7116 77.2327 78.9156Z" fill="#009646"/>
</g>
<defs>
<filter id="filter0_di" x="0" y="0" width="197.156" height="176" filterUnits="userSpaceOnUse" color-interpolation-filters="sRGB">
<feFlood flood-opacity="0" result="BackgroundImageFix"/>
<feColorMatrix in="SourceAlpha" type="matrix" values="0 0 0 0 0 0 0 0 0 0 0 0 0 0 0 0 0 0 127 0"/>
<feOffset dy="1"/>
<feGaussianBlur stdDeviation="1"/>
<feColorMatrix type="matrix" values="0 0 0 0 1 0 0 0 0 1 0 0 0 0 1 0 0 0 0.25 0"/>
<feBlend mode="normal" in2="BackgroundImageFix" result="effect1_dropShadow"/>
<feBlend mode="normal" in="SourceGraphic" in2="effect1_dropShadow" result="shape"/>
<feColorMatrix in="SourceAlpha" type="matrix" values="0 0 0 0 0 0 0 0 0 0 0 0 0 0 0 0 0 0 127 0" result="hardAlpha"/>
<feOffset dy="1"/>
<feGaussianBlur stdDeviation="1.5"/>
<feComposite in2="hardAlpha" operator="arithmetic" k2="-1" k3="1"/>
<feColorMatrix type="matrix" values="0 0 0 0 0 0 0 0 0 0 0 0 0 0 0 0 0 0 0.16 0"/>
<feBlend mode="normal" in2="shape" result="effect2_innerShadow"/>
</filter>
</defs>
</svg>
