<svg width="345" height="210" viewBox="0 0 345 210" fill="none" xmlns="http://www.w3.org/2000/svg">
<rect width="345" height="100" rx="20" fill="#FEE243"/>
<path d="M68.8179 28.2998V63.9998H74.8179V33.7498H92.2679V63.9998H98.2679V28.2998H68.8179Z" fill="#1A1A1A"/>
<path d="M120.304 64.6498C127.254 64.6498 131.604 58.9998 131.604 51.2998C131.604 43.5998 127.304 37.8998 120.304 37.8998C116.554 37.8998 114.354 39.2998 112.954 41.0498H111.954V38.5498H106.454V73.9998H112.104V61.4998H113.104C114.454 63.2998 116.604 64.6498 120.304 64.6498ZM119.004 42.6998C123.654 42.6998 125.954 46.3498 125.954 51.2998C125.954 56.1998 123.654 59.8498 119.004 59.8498C114.054 59.8498 111.954 55.7498 111.954 51.2998C111.954 46.7998 114.054 42.6998 119.004 42.6998Z" fill="#1A1A1A"/>
<path d="M149.249 37.8998C141.249 37.8998 136.399 43.4998 136.399 51.2498C136.399 59.0498 141.249 64.6498 149.249 64.6498C157.249 64.6498 162.099 59.0498 162.099 51.2498C162.099 43.4998 157.249 37.8998 149.249 37.8998ZM149.249 59.8498C144.299 59.8498 142.049 55.7998 142.049 51.2498C142.049 46.7998 144.299 42.6998 149.249 42.6998C154.199 42.6998 156.449 46.7998 156.449 51.2498C156.449 55.7998 154.199 59.8498 149.249 59.8498Z" fill="#1A1A1A"/>
<path d="M192.017 59.1998V38.5498H171.767V45.6998C171.767 51.3498 170.417 55.8998 169.017 59.1998H165.417V71.1498H170.817V63.9998H191.217V71.1498H196.617V59.1998H192.017ZM186.367 59.1998H174.517C175.817 55.8998 176.917 51.4498 176.917 45.7498V43.3498H186.367V59.1998Z" fill="#1A1A1A"/>
<path d="M217.665 63.9998H222.965V47.0998C222.965 40.7998 218.565 37.8998 211.965 37.8998C205.965 37.8998 201.715 40.7998 201.465 45.5998H207.065C207.265 43.6498 208.915 42.3498 212.165 42.3498C215.865 42.3498 217.515 44.1998 217.515 46.9998V47.7498H210.015C202.665 47.7498 199.915 52.2498 199.915 56.2998C199.915 60.6998 203.215 64.6498 209.115 64.6498C212.615 64.6498 215.165 63.4498 216.665 61.5498H217.665V63.9998ZM210.765 60.0498C207.515 60.0498 205.615 58.5998 205.615 56.0498C205.615 53.4498 207.465 51.9498 211.015 51.9498H217.515V53.8498C217.515 57.2998 214.565 60.0498 210.765 60.0498Z" fill="#1A1A1A"/>
<path d="M228.028 43.3498H236.628V63.9998H242.278V43.3498H250.828V38.5498H228.028V43.3498Z" fill="#1A1A1A"/>
<path d="M261.86 38.5498H256.21V63.9998H268.71C275.11 63.9998 278.61 60.5498 278.61 55.0998C278.61 49.6998 275.11 46.4498 268.71 46.4498H261.86V38.5498ZM267.91 59.1998H261.86V50.9998H267.91C271.76 50.9998 272.96 52.4998 272.96 55.0998C272.96 57.5998 271.76 59.1998 267.91 59.1998Z" fill="#1A1A1A"/>
<rect x="345" y="210" width="345" height="100" rx="20" transform="rotate(-180 345 210)" fill="#E90000"/>
<path d="M249.73 166.2V167.2C247.33 168.45 245.88 171.25 245.88 174.45C245.88 179.45 249.73 183.7 257.48 183.7H273.63V148H257.03C248.78 148 244.83 152.4 244.83 158.2C244.83 161.8 246.98 165 249.73 166.2ZM258.03 169.05H267.63V178.5H258.03C253.63 178.5 252.03 176.75 252.03 173.8C252.03 170.85 253.63 169.05 258.03 169.05ZM257.83 153.2H267.63V163.95H257.83C252.83 163.95 250.98 161.95 250.98 158.6C250.98 155.3 252.83 153.2 257.83 153.2Z" fill="white"/>
<path d="M215.536 162.15C215.636 168.75 219.786 174.1 227.386 174.1C235.186 174.1 239.936 168.9 239.936 160.9C239.936 152.95 235.236 147.35 227.236 147.35C220.636 147.35 216.836 150.7 215.886 155.4H221.636C222.336 153.35 224.136 152.15 227.186 152.15C231.786 152.15 234.186 155.05 234.336 160.25H215.536V162.15ZM227.436 169.6C223.736 169.6 221.686 167.3 221.336 164.45H234.086C233.436 167.35 231.386 169.6 227.436 169.6Z" fill="white"/>
<path d="M195.435 147.35C188.485 147.35 184.135 153 184.135 160.7C184.135 168.4 188.435 174.1 195.435 174.1C199.185 174.1 201.385 172.7 202.785 170.95H203.785V173.45H209.285V138H203.635V150.5H202.635C201.285 148.7 199.135 147.35 195.435 147.35ZM196.735 169.3C192.085 169.3 189.785 165.65 189.785 160.7C189.785 155.8 192.085 152.15 196.735 152.15C201.685 152.15 203.785 156.25 203.785 160.7C203.785 165.2 201.685 169.3 196.735 169.3Z" fill="white"/>
<path d="M154.24 148V173.45H159.89V163.45H172.19V173.45H177.84V148H172.19V158.65H159.89V148H154.24Z" fill="white"/>
<path d="M138.094 138L122.694 173.45H128.644L135.094 158.1H136.394L143.494 173.45H149.494L138.694 150.5L143.944 138H138.094Z" fill="white"/>
<path d="M120.523 168.65H111.923V148H106.273V168.65H97.7233V173.45H120.523V168.65Z" fill="white"/>
<path d="M86.6921 173.45H92.3421V148H79.8421C73.4421 148 69.9421 151.45 69.9421 156.9C69.9421 162.3 73.4421 165.55 79.8421 165.55H86.6921V173.45ZM80.6421 152.8H86.6921V161H80.6421C76.7921 161 75.5921 159.5 75.5921 156.9C75.5921 154.4 76.7921 152.8 80.6421 152.8Z" fill="white"/>
</svg>
