<svg width="283" height="172" viewBox="0 0 283 172" fill="none" xmlns="http://www.w3.org/2000/svg">
<rect width="282.571" height="81.9048" rx="20" fill="#FEE243"/>
<path d="M56.3651 23.179V52.419H61.2794V27.6428H75.5718V52.419H80.4861V23.179H56.3651Z" fill="#1A1A1A"/>
<path d="M98.5345 52.9513C104.227 52.9513 107.79 48.3237 107.79 42.0171C107.79 35.7104 104.268 31.0418 98.5345 31.0418C95.4631 31.0418 93.6612 32.1885 92.5145 33.6218H91.6955V31.5742H87.1907V60.6094H91.8184V50.3713H92.6374C93.7431 51.8456 95.5041 52.9513 98.5345 52.9513ZM97.4698 34.9732C101.278 34.9732 103.162 37.9628 103.162 42.0171C103.162 46.0304 101.278 49.0199 97.4698 49.0199C93.4155 49.0199 91.6955 45.6618 91.6955 42.0171C91.6955 38.3313 93.4155 34.9732 97.4698 34.9732Z" fill="#1A1A1A"/>
<path d="M122.242 31.0418C115.69 31.0418 111.717 35.6285 111.717 41.9761C111.717 48.3647 115.69 52.9513 122.242 52.9513C128.795 52.9513 132.767 48.3647 132.767 41.9761C132.767 35.6285 128.795 31.0418 122.242 31.0418ZM122.242 49.0199C118.188 49.0199 116.345 45.7028 116.345 41.9761C116.345 38.3313 118.188 34.9732 122.242 34.9732C126.296 34.9732 128.139 38.3313 128.139 41.9761C128.139 45.7028 126.296 49.0199 122.242 49.0199Z" fill="#1A1A1A"/>
<path d="M157.271 48.4875V31.5742H140.685V37.4304C140.685 42.058 139.579 45.7847 138.433 48.4875H135.484V58.2752H139.907V52.419H156.616V58.2752H161.038V48.4875H157.271ZM152.643 48.4875H142.937C144.002 45.7847 144.903 42.1399 144.903 37.4713V35.5056H152.643V48.4875Z" fill="#1A1A1A"/>
<path d="M178.278 52.419H182.619V38.5771C182.619 33.4171 179.015 31.0418 173.61 31.0418C168.695 31.0418 165.214 33.4171 165.01 37.3485H169.596C169.76 35.7513 171.111 34.6866 173.773 34.6866C176.804 34.6866 178.155 36.2018 178.155 38.4951V39.1094H172.012C165.992 39.1094 163.74 42.7951 163.74 46.1123C163.74 49.7161 166.443 52.9513 171.275 52.9513C174.142 52.9513 176.23 51.9685 177.459 50.4123H178.278V52.419ZM172.627 49.1837C169.965 49.1837 168.409 47.9961 168.409 45.9075C168.409 43.778 169.924 42.5494 172.831 42.5494H178.155V44.1056C178.155 46.9313 175.739 49.1837 172.627 49.1837Z" fill="#1A1A1A"/>
<path d="M186.766 35.5056H193.81V52.419H198.438V35.5056H205.44V31.5742H186.766V35.5056Z" fill="#1A1A1A"/>
<path d="M214.476 31.5742H209.848V52.419H220.086C225.328 52.419 228.195 49.5932 228.195 45.1294C228.195 40.7066 225.328 38.0447 220.086 38.0447H214.476V31.5742ZM219.431 48.4875H214.476V41.7713H219.431C222.584 41.7713 223.567 42.9999 223.567 45.1294C223.567 47.1771 222.584 48.4875 219.431 48.4875Z" fill="#1A1A1A"/>
<rect x="282.571" y="172" width="282.571" height="81.9048" rx="20" transform="rotate(-180 282.571 172)" fill="#E90000"/>
<path d="M204.541 136.126V136.945C202.575 137.969 201.388 140.262 201.388 142.883C201.388 146.978 204.541 150.459 210.889 150.459H224.116V121.219H210.52C203.763 121.219 200.528 124.823 200.528 129.574C200.528 132.522 202.289 135.143 204.541 136.126ZM211.339 138.46H219.202V146.2H211.339C207.735 146.2 206.425 144.767 206.425 142.351C206.425 139.934 207.735 138.46 211.339 138.46ZM211.175 125.478H219.202V134.283H211.175C207.08 134.283 205.565 132.645 205.565 129.901C205.565 127.198 207.08 125.478 211.175 125.478Z" fill="white"/>
<path d="M176.534 132.809C176.616 138.214 180.015 142.596 186.24 142.596C192.628 142.596 196.519 138.337 196.519 131.785C196.519 125.274 192.669 120.687 186.117 120.687C180.711 120.687 177.599 123.431 176.821 127.28H181.53C182.104 125.601 183.578 124.618 186.076 124.618C189.844 124.618 191.809 126.994 191.932 131.253H176.534V132.809ZM186.281 138.911C183.25 138.911 181.571 137.027 181.285 134.693H191.727C191.195 137.068 189.516 138.911 186.281 138.911Z" fill="white"/>
<path d="M160.071 120.687C154.379 120.687 150.816 125.314 150.816 131.621C150.816 137.928 154.338 142.596 160.071 142.596C163.142 142.596 164.944 141.45 166.091 140.016H166.91V142.064H171.415V113.029H166.787V123.267H165.968C164.862 121.793 163.101 120.687 160.071 120.687ZM161.136 138.665C157.327 138.665 155.443 135.675 155.443 131.621C155.443 127.608 157.327 124.618 161.136 124.618C165.19 124.618 166.91 127.976 166.91 131.621C166.91 135.307 165.19 138.665 161.136 138.665Z" fill="white"/>
<path d="M126.33 121.219V142.064H130.958V133.874H141.032V142.064H145.66V121.219H141.032V129.942H130.958V121.219H126.33Z" fill="white"/>
<path d="M113.105 113.029L100.492 142.064H105.365L110.648 129.492H111.713L117.528 142.064H122.442L113.597 123.267L117.897 113.029H113.105Z" fill="white"/>
<path d="M98.7143 138.133H91.6705V121.219H87.0429V138.133H80.04V142.064H98.7143V138.133Z" fill="white"/>
<path d="M71.0049 142.064H75.6325V121.219H65.3944C60.1525 121.219 57.2859 124.045 57.2859 128.509C57.2859 132.932 60.1525 135.594 65.3944 135.594H71.0049V142.064ZM66.0497 125.151H71.0049V131.867H66.0497C62.8963 131.867 61.9135 130.638 61.9135 128.509C61.9135 126.461 62.8963 125.151 66.0497 125.151Z" fill="white"/>
</svg>
