<svg width="154" height="41" viewBox="0 0 154 41" fill="none" xmlns="http://www.w3.org/2000/svg">
<rect width="153.334" height="41" rx="8" fill="white"/>
<path d="M33.3339 25.6403C32.6134 27.7303 30.4564 31.431 28.2343 31.4714C26.7603 31.4998 26.2864 30.5978 24.6015 30.5978C22.9175 30.5978 22.3904 31.4439 20.997 31.4989C18.6393 31.5896 15 26.1573 15 21.4198C15 17.0682 18.0324 14.9113 20.6817 14.8718C22.1026 14.8462 23.4446 15.8298 24.3109 15.8298C25.1808 15.8298 26.8107 14.6472 28.524 14.8205C29.2409 14.8508 31.2549 15.1093 32.5474 16.9995C29.118 19.2381 29.6525 23.9196 33.3339 25.6403ZM28.5469 9.5C25.9564 9.6045 23.8425 12.3225 24.1376 14.5702C26.532 14.7563 28.8293 12.0722 28.5469 9.5Z" fill="black"/>
<path d="M52.4737 24.76H45.4737L44.0937 28H41.4137L47.7137 14H50.2737L56.5937 28H53.8737L52.4737 24.76ZM51.6137 22.72L48.9737 16.6L46.3537 22.72H51.6137ZM64.0541 17.2C65.0941 17.2 66.0208 17.4267 66.8341 17.88C67.6608 18.3333 68.3075 18.9733 68.7741 19.8C69.2408 20.6267 69.4741 21.58 69.4741 22.66C69.4741 23.74 69.2408 24.7 68.7741 25.54C68.3075 26.3667 67.6608 27.0067 66.8341 27.46C66.0208 27.9133 65.0941 28.14 64.0541 28.14C62.6141 28.14 61.4741 27.66 60.6341 26.7V31.88H58.1341V17.32H60.5141V18.72C60.9275 18.2133 61.4341 17.8333 62.0341 17.58C62.6475 17.3267 63.3208 17.2 64.0541 17.2ZM63.7741 26C64.6941 26 65.4475 25.6933 66.0341 25.08C66.6341 24.4667 66.9341 23.66 66.9341 22.66C66.9341 21.66 66.6341 20.8533 66.0341 20.24C65.4475 19.6267 64.6941 19.32 63.7741 19.32C63.1741 19.32 62.6341 19.46 62.1541 19.74C61.6741 20.0067 61.2941 20.3933 61.0141 20.9C60.7341 21.4067 60.5941 21.9933 60.5941 22.66C60.5941 23.3267 60.7341 23.9133 61.0141 24.42C61.2941 24.9267 61.6741 25.32 62.1541 25.6C62.6341 25.8667 63.1741 26 63.7741 26ZM77.7651 17.2C78.8051 17.2 79.7317 17.4267 80.5451 17.88C81.3717 18.3333 82.0184 18.9733 82.4851 19.8C82.9517 20.6267 83.1851 21.58 83.1851 22.66C83.1851 23.74 82.9517 24.7 82.4851 25.54C82.0184 26.3667 81.3717 27.0067 80.5451 27.46C79.7317 27.9133 78.8051 28.14 77.7651 28.14C76.3251 28.14 75.1851 27.66 74.3451 26.7V31.88H71.8451V17.32H74.2251V18.72C74.6384 18.2133 75.1451 17.8333 75.7451 17.58C76.3584 17.3267 77.0317 17.2 77.7651 17.2ZM77.4851 26C78.4051 26 79.1584 25.6933 79.7451 25.08C80.3451 24.4667 80.6451 23.66 80.6451 22.66C80.6451 21.66 80.3451 20.8533 79.7451 20.24C79.1584 19.6267 78.4051 19.32 77.4851 19.32C76.8851 19.32 76.3451 19.46 75.8651 19.74C75.3851 20.0067 75.0051 20.3933 74.7251 20.9C74.4451 21.4067 74.3051 21.9933 74.3051 22.66C74.3051 23.3267 74.4451 23.9133 74.7251 24.42C75.0051 24.9267 75.3851 25.32 75.8651 25.6C76.3451 25.8667 76.8851 26 77.4851 26ZM90.136 28.2C89.056 28.2 88.0093 28.0467 86.996 27.74C85.996 27.4333 85.2027 27.0267 84.616 26.52L85.516 24.5C86.0893 24.9533 86.7893 25.3267 87.616 25.62C88.456 25.9 89.296 26.04 90.136 26.04C91.176 26.04 91.9493 25.8733 92.456 25.54C92.976 25.2067 93.236 24.7667 93.236 24.22C93.236 23.82 93.0893 23.4933 92.796 23.24C92.516 22.9733 92.156 22.7667 91.716 22.62C91.276 22.4733 90.676 22.3067 89.916 22.12C88.8493 21.8667 87.9827 21.6133 87.316 21.36C86.6627 21.1067 86.096 20.7133 85.616 20.18C85.1493 19.6333 84.916 18.9 84.916 17.98C84.916 17.2067 85.1227 16.5067 85.536 15.88C85.9627 15.24 86.596 14.7333 87.436 14.36C88.2893 13.9867 89.3293 13.8 90.556 13.8C91.4093 13.8 92.2493 13.9067 93.076 14.12C93.9027 14.3333 94.616 14.64 95.216 15.04L94.396 17.06C93.7827 16.7 93.1427 16.4267 92.476 16.24C91.8093 16.0533 91.1627 15.96 90.536 15.96C89.5093 15.96 88.7427 16.1333 88.236 16.48C87.7427 16.8267 87.496 17.2867 87.496 17.86C87.496 18.26 87.636 18.5867 87.916 18.84C88.2093 19.0933 88.576 19.2933 89.016 19.44C89.456 19.5867 90.056 19.7533 90.816 19.94C91.856 20.18 92.7093 20.4333 93.376 20.7C94.0427 20.9533 94.6093 21.3467 95.076 21.88C95.556 22.4133 95.796 23.1333 95.796 24.04C95.796 24.8133 95.5827 25.5133 95.156 26.14C94.7427 26.7667 94.1093 27.2667 93.256 27.64C92.4027 28.0133 91.3627 28.2 90.136 28.2ZM104.554 27.42C104.261 27.66 103.901 27.84 103.474 27.96C103.061 28.08 102.621 28.14 102.154 28.14C100.981 28.14 100.074 27.8333 99.4341 27.22C98.7941 26.6067 98.4741 25.7133 98.4741 24.54V19.4H96.7141V17.4H98.4741V14.96H100.974V17.4H103.834V19.4H100.974V24.48C100.974 25 101.101 25.4 101.354 25.68C101.607 25.9467 101.974 26.08 102.454 26.08C103.014 26.08 103.481 25.9333 103.854 25.64L104.554 27.42ZM111.059 28.14C109.979 28.14 109.006 27.9067 108.139 27.44C107.272 26.9733 106.592 26.3267 106.099 25.5C105.619 24.66 105.379 23.7133 105.379 22.66C105.379 21.6067 105.619 20.6667 106.099 19.84C106.592 19.0133 107.272 18.3667 108.139 17.9C109.006 17.4333 109.979 17.2 111.059 17.2C112.152 17.2 113.132 17.4333 113.999 17.9C114.866 18.3667 115.539 19.0133 116.019 19.84C116.512 20.6667 116.759 21.6067 116.759 22.66C116.759 23.7133 116.512 24.66 116.019 25.5C115.539 26.3267 114.866 26.9733 113.999 27.44C113.132 27.9067 112.152 28.14 111.059 28.14ZM111.059 26C111.979 26 112.739 25.6933 113.339 25.08C113.939 24.4667 114.239 23.66 114.239 22.66C114.239 21.66 113.939 20.8533 113.339 20.24C112.739 19.6267 111.979 19.32 111.059 19.32C110.139 19.32 109.379 19.6267 108.779 20.24C108.192 20.8533 107.899 21.66 107.899 22.66C107.899 23.66 108.192 24.4667 108.779 25.08C109.379 25.6933 110.139 26 111.059 26ZM121.53 18.88C122.25 17.76 123.516 17.2 125.33 17.2V19.58C125.116 19.54 124.923 19.52 124.75 19.52C123.776 19.52 123.016 19.8067 122.47 20.38C121.923 20.94 121.65 21.7533 121.65 22.82V28H119.15V17.32H121.53V18.88ZM137.393 22.72C137.393 22.8933 137.38 23.14 137.353 23.46H128.973C129.12 24.2467 129.5 24.8733 130.113 25.34C130.74 25.7933 131.513 26.02 132.433 26.02C133.606 26.02 134.573 25.6333 135.333 24.86L136.673 26.4C136.193 26.9733 135.586 27.4067 134.853 27.7C134.12 27.9933 133.293 28.14 132.373 28.14C131.2 28.14 130.166 27.9067 129.273 27.44C128.38 26.9733 127.686 26.3267 127.193 25.5C126.713 24.66 126.473 23.7133 126.473 22.66C126.473 21.62 126.706 20.6867 127.173 19.86C127.653 19.02 128.313 18.3667 129.153 17.9C129.993 17.4333 130.94 17.2 131.993 17.2C133.033 17.2 133.96 17.4333 134.773 17.9C135.6 18.3533 136.24 19 136.693 19.84C137.16 20.6667 137.393 21.6267 137.393 22.72ZM131.993 19.2C131.193 19.2 130.513 19.44 129.953 19.92C129.406 20.3867 129.073 21.0133 128.953 21.8H135.013C134.906 21.0267 134.58 20.4 134.033 19.92C133.486 19.44 132.806 19.2 131.993 19.2Z" fill="black"/>
</svg>
