<svg width="375" height="373" viewBox="0 0 375 373" fill="none" xmlns="http://www.w3.org/2000/svg">
<g filter="url(#filter0_dd)">
<rect x="20" y="10" width="335" height="333" rx="16" fill="white"/>
</g>
<rect x="20" y="298" width="318" height="1" fill="#DCDFE5"/>
<path d="M42.5098 321H43.8105V312.545H42.5332L38.2266 318.926H38.1387V312.545H36.8379V321H38.1152L42.4219 314.637H42.5098V321ZM50.4727 321.117C52.2598 321.117 53.3555 319.916 53.3555 317.918C53.3555 315.926 52.2539 314.725 50.4727 314.725C48.8906 314.725 47.8418 315.691 47.6367 317.32H46.5879V314.836H45.3281V321H46.5879V318.316H47.6133C47.7539 320.074 48.8203 321.117 50.4727 321.117ZM50.4727 320.057C49.4648 320.057 48.8906 319.277 48.8906 317.918C48.8906 316.559 49.4648 315.785 50.4727 315.785C51.4805 315.785 52.0605 316.559 52.0605 317.918C52.0605 319.277 51.4805 320.057 50.4727 320.057ZM58.4941 321H59.7539V314.836H58.4941V317.32H55.7051V314.836H54.4453V321H55.7051V318.316H58.4941V321Z" fill="#494C5B"/>
<path d="M91.5098 321H92.8105V312.545H91.5332L87.2266 318.926H87.1387V312.545H85.8379V321H87.1152L91.4219 314.637H91.5098V321ZM99.4727 321.117C101.26 321.117 102.355 319.916 102.355 317.918C102.355 315.926 101.254 314.725 99.4727 314.725C97.8906 314.725 96.8418 315.691 96.6367 317.32H95.5879V314.836H94.3281V321H95.5879V318.316H96.6133C96.7539 320.074 97.8203 321.117 99.4727 321.117ZM99.4727 320.057C98.4648 320.057 97.8906 319.277 97.8906 317.918C97.8906 316.559 98.4648 315.785 99.4727 315.785C100.48 315.785 101.061 316.559 101.061 317.918C101.061 319.277 100.48 320.057 99.4727 320.057ZM105.086 318.193L105.256 315.838H107.154V321H108.414V314.836H104.143L103.932 318.141C103.861 319.213 103.65 319.928 103.053 319.928C102.895 319.928 102.777 319.898 102.719 319.881V320.994C102.795 321.023 102.941 321.059 103.146 321.059C104.529 321.059 104.969 319.939 105.086 318.193Z" fill="#494C5B"/>
<path d="M140.346 321H141.734L138.682 312.545H137.264L134.211 321H135.576L136.35 318.715H139.572L140.346 321ZM137.943 313.951H137.979L139.238 317.66H136.684L137.943 313.951ZM145.168 315.756C145.783 315.756 146.117 316.043 146.117 316.553C146.117 317.098 145.76 317.373 145.045 317.373H143.873V315.756H145.168ZM145.127 318.258C145.959 318.258 146.369 318.562 146.369 319.172C146.369 319.764 145.982 320.08 145.268 320.08H143.873V318.258H145.127ZM142.625 321H145.461C146.797 321 147.629 320.309 147.629 319.225C147.629 318.451 147.102 317.889 146.305 317.783V317.736C146.896 317.625 147.354 317.045 147.354 316.406C147.354 315.434 146.627 314.836 145.426 314.836H142.625V321ZM152.838 315.838V314.836H148.754V321H150.014V315.838H152.838Z" fill="#494C5B"/>
<path d="M182.406 321.158C184.305 321.158 185.611 320.174 185.975 318.498H184.656C184.357 319.441 183.543 319.992 182.412 319.992C180.859 319.992 179.875 318.744 179.875 316.77C179.875 314.812 180.871 313.553 182.406 313.553C183.502 313.553 184.381 314.203 184.656 315.205H185.975C185.693 313.518 184.27 312.387 182.406 312.387C180.045 312.387 178.533 314.092 178.533 316.77C178.533 319.465 180.033 321.158 182.406 321.158ZM189.713 315.744C190.598 315.744 191.195 316.406 191.225 317.35H188.143C188.207 316.418 188.828 315.744 189.713 315.744ZM191.219 319.189C191.049 319.729 190.516 320.092 189.795 320.092C188.781 320.092 188.137 319.383 188.137 318.311V318.234H192.49V317.801C192.49 315.932 191.424 314.725 189.713 314.725C187.973 314.725 186.859 316.014 186.859 317.947C186.859 319.893 187.955 321.117 189.766 321.117C191.178 321.117 192.244 320.314 192.42 319.189H191.219ZM197.623 321H198.883V314.836H197.623V317.32H194.834V314.836H193.574V321H194.834V318.316H197.623V321Z" fill="#494C5B"/>
<path d="M228.494 312.404C226.057 312.404 224.533 314.086 224.533 316.775C224.533 319.465 226.057 321.141 228.494 321.141C230.926 321.141 232.455 319.465 232.455 316.775C232.455 314.086 230.926 312.404 228.494 312.404ZM228.494 313.559C230.1 313.559 231.107 314.801 231.107 316.775C231.107 318.744 230.1 319.986 228.494 319.986C226.889 319.986 225.875 318.744 225.875 316.775C225.875 314.801 226.889 313.559 228.494 313.559ZM236.17 317.73L238.9 314.836H237.389L234.975 317.473H234.928V314.836H233.668V321H234.928V318.158H234.975L237.418 321H239.006L236.17 317.73ZM244.344 314.836H239.217V315.838H241.15V321H242.41V315.838H244.344V314.836Z" fill="#494C5B"/>
<path d="M276.805 321V312.545H275.492V316.119H271.15V312.545H269.838V321H271.15V317.256H275.492V321H276.805ZM280.971 321.117C282.734 321.117 283.895 319.904 283.895 317.918C283.895 315.938 282.729 314.725 280.971 314.725C279.213 314.725 278.047 315.938 278.047 317.918C278.047 319.904 279.207 321.117 280.971 321.117ZM280.971 320.074C279.98 320.074 279.336 319.289 279.336 317.918C279.336 316.553 279.98 315.768 280.971 315.768C281.961 315.768 282.605 316.553 282.605 317.918C282.605 319.289 281.967 320.074 280.971 320.074ZM287.275 317.912C286.561 317.912 286.092 317.496 286.092 316.91C286.092 316.242 286.555 315.832 287.275 315.832H288.395V317.912H287.275ZM288.395 321H289.637V314.836H287.211C285.77 314.836 284.832 315.633 284.832 316.916C284.832 317.777 285.359 318.416 286.215 318.668L284.533 321H285.963L287.457 318.885H288.395V321Z" fill="#494C5B"/>
<path d="M318.457 317.227L318.65 314.268H321.023V319.266H317.912V319.219C318.27 318.809 318.398 318.158 318.457 317.227ZM317.062 321H322.295V322.67H324.223V319.266H323.168V312.545H316.77L316.494 317.039C316.418 318.205 316.277 318.82 315.703 319.266H315.129V322.67H317.062V321ZM328.02 315.943C328.676 315.943 329.139 316.4 329.174 317.08H326.854C326.906 316.418 327.381 315.943 328.02 315.943ZM329.221 318.984C329.074 319.418 328.641 319.682 328.084 319.682C327.334 319.682 326.824 319.154 326.824 318.393V318.264H331.131V317.678C331.131 315.727 329.906 314.467 327.984 314.467C326.033 314.467 324.809 315.779 324.809 317.842C324.809 319.904 326.021 321.152 328.055 321.152C329.725 321.152 330.896 320.303 331.096 318.984H329.221ZM335.971 317.543L338.303 314.619H335.982L334.166 317.062H334.119V314.619H332.045V321H334.119V318.434H334.166L336.023 321H338.484L335.971 317.543Z" fill="#494C5B"/>
<path d="M314 260C314 258.343 315.343 257 317 257H335C336.657 257 338 258.343 338 260V298H314V260Z" fill="#3567E4"/>
<rect x="268" y="219" width="24" height="79" fill="#3567E4"/>
<path d="M222 229C222 227.343 223.343 226 225 226H243C244.657 226 246 227.343 246 229V298H222V229Z" fill="#86A6F5"/>
<rect x="177" y="219" width="24" height="79" fill="#3567E4"/>
<rect x="132" y="219" width="24" height="79" fill="#3567E4"/>
<rect x="85" y="219" width="24" height="79" fill="#3567E4"/>
<rect x="36" y="219" width="24" height="79" fill="#3567E4"/>
<path d="M20 216H337C337.552 216 338 216.448 338 217C338 217.552 337.552 218 337 218H20V216Z" fill="#2FB383"/>
<path d="M268 199C268 197.343 269.343 196 271 196H289C290.657 196 292 197.343 292 199V215H268V199Z" fill="#2FB383"/>
<path d="M177 208C177 206.343 178.343 205 180 205H198C199.657 205 201 206.343 201 208V215H177V208Z" fill="#2FB383"/>
<path d="M132 211C132 209.343 133.343 208 135 208H153C154.657 208 156 209.343 156 211V215H132V211Z" fill="#2FB383"/>
<path d="M85 199C85 197.343 86.3431 196 88 196H106C107.657 196 109 197.343 109 199V215H85V199Z" fill="#2FB383"/>
<path d="M36 213C36 211.343 37.3431 210 39 210H57C58.6569 210 60 211.343 60 213V215H36V213Z" fill="#2FB383"/>
<path d="M120.15 51C122.857 51 124.536 49.6025 124.536 47.3701C124.536 45.6914 123.271 44.4346 121.548 44.3027V44.2324C122.893 44.0303 123.93 42.8701 123.93 41.4814C123.93 39.5391 122.436 38.3174 120.054 38.3174H114.534V51H120.15ZM117.188 40.2949H119.368C120.607 40.2949 121.319 40.875 121.319 41.8945C121.319 42.9668 120.511 43.5908 119.096 43.5908H117.188V40.2949ZM117.188 49.0225V45.3398H119.412C120.977 45.3398 121.829 45.9727 121.829 47.1592C121.829 48.3721 121.003 49.0225 119.474 49.0225H117.188ZM129.643 49.2949C128.772 49.2949 128.192 48.8555 128.192 48.1523C128.192 47.4844 128.737 47.0537 129.695 46.9834L131.682 46.8604V47.5459C131.682 48.5654 130.759 49.2949 129.643 49.2949ZM128.799 51.1494C129.977 51.1494 131.146 50.5605 131.673 49.5586H131.726V51H134.204V44.5225C134.204 42.624 132.631 41.376 130.214 41.376C127.718 41.376 126.162 42.6328 126.065 44.4609H128.412C128.535 43.7666 129.142 43.292 130.1 43.292C131.066 43.292 131.682 43.8018 131.682 44.6807V45.3047L129.309 45.4453C126.962 45.5859 125.644 46.5791 125.644 48.293C125.644 49.9893 127.006 51.1494 128.799 51.1494ZM136.023 51H148.952V41.5781H146.395V49.0576H143.767V41.5781H141.209V49.0576H138.581V41.5781H136.023V51ZM154.428 49.2949C153.558 49.2949 152.978 48.8555 152.978 48.1523C152.978 47.4844 153.522 47.0537 154.48 46.9834L156.467 46.8604V47.5459C156.467 48.5654 155.544 49.2949 154.428 49.2949ZM153.584 51.1494C154.762 51.1494 155.931 50.5605 156.458 49.5586H156.511V51H158.989V44.5225C158.989 42.624 157.416 41.376 154.999 41.376C152.503 41.376 150.947 42.6328 150.851 44.4609H153.197C153.32 43.7666 153.927 43.292 154.885 43.292C155.852 43.292 156.467 43.8018 156.467 44.6807V45.3047L154.094 45.4453C151.747 45.5859 150.429 46.5791 150.429 48.293C150.429 49.9893 151.791 51.1494 153.584 51.1494ZM172.858 44.7949C172.612 42.8174 171.048 41.376 168.622 41.376C165.81 41.376 164.025 43.2744 164.025 46.2803C164.025 49.3389 165.81 51.2021 168.64 51.2021C171.03 51.2021 172.639 49.8662 172.867 47.7832H170.477C170.257 48.6709 169.624 49.1895 168.666 49.1895C167.392 49.1895 166.609 48.1172 166.609 46.2803C166.609 44.4785 167.392 43.3887 168.657 43.3887C169.633 43.3887 170.248 43.9775 170.459 44.7949H172.858ZM181.7 41.5781H173.526V43.5117H176.339V51H178.896V43.5117H181.7V41.5781ZM186.473 49.2949C185.603 49.2949 185.022 48.8555 185.022 48.1523C185.022 47.4844 185.567 47.0537 186.525 46.9834L188.512 46.8604V47.5459C188.512 48.5654 187.589 49.2949 186.473 49.2949ZM185.629 51.1494C186.807 51.1494 187.976 50.5605 188.503 49.5586H188.556V51H191.034V44.5225C191.034 42.624 189.461 41.376 187.044 41.376C184.548 41.376 182.992 42.6328 182.896 44.4609H185.242C185.365 43.7666 185.972 43.292 186.93 43.292C187.896 43.292 188.512 43.8018 188.512 44.6807V45.3047L186.139 45.4453C183.792 45.5859 182.474 46.5791 182.474 48.293C182.474 49.9893 183.836 51.1494 185.629 51.1494ZM200.403 41.5781H192.229V43.5117H195.042V51H197.6V43.5117H200.403V41.5781ZM204.227 51L207.971 45.041H208.041V51H210.555V41.5781H208.041L204.297 47.4668H204.227V41.5781H201.713V51H204.227ZM220.882 44.7949C220.636 42.8174 219.071 41.376 216.646 41.376C213.833 41.376 212.049 43.2744 212.049 46.2803C212.049 49.3389 213.833 51.2021 216.663 51.2021C219.054 51.2021 220.662 49.8662 220.891 47.7832H218.5C218.28 48.6709 217.647 49.1895 216.689 49.1895C215.415 49.1895 214.633 48.1172 214.633 46.2803C214.633 44.4785 215.415 43.3887 216.681 43.3887C217.656 43.3887 218.271 43.9775 218.482 44.7949H220.882ZM229.724 41.5781H221.55V43.5117H224.362V51H226.92V43.5117H229.724V41.5781ZM233.547 51L237.291 45.041H237.361V51H239.875V41.5781H237.361L233.617 47.4668H233.547V41.5781H231.033V51H233.547ZM246.651 45.9375L250.413 41.5781H247.478L244.349 45.3662H244.278V41.5781H241.721V51H244.278V46.957H244.349L247.53 51H250.633L246.651 45.9375ZM255.15 49.2949C254.28 49.2949 253.7 48.8555 253.7 48.1523C253.7 47.4844 254.245 47.0537 255.203 46.9834L257.189 46.8604V47.5459C257.189 48.5654 256.267 49.2949 255.15 49.2949ZM254.307 51.1494C255.484 51.1494 256.653 50.5605 257.181 49.5586H257.233V51H259.712V44.5225C259.712 42.624 258.139 41.376 255.722 41.376C253.226 41.376 251.67 42.6328 251.573 44.4609H253.92C254.043 43.7666 254.649 43.292 255.607 43.292C256.574 43.292 257.189 43.8018 257.189 44.6807V45.3047L254.816 45.4453C252.47 45.5859 251.151 46.5791 251.151 48.293C251.151 49.9893 252.514 51.1494 254.307 51.1494Z" fill="#494C5B"/>
<path d="M66.4219 137.234V137.312H70.7969V137.234C70.7969 135.156 72.4062 133.625 74.5938 133.625C76.6875 133.625 78.1719 134.969 78.1719 136.656C78.1719 138.219 77.4688 139.359 75.1875 141.641L66.6875 149.828V153H83.0781V149.25H72.9062V149.156L78.4062 143.859C80.8906 141.391 82.7656 139.281 82.7656 136.469C82.7656 132.703 79.5 129.953 74.75 129.953C69.8281 129.953 66.4219 132.969 66.4219 137.234ZM91.4844 143.156H94.2656C96.8125 143.156 98.3594 144.406 98.3594 146.469C98.3594 148.375 96.7031 149.703 94.3438 149.703C91.8594 149.703 90.2969 148.453 90.1562 146.547H85.6406C85.8594 150.703 89.1875 153.5 94.2812 153.5C99.4844 153.5 103.156 150.812 103.156 146.766C103.156 143.641 100.984 141.609 97.625 141.328V141.234C100.391 140.734 102.281 138.734 102.281 135.969C102.281 132.359 99.0781 129.953 94.3906 129.953C89.5 129.953 86.25 132.672 86.0781 136.844H90.4219C90.5469 134.875 92 133.578 94.1875 133.578C96.5312 133.578 97.8281 134.781 97.8281 136.609C97.8281 138.469 96.375 139.75 94.2188 139.75H91.4844V143.156ZM107.328 153H112.281L121.688 134.25V130.453H105.562V134.203H117.031V134.297L107.328 153ZM139.906 153.516C144.953 153.516 148.562 150.188 148.562 145.547C148.562 141.266 145.391 138.109 141.109 138.109C138.234 138.109 136.016 139.578 135.109 141.781H135.016C134.906 136.688 136.812 133.672 139.953 133.672C141.719 133.672 143.172 134.672 143.625 136.172H148.266C147.641 132.484 144.281 129.938 139.984 129.938C134.156 129.938 130.531 134.438 130.531 141.906C130.531 144.906 131.172 147.453 132.422 149.359C134 152.047 136.672 153.516 139.906 153.516ZM139.859 149.75C137.547 149.75 135.75 147.938 135.75 145.641C135.75 143.359 137.531 141.656 139.875 141.656C142.234 141.656 143.969 143.359 143.969 145.688C143.969 147.953 142.156 149.75 139.859 149.75ZM160.25 153.5C165.672 153.5 169.391 150.812 169.391 146.906C169.391 143.938 167.25 141.641 164.094 141.109V141.016C166.719 140.391 168.469 138.375 168.469 135.922C168.469 132.453 165.094 129.953 160.25 129.953C155.422 129.953 152.016 132.469 152.016 135.906C152.016 138.391 153.781 140.406 156.406 141.016V141.109C153.266 141.625 151.109 143.922 151.109 146.891C151.109 150.797 154.781 153.5 160.25 153.5ZM160.25 150.062C157.766 150.062 156.031 148.578 156.031 146.547C156.031 144.516 157.766 143.031 160.25 143.031C162.734 143.031 164.453 144.516 164.453 146.547C164.453 148.578 162.734 150.062 160.25 150.062ZM160.25 139.594C158.156 139.594 156.688 138.281 156.688 136.484C156.688 134.688 158.156 133.359 160.25 133.359C162.328 133.359 163.812 134.672 163.812 136.484C163.812 138.281 162.328 139.594 160.25 139.594ZM177.766 143.156H180.547C183.094 143.156 184.641 144.406 184.641 146.469C184.641 148.375 182.984 149.703 180.625 149.703C178.141 149.703 176.578 148.453 176.438 146.547H171.922C172.141 150.703 175.469 153.5 180.562 153.5C185.766 153.5 189.438 150.812 189.438 146.766C189.438 143.641 187.266 141.609 183.906 141.328V141.234C186.672 140.734 188.562 138.734 188.562 135.969C188.562 132.359 185.359 129.953 180.672 129.953C175.781 129.953 172.531 132.672 172.359 136.844H176.703C176.828 134.875 178.281 133.578 180.469 133.578C182.812 133.578 184.109 134.781 184.109 136.609C184.109 138.469 182.656 139.75 180.5 139.75H177.766V143.156ZM205.609 134.203H208.359C211.062 134.203 212.484 135.547 212.484 137.719C212.484 139.906 211.062 141.25 208.328 141.25H205.609V134.203ZM211.719 149.984V147.078H205.609V144.844H209.516C214.125 144.844 217.266 141.844 217.266 137.672C217.266 133.453 214.281 130.453 209.766 130.453H200.891V141.312H198.062V144.766H200.891V147.078H198.062V149.984H200.891V153H205.609V149.984H211.719Z" fill="#494C5B"/>
<path d="M86.9355 173.998H84.1406V173.951C84.4219 173.553 84.5742 172.92 84.6211 172.193L84.791 169.838H86.9355V173.998ZM83.4316 176.617V175H87.9785V176.617H89.1504V173.998H88.1953V168.836H83.7012L83.4785 172.141C83.4199 172.973 83.2148 173.717 82.7637 173.998H82.2656V176.617H83.4316ZM92.6602 175.117C94.4238 175.117 95.584 173.904 95.584 171.918C95.584 169.938 94.418 168.725 92.6602 168.725C90.9023 168.725 89.7363 169.938 89.7363 171.918C89.7363 173.904 90.8965 175.117 92.6602 175.117ZM92.6602 174.074C91.6699 174.074 91.0254 173.289 91.0254 171.918C91.0254 170.553 91.6699 169.768 92.6602 169.768C93.6504 169.768 94.2949 170.553 94.2949 171.918C94.2949 173.289 93.6562 174.074 92.6602 174.074ZM101.654 169.756C102.27 169.756 102.604 170.043 102.604 170.553C102.604 171.098 102.246 171.373 101.531 171.373H100.359V169.756H101.654ZM101.613 172.258C102.445 172.258 102.855 172.562 102.855 173.172C102.855 173.764 102.469 174.08 101.754 174.08H100.359V172.258H101.613ZM99.1113 175H101.947C103.283 175 104.115 174.309 104.115 173.225C104.115 172.451 103.588 171.889 102.791 171.783V171.736C103.383 171.625 103.84 171.045 103.84 170.406C103.84 169.434 103.113 168.836 101.912 168.836H99.1113V175ZM110.73 175H111.984V168.836H110.73V175ZM107.566 171.73C108.287 171.73 108.762 172.182 108.762 172.867C108.762 173.547 108.293 174.004 107.566 174.004H106.5V171.73H107.566ZM105.24 175H107.678C109.102 175 110.021 174.174 110.021 172.867C110.021 171.566 109.102 170.74 107.678 170.74H106.5V168.836H105.24V175ZM117.34 175H118.605V168.836H113.35V175H114.609V169.838H117.34V175ZM122.625 175.117C124.389 175.117 125.549 173.904 125.549 171.918C125.549 169.938 124.383 168.725 122.625 168.725C120.867 168.725 119.701 169.938 119.701 171.918C119.701 173.904 120.861 175.117 122.625 175.117ZM122.625 174.074C121.635 174.074 120.99 173.289 120.99 171.918C120.99 170.553 121.635 169.768 122.625 169.768C123.615 169.768 124.26 170.553 124.26 171.918C124.26 173.289 123.621 174.074 122.625 174.074ZM128.279 172.193L128.449 169.838H130.348V175H131.607V168.836H127.336L127.125 172.141C127.055 173.213 126.844 173.928 126.246 173.928C126.088 173.928 125.971 173.898 125.912 173.881V174.994C125.988 175.023 126.135 175.059 126.34 175.059C127.723 175.059 128.162 173.939 128.279 172.193ZM137.016 175H138.275V168.836H137.016V171.32H134.227V168.836H132.967V175H134.227V172.316H137.016V175ZM142.23 169.744C143.115 169.744 143.713 170.406 143.742 171.35H140.66C140.725 170.418 141.346 169.744 142.23 169.744ZM143.736 173.189C143.566 173.729 143.033 174.092 142.312 174.092C141.299 174.092 140.654 173.383 140.654 172.311V172.234H145.008V171.801C145.008 169.932 143.941 168.725 142.23 168.725C140.49 168.725 139.377 170.014 139.377 171.947C139.377 173.893 140.473 175.117 142.283 175.117C143.695 175.117 144.762 174.314 144.938 173.189H143.736ZM150.141 175H151.4V168.836H150.141V171.32H147.352V168.836H146.092V175H147.352V172.316H150.141V175ZM154.02 175L156.867 170.67H156.914V175H158.162V168.836H156.914L154.066 173.154H154.02V168.836H152.771V175H154.02ZM161.859 171.912C161.145 171.912 160.676 171.496 160.676 170.91C160.676 170.242 161.139 169.832 161.859 169.832H162.979V171.912H161.859ZM162.979 175H164.221V168.836H161.795C160.354 168.836 159.416 169.633 159.416 170.916C159.416 171.777 159.943 172.416 160.799 172.668L159.117 175H160.547L162.041 172.885H162.979V175ZM172.008 175H173.273V168.836H168.018V175H169.277V169.838H172.008V175ZM176.502 172.193L176.672 169.838H178.57V175H179.83V168.836H175.559L175.348 172.141C175.277 173.213 175.066 173.928 174.469 173.928C174.311 173.928 174.193 173.898 174.135 173.881V174.994C174.211 175.023 174.357 175.059 174.562 175.059C175.945 175.059 176.385 173.939 176.502 172.193ZM183.352 174.104C182.672 174.104 182.227 173.752 182.227 173.213C182.227 172.686 182.654 172.352 183.41 172.299L184.928 172.205V172.691C184.928 173.494 184.236 174.104 183.352 174.104ZM183 175.105C183.809 175.105 184.588 174.672 184.945 173.986H184.975V175H186.188V170.752C186.188 169.516 185.232 168.725 183.738 168.725C182.215 168.725 181.266 169.545 181.195 170.658H182.391C182.502 170.107 182.959 169.756 183.691 169.756C184.465 169.756 184.928 170.166 184.928 170.852V171.326L183.24 171.426C181.775 171.508 180.949 172.17 180.949 173.248C180.949 174.355 181.793 175.105 183 175.105ZM191.566 175H192.826V168.836H191.566V171.32H188.777V168.836H187.518V175H188.777V172.316H191.566V175ZM196.359 174.104C195.68 174.104 195.234 173.752 195.234 173.213C195.234 172.686 195.662 172.352 196.418 172.299L197.936 172.205V172.691C197.936 173.494 197.244 174.104 196.359 174.104ZM196.008 175.105C196.816 175.105 197.596 174.672 197.953 173.986H197.982V175H199.195V170.752C199.195 169.516 198.24 168.725 196.746 168.725C195.223 168.725 194.273 169.545 194.203 170.658H195.398C195.51 170.107 195.967 169.756 196.699 169.756C197.473 169.756 197.936 170.166 197.936 170.852V171.326L196.248 171.426C194.783 171.508 193.957 172.17 193.957 173.248C193.957 174.355 194.801 175.105 196.008 175.105Z" fill="#494C5B"/>
<path d="M277.391 153H282.062V130.453H277.375L271.547 134.5V138.75L277.297 134.781H277.391V153ZM286.859 137.234V137.312H291.234V137.234C291.234 135.156 292.844 133.625 295.031 133.625C297.125 133.625 298.609 134.969 298.609 136.656C298.609 138.219 297.906 139.359 295.625 141.641L287.125 149.828V153H303.516V149.25H293.344V149.156L298.844 143.859C301.328 141.391 303.203 139.281 303.203 136.469C303.203 132.703 299.938 129.953 295.188 129.953C290.266 129.953 286.859 132.969 286.859 137.234Z" fill="#494C5B"/>
<path d="M270.771 175H272.037V168.836H266.781V175H268.041V169.838H270.771V175ZM276.619 168.736C275.729 168.736 275.02 169.188 274.656 169.896H274.633V168.836H273.408V177.039H274.674V173.986H274.703C275.055 174.672 275.758 175.105 276.643 175.105C278.189 175.105 279.215 173.869 279.215 171.918C279.215 169.967 278.184 168.736 276.619 168.736ZM276.285 174.033C275.312 174.033 274.668 173.201 274.668 171.918C274.668 170.646 275.318 169.803 276.285 169.803C277.287 169.803 277.914 170.629 277.914 171.918C277.914 173.213 277.287 174.033 276.285 174.033ZM282.959 175.117C284.723 175.117 285.883 173.904 285.883 171.918C285.883 169.938 284.717 168.725 282.959 168.725C281.201 168.725 280.035 169.938 280.035 171.918C280.035 173.904 281.195 175.117 282.959 175.117ZM282.959 174.074C281.969 174.074 281.324 173.289 281.324 171.918C281.324 170.553 281.969 169.768 282.959 169.768C283.949 169.768 284.594 170.553 284.594 171.918C284.594 173.289 283.955 174.074 282.959 174.074ZM290.969 173.998H288.174V173.951C288.455 173.553 288.607 172.92 288.654 172.193L288.824 169.838H290.969V173.998ZM287.465 176.617V175H292.012V176.617H293.184V173.998H292.229V168.836H287.734L287.512 172.141C287.453 172.973 287.248 173.717 286.797 173.998H286.299V176.617H287.465ZM296.201 174.104C295.521 174.104 295.076 173.752 295.076 173.213C295.076 172.686 295.504 172.352 296.26 172.299L297.777 172.205V172.691C297.777 173.494 297.086 174.104 296.201 174.104ZM295.85 175.105C296.658 175.105 297.438 174.672 297.795 173.986H297.824V175H299.037V170.752C299.037 169.516 298.082 168.725 296.588 168.725C295.064 168.725 294.115 169.545 294.045 170.658H295.24C295.352 170.107 295.809 169.756 296.541 169.756C297.314 169.756 297.777 170.166 297.777 170.852V171.326L296.09 171.426C294.625 171.508 293.799 172.17 293.799 173.248C293.799 174.355 294.643 175.105 295.85 175.105ZM306.156 171.73L308.682 168.836H307.188L304.949 171.473H304.902V168.836H303.654V171.473H303.613L301.375 168.836H299.869L302.412 171.754L299.799 175H301.346L303.613 172.158H303.654V175H304.902V172.158H304.949L307.217 175H308.787L306.156 171.73Z" fill="#494C5B"/>
<path d="M241.766 143.25C243.188 144.672 244.391 145.266 245.797 145.266C249.062 145.266 250.984 142.703 250.797 138.641H247.25C247.188 140.453 246.562 141.422 245.422 141.422C244.734 141.422 244.188 141.078 243.281 140.156C241.859 138.734 240.641 138.125 239.219 138.125C235.953 138.125 234.016 140.688 234.203 144.75H237.766C237.828 142.922 238.438 141.969 239.578 141.969C240.281 141.969 240.844 142.312 241.766 143.25Z" fill="#494C5B"/>
<rect x="68" y="71" width="239" height="36" rx="18" fill="#EDF0F6"/>
<g filter="url(#filter1_d)">
<rect x="70" y="73" width="76" height="32" rx="16" fill="white"/>
<path d="M102.484 95.2266C105.078 95.2266 106.891 93.8203 107.32 91.5078H105.32C104.953 92.75 103.914 93.4766 102.492 93.4766C100.539 93.4766 99.3047 91.8906 99.3047 89.3594C99.3047 86.8438 100.547 85.25 102.484 85.25C103.875 85.25 104.984 86.0859 105.32 87.3828H107.312C106.977 85.0703 105.031 83.5 102.484 83.5C99.2812 83.5 97.2422 85.7656 97.2422 89.3594C97.2422 92.9766 99.2656 95.2266 102.484 95.2266ZM118.375 95V83.7266H109V95H111.023V85.4375H116.367V95H118.375Z" fill="#494C5B"/>
</g>
<rect x="146" y="73" width="76" height="32" rx="16" fill="#EDF0F6"/>
<path d="M177.039 90.4844L177.359 85.4219H181.195V93.2969H176.273V93.2344C176.797 92.6172 176.953 91.75 177.039 90.4844ZM175.062 95H182.781V97.2266H184.609V93.2969H183.203V83.7266H175.578L175.172 90.3594C175.086 91.8672 174.828 92.7969 174.031 93.2969H173.227V97.2266H175.062V95ZM187.445 95.0938C189.32 95.0938 190.281 94.1406 191.297 91.7734L194.75 83.7266H192.633L190.07 90.3672H189.969L187.297 83.7266H185.164L188.945 92.4141C188.531 93.1094 188.008 93.3672 187.258 93.3672C186.914 93.3672 186.703 93.3281 186.594 93.3047V94.9844C186.68 95.0234 187.039 95.0938 187.445 95.0938Z" fill="#494C5B"/>
<rect x="222" y="73" width="83" height="32" rx="16" fill="#EDF0F6"/>
<path d="M255.648 95V83.7266H246.273V95H248.297V85.4375H253.641V95H255.648ZM265.32 95H267.32V83.7266H265.367L259.898 91.8594H259.797V83.7266H257.789V95H259.742L265.219 86.8906H265.32V95ZM274.133 92.3516C272.227 92.2734 271.023 91.1406 271.023 89.3359C271.023 87.5469 272.227 86.4062 274.133 86.3281V92.3516ZM279.18 89.3438C279.18 91.125 277.977 92.2656 276.078 92.3516V86.3281C277.977 86.3984 279.18 87.5391 279.18 89.3438ZM274.109 94.0078V95.2031H276.094V94.0078C279.195 93.9141 281.203 92.1562 281.203 89.3438C281.203 86.5078 279.195 84.75 276.094 84.6641V83.5234H274.109V84.6641C271.008 84.7578 268.992 86.5156 268.992 89.3359C268.992 92.1641 271.008 93.9297 274.109 94.0078Z" fill="#494C5B"/>
<defs>
<filter id="filter0_dd" x="0" y="0" width="375" height="373" filterUnits="userSpaceOnUse" color-interpolation-filters="sRGB">
<feFlood flood-opacity="0" result="BackgroundImageFix"/>
<feColorMatrix in="SourceAlpha" type="matrix" values="0 0 0 0 0 0 0 0 0 0 0 0 0 0 0 0 0 0 127 0"/>
<feOffset dy="10"/>
<feGaussianBlur stdDeviation="10"/>
<feColorMatrix type="matrix" values="0 0 0 0 0.862745 0 0 0 0 0.87451 0 0 0 0 0.898039 0 0 0 0.7 0"/>
<feBlend mode="normal" in2="BackgroundImageFix" result="effect1_dropShadow"/>
<feColorMatrix in="SourceAlpha" type="matrix" values="0 0 0 0 0 0 0 0 0 0 0 0 0 0 0 0 0 0 127 0"/>
<feOffset dy="2"/>
<feGaussianBlur stdDeviation="2.5"/>
<feColorMatrix type="matrix" values="0 0 0 0 0.610503 0 0 0 0 0.636608 0 0 0 0 0.703323 0 0 0 0.15 0"/>
<feBlend mode="normal" in2="effect1_dropShadow" result="effect2_dropShadow"/>
<feBlend mode="normal" in="SourceGraphic" in2="effect2_dropShadow" result="shape"/>
</filter>
<filter id="filter1_d" x="69" y="73" width="78" height="34" filterUnits="userSpaceOnUse" color-interpolation-filters="sRGB">
<feFlood flood-opacity="0" result="BackgroundImageFix"/>
<feColorMatrix in="SourceAlpha" type="matrix" values="0 0 0 0 0 0 0 0 0 0 0 0 0 0 0 0 0 0 127 0"/>
<feOffset dy="1"/>
<feGaussianBlur stdDeviation="0.5"/>
<feColorMatrix type="matrix" values="0 0 0 0 0.862745 0 0 0 0 0.87451 0 0 0 0 0.898039 0 0 0 1 0"/>
<feBlend mode="normal" in2="BackgroundImageFix" result="effect1_dropShadow"/>
<feBlend mode="normal" in="SourceGraphic" in2="effect1_dropShadow" result="shape"/>
</filter>
</defs>
</svg>
