<svg width="180" height="180" viewBox="0 0 180 180" fill="none" xmlns="http://www.w3.org/2000/svg">
<mask id="mask0" mask-type="alpha" maskUnits="userSpaceOnUse" x="0" y="0" width="180" height="180">
<path fill-rule="evenodd" clip-rule="evenodd" d="M90 0C66.1683 0 44.5 9.26281 28.3991 24.3846L65.8793 61.8648C72.3616 56.3023 80.7883 52.9414 89.9999 52.9414L90 0ZM92.4 53.0178V0.0313795C140.996 1.30356 180 41.0969 180 90C180 139.706 139.706 180 90 180C40.4278 180 0.216366 139.922 0.000854492 90.4001L52.9432 90.4C53.1577 110.683 69.6664 127.059 89.9999 127.059C110.467 127.059 127.059 110.467 127.059 90.0002C127.059 70.3394 111.748 54.2546 92.4 53.0178ZM54.0769 80.8597C53.493 83.1615 53.1245 85.5492 52.9942 88H0.0217665C0.171283 81.1423 1.08786 74.4736 2.68911 68.0762L54.0769 80.8597ZM64.1075 63.4872C59.8668 67.6292 56.616 72.7803 54.7431 78.5523L3.30314 65.7558C7.55958 50.5028 15.7332 36.8836 26.6713 26.0509L64.1075 63.4872Z" fill="#73A1FB"/>
</mask>
<g mask="url(#mask0)">
<path d="M91.0588 66.1765V-3.70581L10.5882 7.94125L69.3529 68.2942L91.0588 66.1765Z" fill="#E4A6EE"/>
<path d="M55.5882 79.9412L67.2353 64.0589L22.7647 21.1765L-3.70587 65.6471L55.5882 79.9412Z" fill="#593CAD"/>
<path d="M91.5883 93.1764V-3.17651C153 -3.17651 192.177 38.647 188.471 96.3529C184.765 154.059 150.353 187.412 105.882 191.118C-9 198 -10.3824 81.0294 -18.5 62.5L54.2647 78.7059L91.5883 93.1764Z" fill="#73A1FB"/>
<path d="M55.1617 88.9802L55.5742 80.0545L-0.091039 67.2567L-3.68833 89.1086L55.1617 88.9802Z" fill="#3A4465"/>
</g>
</svg>
