<svg width="43" height="32" viewBox="0 0 43 32" fill="none" xmlns="http://www.w3.org/2000/svg">
<mask id="path-1-inside-1" fill="white">
<path fill-rule="evenodd" clip-rule="evenodd" d="M1.63273 7.31813C1 8.58442 1 10.2363 1 13.54V22.46C1 25.7637 1 27.4156 1.63273 28.6819C2.21349 29.8442 3.15585 30.7865 4.31813 31.3673C5.58442 32 7.23628 32 10.54 32H22.46C25.7637 32 27.4156 32 28.6819 31.3673C29.8442 30.7865 30.7865 29.8442 31.3673 28.6819C31.8483 27.7191 31.9636 26.5334 31.9913 24.5683L38.0057 27.7736C40.004 28.8386 42.4166 27.3905 42.4166 25.1261V10.8739C42.4166 8.60955 40.004 7.16145 38.0057 8.22641L31.9913 11.4317C31.9636 9.46659 31.8483 8.28091 31.3673 7.31813C30.7865 6.15585 29.8442 5.21349 28.6819 4.63273C27.4156 4 25.7637 4 22.46 4H10.54C7.23628 4 5.58442 4 4.31813 4.63273C3.15585 5.21349 2.21349 6.15585 1.63273 7.31813Z"/>
</mask>
<path d="M1.63273 7.31813L3.86909 8.43558L1.63273 7.31813ZM1.63273 28.6819L-0.60363 29.7993H-0.603629L1.63273 28.6819ZM4.31813 31.3673L5.43558 29.1309L5.43557 29.1309L4.31813 31.3673ZM28.6819 31.3673L29.7993 33.6036V33.6036L28.6819 31.3673ZM31.3673 28.6819L29.1309 27.5644L31.3673 28.6819ZM31.9913 24.5683L33.1671 22.362L29.5492 20.4339L29.4915 24.5331L31.9913 24.5683ZM38.0057 27.7736L36.8299 29.9798L38.0057 27.7736ZM38.0057 8.22641L36.8299 6.02017V6.02017L38.0057 8.22641ZM31.9913 11.4317L29.4915 11.4669L29.5492 15.5661L33.1671 13.638L31.9913 11.4317ZM31.3673 7.31813L29.1309 8.43557L29.1309 8.43558L31.3673 7.31813ZM28.6819 4.63273L29.7993 2.39637V2.39637L28.6819 4.63273ZM4.31813 4.63273L5.43558 6.86909L4.31813 4.63273ZM3.5 13.54C3.5 11.8476 3.50188 10.7261 3.57106 9.86529C3.63795 9.0329 3.75556 8.66279 3.86909 8.43558L-0.603629 6.20068C-1.12283 7.23977 -1.32158 8.32873 -1.41288 9.46478C-1.50188 10.5724 -1.5 11.9287 -1.5 13.54H3.5ZM3.5 22.46V13.54H-1.5V22.46H3.5ZM3.86909 27.5644C3.75556 27.3372 3.63795 26.9671 3.57106 26.1347C3.50188 25.2739 3.5 24.1524 3.5 22.46H-1.5C-1.5 24.0713 -1.50188 25.4276 -1.41288 26.5352C-1.32158 27.6713 -1.12283 28.7602 -0.60363 29.7993L3.86909 27.5644ZM5.43557 29.1309C4.75758 28.7921 4.20787 28.2424 3.86909 27.5644L-0.603629 29.7993C0.219113 31.4459 1.55412 32.7809 3.20068 33.6036L5.43557 29.1309ZM10.54 29.5C8.8476 29.5 7.72613 29.4981 6.86528 29.4289C6.0329 29.3621 5.66279 29.2444 5.43558 29.1309L3.20068 33.6036C4.23977 34.1228 5.32873 34.3216 6.46478 34.4129C7.57236 34.5019 8.92868 34.5 10.54 34.5V29.5ZM22.46 29.5H10.54V34.5H22.46V29.5ZM27.5644 29.1309C27.3372 29.2444 26.9671 29.3621 26.1347 29.4289C25.2739 29.4981 24.1524 29.5 22.46 29.5V34.5C24.0713 34.5 25.4276 34.5019 26.5352 34.4129C27.6713 34.3216 28.7602 34.1228 29.7993 33.6036L27.5644 29.1309ZM29.1309 27.5644C28.7921 28.2424 28.2424 28.7921 27.5644 29.1309L29.7993 33.6036C31.4459 32.7809 32.7809 31.4459 33.6036 29.7993L29.1309 27.5644ZM29.4915 24.5331C29.4633 26.5389 29.3247 27.1767 29.1309 27.5644L33.6036 29.7993C34.372 28.2615 34.464 26.528 34.491 24.6034L29.4915 24.5331ZM30.8155 26.7745L36.8299 29.9798L39.1815 25.5674L33.1671 22.362L30.8155 26.7745ZM36.8299 29.9798C40.4934 31.9323 44.9166 29.2774 44.9166 25.1261H39.9166C39.9166 25.5035 39.5145 25.7448 39.1815 25.5674L36.8299 29.9798ZM44.9166 25.1261V10.8739H39.9166V25.1261H44.9166ZM44.9166 10.8739C44.9166 6.72258 40.4934 4.06774 36.8299 6.02017L39.1815 10.4327C39.5145 10.2552 39.9166 10.4965 39.9166 10.8739H44.9166ZM36.8299 6.02017L30.8155 9.22547L33.1671 13.638L39.1815 10.4327L36.8299 6.02017ZM29.1309 8.43558C29.3247 8.82333 29.4633 9.46115 29.4915 11.4669L34.491 11.3966C34.464 9.47202 34.372 7.7385 33.6036 6.20068L29.1309 8.43558ZM27.5644 6.86909C28.2424 7.20787 28.7921 7.75758 29.1309 8.43557L33.6036 6.20068C32.7809 4.55412 31.4459 3.21911 29.7993 2.39637L27.5644 6.86909ZM22.46 6.5C24.1524 6.5 25.2739 6.50188 26.1347 6.57106C26.9671 6.63795 27.3372 6.75556 27.5644 6.86909L29.7993 2.39637C28.7602 1.87717 27.6713 1.67842 26.5352 1.58712C25.4276 1.49812 24.0713 1.5 22.46 1.5V6.5ZM10.54 6.5H22.46V1.5H10.54V6.5ZM5.43558 6.86909C5.66279 6.75556 6.0329 6.63795 6.86528 6.57106C7.72613 6.50188 8.8476 6.5 10.54 6.5V1.5C8.92868 1.5 7.57236 1.49812 6.46478 1.58712C5.32873 1.67842 4.23977 1.87717 3.20068 2.39637L5.43558 6.86909ZM3.86909 8.43558C4.20787 7.75758 4.75758 7.20787 5.43558 6.86909L3.20068 2.39637C1.55412 3.21911 0.219113 4.55412 -0.60363 6.20068L3.86909 8.43558Z" fill="#1A1A1A" mask="url(#path-1-inside-1)"/>
<circle cx="6" cy="6" r="4.5" fill="#E90000" stroke="#FAFAFA" stroke-width="3"/>
</svg>
