<svg width="89" height="15" viewBox="0 0 89 15" fill="none" xmlns="http://www.w3.org/2000/svg">
<path d="M1.34595 6.37685C0.818026 6.21464 0.521546 5.65518 0.683749 5.12725C0.845952 4.59932 1.40541 4.30285 1.93334 4.46505L1.34595 6.37685ZM87.8214 4.53385C88.3114 4.78877 88.5019 5.3926 88.247 5.88253L84.0927 13.8664C83.8378 14.3563 83.234 14.5469 82.7441 14.2919C82.2541 14.037 82.0636 13.4332 82.3185 12.9433L86.0112 5.84647L78.9144 2.15382C78.4245 1.8989 78.234 1.29508 78.4889 0.805146C78.7438 0.315215 79.3476 0.124704 79.8376 0.379627L87.8214 4.53385ZM1.93334 4.46505C16.2946 8.87744 53.4853 15.0601 87.059 4.46729L87.6608 6.37461C53.5683 17.131 15.9373 10.86 1.34595 6.37685L1.93334 4.46505Z" fill="#FF704B"/>
</svg>
