<svg width="182" height="41" viewBox="0 0 182 41" fill="none" xmlns="http://www.w3.org/2000/svg">
<rect x="0.333984" width="180.8" height="41" rx="8" fill="black"/>
<g clip-path="url(#clip0)">
<path d="M34.5979 19.5699L31.2329 17.5857L28.4043 20.4876L31.2329 23.3895L34.5979 21.4053C35.305 21.0085 35.305 19.9916 34.5979 19.5699Z" fill="white"/>
<path d="M15.5291 9.5C15.4071 9.67362 15.334 9.87204 15.334 10.0953V30.9047C15.334 31.128 15.4071 31.3264 15.5291 31.5L26.3313 20.5124L15.5291 9.5Z" fill="white"/>
<path d="M17.7715 31.3014L29.9392 24.1582L27.3545 21.554L17.7715 31.3014Z" fill="white"/>
<path d="M29.9392 16.8414L17.7715 9.69824L27.3545 19.4457L29.9392 16.8414Z" fill="white"/>
</g>
<path d="M54.7369 20.84H57.1969V26.42C56.4769 26.9933 55.6369 27.4333 54.6769 27.74C53.7169 28.0467 52.7302 28.2 51.7169 28.2C50.2902 28.2 49.0035 27.8933 47.8569 27.28C46.7102 26.6533 45.8102 25.7933 45.1569 24.7C44.5035 23.6067 44.1769 22.3733 44.1769 21C44.1769 19.6267 44.5035 18.3933 45.1569 17.3C45.8102 16.2067 46.7102 15.3533 47.8569 14.74C49.0169 14.1133 50.3169 13.8 51.7569 13.8C52.9302 13.8 53.9969 13.9933 54.9569 14.38C55.9169 14.7667 56.7235 15.3333 57.3769 16.08L55.7369 17.68C54.6702 16.6133 53.3835 16.08 51.8769 16.08C50.8902 16.08 50.0102 16.2867 49.2369 16.7C48.4769 17.1133 47.8769 17.6933 47.4369 18.44C47.0102 19.1867 46.7969 20.04 46.7969 21C46.7969 21.9333 47.0102 22.7733 47.4369 23.52C47.8769 24.2667 48.4769 24.8533 49.2369 25.28C50.0102 25.7067 50.8835 25.92 51.8569 25.92C52.9502 25.92 53.9102 25.68 54.7369 25.2V20.84ZM65.1861 28.14C64.1061 28.14 63.1328 27.9067 62.2661 27.44C61.3994 26.9733 60.7194 26.3267 60.2261 25.5C59.7461 24.66 59.5061 23.7133 59.5061 22.66C59.5061 21.6067 59.7461 20.6667 60.2261 19.84C60.7194 19.0133 61.3994 18.3667 62.2661 17.9C63.1328 17.4333 64.1061 17.2 65.1861 17.2C66.2794 17.2 67.2594 17.4333 68.1261 17.9C68.9928 18.3667 69.6661 19.0133 70.1461 19.84C70.6394 20.6667 70.8861 21.6067 70.8861 22.66C70.8861 23.7133 70.6394 24.66 70.1461 25.5C69.6661 26.3267 68.9928 26.9733 68.1261 27.44C67.2594 27.9067 66.2794 28.14 65.1861 28.14ZM65.1861 26C66.1061 26 66.8661 25.6933 67.4661 25.08C68.0661 24.4667 68.3661 23.66 68.3661 22.66C68.3661 21.66 68.0661 20.8533 67.4661 20.24C66.8661 19.6267 66.1061 19.32 65.1861 19.32C64.2661 19.32 63.5061 19.6267 62.9061 20.24C62.3194 20.8533 62.0261 21.66 62.0261 22.66C62.0261 23.66 62.3194 24.4667 62.9061 25.08C63.5061 25.6933 64.2661 26 65.1861 26ZM78.0767 28.14C76.9967 28.14 76.0234 27.9067 75.1567 27.44C74.2901 26.9733 73.6101 26.3267 73.1167 25.5C72.6367 24.66 72.3967 23.7133 72.3967 22.66C72.3967 21.6067 72.6367 20.6667 73.1167 19.84C73.6101 19.0133 74.2901 18.3667 75.1567 17.9C76.0234 17.4333 76.9967 17.2 78.0767 17.2C79.1701 17.2 80.1501 17.4333 81.0167 17.9C81.8834 18.3667 82.5567 19.0133 83.0367 19.84C83.5301 20.6667 83.7767 21.6067 83.7767 22.66C83.7767 23.7133 83.5301 24.66 83.0367 25.5C82.5567 26.3267 81.8834 26.9733 81.0167 27.44C80.1501 27.9067 79.1701 28.14 78.0767 28.14ZM78.0767 26C78.9967 26 79.7567 25.6933 80.3567 25.08C80.9567 24.4667 81.2567 23.66 81.2567 22.66C81.2567 21.66 80.9567 20.8533 80.3567 20.24C79.7567 19.6267 78.9967 19.32 78.0767 19.32C77.1567 19.32 76.3967 19.6267 75.7967 20.24C75.2101 20.8533 74.9167 21.66 74.9167 22.66C74.9167 23.66 75.2101 24.4667 75.7967 25.08C76.3967 25.6933 77.1567 26 78.0767 26ZM96.7673 17.32V26.38C96.7673 30.14 94.8473 32.02 91.0073 32.02C89.9807 32.02 89.0073 31.8867 88.0873 31.62C87.1673 31.3667 86.4073 30.9933 85.8073 30.5L86.9273 28.62C87.394 29.0067 87.9807 29.3133 88.6873 29.54C89.4073 29.78 90.134 29.9 90.8673 29.9C92.0407 29.9 92.9007 29.6333 93.4473 29.1C93.994 28.5667 94.2673 27.7533 94.2673 26.66V26.1C93.8407 26.5667 93.3207 26.92 92.7073 27.16C92.094 27.4 91.4207 27.52 90.6873 27.52C89.674 27.52 88.754 27.3067 87.9273 26.88C87.114 26.44 86.4673 25.8267 85.9873 25.04C85.5207 24.2533 85.2873 23.3533 85.2873 22.34C85.2873 21.3267 85.5207 20.4333 85.9873 19.66C86.4673 18.8733 87.114 18.2667 87.9273 17.84C88.754 17.4133 89.674 17.2 90.6873 17.2C91.4607 17.2 92.1607 17.3267 92.7873 17.58C93.4273 17.8333 93.9607 18.22 94.3873 18.74V17.32H96.7673ZM91.0673 25.4C92.014 25.4 92.7873 25.12 93.3873 24.56C94.0007 23.9867 94.3073 23.2467 94.3073 22.34C94.3073 21.4467 94.0007 20.72 93.3873 20.16C92.7873 19.6 92.014 19.32 91.0673 19.32C90.1073 19.32 89.3207 19.6 88.7073 20.16C88.1073 20.72 87.8073 21.4467 87.8073 22.34C87.8073 23.2467 88.1073 23.9867 88.7073 24.56C89.3207 25.12 90.1073 25.4 91.0673 25.4ZM100.054 13.16H102.554V28H100.054V13.16ZM115.875 22.72C115.875 22.8933 115.862 23.14 115.835 23.46H107.455C107.602 24.2467 107.982 24.8733 108.595 25.34C109.222 25.7933 109.995 26.02 110.915 26.02C112.089 26.02 113.055 25.6333 113.815 24.86L115.155 26.4C114.675 26.9733 114.069 27.4067 113.335 27.7C112.602 27.9933 111.775 28.14 110.855 28.14C109.682 28.14 108.649 27.9067 107.755 27.44C106.862 26.9733 106.169 26.3267 105.675 25.5C105.195 24.66 104.955 23.7133 104.955 22.66C104.955 21.62 105.189 20.6867 105.655 19.86C106.135 19.02 106.795 18.3667 107.635 17.9C108.475 17.4333 109.422 17.2 110.475 17.2C111.515 17.2 112.442 17.4333 113.255 17.9C114.082 18.3533 114.722 19 115.175 19.84C115.642 20.6667 115.875 21.6267 115.875 22.72ZM110.475 19.2C109.675 19.2 108.995 19.44 108.435 19.92C107.889 20.3867 107.555 21.0133 107.435 21.8H113.495C113.389 21.0267 113.062 20.4 112.515 19.92C111.969 19.44 111.289 19.2 110.475 19.2ZM129.804 14C131.017 14 132.071 14.2 132.964 14.6C133.871 15 134.564 15.5733 135.044 16.32C135.524 17.0667 135.764 17.9533 135.764 18.98C135.764 19.9933 135.524 20.88 135.044 21.64C134.564 22.3867 133.871 22.96 132.964 23.36C132.071 23.76 131.017 23.96 129.804 23.96H126.644V28H124.044V14H129.804ZM129.684 21.76C130.817 21.76 131.677 21.52 132.264 21.04C132.851 20.56 133.144 19.8733 133.144 18.98C133.144 18.0867 132.851 17.4 132.264 16.92C131.677 16.44 130.817 16.2 129.684 16.2H126.644V21.76H129.684ZM138.316 13.16H140.816V28H138.316V13.16ZM148.177 17.2C149.75 17.2 150.95 17.58 151.777 18.34C152.617 19.0867 153.037 20.22 153.037 21.74V28H150.677V26.7C150.37 27.1667 149.93 27.5267 149.357 27.78C148.797 28.02 148.117 28.14 147.317 28.14C146.517 28.14 145.817 28.0067 145.217 27.74C144.617 27.46 144.15 27.08 143.817 26.6C143.497 26.1067 143.337 25.5533 143.337 24.94C143.337 23.98 143.69 23.2133 144.397 22.64C145.117 22.0533 146.244 21.76 147.777 21.76H150.537V21.6C150.537 20.8533 150.31 20.28 149.857 19.88C149.417 19.48 148.757 19.28 147.877 19.28C147.277 19.28 146.684 19.3733 146.097 19.56C145.524 19.7467 145.037 20.0067 144.637 20.34L143.657 18.52C144.217 18.0933 144.89 17.7667 145.677 17.54C146.464 17.3133 147.297 17.2 148.177 17.2ZM147.837 26.32C148.464 26.32 149.017 26.18 149.497 25.9C149.99 25.6067 150.337 25.1933 150.537 24.66V23.42H147.957C146.517 23.42 145.797 23.8933 145.797 24.84C145.797 25.2933 145.977 25.6533 146.337 25.92C146.697 26.1867 147.197 26.32 147.837 26.32ZM166.05 17.32L161.05 28.86C160.583 30.02 160.017 30.8333 159.35 31.3C158.683 31.78 157.877 32.02 156.93 32.02C156.397 32.02 155.87 31.9333 155.35 31.76C154.83 31.5867 154.403 31.3467 154.07 31.04L155.07 29.2C155.31 29.4267 155.59 29.6067 155.91 29.74C156.243 29.8733 156.577 29.94 156.91 29.94C157.35 29.94 157.71 29.8267 157.99 29.6C158.283 29.3733 158.55 28.9933 158.79 28.46L158.97 28.04L154.31 17.32H156.91L160.27 25.22L163.65 17.32H166.05Z" fill="white"/>
<defs>
<clipPath id="clip0">
<rect width="19.8" height="22" fill="white" transform="translate(15.334 9.5)"/>
</clipPath>
</defs>
</svg>
