<svg width="132" height="25" viewBox="0 0 132 25" fill="none" xmlns="http://www.w3.org/2000/svg">
<path d="M59.0805 12.5862C59.0805 17.5862 56.0345 19.885 52.2414 19.885H49.9425V16.8965H52.069C54.3678 16.8965 55.8621 15.6896 55.8621 12.5862C55.8621 9.54021 54.4253 7.98848 51.954 7.98848C49.5977 7.98848 47.931 9.42526 47.931 12.5287V25H44.8276V5.3448H47.9885V7.01147H48.4483C49.4828 5.57469 51.0345 4.9425 52.7011 4.9425C56.1494 4.99998 59.0805 7.52871 59.0805 12.5862Z" fill="#1A1A1A"/>
<path d="M38.2759 11.2644L36.2069 11.0345C34.5403 10.8621 33.6782 10.4598 33.6782 9.48276C33.6782 8.33333 34.7701 7.70115 36.3793 7.70115C38.046 7.70115 39.0805 8.50575 39.1954 9.5977H42.2414C42.1265 6.78161 39.9426 5 36.4368 5C32.9311 5 30.5173 6.89655 30.5173 9.5977C30.5173 11.8966 31.954 13.3908 35.2299 13.6782L37.3563 13.908C38.6782 14.023 39.5403 14.3103 39.5403 15.5172C39.5403 16.6092 38.7357 17.4713 36.6092 17.4713C34.6552 17.4713 33.6782 16.5517 33.3334 15.4023H30.0575C30.4023 18.1609 32.7012 20.2874 36.6092 20.2874C40.2874 20.2874 42.7012 18.3333 42.7012 15.4598C42.7012 12.8161 41.0345 11.5517 38.2759 11.2644Z" fill="#1A1A1A"/>
<path d="M71.3217 15.4023C70.8044 16.5517 69.655 17.4138 67.9309 17.4138C65.632 17.4138 63.9079 15.9196 63.9079 12.6437C63.9079 9.54025 65.5171 7.81612 67.9884 7.81612C70.1723 7.81612 71.4366 9.13795 71.5516 11.1494H65.8619V13.4483H74.7125V11.954C74.7125 7.75864 71.9539 5.0575 67.9884 5.0575C64.3102 5.0575 60.8044 7.58623 60.8044 12.7012C60.8044 17.8161 64.3102 20.3449 67.9884 20.3449C71.3792 20.3449 73.7355 18.2759 74.4826 15.4598H71.3217V15.4023Z" fill="#1A1A1A"/>
<path d="M21.4943 5C18.046 5 15.4598 6.78161 15.115 9.5977H18.5058C18.7357 8.56322 19.6552 7.81609 21.4368 7.81609C23.7357 7.81609 24.4828 9.02299 24.4828 10.5172V15.4598C23.161 16.954 21.6667 17.6437 20.1725 17.6437C18.6207 17.6437 17.5288 16.8965 17.5288 15.5172C17.5288 14.1954 18.3909 13.3908 20.0001 13.3908H22.5288V11.092H19.8851C16.2644 11.092 14.2529 12.8736 14.2529 15.6897C14.2529 18.2759 16.207 20.2299 19.4253 20.2299C21.207 20.2299 22.8161 19.4828 24.023 18.6207H24.4828V19.8276H27.6437V10.1724C27.7012 6.6092 25.2299 5 21.4943 5Z" fill="#1A1A1A"/>
<path d="M3.16092 0H0V19.8851H3.16092V0Z" fill="#1A1A1A"/>
<path d="M13.2758 5.34485H9.42522L4.82751 11.4368V13.3334L9.54016 19.8851H13.4482L7.93096 12.3563L13.2758 5.34485Z" fill="#1A1A1A"/>
<path d="M127.644 5.34482L125.058 11.092C124.425 12.4713 123.851 13.8506 123.621 14.7126H123.161C122.989 13.7931 122.356 12.4713 121.724 11.092L119.138 5.28735H115.632L121.724 18.3908L118.736 24.9425H122.127L131.15 5.34482H127.644Z" fill="#1A1A1A"/>
<path d="M114.942 5.34485H111.092L106.494 11.4368V13.3334L111.207 19.8851H115.172L109.598 12.3563L114.942 5.34485Z" fill="#1A1A1A"/>
<path d="M95.1725 11.2644L93.0461 11.0345C91.3794 10.8621 90.5174 10.4598 90.5174 9.48276C90.5174 8.33333 91.6093 7.70115 93.2185 7.70115C94.8852 7.70115 95.9197 8.50575 96.0346 9.5977H99.0806C98.9656 6.78161 96.7817 5 93.276 5C89.7702 5 87.3564 6.89655 87.3564 9.5977C87.3564 11.8966 88.7932 13.3908 92.0691 13.6782L94.1955 13.908C95.5174 14.023 96.3794 14.3103 96.3794 15.5172C96.3794 16.6092 95.5748 17.4713 93.4484 17.4713C91.4944 17.4713 90.5174 16.5517 90.1725 15.4023H86.8967C87.2415 18.1609 89.5404 20.2874 93.4484 20.2874C97.1266 20.2874 99.5403 18.3333 99.5403 15.4598C99.5403 12.8161 97.8737 11.5517 95.1725 11.2644Z" fill="#1A1A1A"/>
<path d="M104.828 0H101.667V19.8851H104.828V0Z" fill="#1A1A1A"/>
<path d="M80.8045 7.06897H80.3448V5.34483H77.1838V19.8851H80.3448V12.2989C80.3448 9.71264 81.5516 8.21839 83.908 8.21839H85.9195V5H84.77C82.5861 5 81.6666 5.8046 80.8045 7.06897Z" fill="#1A1A1A"/>
</svg>
