<svg width="210" height="40" viewBox="0 0 210 40" fill="none" xmlns="http://www.w3.org/2000/svg">
<path d="M94.5287 20.1381C94.5287 28.1381 89.6552 31.8163 83.5862 31.8163H79.908V27.0346H83.3103C86.9885 27.0346 89.3793 25.1036 89.3793 20.1381C89.3793 15.2645 87.0805 12.7818 83.1264 12.7818C79.3563 12.7818 76.6896 15.0806 76.6896 20.0461V40.0002H71.7241V8.55188H76.7816V11.2185H77.5172C79.1724 8.9197 81.6552 7.9082 84.3218 7.9082C89.8391 8.00016 94.5287 12.0461 94.5287 20.1381Z" fill="#1A1A1A"/>
<path d="M61.2417 18.023L57.9314 17.6552C55.2647 17.3793 53.8854 16.7356 53.8854 15.1724C53.8854 13.3333 55.6325 12.3218 58.2072 12.3218C60.8739 12.3218 62.5291 13.6092 62.713 15.3563H67.5865C67.4026 10.8506 63.9084 8 58.2992 8C52.69 8 48.8279 11.0345 48.8279 15.3563C48.8279 19.0345 51.1268 21.4253 56.3681 21.8851L59.7704 22.2529C61.8854 22.4368 63.2647 22.8966 63.2647 24.8276C63.2647 26.5747 61.9773 27.954 58.575 27.954C55.4486 27.954 53.8854 26.4828 53.3337 24.6437H48.0923C48.644 29.0575 52.3222 32.4598 58.575 32.4598C64.4601 32.4598 68.3222 29.3333 68.3222 24.7356C68.3222 20.5057 65.6555 18.4828 61.2417 18.023Z" fill="#1A1A1A"/>
<path d="M114.115 24.6435C113.287 26.4826 111.448 27.8619 108.689 27.8619C105.011 27.8619 102.253 25.4711 102.253 20.2297C102.253 15.2642 104.827 12.5056 108.781 12.5056C112.276 12.5056 114.299 14.6205 114.483 17.8389H105.379V21.5171H119.54V19.1263C119.54 12.4136 115.126 8.0918 108.781 8.0918C102.896 8.0918 97.2871 12.1378 97.2871 20.3217C97.2871 28.5056 102.896 32.5516 108.781 32.5516C114.207 32.5516 117.977 29.2412 119.172 24.7355H114.115V24.6435Z" fill="#1A1A1A"/>
<path d="M34.3909 8C28.8737 8 24.7357 10.8506 24.184 15.3563H29.6093C29.9771 13.7011 31.4484 12.5057 34.2989 12.5057C37.9771 12.5057 39.1725 14.4368 39.1725 16.8276V24.7356C37.0576 27.1264 34.6668 28.2299 32.2759 28.2299C29.7932 28.2299 28.0461 27.0345 28.0461 24.8276C28.0461 22.7126 29.4254 21.4253 32.0001 21.4253H36.0461V17.7471H31.8162C26.0231 17.7471 22.8047 20.5977 22.8047 25.1034C22.8047 29.2414 25.9311 32.3678 31.0805 32.3678C33.9311 32.3678 36.5058 31.1724 38.4369 29.7931H39.1725V31.7241H44.23V16.2759C44.3219 10.5747 40.3679 8 34.3909 8Z" fill="#1A1A1A"/>
<path d="M5.05747 0H0V31.8161H5.05747V0Z" fill="#1A1A1A"/>
<path d="M21.2414 8.55176H15.0804L7.72412 18.2989V21.3334L15.2644 31.8161H21.5172L12.6896 19.7702L21.2414 8.55176Z" fill="#1A1A1A"/>
<path d="M204.23 8.55143L200.092 17.7468C199.081 19.9537 198.161 22.1606 197.793 23.5399H197.058C196.782 22.0687 195.77 19.9537 194.759 17.7468L190.621 8.45947H185.012L194.759 29.425L189.977 39.9077H195.403L209.839 8.55143H204.23Z" fill="#1A1A1A"/>
<path d="M183.908 8.55176H177.747L170.391 18.2989V21.3334L177.931 31.8161H184.276L175.356 19.7702L183.908 8.55176Z" fill="#1A1A1A"/>
<path d="M152.276 18.023L148.874 17.6552C146.207 17.3793 144.828 16.7356 144.828 15.1724C144.828 13.3333 146.575 12.3218 149.15 12.3218C151.816 12.3218 153.471 13.6092 153.655 15.3563H158.529C158.345 10.8506 154.851 8 149.242 8C143.632 8 139.77 11.0345 139.77 15.3563C139.77 19.0345 142.069 21.4253 147.311 21.8851L150.713 22.2529C152.828 22.4368 154.207 22.8966 154.207 24.8276C154.207 26.5747 152.92 27.954 149.517 27.954C146.391 27.954 144.828 26.4828 144.276 24.6437H139.035C139.586 29.0575 143.265 32.4598 149.517 32.4598C155.402 32.4598 159.265 29.3333 159.265 24.7356C159.265 20.5057 156.598 18.4828 152.276 18.023Z" fill="#1A1A1A"/>
<path d="M167.724 0H162.667V31.8161H167.724V0Z" fill="#1A1A1A"/>
<path d="M129.287 11.3103H128.552V8.55172H123.494V31.8161H128.552V19.6782C128.552 15.5402 130.483 13.1494 134.253 13.1494H137.471V8H135.632C132.138 8 130.667 9.28736 129.287 11.3103Z" fill="#1A1A1A"/>
</svg>
