<svg width="1662" height="418" viewBox="0 0 1662 418" fill="none" xmlns="http://www.w3.org/2000/svg">
<g filter="url(#filter0_d)">
<path d="M324.5 245.39V237.99C343.74 227.63 353.73 207.65 353.73 183.97C353.73 147.71 325.61 117 269.37 117L3 117V381.18L272.33 381.18C332.27 381.18 361.87 348.99 361.87 306.81C361.87 279.8 346.7 255.75 324.5 245.39ZM36.3 146.6L267.89 146.6C294.53 146.6 320.06 156.96 320.06 186.93C320.06 219.86 297.86 229.11 268.63 229.11L36.3 229.11V146.6ZM270.11 351.58L36.3 351.58V258.34L270.48 258.34C301.56 258.34 328.2 269.81 328.2 304.22C328.2 340.48 300.08 351.58 270.11 351.58Z" fill="#FAFAFA"/>
</g>
<g filter="url(#filter1_d)">
<path fill-rule="evenodd" clip-rule="evenodd" d="M269.37 114C298.025 114 319.874 121.828 334.607 134.622C349.365 147.439 356.73 165.028 356.73 183.97C356.73 207.865 346.87 228.535 327.5 239.75V243.513C349.87 254.813 364.87 279.412 364.87 306.81C364.87 328.63 357.193 348.082 341.577 362.049C325.992 375.988 302.821 384.18 272.33 384.18L0 384.18V114L269.37 114ZM6 120V378.18L272.33 378.18C301.779 378.18 323.378 370.277 337.578 357.576C351.747 344.903 358.87 327.17 358.87 306.81C358.87 280.889 344.308 257.944 323.231 248.109L321.5 247.301V236.198L323.078 235.349C341.146 225.62 350.73 206.794 350.73 183.97C350.73 166.652 344.035 150.756 330.673 139.153C317.286 127.527 296.955 120 269.37 120L6 120ZM39.3 149.6V226.11L268.63 226.11C283.036 226.11 295.142 223.809 303.588 217.909C311.819 212.16 317.06 202.642 317.06 186.93C317.06 172.959 311.19 163.822 302.326 158.039C293.286 152.141 280.897 149.6 267.89 149.6L39.3 149.6ZM267.89 143.6C281.523 143.6 295.219 146.239 305.604 153.014C316.165 159.903 323.06 170.931 323.06 186.93C323.06 204.148 317.201 215.72 307.024 222.828C297.063 229.786 283.454 232.11 268.63 232.11L33.3 232.11V143.6L267.89 143.6ZM39.3 261.34V348.58L270.11 348.58C284.808 348.58 298.639 345.844 308.71 339.015C318.592 332.313 325.2 321.444 325.2 304.22C325.2 287.918 318.959 277.418 309.308 270.857C299.47 264.169 285.734 261.34 270.48 261.34L39.3 261.34ZM270.48 255.34C286.306 255.34 301.43 258.246 312.682 265.895C324.121 273.672 331.2 286.112 331.2 304.22C331.2 323.256 323.748 336.067 312.077 343.98C300.596 351.766 285.382 354.58 270.11 354.58L33.3 354.58V255.34L270.48 255.34Z" fill="#191919"/>
</g>
<g filter="url(#filter2_d)">
<path d="M576.814 177.294C560.742 150.191 532.531 137.831 496.792 147.407C437.465 163.304 424.399 218.9 438.955 273.224C453.415 327.19 492.982 369.066 552.309 353.17C587.334 343.785 602.611 323.603 604.982 293.856L638.935 284.758C640.611 331.041 611.626 368.686 560.162 382.476C484.394 402.778 426.734 357.705 406.432 281.938C386.131 206.171 413.172 138.403 488.94 118.101C544.693 103.162 588.598 125.489 610.767 168.197L576.814 177.294Z" fill="#FAFAFA"/>
</g>
<g filter="url(#filter3_d)">
<path fill-rule="evenodd" clip-rule="evenodd" d="M460.796 370.703C488 389.442 522.275 395.733 560.938 385.374C613.572 371.27 643.666 332.51 641.933 284.65L641.796 280.886L602.16 291.506L601.992 293.617C600.843 308.026 596.596 319.856 588.61 329.199C580.614 338.554 568.635 345.689 551.533 350.272C522.78 357.976 499.04 351.678 480.676 337.049C462.202 322.332 448.97 299.008 441.853 272.447C434.685 245.697 434.399 218.906 442.962 196.997C451.471 175.225 468.81 158.011 497.569 150.305C514.928 145.654 530.25 146.38 543.087 151.391C555.919 156.399 566.497 165.777 574.234 178.825L575.394 180.781L615.149 170.128L613.429 166.815C602.065 144.923 585.064 128.141 563.648 118.783C542.228 109.422 516.606 107.582 488.163 115.203C449.499 125.563 423.049 148.127 408.948 177.937C394.881 207.677 393.246 244.319 403.535 282.715C413.824 321.116 433.654 352.008 460.796 370.703ZM464.199 365.762C438.494 348.056 419.342 318.527 409.33 281.162C399.317 243.79 401.052 208.665 414.372 180.503C427.659 152.412 452.613 130.941 489.716 120.999C517.026 113.681 541.234 115.535 561.246 124.281C580.192 132.56 595.571 147.1 606.324 166.281L578.204 173.816C569.972 160.75 558.83 151.094 545.269 145.801C531.049 140.25 514.395 139.585 496.016 144.51C465.447 152.7 446.589 171.233 437.373 194.813C428.21 218.258 428.669 246.427 436.057 274C443.401 301.406 457.181 326.003 476.938 341.742C496.804 357.568 522.511 364.26 553.086 356.067C571.007 351.265 584.179 343.617 593.171 333.098C601.755 323.055 606.316 310.644 607.781 296.212L636.003 288.65C635.957 331.626 608.255 366.484 559.385 379.578C522.281 389.52 489.842 383.426 464.199 365.762Z" fill="#191919"/>
</g>
<g filter="url(#filter4_d)">
<path d="M759.8 117C704.3 117 672.85 145.86 672.85 193.96C672.85 226.15 686.91 249.83 713.18 261.67L671 381.18H705.41L745 269.44C752.03 270.18 759.06 270.55 766.46 270.55H843.42V381.18H876.72V117H759.8ZM764.61 240.95C722.06 240.95 706.52 222.82 706.52 193.96C706.52 164.36 722.06 146.6 764.61 146.6H843.42V240.95H764.61Z" fill="#FAFAFA"/>
</g>
<g filter="url(#filter5_d)">
<path fill-rule="evenodd" clip-rule="evenodd" d="M693.513 135.206C709.022 121.345 731.558 114 759.8 114H879.72V384.18H840.42V273.55H766.46C759.783 273.55 753.397 273.253 747.043 272.658L707.53 384.18H666.76L709.449 263.227C683.563 250.475 669.85 226.13 669.85 193.96C669.85 169.228 677.959 149.108 693.513 135.206ZM697.512 139.679C683.466 152.232 675.85 170.592 675.85 193.96C675.85 225.151 689.374 247.65 714.413 258.935L716.927 260.068L675.24 378.18H703.29L742.962 266.209L745.314 266.456C752.238 267.185 759.163 267.55 766.46 267.55H846.42V378.18H873.72V120H759.8C732.542 120 711.603 127.085 697.512 139.679ZM721.596 161.427C713.26 168.8 709.52 179.668 709.52 193.96C709.52 207.863 713.249 218.648 721.596 226.03C730.021 233.481 743.686 237.95 764.61 237.95H840.42V149.6H764.61C743.671 149.6 730.014 153.983 721.596 161.427ZM717.621 156.933C727.611 148.097 742.999 143.6 764.61 143.6H846.42V243.95H764.61C742.984 243.95 727.604 239.354 717.621 230.525C707.561 221.627 703.52 208.917 703.52 193.96C703.52 178.652 707.55 165.84 717.621 156.933Z" fill="#191919"/>
</g>
<g filter="url(#filter6_d)">
<path d="M926 381.18H959.301V146.19H1037.37L1095.46 381.18H1130.61L1066.23 131.39L1127.28 3H1092.13L1037.37 115.85H959.301V3H926V381.18Z" fill="#FAFAFA"/>
</g>
<g filter="url(#filter7_d)">
<path fill-rule="evenodd" clip-rule="evenodd" d="M923 0H962.301V112.85H1035.49L1090.25 0H1132.03L1069.41 131.695L1134.48 384.18H1093.11L1035.02 149.19H962.301V384.18H923V0ZM929 6V378.18H956.301V143.19H1039.72L1097.81 378.18H1126.74L1063.05 131.085L1122.53 6H1094.01L1039.25 118.85H956.301V6H929Z" fill="#191919"/>
</g>
<g filter="url(#filter8_d)">
<path d="M1502.3 350.84V327.993V305.145V282.298V259.45L1532.64 249.45L1562.98 259.45L1593.32 249.45H1623.66V219.11H1593.32L1562.98 229.11L1532.64 219.11L1502.3 229.11V208.668V188.225V167.783V147.34H1652.89V117H1469V249.09V381.18H1658.81V350.84H1502.3Z" fill="#FAFAFA"/>
</g>
<g filter="url(#filter9_d)">
<path fill-rule="evenodd" clip-rule="evenodd" d="M1466 114H1655.89V150.34H1505.3V224.962L1532.64 215.951L1562.98 225.951L1592.84 216.11H1626.66V252.45H1593.8L1562.98 262.609L1532.64 252.609L1505.3 261.62V347.84H1661.81V384.18H1466V114ZM1472 120V378.18H1655.81V353.84H1499.3V257.28L1532.64 246.291L1562.98 256.291L1592.84 246.45H1620.66V222.11H1593.8L1562.98 232.269L1532.64 222.269L1499.3 233.258V144.34H1649.89V120H1472Z" fill="#191919"/>
</g>
<path d="M1557 228H1563V258H1557V228Z" fill="#191919"/>
<path d="M1588 220H1594V250H1588V220Z" fill="#191919"/>
<path d="M1527 220H1533V250H1527V220Z" fill="#191919"/>
<g filter="url(#filter10_d)">
<path d="M1426.8 264.21C1426.8 183.55 1366.12 141 1289.9 141C1213.68 141 1153 183.55 1153 264.21C1153 344.5 1213.68 387.42 1289.9 387.42C1366.12 387.42 1426.8 344.5 1426.8 264.21ZM1183.34 264.21C1183.34 201.31 1234.4 174.67 1289.9 174.67C1345.4 174.67 1396.46 201.31 1396.46 264.21C1396.46 327.11 1345.4 353.75 1289.9 353.75C1234.4 353.75 1183.34 327.11 1183.34 264.21Z" fill="#FAFAFA"/>
</g>
<g filter="url(#filter11_d)">
<path fill-rule="evenodd" clip-rule="evenodd" d="M1388.86 170.059C1414.29 191.39 1429.8 223.059 1429.8 264.21C1429.8 305.18 1414.28 336.846 1388.86 358.22C1363.51 379.54 1328.54 390.42 1289.9 390.42C1251.26 390.42 1216.29 379.54 1190.94 358.22C1165.52 336.846 1150 305.18 1150 264.21C1150 223.059 1165.51 191.39 1190.94 170.059C1216.3 148.784 1251.26 138 1289.9 138C1328.54 138 1363.5 148.784 1388.86 170.059ZM1385 174.656C1360.97 154.491 1327.48 144 1289.9 144C1252.32 144 1218.83 154.491 1194.8 174.656C1170.83 194.765 1156 224.702 1156 264.21C1156 303.53 1170.82 333.47 1194.8 353.628C1218.84 373.84 1252.32 384.42 1289.9 384.42C1327.48 384.42 1360.96 373.84 1385 353.628C1408.98 333.47 1423.8 303.53 1423.8 264.21C1423.8 224.702 1408.97 194.765 1385 174.656ZM1362.21 198.267C1343.18 184.236 1317.23 177.67 1289.9 177.67C1262.57 177.67 1236.62 184.236 1217.59 198.267C1198.67 212.21 1186.34 233.689 1186.34 264.21C1186.34 294.731 1198.67 316.21 1217.59 330.153C1236.62 344.184 1262.57 350.75 1289.9 350.75C1317.23 350.75 1343.18 344.184 1362.21 330.153C1381.13 316.21 1393.46 294.731 1393.46 264.21C1393.46 233.689 1381.13 212.21 1362.21 198.267ZM1365.77 193.438C1386.26 208.54 1399.46 231.831 1399.46 264.21C1399.46 296.589 1386.26 319.88 1365.77 334.982C1345.4 349.996 1318.07 356.75 1289.9 356.75C1261.73 356.75 1234.4 349.996 1214.03 334.982C1193.54 319.88 1180.34 296.589 1180.34 264.21C1180.34 231.831 1193.54 208.54 1214.03 193.438C1234.4 178.424 1261.73 171.67 1289.9 171.67C1318.07 171.67 1345.4 178.424 1365.77 193.438Z" fill="#191919"/>
</g>
<path d="M1416.8 246.21C1416.8 171.442 1360.55 132 1289.9 132C1219.25 132 1163 171.442 1163 246.21C1163 320.635 1219.25 360.42 1289.9 360.42C1360.55 360.42 1416.8 320.635 1416.8 246.21ZM1191.12 246.21C1191.12 187.905 1238.45 163.211 1289.9 163.211C1341.35 163.211 1388.68 187.905 1388.68 246.21C1388.68 304.515 1341.35 329.209 1289.9 329.209C1238.45 329.209 1191.12 304.515 1191.12 246.21Z" fill="#FAFAFA"/>
<path fill-rule="evenodd" clip-rule="evenodd" d="M1381.77 158.769C1405.39 178.586 1419.8 208.005 1419.8 246.21C1419.8 284.247 1405.39 313.663 1381.78 333.521C1358.22 353.324 1325.76 363.42 1289.9 363.42C1254.04 363.42 1221.58 353.324 1198.02 333.521C1174.41 313.663 1160 284.247 1160 246.21C1160 208.005 1174.41 178.586 1198.03 158.769C1221.58 139.007 1254.04 129 1289.9 129C1325.75 129 1358.22 139.007 1381.77 158.769ZM1377.92 163.365C1355.68 144.714 1324.7 135 1289.9 135C1255.1 135 1224.12 144.714 1201.88 163.365C1179.72 181.961 1166 209.648 1166 246.21C1166 282.598 1179.72 310.287 1201.89 328.928C1224.12 347.624 1255.11 357.42 1289.9 357.42C1324.69 357.42 1355.68 347.624 1377.91 328.928C1400.08 310.287 1413.8 282.598 1413.8 246.21C1413.8 209.647 1400.08 181.961 1377.92 163.365ZM1356.8 185.261C1339.2 172.29 1315.2 166.211 1289.9 166.211C1264.6 166.211 1240.6 172.29 1223 185.261C1205.52 198.143 1194.12 217.986 1194.12 246.21C1194.12 274.434 1205.52 294.277 1223 307.159C1240.6 320.13 1264.6 326.209 1289.9 326.209C1315.2 326.209 1339.2 320.13 1356.8 307.159C1374.28 294.277 1385.68 274.434 1385.68 246.21C1385.68 217.986 1374.28 198.143 1356.8 185.261ZM1360.36 180.431C1379.41 194.472 1391.68 216.129 1391.68 246.21C1391.68 276.292 1379.41 297.948 1360.36 311.989C1341.43 325.942 1316.05 332.209 1289.9 332.209C1263.75 332.209 1238.37 325.942 1219.44 311.989C1200.39 297.948 1188.12 276.292 1188.12 246.21C1188.12 216.129 1200.39 194.472 1219.44 180.431C1238.37 166.478 1263.75 160.211 1289.9 160.211C1316.05 160.211 1341.43 166.478 1360.36 180.431Z" fill="#191919"/>
<path d="M1406.8 228.21C1406.8 159.334 1354.98 123 1289.9 123C1224.81 123 1173 159.334 1173 228.21C1173 296.77 1224.81 333.42 1289.9 333.42C1354.98 333.42 1406.8 296.77 1406.8 228.21ZM1198.91 228.21C1198.91 174.499 1242.51 151.751 1289.9 151.751C1337.29 151.751 1380.89 174.499 1380.89 228.21C1380.89 281.921 1337.29 304.669 1289.9 304.669C1242.51 304.669 1198.91 281.921 1198.91 228.21Z" fill="#FAFAFA"/>
<path fill-rule="evenodd" clip-rule="evenodd" d="M1374.68 147.478C1396.5 165.782 1409.8 192.95 1409.8 228.21C1409.8 263.315 1396.5 290.481 1374.69 308.821C1352.94 327.108 1322.98 336.42 1289.9 336.42C1256.82 336.42 1226.86 327.108 1205.11 308.821C1183.3 290.481 1170 263.315 1170 228.21C1170 192.95 1183.3 165.782 1205.11 147.478C1226.87 129.23 1256.83 120 1289.9 120C1322.97 120 1352.93 129.23 1374.68 147.478ZM1370.83 152.075C1350.4 134.937 1321.91 126 1289.9 126C1257.89 126 1229.4 134.937 1208.97 152.075C1188.61 169.157 1176 194.593 1176 228.21C1176 261.665 1188.61 287.105 1208.97 304.229C1229.4 321.407 1257.89 330.42 1289.9 330.42C1321.91 330.42 1350.4 321.407 1370.83 304.229C1391.19 287.105 1403.8 261.665 1403.8 228.21C1403.8 194.593 1391.19 169.157 1370.83 152.075ZM1351.39 172.254C1335.23 160.344 1313.17 154.751 1289.9 154.751C1266.63 154.751 1244.57 160.344 1228.41 172.254C1212.37 184.075 1201.91 202.283 1201.91 228.21C1201.91 254.137 1212.37 272.345 1228.41 284.166C1244.57 296.076 1266.63 301.669 1289.9 301.669C1313.17 301.669 1335.23 296.076 1351.39 284.166C1367.43 272.345 1377.89 254.137 1377.89 228.21C1377.89 202.283 1367.43 184.075 1351.39 172.254ZM1354.95 167.424C1372.56 180.405 1383.89 200.426 1383.89 228.21C1383.89 255.994 1372.56 276.015 1354.95 288.996C1337.46 301.888 1314.02 307.669 1289.9 307.669C1265.78 307.669 1242.34 301.888 1224.85 288.996C1207.24 276.015 1195.91 255.994 1195.91 228.21C1195.91 200.426 1207.24 180.405 1224.85 167.424C1242.34 154.532 1265.78 148.751 1289.9 148.751C1314.02 148.751 1337.46 154.532 1354.95 167.424Z" fill="#191919"/>
<path d="M1396.8 210.21C1396.8 147.226 1349.42 114 1289.9 114C1230.38 114 1183 147.226 1183 210.21C1183 272.905 1230.38 306.42 1289.9 306.42C1349.42 306.42 1396.8 272.905 1396.8 210.21ZM1206.69 210.21C1206.69 161.094 1246.56 140.292 1289.9 140.292C1333.24 140.292 1373.11 161.094 1373.11 210.21C1373.11 259.326 1333.24 280.128 1289.9 280.128C1246.56 280.128 1206.69 259.326 1206.69 210.21Z" fill="#FAFAFA"/>
<path fill-rule="evenodd" clip-rule="evenodd" d="M1367.6 136.188C1387.61 152.978 1399.8 177.896 1399.8 210.21C1399.8 242.383 1387.61 267.298 1367.6 284.122C1347.66 300.892 1320.19 309.42 1289.9 309.42C1259.61 309.42 1232.14 300.892 1212.2 284.122C1192.19 267.298 1180 242.383 1180 210.21C1180 177.896 1192.19 152.978 1212.2 136.188C1232.15 119.453 1259.61 111 1289.9 111C1320.19 111 1347.65 119.453 1367.6 136.188ZM1363.74 140.784C1345.12 125.16 1319.13 117 1289.9 117C1260.67 117 1234.68 125.16 1216.06 140.784C1197.5 156.353 1186 179.539 1186 210.21C1186 240.733 1197.5 263.922 1216.06 279.53C1234.69 295.191 1260.68 303.42 1289.9 303.42C1319.12 303.42 1345.11 295.191 1363.74 279.53C1382.3 263.922 1393.8 240.733 1393.8 210.21C1393.8 179.539 1382.3 156.353 1363.74 140.784ZM1345.98 159.247C1331.26 148.398 1311.14 143.292 1289.9 143.292C1268.66 143.292 1248.54 148.398 1233.82 159.247C1219.23 170.008 1209.69 186.581 1209.69 210.21C1209.69 233.839 1219.23 250.413 1233.82 261.173C1248.54 272.022 1268.66 277.128 1289.9 277.128C1311.14 277.128 1331.26 272.022 1345.98 261.173C1360.57 250.413 1370.11 233.839 1370.11 210.21C1370.11 186.581 1360.57 170.008 1345.98 159.247ZM1349.54 154.417C1365.71 166.337 1376.11 184.723 1376.11 210.21C1376.11 235.697 1365.71 254.083 1349.54 266.003C1333.48 277.834 1311.99 283.128 1289.9 283.128C1267.81 283.128 1246.31 277.834 1230.26 266.003C1214.09 254.083 1203.69 235.697 1203.69 210.21C1203.69 184.723 1214.09 166.337 1230.26 154.417C1246.31 142.586 1267.81 137.292 1289.9 137.292C1311.99 137.292 1333.48 142.586 1349.54 154.417Z" fill="#191919"/>
<path fill-rule="evenodd" clip-rule="evenodd" d="M1306 353V383V389H1312V383V353C1312 340.85 1302.15 331 1290 331C1277.85 331 1268 340.85 1268 353V383V389H1274V383V353C1274 344.163 1281.16 337 1290 337C1298.84 337 1306 344.163 1306 353Z" fill="#191919"/>
<path d="M1274 356H1306V366H1274V356Z" fill="#FAFAFA"/>
<defs>
<filter id="filter0_d" x="3" y="117" width="358.87" height="266.18" filterUnits="userSpaceOnUse" color-interpolation-filters="sRGB">
<feFlood flood-opacity="0" result="BackgroundImageFix"/>
<feColorMatrix in="SourceAlpha" type="matrix" values="0 0 0 0 0 0 0 0 0 0 0 0 0 0 0 0 0 0 127 0"/>
<feOffset dy="2"/>
<feColorMatrix type="matrix" values="0 0 0 0 0.0980392 0 0 0 0 0.0980392 0 0 0 0 0.0980392 0 0 0 1 0"/>
<feBlend mode="normal" in2="BackgroundImageFix" result="effect1_dropShadow"/>
<feBlend mode="normal" in="SourceGraphic" in2="effect1_dropShadow" result="shape"/>
</filter>
<filter id="filter1_d" x="0" y="114" width="364.87" height="272.18" filterUnits="userSpaceOnUse" color-interpolation-filters="sRGB">
<feFlood flood-opacity="0" result="BackgroundImageFix"/>
<feColorMatrix in="SourceAlpha" type="matrix" values="0 0 0 0 0 0 0 0 0 0 0 0 0 0 0 0 0 0 127 0"/>
<feOffset dy="2"/>
<feColorMatrix type="matrix" values="0 0 0 0 0.0980392 0 0 0 0 0.0980392 0 0 0 0 0.0980392 0 0 0 1 0"/>
<feBlend mode="normal" in2="BackgroundImageFix" result="effect1_dropShadow"/>
<feBlend mode="normal" in="SourceGraphic" in2="effect1_dropShadow" result="shape"/>
</filter>
<filter id="filter2_d" x="399.917" y="113.463" width="239.087" height="275.879" filterUnits="userSpaceOnUse" color-interpolation-filters="sRGB">
<feFlood flood-opacity="0" result="BackgroundImageFix"/>
<feColorMatrix in="SourceAlpha" type="matrix" values="0 0 0 0 0 0 0 0 0 0 0 0 0 0 0 0 0 0 127 0"/>
<feOffset dy="2"/>
<feColorMatrix type="matrix" values="0 0 0 0 0.0980392 0 0 0 0 0.0980392 0 0 0 0 0.0980392 0 0 0 1 0"/>
<feBlend mode="normal" in2="BackgroundImageFix" result="effect1_dropShadow"/>
<feBlend mode="normal" in="SourceGraphic" in2="effect1_dropShadow" result="shape"/>
</filter>
<filter id="filter3_d" x="396.917" y="110.463" width="245.087" height="281.879" filterUnits="userSpaceOnUse" color-interpolation-filters="sRGB">
<feFlood flood-opacity="0" result="BackgroundImageFix"/>
<feColorMatrix in="SourceAlpha" type="matrix" values="0 0 0 0 0 0 0 0 0 0 0 0 0 0 0 0 0 0 127 0"/>
<feOffset dy="2"/>
<feColorMatrix type="matrix" values="0 0 0 0 0.0980392 0 0 0 0 0.0980392 0 0 0 0 0.0980392 0 0 0 1 0"/>
<feBlend mode="normal" in2="BackgroundImageFix" result="effect1_dropShadow"/>
<feBlend mode="normal" in="SourceGraphic" in2="effect1_dropShadow" result="shape"/>
</filter>
<filter id="filter4_d" x="671" y="117" width="205.72" height="266.18" filterUnits="userSpaceOnUse" color-interpolation-filters="sRGB">
<feFlood flood-opacity="0" result="BackgroundImageFix"/>
<feColorMatrix in="SourceAlpha" type="matrix" values="0 0 0 0 0 0 0 0 0 0 0 0 0 0 0 0 0 0 127 0"/>
<feOffset dy="2"/>
<feColorMatrix type="matrix" values="0 0 0 0 0.0980392 0 0 0 0 0.0980392 0 0 0 0 0.0980392 0 0 0 1 0"/>
<feBlend mode="normal" in2="BackgroundImageFix" result="effect1_dropShadow"/>
<feBlend mode="normal" in="SourceGraphic" in2="effect1_dropShadow" result="shape"/>
</filter>
<filter id="filter5_d" x="666.76" y="114" width="212.96" height="272.18" filterUnits="userSpaceOnUse" color-interpolation-filters="sRGB">
<feFlood flood-opacity="0" result="BackgroundImageFix"/>
<feColorMatrix in="SourceAlpha" type="matrix" values="0 0 0 0 0 0 0 0 0 0 0 0 0 0 0 0 0 0 127 0"/>
<feOffset dy="2"/>
<feColorMatrix type="matrix" values="0 0 0 0 0.0980392 0 0 0 0 0.0980392 0 0 0 0 0.0980392 0 0 0 1 0"/>
<feBlend mode="normal" in2="BackgroundImageFix" result="effect1_dropShadow"/>
<feBlend mode="normal" in="SourceGraphic" in2="effect1_dropShadow" result="shape"/>
</filter>
<filter id="filter6_d" x="926" y="3" width="204.61" height="380.18" filterUnits="userSpaceOnUse" color-interpolation-filters="sRGB">
<feFlood flood-opacity="0" result="BackgroundImageFix"/>
<feColorMatrix in="SourceAlpha" type="matrix" values="0 0 0 0 0 0 0 0 0 0 0 0 0 0 0 0 0 0 127 0"/>
<feOffset dy="2"/>
<feColorMatrix type="matrix" values="0 0 0 0 0.0980392 0 0 0 0 0.0980392 0 0 0 0 0.0980392 0 0 0 1 0"/>
<feBlend mode="normal" in2="BackgroundImageFix" result="effect1_dropShadow"/>
<feBlend mode="normal" in="SourceGraphic" in2="effect1_dropShadow" result="shape"/>
</filter>
<filter id="filter7_d" x="923" y="0" width="211.481" height="386.18" filterUnits="userSpaceOnUse" color-interpolation-filters="sRGB">
<feFlood flood-opacity="0" result="BackgroundImageFix"/>
<feColorMatrix in="SourceAlpha" type="matrix" values="0 0 0 0 0 0 0 0 0 0 0 0 0 0 0 0 0 0 127 0"/>
<feOffset dy="2"/>
<feColorMatrix type="matrix" values="0 0 0 0 0.0980392 0 0 0 0 0.0980392 0 0 0 0 0.0980392 0 0 0 1 0"/>
<feBlend mode="normal" in2="BackgroundImageFix" result="effect1_dropShadow"/>
<feBlend mode="normal" in="SourceGraphic" in2="effect1_dropShadow" result="shape"/>
</filter>
<filter id="filter8_d" x="1469" y="117" width="189.81" height="266.18" filterUnits="userSpaceOnUse" color-interpolation-filters="sRGB">
<feFlood flood-opacity="0" result="BackgroundImageFix"/>
<feColorMatrix in="SourceAlpha" type="matrix" values="0 0 0 0 0 0 0 0 0 0 0 0 0 0 0 0 0 0 127 0"/>
<feOffset dy="2"/>
<feColorMatrix type="matrix" values="0 0 0 0 0.0980392 0 0 0 0 0.0980392 0 0 0 0 0.0980392 0 0 0 1 0"/>
<feBlend mode="normal" in2="BackgroundImageFix" result="effect1_dropShadow"/>
<feBlend mode="normal" in="SourceGraphic" in2="effect1_dropShadow" result="shape"/>
</filter>
<filter id="filter9_d" x="1466" y="114" width="195.81" height="272.18" filterUnits="userSpaceOnUse" color-interpolation-filters="sRGB">
<feFlood flood-opacity="0" result="BackgroundImageFix"/>
<feColorMatrix in="SourceAlpha" type="matrix" values="0 0 0 0 0 0 0 0 0 0 0 0 0 0 0 0 0 0 127 0"/>
<feOffset dy="2"/>
<feColorMatrix type="matrix" values="0 0 0 0 0.0980392 0 0 0 0 0.0980392 0 0 0 0 0.0980392 0 0 0 1 0"/>
<feBlend mode="normal" in2="BackgroundImageFix" result="effect1_dropShadow"/>
<feBlend mode="normal" in="SourceGraphic" in2="effect1_dropShadow" result="shape"/>
</filter>
<filter id="filter10_d" x="1153" y="141" width="273.8" height="248.42" filterUnits="userSpaceOnUse" color-interpolation-filters="sRGB">
<feFlood flood-opacity="0" result="BackgroundImageFix"/>
<feColorMatrix in="SourceAlpha" type="matrix" values="0 0 0 0 0 0 0 0 0 0 0 0 0 0 0 0 0 0 127 0"/>
<feOffset dy="2"/>
<feColorMatrix type="matrix" values="0 0 0 0 0.0980392 0 0 0 0 0.0980392 0 0 0 0 0.0980392 0 0 0 1 0"/>
<feBlend mode="normal" in2="BackgroundImageFix" result="effect1_dropShadow"/>
<feBlend mode="normal" in="SourceGraphic" in2="effect1_dropShadow" result="shape"/>
</filter>
<filter id="filter11_d" x="1150" y="138" width="279.8" height="254.42" filterUnits="userSpaceOnUse" color-interpolation-filters="sRGB">
<feFlood flood-opacity="0" result="BackgroundImageFix"/>
<feColorMatrix in="SourceAlpha" type="matrix" values="0 0 0 0 0 0 0 0 0 0 0 0 0 0 0 0 0 0 127 0"/>
<feOffset dy="2"/>
<feColorMatrix type="matrix" values="0 0 0 0 0.0980392 0 0 0 0 0.0980392 0 0 0 0 0.0980392 0 0 0 1 0"/>
<feBlend mode="normal" in2="BackgroundImageFix" result="effect1_dropShadow"/>
<feBlend mode="normal" in="SourceGraphic" in2="effect1_dropShadow" result="shape"/>
</filter>
</defs>
</svg>
