<svg width="530" height="179" viewBox="0 0 530 179" fill="none" xmlns="http://www.w3.org/2000/svg">
<mask id="path-1-outside-1_2723_11634" maskUnits="userSpaceOnUse" x="-1.52615" y="-6.51091" width="532.426" height="194.194" fill="black">
<rect fill="white" x="-1.52615" y="-6.51091" width="532.426" height="194.194"/>
<path fill-rule="evenodd" clip-rule="evenodd" d="M89.6469 16.6917C87.435 20.4041 87.102 25.4336 86.4362 35.4925L85.1549 54.8502C84.512 64.5626 84.1795 69.5861 85.6906 73.4958L40.8228 70.5259C30.7638 69.8601 25.7344 69.5272 21.7628 71.2305C18.2693 72.7287 15.3398 75.2945 13.3941 78.56C11.1822 82.2725 10.8493 87.3019 10.1835 97.3609L8.90215 116.718C8.23633 126.777 7.90342 131.807 9.60671 135.778C11.105 139.272 13.6707 142.201 16.9363 144.147C20.6487 146.359 25.6782 146.692 35.7371 147.358L369.407 169.444C379.466 170.11 384.495 170.443 388.467 168.74C391.96 167.241 394.89 164.676 396.836 161.41C399.047 157.698 399.38 152.668 400.046 142.609L401.328 123.251C401.97 113.539 402.303 108.516 400.792 104.606L488.566 110.416C498.625 111.082 503.654 111.415 507.626 109.711C511.119 108.213 514.049 105.647 515.994 102.382C518.206 98.6693 518.539 93.6398 519.205 83.5809L520.486 64.2232C521.152 54.1643 521.485 49.1348 519.782 45.1632C518.284 41.6697 515.718 38.7402 512.452 36.7946C508.74 34.5827 503.71 34.2498 493.651 33.5839L117.076 8.65759C107.017 7.99177 101.987 7.65886 98.0155 9.36215C94.522 10.8604 91.5925 13.4262 89.6469 16.6917Z"/>
</mask>
<path fill-rule="evenodd" clip-rule="evenodd" d="M89.6469 16.6917C87.435 20.4041 87.102 25.4336 86.4362 35.4925L85.1549 54.8502C84.512 64.5626 84.1795 69.5861 85.6906 73.4958L40.8228 70.5259C30.7638 69.8601 25.7344 69.5272 21.7628 71.2305C18.2693 72.7287 15.3398 75.2945 13.3941 78.56C11.1822 82.2725 10.8493 87.3019 10.1835 97.3609L8.90215 116.718C8.23633 126.777 7.90342 131.807 9.60671 135.778C11.105 139.272 13.6707 142.201 16.9363 144.147C20.6487 146.359 25.6782 146.692 35.7371 147.358L369.407 169.444C379.466 170.11 384.495 170.443 388.467 168.74C391.96 167.241 394.89 164.676 396.836 161.41C399.047 157.698 399.38 152.668 400.046 142.609L401.328 123.251C401.97 113.539 402.303 108.516 400.792 104.606L488.566 110.416C498.625 111.082 503.654 111.415 507.626 109.711C511.119 108.213 514.049 105.647 515.994 102.382C518.206 98.6693 518.539 93.6398 519.205 83.5809L520.486 64.2232C521.152 54.1643 521.485 49.1348 519.782 45.1632C518.284 41.6697 515.718 38.7402 512.452 36.7946C508.74 34.5827 503.71 34.2498 493.651 33.5839L117.076 8.65759C107.017 7.99177 101.987 7.65886 98.0155 9.36215C94.522 10.8604 91.5925 13.4262 89.6469 16.6917Z" fill="#CCEDDE"/>
<path d="M89.6469 16.6917L82.7743 12.5969L82.7743 12.5969L89.6469 16.6917ZM85.6906 73.4958L85.1622 81.4783L97.6727 82.3064L93.1527 70.6117L85.6906 73.4958ZM40.8228 70.5259L40.2944 78.5084L40.8228 70.5259ZM21.7628 71.2305L18.6096 63.8781L18.6096 63.8781L21.7628 71.2305ZM13.3941 78.56L20.2667 82.6548L13.3941 78.56ZM10.1835 97.3609L18.166 97.8892L10.1835 97.3609ZM8.90215 116.718L0.919619 116.19L8.90215 116.718ZM9.60671 135.778L2.25434 138.932L2.25434 138.932L9.60671 135.778ZM16.9363 144.147L12.8415 151.02L12.8415 151.02L16.9363 144.147ZM388.467 168.74L391.62 176.092L391.62 176.092L388.467 168.74ZM396.836 161.41L389.963 157.315L389.963 157.315L396.836 161.41ZM400.046 142.609L392.064 142.081L400.046 142.609ZM401.328 123.251L409.31 123.78L401.328 123.251ZM400.792 104.606L401.32 96.6233L388.81 95.7952L393.33 107.49L400.792 104.606ZM507.626 109.711L510.779 117.064L510.779 117.064L507.626 109.711ZM515.994 102.382L509.122 98.2869L509.122 98.2869L515.994 102.382ZM519.205 83.5809L511.223 83.0525L519.205 83.5809ZM520.486 64.2232L528.469 64.7516L520.486 64.2232ZM519.782 45.1632L512.429 48.3164L512.429 48.3164L519.782 45.1632ZM512.452 36.7946L516.547 29.922L516.547 29.922L512.452 36.7946ZM98.0155 9.36215L101.169 16.7145L98.0155 9.36215ZM94.4188 36.0209C94.7604 30.8597 94.991 27.4693 95.3748 24.8888C95.7447 22.401 96.1694 21.3741 96.5195 20.7865L82.7743 12.5969C80.9125 15.7217 80.0647 19.0658 79.5488 22.5355C79.0466 25.9126 78.7779 30.0664 78.4537 34.9642L94.4188 36.0209ZM93.1374 55.3786L94.4188 36.0209L78.4537 34.9642L77.1724 54.3218L93.1374 55.3786ZM93.1527 70.6117C92.8945 69.9437 92.6364 68.8055 92.6147 66.2803C92.5925 63.69 92.8081 60.3533 93.1374 55.3786L77.1724 54.3218C76.8588 59.0595 76.5867 63.0907 76.6153 66.4177C76.6444 69.8098 76.9757 73.1383 78.2286 76.3799L93.1527 70.6117ZM40.2944 78.5084L85.1622 81.4783L86.219 65.5133L41.3511 62.5434L40.2944 78.5084ZM24.916 78.5828C25.5446 78.3132 26.6186 78.0276 29.1334 77.9888C31.742 77.9486 35.1332 78.1668 40.2944 78.5084L41.3511 62.5434C36.4534 62.2192 32.3004 61.9381 28.8866 61.9907C25.3791 62.0448 21.9525 62.4444 18.6096 63.8781L24.916 78.5828ZM20.2667 82.6548C21.3476 80.8406 22.9751 79.4152 24.916 78.5828L18.6096 63.8781C13.5634 66.0422 9.33189 69.7483 6.52151 74.4652L20.2667 82.6548ZM18.166 97.8892C18.5076 92.7281 18.7383 89.3377 19.122 86.7572C19.4919 84.2693 19.9166 83.2424 20.2667 82.6548L6.52151 74.4652C4.65971 77.59 3.81197 80.9341 3.29602 84.4038C2.79385 87.7809 2.52513 91.9347 2.20094 96.8325L18.166 97.8892ZM16.8847 117.247L18.166 97.8892L2.20094 96.8325L0.919619 116.19L16.8847 117.247ZM16.9591 132.625C16.6895 131.997 16.4039 130.923 16.3651 128.408C16.3248 125.799 16.5431 122.408 16.8847 117.247L0.919619 116.19C0.595426 121.088 0.314297 125.241 0.366964 128.655C0.421076 132.162 0.820656 135.589 2.25434 138.932L16.9591 132.625ZM21.0311 137.275C19.2169 136.194 17.7914 134.566 16.9591 132.625L2.25434 138.932C4.41849 143.978 8.12459 148.209 12.8415 151.02L21.0311 137.275ZM36.2655 139.375C31.1043 139.034 27.7139 138.803 25.1334 138.419C22.6456 138.049 21.6187 137.625 21.0311 137.275L12.8415 151.02C15.9663 152.882 19.3103 153.729 22.7801 154.245C26.1572 154.747 30.311 155.016 35.2087 155.34L36.2655 139.375ZM369.935 161.462L36.2655 139.375L35.2087 155.34L368.879 177.427L369.935 161.462ZM385.314 161.387C384.685 161.657 383.611 161.942 381.096 161.981C378.488 162.021 375.097 161.803 369.935 161.462L368.879 177.427C373.776 177.751 377.929 178.032 381.343 177.979C384.851 177.925 388.277 177.526 391.62 176.092L385.314 161.387ZM389.963 157.315C388.882 159.129 387.255 160.555 385.314 161.387L391.62 176.092C396.666 173.928 400.898 170.222 403.708 165.505L389.963 157.315ZM392.064 142.081C391.722 147.242 391.491 150.632 391.108 153.213C390.738 155.701 390.313 156.728 389.963 157.315L403.708 165.505C405.57 162.38 406.418 159.036 406.934 155.566C407.436 152.189 407.705 148.035 408.029 143.138L392.064 142.081ZM393.345 122.723L392.064 142.081L408.029 143.138L409.31 123.78L393.345 122.723ZM393.33 107.49C393.588 108.158 393.846 109.296 393.868 111.821C393.89 114.412 393.674 117.748 393.345 122.723L409.31 123.78C409.624 119.042 409.896 115.011 409.867 111.684C409.838 108.292 409.507 104.963 408.254 101.722L393.33 107.49ZM489.094 102.433L401.32 96.6233L400.263 112.588L488.037 118.398L489.094 102.433ZM504.473 102.359C503.844 102.628 502.77 102.914 500.255 102.953C497.647 102.993 494.255 102.775 489.094 102.433L488.037 118.398C492.935 118.723 497.088 119.004 500.502 118.951C504.009 118.897 507.436 118.497 510.779 117.064L504.473 102.359ZM509.122 98.2869C508.041 100.101 506.413 101.527 504.473 102.359L510.779 117.064C515.825 114.899 520.057 111.193 522.867 106.476L509.122 98.2869ZM511.223 83.0525C510.881 88.2137 510.65 91.6041 510.267 94.1846C509.897 96.6724 509.472 97.6993 509.122 98.2869L522.867 106.476C524.729 103.352 525.577 100.008 526.093 96.5379C526.595 93.1608 526.863 89.007 527.188 84.1092L511.223 83.0525ZM512.504 63.6948L511.223 83.0525L527.188 84.1092L528.469 64.7516L512.504 63.6948ZM512.429 48.3164C512.699 48.9451 512.985 50.019 513.024 52.5339C513.064 55.1424 512.846 58.5337 512.504 63.6948L528.469 64.7516C528.793 59.8539 529.074 55.7009 529.022 52.2871C528.968 48.7796 528.568 45.353 527.134 42.01L512.429 48.3164ZM508.358 43.6672C510.172 44.7481 511.597 46.3756 512.429 48.3164L527.134 42.0101C524.97 36.9639 521.264 32.7323 516.547 29.922L508.358 43.6672ZM493.123 41.5665C498.284 41.9081 501.675 42.1387 504.255 42.5225C506.743 42.8924 507.77 43.3171 508.358 43.6672L516.547 29.922C513.422 28.0602 510.078 27.2124 506.608 26.6965C503.231 26.1943 499.078 25.9256 494.18 25.6014L493.123 41.5665ZM116.547 16.6401L493.123 41.5665L494.18 25.6014L117.604 0.67506L116.547 16.6401ZM101.169 16.7145C101.797 16.4449 102.871 16.1593 105.386 16.1205C107.995 16.0803 111.386 16.2985 116.547 16.6401L117.604 0.67506C112.706 0.350868 108.553 0.0697385 105.139 0.122405C101.632 0.176519 98.2053 0.576097 94.8623 2.00978L101.169 16.7145ZM96.5195 20.7865C97.6004 18.9723 99.2279 17.5469 101.169 16.7145L94.8623 2.00978C89.8162 4.17393 85.5846 7.88003 82.7743 12.5969L96.5195 20.7865Z" fill="white" mask="url(#path-1-outside-1_2723_11634)"/>
<path d="M117.897 66.839L134.933 41.7794L136.27 41.8679L134.544 67.9408L140.093 68.3081L142.323 34.6139L134.167 34.074L117.399 59.1513L116.062 59.0628L117.788 32.9898L112.239 32.6225L110.009 66.3168L117.897 66.839ZM174.544 60.3822C173.427 64.0685 170.464 66.2225 165.651 65.9039C158.096 65.4039 155.357 59.1122 155.808 52.2931C156.255 45.5409 159.72 39.8613 167.341 40.3658C171.954 40.6711 174.411 43.1167 175.255 46.5971L180.937 46.9732C180.212 40.6806 175.624 35.9452 167.669 35.4186C157.173 34.7239 150.785 41.9558 150.117 52.0507C149.453 62.0787 154.827 70.1563 165.323 70.8511C173.145 71.3688 178.589 67.2304 180.226 60.7584L174.544 60.3822ZM217.776 73.4502L220.007 39.7559L190.257 37.7867L188.026 71.4809L193.709 71.8571L195.612 43.11L213.997 44.3269L212.094 73.074L217.776 73.4502ZM245.56 40.5744C234.998 39.8753 228.472 47.1652 227.808 57.1932C227.144 67.2213 232.652 75.3077 243.215 76.0069C253.711 76.7017 260.304 69.4162 260.968 59.3881C261.631 49.3601 256.057 41.2692 245.56 40.5744ZM243.543 71.0597C236.055 70.5641 233.053 64.1879 233.491 57.5694C233.924 51.0177 237.745 45.026 245.233 45.5216C252.654 46.0128 255.719 52.4603 255.285 59.012C254.847 65.6305 250.963 71.5509 243.543 71.0597ZM264.91 76.57L266.047 76.6453C274.337 77.194 278.279 72.4189 279.305 56.9089L279.85 48.6859L294.624 49.6638L292.721 78.4109L298.471 78.7915L300.701 45.0972L274.896 43.3891L274.033 56.4256C273.241 68.3924 271.014 71.6023 266.401 71.297L265.264 71.2218L264.91 76.57ZM317.307 46.1964L311.625 45.8203L309.395 79.5146L325.038 80.5501C333.195 81.0899 338.024 77.1122 338.488 70.0926C338.949 63.1398 334.681 58.6271 326.525 58.0872L316.564 57.4279L317.307 46.1964ZM324.564 75.5498L315.405 74.9435L316.245 62.2413L325.404 62.8476C331.288 63.237 333.067 65.7721 332.806 69.7164C332.549 73.5939 330.447 75.9392 324.564 75.5498ZM366.765 58.7364C366.592 61.3437 364.641 63.4303 359.895 63.1162L354.212 62.74L353.885 67.6872L359.835 68.081C365.384 68.4483 367.127 70.511 366.91 73.7868C366.671 77.3969 363.075 78.9719 358.262 78.6532C353.649 78.3479 349.922 76.8255 348.931 72.5296L343.449 72.1667C343.969 78.5129 348.709 82.9897 357.935 83.6004C366.96 84.1978 372.217 79.8455 372.58 74.3635C372.885 69.7506 370.633 67.2514 368.208 66.3523L368.297 65.0152C370.28 64.475 372.182 62.1165 372.429 58.3727C372.766 53.2918 368.57 48.7167 360.146 48.1591C352.391 47.6458 346.795 51.0356 345.769 57.4137L351.184 57.7721C352.225 54.2151 354.872 52.7788 359.685 53.0974C364.03 53.3851 366.986 55.3937 366.765 58.7364ZM389.287 98.2321L412.725 52.5123L406.642 52.1097L395.813 73.6856L394.142 73.5749L385.449 50.7069L379.299 50.2998L391.44 81.9237L383.47 97.8471L389.287 98.2321ZM448.823 54.0288C439.664 53.4226 433.499 59.3262 431.867 67.7459L423.978 67.2237L424.899 53.3181L419.283 52.9464L417.053 86.6407L422.668 87.0124L423.651 72.1709L431.339 72.6798C431.548 81.6912 436.917 88.8285 446.478 89.4613C456.706 90.1383 463.308 82.7191 463.963 72.8248C464.617 62.9304 459.052 54.7059 448.823 54.0288ZM446.805 84.5141C439.518 84.0317 436.582 77.6599 437.02 71.0414C437.454 64.4898 441.208 58.4936 448.495 58.976C455.716 59.4539 458.714 65.897 458.28 72.4486C457.842 79.0672 454.025 84.992 446.805 84.5141ZM469.537 61.2416L481.236 62.016L479.333 90.7631L485.016 91.1393L486.918 62.3922L498.551 63.1622L498.878 58.215L469.864 56.2945L469.537 61.2416Z" fill="#2B2B2B"/>
<path d="M63.4939 129.382L65.7242 95.688L35.9743 93.7188L33.744 127.413L39.4266 127.789L41.3294 99.0421L59.7142 100.259L57.8114 129.006L63.4939 129.382ZM91.2781 96.5066C80.7152 95.8074 74.1895 103.097 73.5257 113.125C72.8619 123.153 78.3698 131.24 88.9327 131.939C99.4288 132.634 106.021 125.348 106.685 115.32C107.349 105.292 101.774 97.2014 91.2781 96.5066ZM89.2602 126.992C81.7726 126.496 78.7702 120.12 79.2082 113.502C79.6419 106.95 83.463 100.958 90.9506 101.454C98.3714 101.945 101.436 108.392 101.003 114.944C100.564 121.563 96.681 127.483 89.2602 126.992ZM137.908 124.102C136.791 127.788 133.829 129.942 129.015 129.623C121.461 129.123 118.721 122.832 119.173 116.013C119.62 109.26 123.084 103.581 130.706 104.085C135.318 104.391 137.775 106.836 138.619 110.317L144.302 110.693C143.577 104.4 138.989 99.6647 131.033 99.1381C120.537 98.4433 114.149 105.675 113.481 115.77C112.817 125.798 118.192 133.876 128.688 134.571C136.51 135.088 141.954 130.95 143.591 124.478L137.908 124.102ZM149.817 106.223L161.517 106.998L159.614 135.745L165.296 136.121L167.199 107.374L178.832 108.144L179.159 103.197L150.145 101.276L149.817 106.223ZM200.699 103.749C190.136 103.05 183.61 110.34 182.946 120.368C182.283 130.396 187.791 138.483 198.353 139.182C208.849 139.877 215.442 132.591 216.106 122.563C216.77 112.535 211.195 104.444 200.699 103.749ZM198.681 134.235C191.193 133.739 188.191 127.363 188.629 120.744C189.063 114.193 192.884 108.201 200.371 108.697C207.792 109.188 210.857 115.635 210.423 122.187C209.985 128.805 206.102 134.726 198.681 134.235ZM236.987 107.024C229.365 106.52 224.897 110.119 224.477 116.47C224.202 120.615 225.804 123.809 229.107 125.639L222.455 139.904L228.405 140.298L234.371 127.264C235.035 127.375 235.704 127.419 236.439 127.468L246.668 128.145L245.787 141.449L251.537 141.829L253.767 108.135L236.987 107.024ZM247.699 112.568L246.986 123.331L236.557 122.641C231.476 122.305 229.938 120.188 230.155 116.913C230.38 113.503 232.189 111.541 237.27 111.878L247.699 112.568ZM292.461 144.538L294.691 110.844L289.009 110.468L288.088 124.373L269.436 123.139L270.357 109.233L264.674 108.857L262.444 142.551L268.126 142.927L269.109 128.086L287.761 129.32L286.779 144.162L292.461 144.538ZM333.461 147.252L335.691 113.558L330.009 113.182L329.088 127.087L310.436 125.853L311.357 111.947L305.674 111.571L303.444 145.265L309.126 145.641L310.109 130.8L328.761 132.034L327.779 146.876L333.461 147.252ZM361.239 114.376C350.676 113.677 344.15 120.967 343.487 130.995C342.823 141.023 348.331 149.109 358.894 149.808C369.39 150.503 375.982 143.218 376.646 133.19C377.31 123.161 371.735 115.071 361.239 114.376ZM359.221 144.861C351.734 144.366 348.731 137.989 349.169 131.371C349.603 124.819 353.424 118.827 360.912 119.323C368.332 119.814 371.397 126.262 370.964 132.813C370.525 139.432 366.642 145.352 359.221 144.861Z" fill="#2B2B2B"/>
</svg>
