<svg width="306" height="181" viewBox="0 0 306 181" fill="none" xmlns="http://www.w3.org/2000/svg">
<mask id="path-1-outside-1_2723_11628" maskUnits="userSpaceOnUse" x="-7.77246" y="-4.80533" width="315.671" height="187.611" fill="black">
<rect fill="white" x="-7.77246" y="-4.80533" width="315.671" height="187.611"/>
<path fill-rule="evenodd" clip-rule="evenodd" d="M36.6717 37.2319C35.0795 41.2493 35.5521 46.2676 36.4973 56.3041L38.3163 75.6187C39.2475 85.5066 39.72 90.5238 41.9467 94.1599L35.8975 94.7296C25.8609 95.6748 20.8427 96.1474 17.1932 98.4617C13.983 100.497 11.4997 103.497 10.0991 107.031C8.50687 111.048 8.97947 116.067 9.92467 126.103L11.7436 145.418C12.6888 155.454 13.1614 160.472 15.4757 164.122C17.5114 167.332 20.5111 169.815 24.0449 171.216C28.0623 172.808 33.0805 172.336 43.117 171.39L270.511 149.975C280.547 149.03 285.566 148.558 289.215 146.243C292.425 144.208 294.909 141.208 296.309 137.674C297.902 133.657 297.429 128.639 296.484 118.602L294.665 99.2875C293.72 89.251 293.247 84.2327 290.933 80.5832C288.897 77.373 285.897 74.8897 282.364 73.4891C278.346 71.8969 273.328 72.3695 263.291 73.3147L256.246 73.9781C257.755 69.9901 257.283 64.973 256.352 55.085L254.533 35.7705C253.587 25.734 253.115 20.7157 250.801 17.0662C248.765 13.856 245.765 11.3727 242.231 9.97212C238.214 8.37989 233.196 8.85249 223.159 9.79769L62.4701 24.9307C52.4336 25.8759 47.4153 26.3485 43.7658 28.6627C40.5556 30.6984 38.0723 33.6981 36.6717 37.2319Z"/>
</mask>
<path fill-rule="evenodd" clip-rule="evenodd" d="M36.6717 37.2319C35.0795 41.2493 35.5521 46.2676 36.4973 56.3041L38.3163 75.6187C39.2475 85.5066 39.72 90.5238 41.9467 94.1599L35.8975 94.7296C25.8609 95.6748 20.8427 96.1474 17.1932 98.4617C13.983 100.497 11.4997 103.497 10.0991 107.031C8.50687 111.048 8.97947 116.067 9.92467 126.103L11.7436 145.418C12.6888 155.454 13.1614 160.472 15.4757 164.122C17.5114 167.332 20.5111 169.815 24.0449 171.216C28.0623 172.808 33.0805 172.336 43.117 171.39L270.511 149.975C280.547 149.03 285.566 148.558 289.215 146.243C292.425 144.208 294.909 141.208 296.309 137.674C297.902 133.657 297.429 128.639 296.484 118.602L294.665 99.2875C293.72 89.251 293.247 84.2327 290.933 80.5832C288.897 77.373 285.897 74.8897 282.364 73.4891C278.346 71.8969 273.328 72.3695 263.291 73.3147L256.246 73.9781C257.755 69.9901 257.283 64.973 256.352 55.085L254.533 35.7705C253.587 25.734 253.115 20.7157 250.801 17.0662C248.765 13.856 245.765 11.3727 242.231 9.97212C238.214 8.37989 233.196 8.85249 223.159 9.79769L62.4701 24.9307C52.4336 25.8759 47.4153 26.3485 43.7658 28.6627C40.5556 30.6984 38.0723 33.6981 36.6717 37.2319Z" fill="#D9F2E6"/>
<path d="M36.6717 37.2319L44.1089 40.1795L44.1089 40.1795L36.6717 37.2319ZM41.9467 94.1599L42.6968 102.125L55.4686 100.922L48.7691 89.982L41.9467 94.1599ZM17.1932 98.4617L12.9089 91.7056L12.9089 91.7056L17.1932 98.4617ZM10.0991 107.031L17.5363 109.978L10.0991 107.031ZM15.4757 164.122L8.71956 168.406L8.71956 168.406L15.4757 164.122ZM24.0449 171.216L21.0973 178.653L21.0973 178.653L24.0449 171.216ZM289.215 146.243L293.499 153L293.499 153L289.215 146.243ZM296.309 137.674L288.872 134.727L288.872 134.727L296.309 137.674ZM290.933 80.5832L284.177 84.8674L284.177 84.8674L290.933 80.5832ZM282.364 73.4891L285.311 66.0519L285.311 66.0519L282.364 73.4891ZM256.246 73.9781L248.764 71.1473L244.225 83.1457L256.997 81.9429L256.246 73.9781ZM256.352 55.085L264.316 54.335L256.352 55.085ZM254.533 35.7705L246.568 36.5206L254.533 35.7705ZM250.801 17.0662L257.557 12.7819L257.557 12.7819L250.801 17.0662ZM242.231 9.97212L245.179 2.53493L245.179 2.53493L242.231 9.97212ZM43.7658 28.6627L48.0501 35.4189L43.7658 28.6627ZM44.4621 55.554C43.9771 50.4043 43.6647 47.0205 43.6324 44.4118C43.6013 41.8969 43.8569 40.8154 44.1089 40.1795L29.2346 34.2843C27.8944 37.6658 27.5902 41.1022 27.6336 44.6099C27.6759 48.0238 28.0723 52.1674 28.5326 57.0542L44.4621 55.554ZM46.281 74.8686L44.4621 55.554L28.5326 57.0542L30.3515 76.3687L46.281 74.8686ZM48.7691 89.982C48.4055 89.3882 47.9596 88.3446 47.527 85.8611C47.0807 83.2982 46.7585 79.9382 46.281 74.8686L30.3515 76.3687C30.8053 81.1871 31.1849 85.2796 31.7643 88.6063C32.3575 92.0124 33.2612 95.2955 35.1244 98.3379L48.7691 89.982ZM36.6476 102.694L42.6968 102.125L41.1967 86.1952L35.1474 86.7649L36.6476 102.694ZM21.4774 105.218C22.0551 104.851 23.0698 104.398 25.5464 103.959C28.1152 103.504 31.4979 103.179 36.6476 102.694L35.1474 86.7649C30.2606 87.2251 26.1158 87.6092 22.754 88.205C19.2999 88.8172 15.9808 89.7576 12.9089 91.7056L21.4774 105.218ZM17.5363 109.978C18.3144 108.015 19.694 106.349 21.4774 105.218L12.9089 91.7056C8.27198 94.646 4.68494 98.9789 2.66191 104.083L17.5363 109.978ZM17.8894 125.353C17.4044 120.203 17.092 116.819 17.0597 114.211C17.0286 111.696 17.2843 110.614 17.5363 109.978L2.66191 104.083C1.32171 107.465 1.01755 110.901 1.06096 114.409C1.10322 117.823 1.49969 121.966 1.95991 126.853L17.8894 125.353ZM19.7084 144.668L17.8894 125.353L1.95991 126.853L3.77887 146.168L19.7084 144.668ZM22.2318 159.838C21.8655 159.26 21.4124 158.245 20.9735 155.769C20.5182 153.2 20.1934 149.817 19.7084 144.668L3.77887 146.168C4.23909 151.055 4.62317 155.199 5.21903 158.561C5.83124 162.015 6.77162 165.334 8.71956 168.406L22.2318 159.838ZM26.9925 163.779C25.0292 163.001 23.3627 161.621 22.2318 159.838L8.71956 168.406C11.66 173.043 15.9929 176.63 21.0973 178.653L26.9925 163.779ZM42.367 163.426C37.2173 163.911 33.8334 164.223 31.2248 164.255C28.7098 164.286 27.6284 164.031 26.9925 163.779L21.0973 178.653C24.4788 179.993 27.9151 180.298 31.4228 180.254C34.8367 180.212 38.9803 179.815 43.8671 179.355L42.367 163.426ZM269.761 142.011L42.367 163.426L43.8671 179.355L271.261 157.94L269.761 142.011ZM284.931 139.487C284.353 139.854 283.339 140.307 280.862 140.746C278.293 141.201 274.911 141.526 269.761 142.011L271.261 157.94C276.148 157.48 280.293 157.096 283.654 156.5C287.108 155.888 290.428 154.947 293.499 153L284.931 139.487ZM288.872 134.727C288.094 136.69 286.714 138.356 284.931 139.487L293.499 153C298.136 150.059 301.723 145.726 303.746 140.622L288.872 134.727ZM288.519 119.352C289.004 124.502 289.316 127.886 289.349 130.494C289.38 133.009 289.124 134.091 288.872 134.727L303.746 140.622C305.087 137.24 305.391 133.804 305.347 130.296C305.305 126.882 304.909 122.739 304.448 117.852L288.519 119.352ZM286.7 100.038L288.519 119.352L304.448 117.852L302.63 98.5374L286.7 100.038ZM284.177 84.8674C284.543 85.4451 284.996 86.4598 285.435 88.9364C285.89 91.5052 286.215 94.8879 286.7 100.038L302.63 98.5374C302.169 93.6506 301.785 89.5058 301.189 86.144C300.577 82.6899 299.637 79.3708 297.689 76.2989L284.177 84.8674ZM279.416 80.9263C281.379 81.7044 283.046 83.084 284.177 84.8674L297.689 76.2989C294.748 71.662 290.415 68.0749 285.311 66.0519L279.416 80.9263ZM264.041 81.2794C269.191 80.7945 272.575 80.482 275.184 80.4497C277.699 80.4186 278.78 80.6743 279.416 80.9263L285.311 66.0519C281.93 64.7117 278.493 64.4076 274.986 64.451C271.572 64.4932 267.428 64.8897 262.541 65.3499L264.041 81.2794ZM256.997 81.9429L264.041 81.2794L262.541 65.3499L255.496 66.0134L256.997 81.9429ZM248.387 55.8351C248.864 60.9047 249.175 64.2658 249.215 66.867C249.254 69.3876 249.01 70.4961 248.764 71.1473L263.729 76.8089C264.991 73.4721 265.266 70.0781 265.213 66.6211C265.161 63.2447 264.77 59.1533 264.316 54.335L248.387 55.8351ZM246.568 36.5206L248.387 55.8351L264.316 54.335L262.497 35.0204L246.568 36.5206ZM244.044 21.3505C244.411 21.9281 244.864 22.9428 245.303 25.4194C245.758 27.9882 246.083 31.3709 246.568 36.5206L262.497 35.0204C262.037 30.1336 261.653 25.9889 261.057 22.627C260.445 19.173 259.505 15.8538 257.557 12.7819L244.044 21.3505ZM239.284 17.4093C241.247 18.1874 242.913 19.567 244.044 21.3505L257.557 12.7819C254.616 8.145 250.283 4.55796 245.179 2.53493L239.284 17.4093ZM223.909 17.7624C229.059 17.2775 232.443 16.965 235.051 16.9328C237.566 16.9016 238.648 17.1573 239.284 17.4093L245.179 2.53493C241.797 1.19474 238.361 0.890568 234.853 0.933984C231.439 0.976238 227.296 1.37271 222.409 1.83293L223.909 17.7624ZM63.2202 32.8954L223.909 17.7624L222.409 1.83293L61.7201 16.9659L63.2202 32.8954ZM48.0501 35.4189C48.6277 35.0525 49.6425 34.5995 52.119 34.1605C54.6879 33.7052 58.0705 33.3804 63.2202 32.8954L61.7201 16.9659C56.8332 17.4261 52.6885 17.8102 49.3267 18.4061C45.8726 19.0183 42.5534 19.9587 39.4816 21.9066L48.0501 35.4189ZM44.1089 40.1795C44.887 38.2163 46.2666 36.5498 48.0501 35.4189L39.4816 21.9066C34.8446 24.847 31.2576 29.1799 29.2346 34.2843L44.1089 40.1795Z" fill="#FAFAFA" mask="url(#path-1-outside-1_2723_11628)"/>
<path d="M56.5295 49.8294L57.4656 59.7684C57.987 65.3049 59.2672 71.0391 71.4742 69.8895C74.3425 69.6194 78.2467 68.9152 80.9918 68.051L82.2419 81.3253L87.9785 80.785L84.8124 47.1658L79.0758 47.706L80.5206 63.0482C78.1028 63.8142 75.3326 64.4116 72.1975 64.7069C63.8594 65.4921 63.3993 62.036 63.0915 58.7675L62.1994 49.2954L56.5295 49.8294ZM120.303 77.7408L125.64 77.2383L123.485 54.3585C122.775 46.8209 116.922 43.267 108.517 44.0585C100.98 44.7684 95.9157 48.8793 96.0997 55.1205L101.77 54.5866C101.76 51.6264 104.179 49.447 109.116 48.9821C114.919 48.4356 117.597 51.1444 117.98 55.2134L118.105 56.5475L107.166 57.5778C97.7605 58.4635 94.8321 64.5268 95.3409 69.9299C95.8812 75.6665 100.707 80.4612 108.511 79.7262C113.314 79.2739 116.807 77.0606 118.63 74.2644L119.964 74.1388L120.303 77.7408ZM109.381 74.6644C104.445 75.1293 101.356 73.0647 100.998 69.2625C100.628 65.327 103.009 62.7473 108.479 62.2322L118.551 61.2836L118.834 64.2853C119.33 69.555 115.051 74.1304 109.381 74.6644ZM157.813 63.9793C157.298 67.7964 154.716 70.3949 149.913 70.8472C142.376 71.5571 138.669 65.7822 138.028 58.9783C137.394 52.2411 139.909 46.0821 147.514 45.366C152.116 44.9325 154.931 46.9555 156.319 50.2569L161.989 49.7229C160.271 43.6262 154.987 39.6822 147.049 40.4298C136.576 41.4161 131.422 49.5732 132.371 59.6457C133.313 69.6514 139.905 76.7696 150.378 75.7834C158.183 75.0484 162.898 70.0954 163.483 63.4453L157.813 63.9793ZM166.722 44.4319L178.395 43.3325L181.096 72.0156L186.766 71.4816L184.065 42.7986L195.672 41.7055L195.207 36.7693L166.257 39.4957L166.722 44.4319ZM216.559 33.8836C206.02 34.8761 200.739 43.1126 201.681 53.1183C202.624 63.124 209.349 70.2297 219.889 69.2372C230.361 68.2509 235.709 60.0082 234.767 50.0024C233.825 39.9967 227.032 32.8973 216.559 33.8836ZM219.424 64.301C211.953 65.0046 207.973 59.1881 207.351 52.5843C206.736 46.0473 209.553 39.5233 217.024 38.8198C224.428 38.1225 228.481 43.9993 229.097 50.5364C229.719 57.1402 226.828 63.6037 219.424 64.301Z" fill="#2B2B2B"/>
<path d="M31.7805 123.432L43.4539 122.333L46.1551 151.016L51.825 150.482L49.1238 121.799L60.7304 120.706L60.2655 115.769L31.3156 118.496L31.7805 123.432ZM67.7459 115.065L70.912 148.684L85.8539 147.277C93.9919 146.511 98.1257 141.814 97.4661 134.81C96.8128 127.873 91.8811 124.098 83.7431 124.864L74.4711 125.737L73.4158 114.531L67.7459 115.065ZM74.9235 130.54L83.395 129.742C89.265 129.19 91.4256 131.409 91.7962 135.344C92.1606 139.213 90.4586 141.864 84.5885 142.416L76.117 143.214L74.9235 130.54ZM100.765 111.955L103.931 145.575L109.601 145.041L106.435 111.421L100.765 111.955ZM143.763 141.823L149.833 141.252L139.188 124.69L146.2 107.677L140.263 108.236L134.233 122.801L124.36 123.731L123.054 109.856L117.384 110.39L120.55 144.01L126.22 143.476L124.825 128.667L134.564 127.75L143.763 141.823ZM179.288 138.478L184.624 137.975L182.47 115.096C181.76 107.558 175.907 104.004 167.502 104.796C159.964 105.505 154.901 109.616 155.085 115.858L160.754 115.324C160.745 112.363 163.164 110.184 168.1 109.719C173.904 109.173 176.581 111.881 176.965 115.95L177.09 117.285L166.151 118.315C156.745 119.201 153.817 125.264 154.326 130.667C154.866 136.404 159.692 141.198 167.496 140.463C172.299 140.011 175.792 137.798 177.615 135.001L178.949 134.876L179.288 138.478ZM168.366 135.401C163.429 135.866 160.341 133.802 159.983 130C159.612 126.064 161.994 123.484 167.464 122.969L177.536 122.021L177.819 125.022C178.315 130.292 174.035 134.867 168.366 135.401ZM221.176 99.7408C212.037 100.601 206.891 107.412 206.621 115.984L198.75 116.725L197.444 102.851L191.84 103.378L195.006 136.998L200.61 136.47L199.215 121.661L206.886 120.939C208.528 129.802 214.966 135.993 224.505 135.094C234.711 134.133 240.046 125.757 239.116 115.885C238.186 106.013 231.381 98.7797 221.176 99.7408ZM224.04 130.158C216.769 130.843 212.856 125.02 212.234 118.416C211.619 111.879 214.37 105.362 221.64 104.677C228.844 103.999 232.831 109.882 233.446 116.419C234.068 123.023 231.244 129.48 224.04 130.158ZM242.774 103.562L254.447 102.462L257.148 131.145L262.818 130.611L260.117 101.928L271.724 100.835L271.259 95.8991L242.309 98.6255L242.774 103.562Z" fill="#2B2B2B"/>
</svg>
