<svg width="755" height="62" viewBox="0 0 755 62" fill="none" xmlns="http://www.w3.org/2000/svg">
<path fill-rule="evenodd" clip-rule="evenodd" d="M552 12H557.419L565.548 0H556.645L552 12ZM745.641 32.2999L733.701 49.9999H725.061V19.1599H733.221V36.9199H734.301L746.241 19.1599H754.881V49.9999H746.721V32.2999H745.641ZM739.941 10.5799C742.941 10.5799 744.141 8.89992 744.381 6.91992H750.861C750.381 12.4999 746.661 15.9199 739.941 15.9199C733.281 15.9199 729.561 12.4999 729.081 6.91992H735.561C735.801 8.89992 737.061 10.5799 739.941 10.5799ZM0.0600002 20.4799C0.0600002 12.1399 5.64 7.15992 15.12 7.15992H35.28V49.9999H26.34V33.8599H14.76L9 49.9999H0L6.42 31.9399C2.34 29.7799 0.0600002 25.8199 0.0600002 20.4799ZM16.38 26.2399H26.34V15.0199H17.28C11.4 15.0199 9.18 16.6399 9.18 20.5999C9.18 24.1999 11.16 26.2399 16.38 26.2399ZM76.6036 34.5799C76.6036 43.9999 71.3836 50.7799 62.9836 50.7799C58.8436 50.7799 56.4436 49.2799 54.8236 47.1199H53.6236V61.9999H45.2236V19.1599H53.3836V22.0399H54.5836C56.2636 19.9399 58.7236 18.3799 62.9836 18.3799C71.5036 18.3799 76.6036 25.2199 76.6036 34.5799ZM68.2036 34.5799C68.2036 29.4199 65.8636 25.3399 60.8236 25.3399C55.6036 25.3399 53.3236 29.7199 53.3236 34.5799C53.3236 39.4399 55.6036 43.7599 60.8236 43.7599C65.8636 43.7599 68.2036 39.7399 68.2036 34.5799ZM98.5397 18.3799C88.8197 18.3799 82.5797 24.9199 82.5797 34.5799C82.5797 44.2399 88.8197 50.7799 98.5397 50.7799C108.32 50.7799 114.5 44.2399 114.5 34.5799C114.5 24.9199 108.32 18.3799 98.5397 18.3799ZM98.5397 43.8199C93.3197 43.8199 90.9797 39.5599 90.9797 34.5799C90.9797 29.6599 93.3197 25.3999 98.5397 25.3999C103.82 25.3999 106.1 29.6599 106.1 34.5799C106.1 39.5599 103.82 43.8199 98.5397 43.8199ZM136.104 43.8199C139.404 43.8199 141.384 42.2599 141.864 39.6199H150.144C149.364 46.2799 143.784 50.7799 136.044 50.7799C126.504 50.7799 120.504 44.3599 120.504 34.5799C120.504 24.8599 126.504 18.3799 136.044 18.3799C143.784 18.3799 149.064 22.6999 149.904 28.9999H141.564C140.904 26.7199 139.164 25.3999 136.104 25.3999C130.884 25.3999 128.904 29.5999 128.904 34.5199C128.904 39.5599 130.944 43.8199 136.104 43.8199ZM154.704 49.9999H155.784C164.904 49.9999 169.164 45.4999 169.164 32.4199V26.1799H179.364V49.9999H187.764V19.1599H161.424V32.1199C161.424 39.7999 159.684 41.9599 155.784 41.9599H154.704V49.9999ZM223.972 49.9999H216.172V47.3599H214.972C213.172 49.4599 210.352 50.7799 206.332 50.7799C199.192 50.7799 195.112 46.1599 195.112 40.5199C195.112 35.6599 198.532 30.2599 207.652 30.2599H215.872V29.4799C215.872 26.2999 214.072 24.6799 210.412 24.6799C207.052 24.6799 205.432 25.9399 205.192 27.9799H196.852C197.092 22.0999 202.432 18.3799 209.992 18.3799C218.332 18.3799 223.972 21.6799 223.972 29.9599V49.9999ZM203.512 39.8599C203.512 42.6799 205.552 44.1199 208.972 44.1199C212.992 44.1199 215.872 41.4199 215.872 37.6399V35.8399H209.272C205.672 35.8399 203.512 37.1599 203.512 39.8599ZM256.728 34.2799V33.0799C258.528 32.1799 260.388 30.0199 260.388 27.0199C260.388 22.2199 256.908 19.1599 250.668 19.1599H233.028V49.9999H251.148C258.108 49.9999 262.068 47.0599 262.068 41.4199C262.068 37.4599 259.668 35.0599 256.728 34.2799ZM249.228 43.9399H241.248V37.0399H249.228C252.528 37.0399 253.608 38.5399 253.608 40.5199C253.608 42.4999 252.528 43.9399 249.228 43.9399ZM241.248 25.2199H248.388C251.088 25.2199 251.988 26.5399 251.988 28.2199C251.988 29.8399 251.088 31.1599 248.388 31.1599H241.248V25.2199ZM280.787 7.15992H316.367V15.0199H303.047V49.9999H294.107V15.0199H280.787V7.15992ZM332.482 61.9999L351.082 19.1599H342.622L335.542 35.5999H333.982L326.302 19.1599H317.542L330.622 46.8199L324.082 61.9999H332.482ZM365.527 49.9999H357.128V19.1599H382.087V26.1799H365.527V49.9999ZM402.299 18.3799C392.579 18.3799 386.339 24.9199 386.339 34.5799C386.339 44.2399 392.579 50.7799 402.299 50.7799C412.079 50.7799 418.259 44.2399 418.259 34.5799C418.259 24.9199 412.079 18.3799 402.299 18.3799ZM402.299 43.8199C397.079 43.8199 394.739 39.5599 394.739 34.5799C394.739 29.6599 397.079 25.3999 402.299 25.3999C407.579 25.3999 409.859 29.6599 409.859 34.5799C409.859 39.5599 407.579 43.8199 402.299 43.8199ZM423.963 49.9999H422.883V41.9599H423.963C427.863 41.9599 429.603 39.7999 429.603 32.1199V19.1599H455.943V49.9999H447.543V26.1799H437.343V32.4199C437.343 45.4999 433.083 49.9999 423.963 49.9999ZM477.031 61.9999L495.631 19.1599H487.171L480.091 35.5999H478.531L470.851 19.1599H462.091L475.171 46.8199L468.631 61.9999H477.031ZM531.856 49.9999H523.036L516.616 37.6999H510.076V49.9999H501.676V19.1599H510.076V30.6799H516.736L522.796 19.1599H531.376L523.636 34.0399L531.856 49.9999ZM552.297 18.3799C542.577 18.3799 536.337 24.9199 536.337 34.5799C536.337 44.2399 542.577 50.7799 552.297 50.7799C562.077 50.7799 568.257 44.2399 568.257 34.5799C568.257 24.9199 562.077 18.3799 552.297 18.3799ZM552.297 43.8199C547.077 43.8199 544.737 39.5599 544.737 34.5799C544.737 29.6599 547.077 25.3999 552.297 25.3999C557.577 25.3999 559.857 29.6599 559.857 34.5799C559.857 39.5599 557.577 43.8199 552.297 43.8199ZM599.701 33.0799V34.2799C602.641 35.0599 605.041 37.4599 605.041 41.4199C605.041 47.0599 601.081 49.9999 594.121 49.9999H576.001V19.1599H593.641C599.881 19.1599 603.361 22.2199 603.361 27.0199C603.361 30.0199 601.501 32.1799 599.701 33.0799ZM584.221 43.9399H592.201C595.501 43.9399 596.581 42.4999 596.581 40.5199C596.581 38.5399 595.501 37.0399 592.201 37.0399H584.221V43.9399ZM591.361 25.2199H584.221V31.1599H591.361C594.061 31.1599 594.961 29.8399 594.961 28.2199C594.961 26.5399 594.061 25.2199 591.361 25.2199ZM632.549 39.6199C632.069 42.2599 630.089 43.8199 626.789 43.8199C621.629 43.8199 619.589 39.5599 619.589 34.5199C619.589 29.5999 621.569 25.3999 626.789 25.3999C629.849 25.3999 631.589 26.7199 632.249 28.9999H640.589C639.749 22.6999 634.469 18.3799 626.729 18.3799C617.189 18.3799 611.189 24.8599 611.189 34.5799C611.189 44.3599 617.189 50.7799 626.729 50.7799C634.469 50.7799 640.049 46.2799 640.829 39.6199H632.549ZM678.69 49.9999H669.87L663.45 37.6999H656.91V49.9999H648.51V19.1599H656.91V30.6799H663.57L669.63 19.1599H678.21L670.47 34.0399L678.69 49.9999ZM694.429 49.9999L706.369 32.2999H707.449V49.9999H715.609V19.1599H706.969L695.029 36.9199H693.949V19.1599H685.789V49.9999H694.429Z" fill="#1A1A1A"/>
</svg>
