<svg width="715" height="73" viewBox="0 0 715 73" fill="none" xmlns="http://www.w3.org/2000/svg">
<path d="M19.5 33.26L10.32 16.16H0.9L15.84 43.76V59H24.84V43.76L39.84 16.16H30.36L21.18 33.26H19.5ZM58.5689 59H66.3689V38.96C66.3689 30.68 60.7289 27.38 52.3889 27.38C44.8289 27.38 39.4889 31.1 39.2489 36.98H47.5889C47.8289 34.94 49.4489 33.68 52.8089 33.68C56.4689 33.68 58.2689 35.3 58.2689 38.48V39.26H50.0489C40.9289 39.26 37.5089 44.66 37.5089 49.52C37.5089 55.16 41.5889 59.78 48.7289 59.78C52.7489 59.78 55.5689 58.46 57.3689 56.36H58.5689V59ZM51.3689 53.12C47.9489 53.12 45.9089 51.68 45.9089 48.86C45.9089 46.16 48.0689 44.84 51.6689 44.84H58.2689V46.64C58.2689 50.42 55.3889 53.12 51.3689 53.12ZM95.9452 28.16H93.2452C88.2652 28.16 85.7452 30.26 84.7252 31.7H83.5252V28.16H75.4252V59H83.8252V45.5C83.8252 39.38 86.8252 35.96 93.2452 35.96H95.9452V28.16ZM116.847 27.38C107.127 27.38 100.887 33.92 100.887 43.58C100.887 53.24 107.127 59.78 116.847 59.78C126.627 59.78 132.807 53.24 132.807 43.58C132.807 33.92 126.627 27.38 116.847 27.38ZM116.847 52.82C111.627 52.82 109.287 48.56 109.287 43.58C109.287 38.66 111.627 34.4 116.847 34.4C122.127 34.4 124.407 38.66 124.407 43.58C124.407 48.56 122.127 52.82 116.847 52.82ZM156.331 39.86L151.591 39.08C149.131 38.66 147.871 38 147.871 36.5C147.871 34.82 149.791 33.86 152.251 33.86C154.831 33.86 156.931 34.52 157.291 36.62H165.631C164.971 31.16 160.231 27.38 152.551 27.38C143.431 27.38 139.471 31.82 139.471 37.04C139.471 42.2 143.071 44.72 147.931 45.56L153.451 46.52C156.691 47.06 158.131 47.84 158.131 49.94C158.131 52.16 156.091 53.3 152.791 53.3C149.311 53.3 147.091 52.1 146.671 49.28H138.331C138.931 55.64 143.551 59.78 152.851 59.78C161.971 59.78 166.531 54.92 166.531 49.76C166.531 43.58 162.571 40.76 156.331 39.86ZM173.905 15.38V59H182.305V15.38H173.905ZM210.69 59H218.49V38.96C218.49 30.68 212.85 27.38 204.51 27.38C196.95 27.38 191.61 31.1 191.37 36.98H199.71C199.95 34.94 201.57 33.68 204.93 33.68C208.59 33.68 210.39 35.3 210.39 38.48V39.26H202.17C193.05 39.26 189.63 44.66 189.63 49.52C189.63 55.16 193.71 59.78 200.85 59.78C204.87 59.78 207.69 58.46 209.49 56.36H210.69V59ZM203.49 53.12C200.07 53.12 198.03 51.68 198.03 48.86C198.03 46.16 200.19 44.84 203.79 44.84H210.39V46.64C210.39 50.42 207.51 53.12 203.49 53.12ZM233.126 59H247.586L256.586 28.16H247.886L241.646 51.5H239.426L232.946 28.16H224.246L233.126 59ZM309.245 16.16H273.665V24.02H286.985V59H295.925V24.02H309.245V16.16ZM325.18 59.78C329.2 59.78 332.08 58.16 333.46 56.12H334.66V59H342.82V28.16H334.42V44.6C334.42 48.8 331.9 52.34 327.7 52.34C323.8 52.34 321.76 49.94 321.76 45.68V28.16H313.36V46.88C313.36 54.5 317.2 59.78 325.18 59.78ZM373.83 28.16V31.04H372.63C371.43 29.24 368.79 27.38 364.53 27.38C356.13 27.38 350.55 33.92 350.55 42.98C350.55 52.04 356.07 58.52 364.47 58.52C368.73 58.52 371.07 56.84 372.39 54.92H373.59V56.78C373.59 61.46 371.67 65.06 366.39 65.06C362.61 65.06 360.45 63.8 360.03 61.28H351.69C352.29 68.06 358.11 71.66 366.51 71.66C375.63 71.66 381.99 66.26 381.99 57.5V28.16H373.83ZM366.33 51.5C361.65 51.5 358.95 47.9 358.95 42.98C358.95 38.06 361.65 34.4 366.33 34.4C371.31 34.4 373.89 38.24 373.89 42.98C373.89 47.66 371.31 51.5 366.33 51.5ZM405.665 27.38C395.945 27.38 389.705 33.92 389.705 43.58C389.705 53.24 395.945 59.78 405.665 59.78C415.445 59.78 421.625 53.24 421.625 43.58C421.625 33.92 415.445 27.38 405.665 27.38ZM405.665 52.82C400.445 52.82 398.105 48.56 398.105 43.58C398.105 38.66 400.445 34.4 405.665 34.4C410.945 34.4 413.225 38.66 413.225 43.58C413.225 48.56 410.945 52.82 405.665 52.82ZM429.369 15.38V59H437.769V15.38H429.369ZM458.654 59.78C462.674 59.78 465.554 58.16 466.934 56.12H468.134V59H476.294V28.16H467.894V44.6C467.894 48.8 465.374 52.34 461.174 52.34C457.274 52.34 455.234 49.94 455.234 45.68V28.16H446.834V46.88C446.834 54.5 450.674 59.78 458.654 59.78ZM516.604 59L506.224 37.88L514.984 28.16H505.624L494.164 40.4V15.38H485.764V59H494.164V50.18L499.264 44.54H500.464L507.784 59H516.604ZM536.502 27.38C526.782 27.38 520.542 33.92 520.542 43.58C520.542 53.24 526.782 59.78 536.502 59.78C546.282 59.78 552.462 53.24 552.462 43.58C552.462 33.92 546.282 27.38 536.502 27.38ZM536.502 52.82C531.282 52.82 528.942 48.56 528.942 43.58C528.942 38.66 531.282 34.4 536.502 34.4C541.782 34.4 544.062 38.66 544.062 43.58C544.062 48.56 541.782 52.82 536.502 52.82ZM565.786 59H580.246L589.246 28.16H580.546L574.306 51.5H572.086L565.606 28.16H556.906L565.786 59ZM611.274 39.86L606.534 39.08C604.074 38.66 602.814 38 602.814 36.5C602.814 34.82 604.734 33.86 607.194 33.86C609.774 33.86 611.874 34.52 612.234 36.62H620.574C619.914 31.16 615.174 27.38 607.494 27.38C598.374 27.38 594.414 31.82 594.414 37.04C594.414 42.2 598.014 44.72 602.874 45.56L608.394 46.52C611.634 47.06 613.074 47.84 613.074 49.94C613.074 52.16 611.034 53.3 607.734 53.3C604.254 53.3 602.034 52.1 601.614 49.28H593.274C593.874 55.64 598.494 59.78 607.794 59.78C616.914 59.78 621.474 54.92 621.474 49.76C621.474 43.58 617.514 40.76 611.274 39.86ZM659.688 59L649.308 37.88L658.068 28.16H648.708L637.248 40.4V15.38H628.848V59H637.248V50.18L642.348 44.54H643.548L650.868 59H659.688ZM673.946 23V15.38H665.306V23H673.946ZM673.826 28.16H665.426V59H673.826V28.16ZM694.948 71L713.548 28.16H705.088L698.008 44.6H696.448L688.768 28.16H680.008L693.088 55.82L686.548 71H694.948Z" fill="#1A1A1A"/>
<path d="M540.419 21H535L539.645 9H548.548L540.419 21Z" fill="#1A1A1A"/>
</svg>
