<svg width="45" height="41" viewBox="0 0 45 41" fill="none" xmlns="http://www.w3.org/2000/svg">
<mask id="path-1-inside-1" fill="white">
<path fill-rule="evenodd" clip-rule="evenodd" d="M3.63273 7.31813C3 8.58442 3 10.2363 3 13.54V22.46C3 25.7637 3 27.4156 3.63273 28.6819C4.21349 29.8442 5.15585 30.7865 6.31813 31.3673C7.58442 32 9.23628 32 12.54 32H24.46C27.7637 32 29.4156 32 30.6819 31.3673C31.8442 30.7865 32.7865 29.8442 33.3673 28.6819C33.8483 27.7191 33.9637 26.5334 33.9913 24.5683L40.0057 27.7736C42.004 28.8386 44.4167 27.3905 44.4167 25.1261V10.8739C44.4167 8.60955 42.004 7.16145 40.0057 8.22641L33.9913 11.4317C33.9637 9.4666 33.8483 8.28092 33.3673 7.31813C32.7865 6.15585 31.8442 5.21349 30.6819 4.63273C29.4156 4 27.7637 4 24.46 4H12.54C9.23628 4 7.58442 4 6.31813 4.63273C5.15585 5.21349 4.21349 6.15585 3.63273 7.31813Z"/>
</mask>
<path d="M3.63273 7.31813L5.86909 8.43558L3.63273 7.31813ZM3.63273 28.6819L1.39637 29.7993H1.39637L3.63273 28.6819ZM6.31813 31.3673L7.43558 29.1309L7.43557 29.1309L6.31813 31.3673ZM30.6819 31.3673L31.7993 33.6036V33.6036L30.6819 31.3673ZM33.3673 28.6819L31.1309 27.5644L33.3673 28.6819ZM33.9913 24.5683L35.1671 22.362L31.5492 20.4339L31.4915 24.5331L33.9913 24.5683ZM40.0057 27.7736L38.8299 29.9798L40.0057 27.7736ZM40.0057 8.22641L38.8299 6.02017V6.02017L40.0057 8.22641ZM33.9913 11.4317L31.4915 11.4669L31.5492 15.5661L35.1671 13.638L33.9913 11.4317ZM33.3673 7.31813L31.1309 8.43557L31.1309 8.43558L33.3673 7.31813ZM30.6819 4.63273L31.7993 2.39637V2.39637L30.6819 4.63273ZM6.31813 4.63273L7.43557 6.86909L7.43558 6.86909L6.31813 4.63273ZM5.5 13.54C5.5 11.8476 5.50188 10.7261 5.57106 9.86529C5.63795 9.0329 5.75556 8.66279 5.86909 8.43558L1.39637 6.20068C0.877169 7.23977 0.678417 8.32873 0.587125 9.46478C0.498119 10.5724 0.5 11.9287 0.5 13.54H5.5ZM5.5 22.46V13.54H0.5V22.46H5.5ZM5.86909 27.5644C5.75556 27.3372 5.63795 26.9671 5.57106 26.1347C5.50188 25.2739 5.5 24.1524 5.5 22.46H0.5C0.5 24.0713 0.498119 25.4276 0.587125 26.5352C0.678417 27.6713 0.877169 28.7602 1.39637 29.7993L5.86909 27.5644ZM7.43557 29.1309C6.75758 28.7921 6.20787 28.2424 5.86909 27.5644L1.39637 29.7993C2.21911 31.4459 3.55412 32.7809 5.20068 33.6036L7.43557 29.1309ZM12.54 29.5C10.8476 29.5 9.72613 29.4981 8.86528 29.4289C8.0329 29.3621 7.66279 29.2444 7.43558 29.1309L5.20068 33.6036C6.23977 34.1228 7.32873 34.3216 8.46478 34.4129C9.57236 34.5019 10.9287 34.5 12.54 34.5V29.5ZM24.46 29.5H12.54V34.5H24.46V29.5ZM29.5644 29.1309C29.3372 29.2444 28.9671 29.3621 28.1347 29.4289C27.2739 29.4981 26.1524 29.5 24.46 29.5V34.5C26.0713 34.5 27.4276 34.5019 28.5352 34.4129C29.6713 34.3216 30.7602 34.1228 31.7993 33.6036L29.5644 29.1309ZM31.1309 27.5644C30.7921 28.2424 30.2424 28.7921 29.5644 29.1309L31.7993 33.6036C33.4459 32.7809 34.7809 31.4459 35.6036 29.7993L31.1309 27.5644ZM31.4915 24.5331C31.4633 26.5388 31.3247 27.1767 31.1309 27.5644L35.6036 29.7993C36.372 28.2615 36.464 26.528 36.491 24.6034L31.4915 24.5331ZM32.8155 26.7745L38.8299 29.9798L41.1815 25.5674L35.1671 22.362L32.8155 26.7745ZM38.8299 29.9798C42.4935 31.9323 46.9167 29.2774 46.9167 25.1261H41.9167C41.9167 25.5035 41.5146 25.7448 41.1815 25.5674L38.8299 29.9798ZM46.9167 25.1261V10.8739H41.9167V25.1261H46.9167ZM46.9167 10.8739C46.9167 6.72258 42.4935 4.06774 38.8299 6.02017L41.1815 10.4327C41.5146 10.2552 41.9167 10.4965 41.9167 10.8739H46.9167ZM38.8299 6.02017L32.8155 9.22549L35.1671 13.638L41.1815 10.4327L38.8299 6.02017ZM31.1309 8.43558C31.3247 8.82333 31.4633 9.46115 31.4915 11.4669L36.491 11.3966C36.464 9.47204 36.372 7.7385 35.6036 6.20068L31.1309 8.43558ZM29.5644 6.86909C30.2424 7.20787 30.7921 7.75758 31.1309 8.43557L35.6036 6.20068C34.7809 4.55412 33.4459 3.21911 31.7993 2.39637L29.5644 6.86909ZM24.46 6.5C26.1524 6.5 27.2739 6.50188 28.1347 6.57106C28.9671 6.63795 29.3372 6.75556 29.5644 6.86909L31.7993 2.39637C30.7602 1.87717 29.6713 1.67842 28.5352 1.58712C27.4276 1.49812 26.0713 1.5 24.46 1.5V6.5ZM12.54 6.5H24.46V1.5H12.54V6.5ZM7.43558 6.86909C7.66279 6.75556 8.0329 6.63795 8.86528 6.57106C9.72613 6.50188 10.8476 6.5 12.54 6.5V1.5C10.9287 1.5 9.57236 1.49812 8.46478 1.58712C7.32873 1.67842 6.23977 1.87717 5.20068 2.39637L7.43558 6.86909ZM5.86909 8.43558C6.20787 7.75758 6.75758 7.20787 7.43557 6.86909L5.20068 2.39637C3.55412 3.21911 2.21911 4.55412 1.39637 6.20068L5.86909 8.43558Z" fill="#1A1A1A" mask="url(#path-1-inside-1)"/>
<g filter="url(#filter0_d)">
<rect y="35.3552" width="50" height="2.5" transform="rotate(-45 0 35.3552)" fill="#E90000"/>
</g>
<defs>
<filter id="filter0_d" x="0" y="0" width="37.1231" height="40.6231" filterUnits="userSpaceOnUse" color-interpolation-filters="sRGB">
<feFlood flood-opacity="0" result="BackgroundImageFix"/>
<feColorMatrix in="SourceAlpha" type="matrix" values="0 0 0 0 0 0 0 0 0 0 0 0 0 0 0 0 0 0 127 0"/>
<feOffset dy="3.5"/>
<feColorMatrix type="matrix" values="0 0 0 0 0.984314 0 0 0 0 0.976471 0 0 0 0 0.937255 0 0 0 1 0"/>
<feBlend mode="normal" in2="BackgroundImageFix" result="effect1_dropShadow"/>
<feBlend mode="normal" in="SourceGraphic" in2="effect1_dropShadow" result="shape"/>
</filter>
</defs>
</svg>
