<svg width="332" height="324" viewBox="0 0 332 324" fill="none" xmlns="http://www.w3.org/2000/svg">
<ellipse cx="167" cy="215" rx="165" ry="22" fill="url(#paint0_linear)"/>
<rect x="134.865" y="154.28" width="90" height="80" rx="5" transform="rotate(45 134.865 154.28)" fill="url(#paint1_linear)"/>
<g filter="url(#filter0_d)">
<path d="M159.614 179.028L173.756 193.17L160.321 206.605C159.93 206.996 159.297 206.996 158.907 206.605L146.179 193.878C145.788 193.487 145.788 192.854 146.179 192.463L159.614 179.028Z" fill="url(#paint2_linear)"/>
</g>
<path opacity="0.2" fill-rule="evenodd" clip-rule="evenodd" d="M100.217 201.656L98.8025 200.241L88.903 210.141L90.3172 211.555L100.217 201.656ZM121.43 222.869L120.016 221.455L110.116 231.354L111.53 232.768L121.43 222.869ZM100.924 202.363L101.631 203.07L93.8527 210.848L93.1456 210.141L100.924 202.363ZM103.752 205.191L102.338 203.777L94.5598 211.555L95.9741 212.969L103.752 205.191ZM108.702 210.141L110.116 211.555L102.338 219.333L100.924 217.919L108.702 210.141ZM116.48 217.919L115.066 216.505L107.288 224.283L108.702 225.697L116.48 217.919ZM104.459 205.898L105.166 206.605L97.3883 214.384L96.6812 213.676L104.459 205.898ZM106.581 208.02L105.874 207.313L98.0954 215.091L98.8025 215.798L106.581 208.02ZM112.238 213.676L112.945 214.384L105.166 222.162L104.459 221.455L112.238 213.676ZM117.894 219.333L117.187 218.626L109.409 226.404L110.116 227.112L117.894 219.333ZM107.288 208.727L107.995 209.434L100.217 217.212L99.5096 216.505L107.288 208.727ZM114.359 215.798L113.652 215.091L105.874 222.869L106.581 223.576L114.359 215.798ZM118.601 220.04L119.309 220.748L111.53 228.526L110.823 227.819L118.601 220.04ZM111.53 212.969L110.823 212.262L100.924 222.162L101.631 222.869L111.53 212.969Z" fill="black"/>
<path opacity="0.2" fill-rule="evenodd" clip-rule="evenodd" d="M143.35 253.274L141.229 251.153L149.007 250.446L148.3 258.224L146.179 256.103L142.643 259.638L139.815 256.81L143.35 253.274Z" fill="black"/>
<path opacity="0.2" fill-rule="evenodd" clip-rule="evenodd" d="M134.865 244.789L132.744 242.668L140.522 241.961L139.815 249.739L137.694 247.617L134.158 251.153L131.33 248.325L134.865 244.789Z" fill="black"/>
<rect x="65.5686" y="84.9829" width="90" height="80" rx="5" transform="rotate(45 65.5686 84.9829)" fill="url(#paint3_linear)"/>
<g filter="url(#filter1_d)">
<path d="M90.3174 109.732L104.46 123.874L91.0245 137.309C90.634 137.699 90.0008 137.699 89.6103 137.309L76.8824 124.581C76.4918 124.19 76.4918 123.557 76.8824 123.167L90.3174 109.732Z" fill="url(#paint4_linear)"/>
</g>
<path opacity="0.2" fill-rule="evenodd" clip-rule="evenodd" d="M30.9203 132.359L29.5061 130.945L19.6066 140.844L21.0208 142.259L30.9203 132.359ZM52.1335 153.572L50.7193 152.158L40.8198 162.058L42.234 163.472L52.1335 153.572ZM31.6274 133.066L32.3345 133.773L24.5564 141.551L23.8492 140.844L31.6274 133.066ZM34.4559 135.895L33.0416 134.48L25.2635 142.259L26.6777 143.673L34.4559 135.895ZM39.4056 140.844L40.8198 142.259L33.0416 150.037L31.6274 148.622L39.4056 140.844ZM47.1838 148.622L45.7696 147.208L37.9914 154.986L39.4056 156.401L47.1838 148.622ZM35.163 136.602L35.8701 137.309L28.0919 145.087L27.3848 144.38L35.163 136.602ZM37.2843 138.723L36.5772 138.016L28.799 145.794L29.5061 146.501L37.2843 138.723ZM42.9411 144.38L43.6482 145.087L35.8701 152.865L35.163 152.158L42.9411 144.38ZM48.598 150.037L47.8909 149.33L40.1127 157.108L40.8198 157.815L48.598 150.037ZM37.9914 139.43L38.6985 140.137L30.9203 147.915L30.2132 147.208L37.9914 139.43ZM45.0625 146.501L44.3553 145.794L36.5772 153.572L37.2843 154.279L45.0625 146.501ZM49.3051 150.744L50.0122 151.451L42.234 159.229L41.5269 158.522L49.3051 150.744ZM42.234 143.673L41.5269 142.966L31.6274 152.865L32.3345 153.572L42.234 143.673Z" fill="black"/>
<path opacity="0.2" fill-rule="evenodd" clip-rule="evenodd" d="M74.054 183.978L71.9327 181.856L79.7108 181.149L79.0037 188.927L76.8824 186.806L73.3469 190.342L70.5184 187.513L74.054 183.978Z" fill="black"/>
<path opacity="0.2" fill-rule="evenodd" clip-rule="evenodd" d="M65.5689 175.492L63.4475 173.371L71.2257 172.664L70.5186 180.442L68.3973 178.321L64.8618 181.856L62.0333 179.028L65.5689 175.492Z" fill="black"/>
<path fill-rule="evenodd" clip-rule="evenodd" d="M2 215C2 275.015 75.9233 323.695 167 323.695C258.179 323.695 332 275.015 332 215C331.998 227.006 258.126 236.738 167 236.738C75.8745 236.738 2.00237 227.006 2 215Z" fill="url(#paint5_linear)"/>
<g filter="url(#filter2_d)">
<circle cx="35.7208" cy="97.7207" r="25" transform="rotate(-6.63418 35.7208 97.7207)" fill="url(#paint6_linear)"/>
</g>
<path d="M21.8301 99.4715L23.9369 97.0158C26.8529 98.0308 28.722 98.8424 32.0814 100.694C37.1443 93.3961 40.6089 89.5892 47.2546 84.2983L48.2281 85.975C42.919 91.8178 39.2604 98.0641 34.3295 109.963C29.9595 105.885 27.0587 103.297 21.8301 99.4715Z" fill="white"/>
<rect x="262.145" y="27" width="90" height="170" rx="10" transform="rotate(45 262.145 27)" fill="url(#paint7_linear)"/>
<rect opacity="0.2" x="260.023" y="33.364" width="84" height="161" rx="7" transform="rotate(45 260.023 33.364)" fill="white"/>
<rect opacity="0.2" x="257.902" y="43.9705" width="40" height="4" rx="2" transform="rotate(45 257.902 43.9705)" fill="white"/>
<rect opacity="0.2" x="252.245" y="49.6274" width="26" height="4" rx="2" transform="rotate(45 252.245 49.6274)" fill="white"/>
<mask id="mask0" mask-type="alpha" maskUnits="userSpaceOnUse" x="149" y="36" width="168" height="167">
<rect x="260.023" y="33.364" width="84" height="160" rx="7" transform="rotate(45 260.023 33.364)" fill="white"/>
</mask>
<g mask="url(#mask0)">
<path d="M234.567 80.0331C224.905 78.8738 219.247 75.7905 215.829 73.3156L162.796 126.349L225.728 189.281L298.207 116.803C279.469 119.277 267.448 107.257 260.73 95.5895C254.013 83.9222 243.406 81.0937 234.567 80.0331Z" fill="url(#paint8_linear)"/>
<path d="M215.829 73.3156C219.247 75.7905 224.905 78.8738 234.567 80.0331C243.406 81.0937 254.013 83.9222 260.73 95.5895C267.448 107.257 279.469 119.277 298.207 116.803" stroke="#48CC8D" stroke-width="3"/>
</g>
<g opacity="0.15">
<rect x="187.191" y="114.681" width="40" height="3" rx="1.5" transform="rotate(45 187.191 114.681)" fill="white"/>
<rect x="228.91" y="156.4" width="13" height="3" rx="1.5" transform="rotate(45 228.91 156.4)" fill="white"/>
<rect x="181.534" y="120.338" width="46" height="3" rx="1.5" transform="rotate(45 181.534 120.338)" fill="white"/>
<rect x="224.668" y="163.471" width="11" height="3" rx="1.5" transform="rotate(45 224.668 163.471)" fill="white"/>
<rect x="175.877" y="125.995" width="37" height="3" rx="1.5" transform="rotate(45 175.877 125.995)" fill="white"/>
<rect x="217.597" y="167.714" width="13" height="3" rx="1.5" transform="rotate(45 217.597 167.714)" fill="white"/>
<rect x="170.221" y="131.652" width="29" height="3" rx="1.5" transform="rotate(45 170.221 131.652)" fill="white"/>
<rect x="214.768" y="176.199" width="9" height="3" rx="1.5" transform="rotate(45 214.768 176.199)" fill="white"/>
<rect x="164.564" y="137.309" width="43" height="3" rx="1.5" transform="rotate(45 164.564 137.309)" fill="white"/>
<rect x="207.697" y="180.442" width="11" height="3" rx="1.5" transform="rotate(45 207.697 180.442)" fill="white"/>
<rect x="158.907" y="142.965" width="40" height="3" rx="1.5" transform="rotate(45 158.907 142.965)" fill="white"/>
<rect x="200.626" y="184.685" width="13" height="3" rx="1.5" transform="rotate(45 200.626 184.685)" fill="white"/>
</g>
<g filter="url(#filter3_d)">
<circle cx="271" cy="195" r="25" fill="url(#paint9_linear)"/>
</g>
<g filter="url(#filter4_d)">
<rect x="122.251" y="24" width="50" height="50" rx="10" transform="rotate(6.02836 122.251 24)" fill="url(#paint10_linear)"/>
</g>
<rect x="132.399" y="42.1663" width="6" height="22" rx="2" transform="rotate(6.02836 132.399 42.1663)" fill="white"/>
<rect x="141.714" y="49.1833" width="6" height="16" rx="2" transform="rotate(6.02836 141.714 49.1833)" fill="white"/>
<rect x="152.919" y="38.2998" width="6" height="28" rx="2" transform="rotate(6.02836 152.919 38.2998)" fill="white"/>
<defs>
<filter id="filter0_d" x="144.886" y="179.028" width="29.8701" height="29.8701" filterUnits="userSpaceOnUse" color-interpolation-filters="sRGB">
<feFlood flood-opacity="0" result="BackgroundImageFix"/>
<feColorMatrix in="SourceAlpha" type="matrix" values="0 0 0 0 0 0 0 0 0 0 0 0 0 0 0 0 0 0 127 0"/>
<feOffset dy="1"/>
<feGaussianBlur stdDeviation="0.5"/>
<feColorMatrix type="matrix" values="0 0 0 0 0.695833 0 0 0 0 0.641537 0 0 0 0 0.397205 0 0 0 1 0"/>
<feBlend mode="normal" in2="BackgroundImageFix" result="effect1_dropShadow"/>
<feBlend mode="normal" in="SourceGraphic" in2="effect1_dropShadow" result="shape"/>
</filter>
<filter id="filter1_d" x="75.5894" y="109.732" width="29.8701" height="29.8701" filterUnits="userSpaceOnUse" color-interpolation-filters="sRGB">
<feFlood flood-opacity="0" result="BackgroundImageFix"/>
<feColorMatrix in="SourceAlpha" type="matrix" values="0 0 0 0 0 0 0 0 0 0 0 0 0 0 0 0 0 0 127 0"/>
<feOffset dy="1"/>
<feGaussianBlur stdDeviation="0.5"/>
<feColorMatrix type="matrix" values="0 0 0 0 0.695833 0 0 0 0 0.641537 0 0 0 0 0.397205 0 0 0 1 0"/>
<feBlend mode="normal" in2="BackgroundImageFix" result="effect1_dropShadow"/>
<feBlend mode="normal" in="SourceGraphic" in2="effect1_dropShadow" result="shape"/>
</filter>
<filter id="filter2_d" x="0.718506" y="67.7183" width="70.0047" height="70.0047" filterUnits="userSpaceOnUse" color-interpolation-filters="sRGB">
<feFlood flood-opacity="0" result="BackgroundImageFix"/>
<feColorMatrix in="SourceAlpha" type="matrix" values="0 0 0 0 0 0 0 0 0 0 0 0 0 0 0 0 0 0 127 0"/>
<feOffset dy="5"/>
<feGaussianBlur stdDeviation="5"/>
<feColorMatrix type="matrix" values="0 0 0 0 0.305882 0 0 0 0 0.74902 0 0 0 0 0.415686 0 0 0 0.4 0"/>
<feBlend mode="normal" in2="BackgroundImageFix" result="effect1_dropShadow"/>
<feBlend mode="normal" in="SourceGraphic" in2="effect1_dropShadow" result="shape"/>
</filter>
<filter id="filter3_d" x="231" y="160" width="80" height="80" filterUnits="userSpaceOnUse" color-interpolation-filters="sRGB">
<feFlood flood-opacity="0" result="BackgroundImageFix"/>
<feColorMatrix in="SourceAlpha" type="matrix" values="0 0 0 0 0 0 0 0 0 0 0 0 0 0 0 0 0 0 127 0"/>
<feOffset dy="5"/>
<feGaussianBlur stdDeviation="7.5"/>
<feColorMatrix type="matrix" values="0 0 0 0 1 0 0 0 0 0.603922 0 0 0 0 0.00392157 0 0 0 0.5 0"/>
<feBlend mode="normal" in2="BackgroundImageFix" result="effect1_dropShadow"/>
<feBlend mode="normal" in="SourceGraphic" in2="effect1_dropShadow" result="shape"/>
</filter>
<filter id="filter4_d" x="78.1196" y="0.119629" width="132.735" height="132.735" filterUnits="userSpaceOnUse" color-interpolation-filters="sRGB">
<feFlood flood-opacity="0" result="BackgroundImageFix"/>
<feColorMatrix in="SourceAlpha" type="matrix" values="0 0 0 0 0 0 0 0 0 0 0 0 0 0 0 0 0 0 127 0"/>
<feOffset dy="15"/>
<feGaussianBlur stdDeviation="20"/>
<feColorMatrix type="matrix" values="0 0 0 0 0.188235 0 0 0 0 0.717647 0 0 0 0 0.972549 0 0 0 0.3 0"/>
<feBlend mode="normal" in2="BackgroundImageFix" result="effect1_dropShadow"/>
<feBlend mode="normal" in="SourceGraphic" in2="effect1_dropShadow" result="shape"/>
</filter>
<linearGradient id="paint0_linear" x1="2" y1="215" x2="332" y2="215" gradientUnits="userSpaceOnUse">
<stop stop-color="#B8C4D4"/>
<stop offset="1" stop-color="#EAEDF3"/>
</linearGradient>
<linearGradient id="paint1_linear" x1="180.311" y1="234.057" x2="180.311" y2="154.28" gradientUnits="userSpaceOnUse">
<stop stop-color="#928855"/>
<stop offset="0.0316449" stop-color="#B1A774"/>
<stop offset="0.135417" stop-color="#AFA46A"/>
<stop offset="0.973682" stop-color="#CBC089"/>
<stop offset="1" stop-color="#E8DEB0"/>
</linearGradient>
<linearGradient id="paint2_linear" x1="166.685" y1="186.099" x2="152.543" y2="200.242" gradientUnits="userSpaceOnUse">
<stop stop-color="#FDF5CB"/>
<stop offset="0.132857" stop-color="#E8DFAF"/>
<stop offset="1" stop-color="#E0D7A6"/>
</linearGradient>
<linearGradient id="paint3_linear" x1="111.014" y1="164.76" x2="111.014" y2="84.9829" gradientUnits="userSpaceOnUse">
<stop stop-color="#928855"/>
<stop offset="0.0316449" stop-color="#B1A774"/>
<stop offset="0.135417" stop-color="#AFA46A"/>
<stop offset="0.973682" stop-color="#CBC089"/>
<stop offset="1" stop-color="#E8DEB0"/>
</linearGradient>
<linearGradient id="paint4_linear" x1="97.3885" y1="116.803" x2="83.2463" y2="130.945" gradientUnits="userSpaceOnUse">
<stop stop-color="#FDF5CB"/>
<stop offset="0.132857" stop-color="#E8DFAF"/>
<stop offset="1" stop-color="#E0D7A6"/>
</linearGradient>
<linearGradient id="paint5_linear" x1="332" y1="255.274" x2="1.99999" y2="255.274" gradientUnits="userSpaceOnUse">
<stop stop-color="#B8C4D4"/>
<stop offset="1" stop-color="#EAEDF3"/>
</linearGradient>
<linearGradient id="paint6_linear" x1="35.7208" y1="72.7207" x2="16.188" y2="110.768" gradientUnits="userSpaceOnUse">
<stop stop-color="#6CD189"/>
<stop offset="1" stop-color="#30AC4B"/>
</linearGradient>
<linearGradient id="paint7_linear" x1="307.59" y1="196.526" x2="307.59" y2="27" gradientUnits="userSpaceOnUse">
<stop stop-color="#2E363E"/>
<stop offset="1" stop-color="#526171"/>
</linearGradient>
<linearGradient id="paint8_linear" x1="266.741" y1="85.3364" x2="195.676" y2="156.401" gradientUnits="userSpaceOnUse">
<stop stop-color="#48CC8D" stop-opacity="0.6"/>
<stop offset="0.447917" stop-color="#48CC8D" stop-opacity="0.2"/>
<stop offset="1" stop-color="#48CC8D" stop-opacity="0"/>
</linearGradient>
<linearGradient id="paint9_linear" x1="271" y1="170" x2="271" y2="220" gradientUnits="userSpaceOnUse">
<stop stop-color="#FFDA00"/>
<stop offset="1" stop-color="#FF9200"/>
</linearGradient>
<linearGradient id="paint10_linear" x1="147.251" y1="24" x2="147.251" y2="74" gradientUnits="userSpaceOnUse">
<stop stop-color="#38CFFF"/>
<stop offset="1" stop-color="#29A4F2"/>
</linearGradient>
</defs>
</svg>
