<svg width="479" height="420" viewBox="0 0 479 420" fill="none" xmlns="http://www.w3.org/2000/svg">
<ellipse cx="251.44" cy="270.172" rx="227.44" ry="30.3254" fill="url(#paint0_linear)"/>
<path d="M224.785 63.8989L225.856 64.6395C230.357 67.7545 235.637 69.6048 241.127 69.9916L241.139 69.9925C257.999 71.1715 272.681 58.4119 273.867 41.5508C274.441 33.3793 271.799 25.4741 266.428 19.2895C261.056 13.106 253.6 9.3839 245.428 8.80908C228.555 7.62919 213.874 20.3867 212.688 37.2477C212.282 43.0255 213.505 48.7659 216.227 53.8484L216.874 55.0565L212.994 66.1249L224.785 63.8989ZM203.547 74.2481L210.101 55.5483C207.271 49.7434 206.019 43.2954 206.475 36.8115C207.902 16.5261 225.565 1.17658 245.853 2.59526C255.697 3.2879 264.669 7.76549 271.132 15.2058C277.594 22.646 280.772 32.1576 280.082 41.9884C278.655 62.2727 260.988 77.6252 240.705 76.2068C240.704 76.2067 240.706 76.2069 240.705 76.2068L240.689 76.2057C234.53 75.7729 228.586 73.8047 223.416 70.497L203.547 74.2481Z" fill="white"/>
<path d="M207.743 36.9193C207.303 43.1782 208.511 49.4033 211.244 55.0078L204.916 73.0604L224.096 69.4387C229.088 72.6295 234.826 74.5309 240.772 74.9486L240.787 74.9497C260.369 76.3189 277.421 61.4992 278.799 41.9162C279.467 32.4258 276.398 23.2447 270.159 16.0614C263.922 8.87906 255.26 4.55615 245.755 3.88701C226.172 2.51767 209.12 17.3353 207.742 36.9194L207.743 36.9193ZM240.787 74.9494L240.787 74.9494L240.787 74.9494C240.786 74.9494 240.786 74.9494 240.787 74.9494Z" fill="url(#paint1_linear)"/>
<path d="M206.474 36.8183C206.019 43.3021 207.27 49.7509 210.101 55.5552L203.546 74.2539L223.414 70.5026C228.585 73.81 234.529 75.7781 240.688 76.2114L240.704 76.2125C260.987 77.6308 278.653 62.2783 280.08 41.994C280.771 32.1627 277.592 22.6513 271.131 15.2114C264.668 7.77152 255.696 3.29355 245.851 2.60089C225.564 1.18228 207.901 16.5318 206.474 36.8171L206.474 36.8183ZM216.874 55.0628L216.226 53.8552C213.504 48.772 212.281 43.0317 212.687 37.2544C213.873 20.3945 228.554 7.63591 245.428 8.8158C253.598 9.39035 261.055 13.1128 266.427 19.2963C271.799 25.4801 274.44 33.3859 273.866 41.5565C272.68 58.4175 257.998 71.1771 241.138 69.9981L241.126 69.9972C235.636 69.6101 230.355 67.76 225.854 64.6454L224.783 63.9048L212.993 66.1308L216.874 55.0628ZM240.704 76.2125L240.704 76.2125L240.704 76.2125C240.703 76.2124 240.703 76.2124 240.704 76.2125Z" fill="url(#paint2_linear)"/>
<path fill-rule="evenodd" clip-rule="evenodd" d="M235.156 23.3674C234.574 21.7878 233.851 21.7064 233.198 21.6337C232.663 21.5733 232.05 21.5319 231.437 21.4891C230.823 21.4462 229.811 21.6067 228.904 22.468C227.997 23.3294 225.466 25.3878 225.149 29.9121C224.833 34.4368 227.823 39.0392 228.239 39.6854C228.656 40.3306 233.888 50.3249 242.977 54.6643C250.531 58.2708 252.154 57.772 253.851 57.7364C255.548 57.7013 259.447 55.8931 260.363 53.7993C261.28 51.7058 261.409 49.8653 261.206 49.4648C261.003 49.0655 260.406 48.7925 259.518 48.2686C258.63 47.7443 254.265 45.2033 253.444 44.8375C252.622 44.472 252.02 44.276 251.342 45.1538C250.665 46.0305 248.759 47.9781 248.179 48.5539C247.6 49.1309 247.058 49.1701 246.17 48.6459C245.283 48.1201 242.389 46.9429 239.094 43.5648C236.531 40.9362 234.896 37.797 234.423 36.8387C233.951 35.8817 234.465 35.4171 234.958 34.9908C235.4 34.6077 235.953 33.9815 236.451 33.4769C236.947 32.972 237.127 32.5994 237.477 32.0075C237.826 31.4151 237.711 30.8674 237.513 30.3913C237.315 29.9152 235.846 25.2427 235.155 23.3671" fill="white"/>
<rect x="389.569" y="12.4059" width="124.058" height="234.333" rx="10" transform="rotate(45 389.569 12.4059)" fill="#C5D3E7"/>
<rect x="386.646" y="21.1781" width="115.788" height="221.927" rx="7" transform="rotate(45 386.646 21.1781)" fill="#E8F1FF"/>
<path d="M333.668 81.953C336.011 79.6099 339.81 79.6099 342.154 81.953L387.276 127.076C389.62 129.419 389.62 133.218 387.276 135.561L378.217 144.62C375.874 146.964 372.075 146.964 369.732 144.62L320.366 95.2549L333.668 81.953Z" fill="#1977F3"/>
<path d="M296.63 118.991C298.973 116.648 302.772 116.648 305.115 118.991L350.238 164.114C352.582 166.457 352.582 170.256 350.238 172.6L329.483 193.355C327.14 195.698 323.341 195.698 320.998 193.355L271.632 143.99L296.63 118.991Z" fill="#1977F3"/>
<path d="M386.302 177.473C388.645 175.13 388.645 171.331 386.302 168.988L341.179 123.865C338.835 121.522 335.036 121.522 332.693 123.865L329.482 127.076C327.139 129.419 327.139 133.218 329.482 135.561L378.848 184.927L386.302 177.473Z" fill="#C5D3E7"/>
<path d="M337.567 226.208C339.91 223.865 339.91 220.066 337.567 217.723L292.444 172.6C290.101 170.256 286.302 170.256 283.959 172.6L280.748 175.811C278.405 178.154 278.405 181.953 280.748 184.296L330.113 233.662L337.567 226.208Z" fill="#C5D3E7"/>
<rect opacity="0.5" x="247.264" y="168.357" width="104.76" height="13.7843" rx="4" transform="rotate(45 247.264 168.357)" fill="#C5D3E7"/>
<circle cx="386.646" cy="38.7227" r="6.89213" transform="rotate(45 386.646 38.7227)" fill="#C5D3E7"/>
<rect x="398.342" y="42.6214" width="41.3528" height="4.13528" rx="2.06764" transform="rotate(45 398.342 42.6214)" fill="#C5D3E7"/>
<rect x="393.468" y="47.4949" width="30.3254" height="4.13528" rx="2.06764" transform="rotate(45 393.468 47.4949)" fill="#C5D3E7"/>
<g clip-path="url(#clip0)">
<path d="M430.111 210.328C448.854 213.633 466.727 201.118 470.032 182.375C473.337 163.632 460.822 145.759 442.079 142.454C423.336 139.149 405.463 151.664 402.158 170.407C398.853 189.15 411.368 207.023 430.111 210.328Z" fill="#1977F3"/>
<path d="M447.575 188.532L450.809 178.985L441.397 177.325L442.52 170.959C442.993 168.276 444.767 165.888 448.986 166.632L453.267 167.386L454.74 159.035C454.74 159.035 450.972 157.686 447.259 157.032C439.509 155.665 433.612 159.467 432.112 167.977L430.793 175.455L422.174 173.935L420.444 183.748L429.063 185.267L424.881 208.982C426.561 209.559 428.307 210.009 430.111 210.327C431.915 210.645 433.711 210.814 435.486 210.852L439.667 187.137L447.575 188.532Z" fill="white"/>
</g>
<rect x="138.581" y="108.896" width="231.576" height="140.6" rx="20" transform="rotate(45 138.581 108.896)" fill="url(#paint3_linear)"/>
<g opacity="0.6">
<rect x="123.961" y="226.834" width="85.4624" height="8.27056" rx="4.13528" transform="rotate(45 123.961 226.834)" fill="white"/>
<rect x="123.961" y="226.834" width="85.4624" height="8.27056" rx="4.13528" transform="rotate(45 123.961 226.834)" fill="#32A970"/>
</g>
<g opacity="0.6">
<rect x="121.037" y="247.302" width="60.6508" height="8.27056" rx="4.13528" transform="rotate(45 121.037 247.302)" fill="white"/>
<rect x="121.037" y="247.302" width="60.6508" height="8.27056" rx="4.13528" transform="rotate(45 121.037 247.302)" fill="#32A970"/>
</g>
<path d="M132.68 161.253L137.593 166.165C140.117 164.05 142.608 164.562 144.586 166.54C146.633 168.587 146.94 171.146 144.654 173.431C142.335 175.751 138.582 175.683 135.273 175.171L121.013 173.124L116.101 178.037L133.738 195.674L138.002 191.41L127.904 181.312L128.587 180.629L137.456 181.721C141.993 182.301 146.633 181.346 149.703 178.276C154.65 173.329 153.933 167.154 149.089 162.31C143.972 157.193 137.9 156.511 132.68 161.253Z" fill="#32A970"/>
<path d="M170.493 183.714C165.206 178.426 157.428 178.085 148.728 186.784C140.063 195.449 140.404 203.228 145.692 208.515C150.98 213.803 158.758 214.144 167.423 205.479C176.122 196.78 175.781 189.002 170.493 183.714ZM150.059 204.149C146.477 200.567 149.854 195.552 153.675 191.731C157.53 187.876 162.545 184.499 166.127 188.081C169.743 191.697 166.365 196.712 162.511 200.567C158.69 204.387 153.675 207.765 150.059 204.149Z" fill="#32A970"/>
<path d="M192.548 205.768C187.26 200.481 179.482 200.14 170.783 208.839C162.118 217.504 162.459 225.282 167.747 230.57C173.034 235.857 180.812 236.198 189.477 227.533C198.177 218.834 197.835 211.056 192.548 205.768ZM172.113 226.203C168.531 222.621 171.908 217.606 175.729 213.785C179.584 209.93 184.599 206.553 188.181 210.135C191.797 213.751 188.42 218.766 184.565 222.621C180.744 226.442 175.729 229.819 172.113 226.203Z" fill="#32A970"/>
<path d="M214.602 227.823C209.314 222.535 201.536 222.194 192.837 230.893C184.172 239.558 184.513 247.336 189.801 252.624C195.089 257.912 202.867 258.253 211.532 249.588C220.231 240.889 219.89 233.111 214.602 227.823ZM194.168 248.257C190.586 244.675 193.963 239.661 197.784 235.84C201.639 231.985 206.653 228.607 210.235 232.189C213.852 235.806 210.474 240.82 206.619 244.675C202.798 248.496 197.784 251.873 194.168 248.257Z" fill="#32A970"/>
<path d="M238.782 252.958L227.729 264.011L224.591 260.873L220.463 265.001L223.602 268.139L221.521 270.22L218.382 267.082L216.028 269.436L219.167 272.574L214.902 276.838L219.815 281.751L224.079 277.487L230.288 283.695L232.642 281.342L226.433 275.133L228.514 273.052L233.392 277.93C238.817 283.354 244.821 283.627 249.597 278.851C254.339 274.109 253.997 268.173 248.573 262.749L238.782 252.958ZM239.567 261.999L243.729 266.161C246.902 269.333 246.868 271.824 244.718 273.973C242.535 276.156 239.976 276.259 236.804 273.086L232.642 268.924L239.567 261.999Z" fill="#32A970"/>
<g filter="url(#filter0_d)">
<path fill-rule="evenodd" clip-rule="evenodd" d="M49.4042 96.4804L34.6102 100.444L39.7635 119.677L20.5312 124.83L24.4952 139.624L43.7275 134.471L48.8807 153.703L63.6747 149.739L58.5215 130.507L77.7536 125.353L73.7895 110.56L54.5575 115.713L49.4042 96.4804Z" fill="url(#paint4_linear)"/>
</g>
<path fill-rule="evenodd" clip-rule="evenodd" d="M24 270.172C24 352.898 125.898 420 251.44 420C377.124 420 478.881 352.898 478.881 270.172C478.878 286.721 377.05 300.137 251.44 300.137C125.83 300.137 24.0031 286.721 24 270.172Z" fill="url(#paint5_linear)"/>
<defs>
<filter id="filter0_d" x="0.37793" y="81.3272" width="97.5288" height="97.5288" filterUnits="userSpaceOnUse" color-interpolation-filters="sRGB">
<feFlood flood-opacity="0" result="BackgroundImageFix"/>
<feColorMatrix in="SourceAlpha" type="matrix" values="0 0 0 0 0 0 0 0 0 0 0 0 0 0 0 0 0 0 127 0"/>
<feOffset dy="5"/>
<feGaussianBlur stdDeviation="7.5"/>
<feColorMatrix type="matrix" values="0 0 0 0 1 0 0 0 0 0.603922 0 0 0 0 0.00392157 0 0 0 0.3 0"/>
<feBlend mode="normal" in2="BackgroundImageFix" result="effect1_dropShadow"/>
<feBlend mode="normal" in="SourceGraphic" in2="effect1_dropShadow" result="shape"/>
</filter>
<linearGradient id="paint0_linear" x1="24" y1="270.172" x2="478.881" y2="270.172" gradientUnits="userSpaceOnUse">
<stop stop-color="#B8C4D4"/>
<stop offset="1" stop-color="#EAEDF3"/>
</linearGradient>
<linearGradient id="paint1_linear" x1="240.595" y1="75.5478" x2="245.607" y2="3.86914" gradientUnits="userSpaceOnUse">
<stop stop-color="#20B038"/>
<stop offset="1" stop-color="#60D66A"/>
</linearGradient>
<linearGradient id="paint2_linear" x1="240.505" y1="76.8404" x2="245.697" y2="2.59233" gradientUnits="userSpaceOnUse">
<stop stop-color="#E9ECF3"/>
<stop offset="1" stop-color="#F4F8FF"/>
</linearGradient>
<linearGradient id="paint3_linear" x1="133.099" y1="114.378" x2="349.968" y2="225.006" gradientUnits="userSpaceOnUse">
<stop stop-color="#48CC8D"/>
<stop offset="1" stop-color="#36BF7E"/>
</linearGradient>
<linearGradient id="paint4_linear" x1="42.0071" y1="98.4625" x2="56.2776" y2="151.721" gradientUnits="userSpaceOnUse">
<stop stop-color="#FFDA00"/>
<stop offset="1" stop-color="#FF9200"/>
</linearGradient>
<linearGradient id="paint5_linear" x1="478.881" y1="325.686" x2="24" y2="325.686" gradientUnits="userSpaceOnUse">
<stop stop-color="#B8C4D4"/>
<stop offset="1" stop-color="#EAEDF3"/>
</linearGradient>
<clipPath id="clip0">
<rect width="68.9213" height="68.9213" fill="white" transform="translate(408.143 136.464) rotate(10)"/>
</clipPath>
</defs>
</svg>
