<svg width="569" height="495" viewBox="0 0 569 495" fill="none" xmlns="http://www.w3.org/2000/svg">
<ellipse cx="277.129" cy="312.439" rx="277.129" ry="36.9505" fill="url(#paint0_linear)"/>
<path fill-rule="evenodd" clip-rule="evenodd" d="M134.979 137.992C131.554 139.105 128.584 142.075 122.644 148.016L35.446 235.213C29.5057 241.154 26.5356 244.124 25.4228 247.549C24.4439 250.561 24.4439 253.806 25.4228 256.819C26.5356 260.244 29.5057 263.214 35.446 269.154L201.028 434.736C206.968 440.676 209.938 443.646 213.363 444.759C216.376 445.738 219.621 445.738 222.633 444.759C226.058 443.646 229.029 440.676 234.969 434.736L322.166 347.538C328.107 341.598 331.077 338.628 332.19 335.203C333.169 332.19 333.169 328.945 332.19 325.933C331.077 322.508 328.107 319.538 322.166 313.597L156.585 148.016C150.645 142.075 147.674 139.105 144.25 137.992C141.237 137.014 137.992 137.014 134.979 137.992ZM211.466 219.524C209.826 217.884 207.168 217.884 205.528 219.524C203.888 221.164 203.888 223.822 205.528 225.462L244.72 264.654C246.36 266.294 249.018 266.294 250.658 264.654C252.298 263.014 252.298 260.356 250.658 258.716L211.466 219.524Z" fill="url(#paint1_linear)"/>
<path fill-rule="evenodd" clip-rule="evenodd" d="M188.93 328.752C185.156 332.526 178.838 333.619 173.474 328.332L169.815 324.673L166.836 328.844L176.523 350.831L171.236 354.055L117.108 300.279L120.485 295.053L143.718 305.619L147.415 302.686L143.954 299.225C138.408 293.755 139.317 287.207 143.114 283.349C134.932 271.057 149.524 256.648 162.687 265.854C173.047 252.317 193.964 246.495 209.863 262.393C225.654 278.185 219.435 298.507 205.982 308.935C216.005 321.632 201.291 337.385 188.93 328.752ZM161.029 325.452C162.519 323.718 165.598 320.196 167.538 317.98C164.794 316.709 162.308 314.943 160.204 312.77C157.821 310.452 155.909 307.694 154.574 304.649C152.144 306.803 148.049 310.47 146.277 312.09C140.868 316.964 155.575 331.854 161.029 325.452ZM164.246 308.163C173.772 317.69 185.415 312.694 199.755 299.607C200.426 298.358 200.881 297.004 201.1 295.603C197.586 295.94 192.123 295.519 189.442 293.51C193.812 290.989 199.007 287.123 200.382 284.587C191.756 286.092 178.624 282.203 171.083 272.402C158.363 286.925 154.856 298.774 164.246 308.163Z" fill="#AC87D8"/>
<g filter="url(#filter0_d)">
<path d="M442.324 259.002C436.062 235.977 401.888 233.052 395.201 258.01C390.596 275.195 406.414 298.268 423.798 328.143C453.795 310.964 479.026 298.89 483.631 281.705C490.342 256.662 459.136 242.317 442.324 259.002Z" fill="url(#paint2_linear)"/>
</g>
<path fill-rule="evenodd" clip-rule="evenodd" d="M68.9227 212.784C95.7225 212.784 117.448 197.709 117.448 179.114C117.448 160.518 95.7225 145.443 68.9227 145.443C42.1228 145.443 20.3973 160.518 20.3973 179.114C20.3973 184.483 22.2089 189.56 25.4311 194.064C22.5381 204.264 15.9991 212.219 12.4751 215.372C26.5302 215.935 36.638 211.912 42.9794 207.573C50.4831 210.874 59.3813 212.784 68.9227 212.784Z" fill="url(#paint3_linear)"/>
<g filter="url(#filter1_d)">
<path d="M234.493 24.6996C234.604 23.2852 236.435 22.8015 237.23 23.9763L256.985 53.1559L291.25 44.9295C292.629 44.5983 293.655 46.19 292.783 47.3095L271.137 75.1146L289.549 105.16C290.29 106.369 289.093 107.837 287.759 107.354L254.626 95.3588L231.741 122.154C230.819 123.233 229.054 122.548 229.101 121.13L230.27 85.9117L197.714 72.4271C196.404 71.8841 196.509 69.9934 197.872 69.6L231.729 59.8289L234.493 24.6996Z" fill="url(#paint4_linear)"/>
</g>
<path d="M562.91 106.23L458.398 1.71826C382.389 97.6792 284.607 183.822 245.217 214.899L350.917 320.598C456.379 234.139 535.792 141.265 562.91 106.23Z" fill="url(#paint5_linear)"/>
<rect opacity="0.2" x="315.882" y="186.989" width="105.813" height="10.0774" rx="5.03871" transform="rotate(45 315.882 186.989)" fill="white"/>
<rect opacity="0.2" x="308.756" y="210.742" width="75.5807" height="10.0774" rx="5.03871" transform="rotate(45 308.756 210.742)" fill="white"/>
<path d="M401.291 110.88L430.423 140.012L438.588 131.848L429.182 122.441L466.741 84.8825L456.029 74.17L440.875 71.1653L431.534 80.506L446.623 83.5761L447.929 84.8825L419.776 113.035L409.456 102.715L401.291 110.88Z" fill="white"/>
<path d="M497.718 114.03C487.593 103.905 472.7 103.252 456.044 119.909C439.452 136.5 440.105 151.393 450.23 161.518C460.355 171.642 475.248 172.295 491.839 155.704C508.495 139.047 507.842 124.155 497.718 114.03ZM458.591 153.157C451.732 146.298 458.199 136.696 465.515 129.38C472.896 121.999 482.498 115.532 489.357 122.391C496.281 129.315 489.814 138.917 482.433 146.298C475.117 153.614 465.515 160.081 458.591 153.157Z" fill="white"/>
<path d="M517.78 118.107L518.168 121.397L521.177 122.783L520.53 126.032L522.964 128.28L521.344 131.171L522.964 134.061L520.53 136.309L521.177 139.558L518.168 140.944L517.78 144.235L514.489 144.623L513.103 147.632L509.854 146.985L507.606 149.418L504.716 147.798L501.826 149.418L499.578 146.985L496.328 147.632L494.942 144.623L491.652 144.235L491.264 140.944L488.254 139.558L488.902 136.309L486.468 134.061L488.088 131.171L486.468 128.28L488.902 126.032L488.254 122.783L491.264 121.397L491.652 118.107L494.942 117.718L496.328 114.709L499.578 115.357L501.826 112.923L504.716 114.543L507.606 112.923L509.854 115.357L513.103 114.709L514.489 117.718L517.78 118.107Z" fill="url(#paint6_linear)"/>
<path d="M498.117 134.073L514.122 130.125L512.469 128.472L496.45 132.406L498.117 134.073ZM507.053 122.658C505.428 121.033 503.476 121.418 501.937 122.957C500.398 124.496 500.041 126.42 501.666 128.045C503.291 129.669 505.229 129.327 506.768 127.788C508.307 126.249 508.678 124.282 507.053 122.658ZM503.006 126.705C502.364 126.064 502.692 125.251 503.462 124.482C504.245 123.698 505.072 123.356 505.713 123.997C506.355 124.639 506.027 125.479 505.243 126.263C504.474 127.033 503.647 127.346 503.006 126.705ZM508.906 134.458C507.281 132.833 505.329 133.218 503.789 134.757C502.25 136.296 501.894 138.22 503.519 139.845C505.143 141.47 507.082 141.128 508.621 139.588C510.16 138.049 510.53 136.083 508.906 134.458ZM504.858 138.505C504.217 137.864 504.545 137.052 505.314 136.282C506.098 135.498 506.925 135.156 507.566 135.798C508.207 136.439 507.88 137.28 507.096 138.064C506.326 138.833 505.5 139.147 504.858 138.505Z" fill="white"/>
<path fill-rule="evenodd" clip-rule="evenodd" d="M0 312.439C0 413.238 124.159 495 277.129 495C430.27 495 554.258 413.238 554.258 312.439C554.254 332.603 430.181 348.95 277.129 348.95C124.077 348.95 0.00413092 332.603 0 312.439Z" fill="url(#paint7_linear)"/>
<defs>
<filter id="filter0_d" x="359.583" y="225.178" width="150.166" height="144.812" filterUnits="userSpaceOnUse" color-interpolation-filters="sRGB">
<feFlood flood-opacity="0" result="BackgroundImageFix"/>
<feColorMatrix in="SourceAlpha" type="matrix" values="0 0 0 0 0 0 0 0 0 0 0 0 0 0 0 0 0 0 127 0"/>
<feOffset dy="10"/>
<feGaussianBlur stdDeviation="10"/>
<feColorMatrix type="matrix" values="0 0 0 0 0.87451 0 0 0 0 0.247059 0 0 0 0 0.47451 0 0 0 0.2 0"/>
<feBlend mode="normal" in2="BackgroundImageFix" result="effect1_dropShadow"/>
<feBlend mode="normal" in="SourceGraphic" in2="effect1_dropShadow" result="shape"/>
</filter>
<filter id="filter1_d" x="172.497" y="0.656616" width="150.432" height="147.072" filterUnits="userSpaceOnUse" color-interpolation-filters="sRGB">
<feFlood flood-opacity="0" result="BackgroundImageFix"/>
<feColorMatrix in="SourceAlpha" type="matrix" values="0 0 0 0 0 0 0 0 0 0 0 0 0 0 0 0 0 0 127 0"/>
<feOffset dy="5"/>
<feGaussianBlur stdDeviation="7.5"/>
<feColorMatrix type="matrix" values="0 0 0 0 1 0 0 0 0 0.603922 0 0 0 0 0.00392157 0 0 0 0.3 0"/>
<feBlend mode="normal" in2="BackgroundImageFix" result="effect1_dropShadow"/>
<feBlend mode="normal" in="SourceGraphic" in2="effect1_dropShadow" result="shape"/>
</filter>
<linearGradient id="paint0_linear" x1="-3.87145e-06" y1="312.439" x2="554.258" y2="312.439" gradientUnits="userSpaceOnUse">
<stop stop-color="#B8C4D4"/>
<stop offset="1" stop-color="#EAEDF3"/>
</linearGradient>
<linearGradient id="paint1_linear" x1="134.423" y1="136.237" x2="217.297" y2="451.891" gradientUnits="userSpaceOnUse">
<stop stop-color="#9F62E1"/>
<stop offset="1" stop-color="#633F90"/>
</linearGradient>
<linearGradient id="paint2_linear" x1="445.534" y1="247.026" x2="423.798" y2="328.143" gradientUnits="userSpaceOnUse">
<stop stop-color="#F9508D"/>
<stop offset="1" stop-color="#CC336A"/>
</linearGradient>
<linearGradient id="paint3_linear" x1="84.2665" y1="215.03" x2="59.0729" y2="146.167" gradientUnits="userSpaceOnUse">
<stop stop-color="#B8C4D4"/>
<stop offset="1" stop-color="#EAEDF3"/>
</linearGradient>
<linearGradient id="paint4_linear" x1="234.829" y1="20.4292" x2="260.373" y2="117.112" gradientUnits="userSpaceOnUse">
<stop stop-color="#FFDA00"/>
<stop offset="1" stop-color="#FF9200"/>
</linearGradient>
<linearGradient id="paint5_linear" x1="301.63" y1="270.124" x2="514.217" y2="57.5371" gradientUnits="userSpaceOnUse">
<stop stop-color="#2E363E"/>
<stop offset="1" stop-color="#526171"/>
</linearGradient>
<linearGradient id="paint6_linear" x1="530.765" y1="131.092" x2="492.277" y2="107.915" gradientUnits="userSpaceOnUse">
<stop stop-color="#6CD189"/>
<stop offset="0.433727" stop-color="#52C16E"/>
<stop offset="1" stop-color="#30AC4B"/>
</linearGradient>
<linearGradient id="paint7_linear" x1="554.258" y1="380.082" x2="-1.07219e-05" y2="380.082" gradientUnits="userSpaceOnUse">
<stop stop-color="#B8C4D4"/>
<stop offset="1" stop-color="#EAEDF3"/>
</linearGradient>
</defs>
</svg>
