<svg width="339" height="305" viewBox="0 0 339 305" fill="none" xmlns="http://www.w3.org/2000/svg">
<ellipse cx="165" cy="196" rx="165" ry="22" fill="url(#paint0_linear)"/>
<path fill-rule="evenodd" clip-rule="evenodd" d="M78.4897 94.9474C75.0648 96.0602 72.0947 99.0303 66.1544 104.971L27.9707 143.154C22.0304 149.095 19.0603 152.065 17.9475 155.49C16.9686 158.502 16.9686 161.747 17.9475 164.76C19.0603 168.185 22.0304 171.155 27.9707 177.095L112.823 261.948C118.764 267.889 121.734 270.859 125.159 271.971C128.171 272.95 131.417 272.95 134.429 271.971C137.854 270.859 140.824 267.889 146.765 261.948L184.948 223.764C190.889 217.824 193.859 214.854 194.972 211.429C195.95 208.417 195.95 205.171 194.972 202.159C193.859 198.734 190.889 195.764 184.948 189.823L100.096 104.971C94.1553 99.0303 91.1852 96.0602 87.7603 94.9474C84.7476 93.9685 81.5024 93.9685 78.4897 94.9474ZM125.905 140.679C124.929 139.703 123.346 139.703 122.369 140.679C121.393 141.656 121.393 143.239 122.369 144.215L145.704 167.55C146.68 168.526 148.263 168.526 149.239 167.55C150.216 166.573 150.216 164.99 149.239 164.014L125.905 140.679Z" fill="url(#paint1_linear)"/>
<path fill-rule="evenodd" clip-rule="evenodd" d="M110.105 206.309C107.858 208.556 104.097 209.206 100.903 206.058L98.7247 203.88L96.9507 206.363L102.718 219.454L99.5707 221.374L67.3436 189.356L69.3541 186.245L83.1865 192.535L85.3881 190.789L83.3276 188.728C80.0252 185.471 80.5665 181.573 82.8272 179.276C77.9556 171.957 86.6435 163.379 94.4808 168.86C100.649 160.799 113.103 157.333 122.569 166.799C131.971 176.201 128.268 188.301 120.258 194.509C126.226 202.069 117.465 211.449 110.105 206.309ZM93.4938 204.344C94.3807 203.311 96.2138 201.214 97.3692 199.895C95.7353 199.138 94.2549 198.087 93.0025 196.793C91.5835 195.413 90.4451 193.771 89.6502 191.958C88.2037 193.24 85.7656 195.424 84.7103 196.388C81.4899 199.29 90.246 208.155 93.4938 204.344ZM95.4087 194.05C101.081 199.722 108.013 196.747 116.551 188.956C116.95 188.212 117.221 187.406 117.351 186.572C115.259 186.772 112.007 186.522 110.41 185.326C113.012 183.825 116.105 181.523 116.924 180.013C111.788 180.909 103.969 178.594 99.4798 172.758C91.9063 181.405 89.8185 188.46 95.4087 194.05Z" fill="#AC87D8"/>
<g filter="url(#filter0_d)">
<path d="M263.356 164.184C259.627 150.475 239.28 148.734 235.299 163.593C232.557 173.826 241.975 187.563 252.325 205.35C270.185 195.122 285.208 187.933 287.949 177.701C291.945 162.791 273.365 154.25 263.356 164.184Z" fill="url(#paint2_linear)"/>
</g>
<path fill-rule="evenodd" clip-rule="evenodd" d="M44.6084 133.094C60.5648 133.094 73.5 124.119 73.5 113.047C73.5 101.975 60.5648 93 44.6084 93C28.6521 93 15.7169 101.975 15.7169 113.047C15.7169 116.244 16.7955 119.267 18.7139 121.948C16.9915 128.021 13.0981 132.757 11 134.635C19.3683 134.97 25.3864 132.575 29.162 129.992C33.6296 131.957 38.9275 133.094 44.6084 133.094Z" fill="url(#paint3_linear)"/>
<g filter="url(#filter1_d)">
<path d="M137.703 19.9994C137.814 18.585 139.645 18.1013 140.44 19.2761L152.441 37.0014L173.254 32.0042C174.634 31.673 175.66 33.2647 174.788 34.3842L161.639 51.2746L172.823 69.5255C173.565 70.7352 172.368 72.2027 171.034 71.7197L150.907 64.4333L137.005 80.7102C136.084 81.789 134.318 81.1042 134.365 79.6863L135.076 58.2927L115.299 50.1014C113.989 49.5584 114.094 47.6678 115.458 47.2744L136.024 41.3388L137.703 19.9994Z" fill="url(#paint4_linear)"/>
</g>
<path d="M335.151 73.2254L272.926 11C227.671 68.1342 169.452 119.423 146 137.926L208.933 200.858C271.724 149.381 319.006 94.085 335.151 73.2254Z" fill="url(#paint5_linear)"/>
<rect opacity="0.2" x="188.073" y="121.309" width="63" height="6" rx="3" transform="rotate(45 188.073 121.309)" fill="white"/>
<rect opacity="0.2" x="183.83" y="135.451" width="45" height="6" rx="3" transform="rotate(45 183.83 135.451)" fill="white"/>
<path d="M238.925 75.9938L256.27 93.3391L261.131 88.4777L255.531 82.8775L277.893 60.5152L271.515 54.1371L262.492 52.3481L256.931 57.9095L265.915 59.7374L266.693 60.5152L249.931 77.2772L243.786 71.1324L238.925 75.9938ZM296.336 77.8693C290.308 71.8413 281.441 71.4524 271.524 81.3695C261.646 91.2478 262.035 100.115 268.063 106.143C274.091 112.171 282.958 112.56 292.836 102.682C302.753 92.7645 302.364 83.8974 296.336 77.8693ZM273.041 101.165C268.957 97.0814 272.807 91.3645 277.163 87.0087C281.558 82.614 287.275 78.7638 291.358 82.8474C295.481 86.9698 291.631 92.6868 287.236 97.0814C282.88 101.437 277.163 105.287 273.041 101.165Z" fill="white"/>
<path d="M308.281 80.2965L308.512 82.2556L310.304 83.0808L309.918 85.0154L311.368 86.3539L310.403 88.0747L311.368 89.7954L309.918 91.1339L310.304 93.0686L308.512 93.8937L308.281 95.8528L306.322 96.0839L305.497 97.8757L303.562 97.4901L302.224 98.9392L300.503 97.9747L298.782 98.9392L297.444 97.4901L295.509 97.8757L294.684 96.0839L292.725 95.8528L292.494 93.8937L290.702 93.0686L291.087 91.1339L289.638 89.7954L290.603 88.0747L289.638 86.3539L291.087 85.0154L290.702 83.0808L292.494 82.2556L292.725 80.2965L294.684 80.0654L295.509 78.2736L297.444 78.6592L298.782 77.2101L300.503 78.1747L302.224 77.2101L303.562 78.6592L305.497 78.2736L306.322 80.0654L308.281 80.2965Z" fill="url(#paint6_linear)"/>
<path d="M296.574 89.8029L306.103 87.4525L305.119 86.4682L295.581 88.8101L296.574 89.8029ZM301.895 83.0062C300.927 82.0388 299.765 82.268 298.848 83.1844C297.932 84.1008 297.72 85.2463 298.687 86.2136C299.654 87.1809 300.808 86.9773 301.725 86.0609C302.641 85.1445 302.862 83.9735 301.895 83.0062ZM299.485 85.416C299.103 85.0342 299.298 84.5505 299.756 84.0923C300.223 83.6256 300.715 83.4219 301.097 83.8038C301.479 84.1856 301.284 84.6863 300.817 85.1529C300.359 85.6112 299.867 85.7978 299.485 85.416ZM302.998 90.032C302.03 89.0647 300.868 89.2938 299.951 90.2102C299.035 91.1266 298.823 92.2721 299.79 93.2394C300.758 94.2067 301.912 94.0031 302.828 93.0867C303.744 92.1703 303.965 90.9993 302.998 90.032ZM300.588 92.4418C300.206 92.06 300.401 91.5763 300.859 91.1181C301.326 90.6514 301.818 90.4478 302.2 90.8296C302.582 91.2114 302.387 91.7121 301.92 92.1788C301.462 92.637 300.97 92.8236 300.588 92.4418Z" fill="white"/>
<path fill-rule="evenodd" clip-rule="evenodd" d="M0 196C0 256.015 73.9233 304.695 165 304.695C256.179 304.695 330 256.015 330 196C329.998 208.006 256.126 217.738 165 217.738C73.8745 217.738 0.00237058 208.006 0 196Z" fill="url(#paint7_linear)"/>
<defs>
<filter id="filter0_d" x="206" y="140" width="105.592" height="102.404" filterUnits="userSpaceOnUse" color-interpolation-filters="sRGB">
<feFlood flood-opacity="0" result="BackgroundImageFix"/>
<feColorMatrix in="SourceAlpha" type="matrix" values="0 0 0 0 0 0 0 0 0 0 0 0 0 0 0 0 0 0 127 0"/>
<feOffset dy="10"/>
<feGaussianBlur stdDeviation="10"/>
<feColorMatrix type="matrix" values="0 0 0 0 0.87451 0 0 0 0 0.247059 0 0 0 0 0.47451 0 0 0 0.2 0"/>
<feBlend mode="normal" in2="BackgroundImageFix" result="effect1_dropShadow"/>
<feBlend mode="normal" in="SourceGraphic" in2="effect1_dropShadow" result="shape"/>
</filter>
<filter id="filter1_d" x="93.4966" y="0.656494" width="105.911" height="103.832" filterUnits="userSpaceOnUse" color-interpolation-filters="sRGB">
<feFlood flood-opacity="0" result="BackgroundImageFix"/>
<feColorMatrix in="SourceAlpha" type="matrix" values="0 0 0 0 0 0 0 0 0 0 0 0 0 0 0 0 0 0 127 0"/>
<feOffset dy="5"/>
<feGaussianBlur stdDeviation="7.5"/>
<feColorMatrix type="matrix" values="0 0 0 0 1 0 0 0 0 0.603922 0 0 0 0 0.00392157 0 0 0 0.3 0"/>
<feBlend mode="normal" in2="BackgroundImageFix" result="effect1_dropShadow"/>
<feBlend mode="normal" in="SourceGraphic" in2="effect1_dropShadow" result="shape"/>
</filter>
<linearGradient id="paint0_linear" x1="-2.30502e-06" y1="196" x2="330" y2="196" gradientUnits="userSpaceOnUse">
<stop stop-color="#B8C4D4"/>
<stop offset="1" stop-color="#EAEDF3"/>
</linearGradient>
<linearGradient id="paint1_linear" x1="80.0339" y1="91.0911" x2="129.376" y2="279.028" gradientUnits="userSpaceOnUse">
<stop stop-color="#9F62E1"/>
<stop offset="1" stop-color="#633F90"/>
</linearGradient>
<linearGradient id="paint2_linear" x1="265.266" y1="157.054" x2="252.325" y2="205.35" gradientUnits="userSpaceOnUse">
<stop stop-color="#F9508D"/>
<stop offset="1" stop-color="#CC336A"/>
</linearGradient>
<linearGradient id="paint3_linear" x1="53.744" y1="134.431" x2="38.744" y2="93.4312" gradientUnits="userSpaceOnUse">
<stop stop-color="#B8C4D4"/>
<stop offset="1" stop-color="#EAEDF3"/>
</linearGradient>
<linearGradient id="paint4_linear" x1="138.039" y1="15.729" x2="154.642" y2="78.5727" gradientUnits="userSpaceOnUse">
<stop stop-color="#FFDA00"/>
<stop offset="1" stop-color="#FF9200"/>
</linearGradient>
<linearGradient id="paint5_linear" x1="179.588" y1="170.806" x2="306.16" y2="44.234" gradientUnits="userSpaceOnUse">
<stop stop-color="#2E363E"/>
<stop offset="1" stop-color="#526171"/>
</linearGradient>
<linearGradient id="paint6_linear" x1="316.013" y1="88.028" x2="293.097" y2="74.2288" gradientUnits="userSpaceOnUse">
<stop stop-color="#6CD189"/>
<stop offset="0.433727" stop-color="#52C16E"/>
<stop offset="1" stop-color="#30AC4B"/>
</linearGradient>
<linearGradient id="paint7_linear" x1="330" y1="236.274" x2="-6.38371e-06" y2="236.274" gradientUnits="userSpaceOnUse">
<stop stop-color="#B8C4D4"/>
<stop offset="1" stop-color="#EAEDF3"/>
</linearGradient>
</defs>
</svg>
