<svg width="344" height="305" viewBox="0 0 344 305" fill="none" xmlns="http://www.w3.org/2000/svg">
<ellipse cx="179" cy="196" rx="165" ry="22" fill="url(#paint0_linear)"/>
<path d="M152.408 46.3564L153.185 46.8937C156.45 49.1535 160.281 50.4958 164.264 50.7765L164.272 50.7771C176.504 51.6324 187.155 42.3757 188.015 30.1437C188.431 24.2155 186.515 18.4805 182.619 13.9939C178.722 9.50797 173.312 6.80769 167.384 6.39067C155.143 5.53471 144.492 14.7898 143.632 27.0219C143.338 31.2135 144.225 35.378 146.199 39.0651L146.669 39.9416L143.854 47.9713L152.408 46.3564ZM137.001 53.8644L141.755 40.2984C139.702 36.0871 138.794 31.4093 139.125 26.7054C140.16 11.9891 152.974 0.853564 167.692 1.88277C174.834 2.38526 181.343 5.63359 186.031 11.0313C190.719 16.4289 193.025 23.3292 192.524 30.4611C191.489 45.1766 178.672 56.3143 163.958 55.2854C163.957 55.2853 163.958 55.2854 163.958 55.2854L163.946 55.2846C159.478 54.9706 155.166 53.5427 151.415 51.1431L137.001 53.8644Z" fill="white"/>
<path d="M140.044 26.7837C139.725 31.3243 140.602 35.8403 142.584 39.9062L137.994 53.0027L151.908 50.3754C155.529 52.6901 159.692 54.0695 164.006 54.3726L164.017 54.3733C178.223 55.3667 190.594 44.6155 191.593 30.4087C192.078 23.5238 189.852 16.8632 185.326 11.652C180.8 6.44146 174.516 3.30534 167.621 2.8199C153.414 1.82649 141.043 12.5761 140.044 26.7837L140.044 26.7837ZM164.017 54.3732L164.017 54.3732L164.017 54.3732C164.016 54.3731 164.016 54.3731 164.017 54.3732Z" fill="url(#paint1_linear)"/>
<path d="M139.124 26.7104C138.794 31.4142 139.702 36.0926 141.755 40.3034L137 53.8686L151.414 51.1472C155.165 53.5466 159.477 54.9744 163.945 55.2887L163.957 55.2895C178.671 56.3184 191.488 45.1808 192.523 30.4652C193.024 23.3329 190.718 16.4328 186.03 11.0354C181.342 5.638 174.833 2.38939 167.691 1.88689C152.973 0.857737 140.159 11.9933 139.124 26.7096L139.124 26.7104ZM146.669 39.9462L146.199 39.0701C144.224 35.3824 143.337 31.218 143.632 27.0268C144.492 14.7955 155.143 5.53962 167.384 6.39558C173.311 6.8124 178.721 9.51292 182.618 13.9988C186.515 18.4849 188.431 24.2203 188.015 30.1478C187.154 42.3798 176.503 51.6365 164.271 50.7812L164.263 50.7806C160.28 50.4997 156.449 49.1575 153.184 46.898L152.407 46.3607L143.853 47.9756L146.669 39.9462ZM163.957 55.2895L163.957 55.2895L163.957 55.2895C163.956 55.2895 163.956 55.2895 163.957 55.2895Z" fill="url(#paint2_linear)"/>
<path fill-rule="evenodd" clip-rule="evenodd" d="M159.932 16.9522C159.51 15.8063 158.985 15.7472 158.511 15.6944C158.123 15.6507 157.678 15.6207 157.234 15.5896C156.789 15.5585 156.055 15.6749 155.397 16.2998C154.738 16.9246 152.902 18.4179 152.672 21.7002C152.443 24.9827 154.612 28.3216 154.914 28.7904C155.217 29.2584 159.012 36.509 165.606 39.657C171.086 42.2734 172.264 41.9116 173.495 41.8857C174.726 41.8602 177.555 40.5485 178.219 39.0295C178.884 37.5107 178.978 36.1755 178.83 35.885C178.683 35.5953 178.25 35.3972 177.606 35.0172C176.962 34.6368 173.795 32.7934 173.199 32.528C172.603 32.2629 172.166 32.1207 171.674 32.7575C171.183 33.3935 169.8 34.8064 169.38 35.2242C168.96 35.6428 168.566 35.6712 167.923 35.2909C167.279 34.9094 165.179 34.0554 162.789 31.6047C160.929 29.6977 159.743 27.4204 159.401 26.7252C159.058 26.0309 159.431 25.6939 159.789 25.3846C160.109 25.1066 160.511 24.6523 160.872 24.2863C161.232 23.92 161.362 23.6497 161.616 23.2203C161.869 22.7906 161.785 22.3932 161.642 22.0478C161.498 21.7025 160.433 18.3127 159.932 16.952" fill="white"/>
<rect x="279.208" y="9" width="90" height="170" rx="10" transform="rotate(45 279.208 9)" fill="#C5D3E7"/>
<rect x="277.087" y="15.364" width="84" height="161" rx="7" transform="rotate(45 277.087 15.364)" fill="#E8F1FF"/>
<path d="M237.489 60.6187C239.832 58.2756 243.631 58.2756 245.974 60.6187L276.38 91.0243C278.723 93.3675 278.723 97.1665 276.38 99.5096L272.137 103.752C269.794 106.095 265.995 106.095 263.652 103.752L229.004 69.104L237.489 60.6187Z" fill="#1977F3"/>
<path d="M210.619 87.4889C212.962 85.1457 216.761 85.1457 219.104 87.4889L249.51 117.894C251.853 120.238 251.853 124.037 249.51 126.38L236.782 139.108C234.438 141.451 230.64 141.451 228.296 139.108L193.648 104.459L210.619 87.4889Z" fill="#1977F3"/>
<path d="M275.672 129.915C278.016 127.572 278.016 123.773 275.672 121.43L245.267 91.0244C242.924 88.6812 239.125 88.6812 236.782 91.0244C234.438 93.3675 234.438 97.1665 236.782 99.5097L271.43 134.158L275.672 129.915Z" fill="#C5D3E7"/>
<path d="M240.317 165.271C242.66 162.927 242.66 159.128 240.317 156.785L209.912 126.38C207.568 124.037 203.769 124.037 201.426 126.38C199.083 128.723 199.083 132.522 201.426 134.865L236.075 169.513L240.317 165.271Z" fill="#C5D3E7"/>
<rect opacity="0.5" x="175.97" y="122.137" width="76" height="10" rx="4" transform="rotate(45 175.97 122.137)" fill="#C5D3E7"/>
<circle cx="277.087" cy="28.0919" r="5" transform="rotate(45 277.087 28.0919)" fill="#C5D3E7"/>
<rect x="285.572" y="30.9204" width="30" height="3" rx="1.5" transform="rotate(45 285.572 30.9204)" fill="#C5D3E7"/>
<rect x="282.036" y="34.4559" width="22" height="3" rx="1.5" transform="rotate(45 282.036 34.4559)" fill="#C5D3E7"/>
<g clip-path="url(#clip0)">
<path d="M308.619 152.585C322.217 154.983 335.183 145.903 337.581 132.306C339.978 118.709 330.899 105.742 317.302 103.345C303.704 100.947 290.738 110.026 288.34 123.624C285.943 137.221 295.022 150.187 308.619 152.585Z" fill="#1977F3"/>
<path d="M321.289 136.773L323.635 129.847L316.807 128.643L317.622 124.024C317.965 122.079 319.252 120.346 322.313 120.885L325.418 121.433L326.487 115.374C326.487 115.374 323.753 114.396 321.06 113.921C315.437 112.929 311.159 115.688 310.071 121.861L309.114 127.287L302.861 126.184L301.606 133.302L307.859 134.405L304.825 151.609C306.044 152.027 307.311 152.354 308.619 152.585C309.928 152.816 311.231 152.938 312.519 152.966L315.552 135.762L321.289 136.773Z" fill="white"/>
</g>
<rect x="97.125" y="79" width="168" height="102" rx="16" transform="rotate(45 97.125 79)" fill="url(#paint3_linear)"/>
<g opacity="0.6">
<rect x="86.5183" y="164.56" width="62" height="6" rx="3" transform="rotate(45 86.5183 164.56)" fill="white"/>
<rect x="86.5183" y="164.56" width="62" height="6" rx="3" transform="rotate(45 86.5183 164.56)" fill="#32A970"/>
</g>
<g opacity="0.6">
<rect x="84.397" y="179.409" width="44" height="6" rx="3" transform="rotate(45 84.397 179.409)" fill="white"/>
<rect x="84.397" y="179.409" width="44" height="6" rx="3" transform="rotate(45 84.397 179.409)" fill="#32A970"/>
</g>
<path d="M92.8442 116.983L96.4081 120.547C98.2395 119.012 100.046 119.384 101.482 120.819C102.966 122.304 103.189 124.16 101.531 125.818C99.8481 127.501 97.1258 127.452 94.7251 127.081L84.3802 125.596L80.8163 129.159L93.6114 141.955L96.705 138.861L89.3794 131.535L89.8744 131.04L96.3091 131.832C99.6006 132.253 102.966 131.56 105.194 129.333C108.782 125.744 108.263 121.265 104.748 117.75C101.036 114.038 96.6308 113.543 92.8442 116.983ZM120.276 133.278C116.44 129.442 110.798 129.195 104.487 135.506C98.2004 141.792 98.4479 147.434 102.284 151.27C106.12 155.107 111.763 155.354 118.049 149.068C124.36 142.757 124.112 137.114 120.276 133.278ZM105.452 148.103C102.853 145.504 105.303 141.866 108.075 139.094C110.872 136.297 114.51 133.847 117.108 136.446C119.732 139.069 117.282 142.707 114.485 145.504C111.713 148.276 108.075 150.726 105.452 148.103ZM136.276 149.278C132.44 145.442 126.797 145.194 120.486 151.505C114.2 157.791 114.448 163.434 118.284 167.27C122.12 171.106 127.762 171.354 134.049 165.068C140.359 158.757 140.112 153.114 136.276 149.278ZM121.451 164.102C118.853 161.504 121.303 157.866 124.075 155.094C126.871 152.297 130.509 149.847 133.108 152.446C135.731 155.069 133.281 158.707 130.485 161.504C127.713 164.276 124.075 166.726 121.451 164.102ZM152.276 165.277C148.44 161.441 142.797 161.194 136.486 167.505C130.2 173.791 130.447 179.434 134.283 183.27C138.119 187.106 143.762 187.353 150.048 181.067C156.359 174.756 156.112 169.114 152.276 165.277ZM137.451 180.102C134.853 177.503 137.303 173.865 140.074 171.093C142.871 168.297 146.509 165.847 149.108 168.445C151.731 171.069 149.281 174.707 146.484 177.503C143.713 180.275 140.074 182.725 137.451 180.102ZM169.818 183.512L161.799 191.531L159.522 189.254L156.528 192.249L158.804 194.526L157.295 196.035L155.018 193.758L153.31 195.466L155.587 197.743L152.494 200.837L156.057 204.4L159.151 201.307L163.655 205.811L165.363 204.103L160.859 199.599L162.368 198.089L165.907 201.629C169.842 205.564 174.198 205.762 177.663 202.297C181.103 198.857 180.856 194.55 176.921 190.615L169.818 183.512ZM170.387 190.071L173.406 193.09C175.708 195.392 175.683 197.199 174.124 198.758C172.54 200.342 170.684 200.416 168.382 198.114L165.363 195.095L170.387 190.071Z" fill="#32A970"/>
<g filter="url(#filter0_d)">
<path fill-rule="evenodd" clip-rule="evenodd" d="M39.6848 62.7385L28.9523 65.6143L32.6908 79.5667L18.7385 83.3052L21.6143 94.0377L35.5666 90.2992L39.305 104.251L50.0376 101.376L46.2991 87.4234L60.2513 83.6849L57.3756 72.9524L43.4233 76.6909L39.6848 62.7385Z" fill="url(#paint4_linear)"/>
</g>
<path fill-rule="evenodd" clip-rule="evenodd" d="M14 196C14 256.015 87.9233 304.695 179 304.695C270.179 304.695 344 256.015 344 196C343.998 208.006 270.126 217.738 179 217.738C87.8745 217.738 14.0024 208.006 14 196Z" fill="url(#paint5_linear)"/>
<defs>
<filter id="filter0_d" x="0" y="49" width="78.9898" height="78.9898" filterUnits="userSpaceOnUse" color-interpolation-filters="sRGB">
<feFlood flood-opacity="0" result="BackgroundImageFix"/>
<feColorMatrix in="SourceAlpha" type="matrix" values="0 0 0 0 0 0 0 0 0 0 0 0 0 0 0 0 0 0 127 0"/>
<feOffset dy="5"/>
<feGaussianBlur stdDeviation="7.5"/>
<feColorMatrix type="matrix" values="0 0 0 0 1 0 0 0 0 0.603922 0 0 0 0 0.00392157 0 0 0 0.3 0"/>
<feBlend mode="normal" in2="BackgroundImageFix" result="effect1_dropShadow"/>
<feBlend mode="normal" in="SourceGraphic" in2="effect1_dropShadow" result="shape"/>
</filter>
<linearGradient id="paint0_linear" x1="14" y1="196" x2="344" y2="196" gradientUnits="userSpaceOnUse">
<stop stop-color="#B8C4D4"/>
<stop offset="1" stop-color="#EAEDF3"/>
</linearGradient>
<linearGradient id="paint1_linear" x1="163.878" y1="54.8073" x2="167.514" y2="2.80694" gradientUnits="userSpaceOnUse">
<stop stop-color="#20B038"/>
<stop offset="1" stop-color="#60D66A"/>
</linearGradient>
<linearGradient id="paint2_linear" x1="163.812" y1="55.7451" x2="167.579" y2="1.88068" gradientUnits="userSpaceOnUse">
<stop stop-color="#F9F9F9"/>
<stop offset="1" stop-color="white"/>
</linearGradient>
<linearGradient id="paint3_linear" x1="93.1476" y1="82.9774" x2="250.479" y2="163.234" gradientUnits="userSpaceOnUse">
<stop stop-color="#48CC8D"/>
<stop offset="1" stop-color="#36BF7E"/>
</linearGradient>
<linearGradient id="paint4_linear" x1="34.3185" y1="64.1764" x2="44.6713" y2="102.813" gradientUnits="userSpaceOnUse">
<stop stop-color="#FFDA00"/>
<stop offset="1" stop-color="#FF9200"/>
</linearGradient>
<linearGradient id="paint5_linear" x1="344" y1="236.274" x2="14" y2="236.274" gradientUnits="userSpaceOnUse">
<stop stop-color="#B8C4D4"/>
<stop offset="1" stop-color="#EAEDF3"/>
</linearGradient>
<clipPath id="clip0">
<rect width="50" height="50" fill="white" transform="translate(292.682 99) rotate(10)"/>
</clipPath>
</defs>
</svg>
