<svg width="465" height="403" viewBox="0 0 465 403" fill="none" xmlns="http://www.w3.org/2000/svg">
<path d="M464.987 255.113C464.987 271.644 364.478 285.046 240.493 285.046C116.509 285.046 16 271.644 16 255.113C16 238.582 116.509 225.181 240.493 225.181C364.478 225.181 464.987 238.582 464.987 255.113Z" fill="url(#paint0_linear)"/>
<path d="M162.467 56.6653C160.904 52.3691 160.122 50.221 160.361 48.2758C160.571 46.5647 161.317 44.964 162.493 43.7032C163.829 42.2699 165.978 41.488 170.274 39.9243L220.984 21.4672C225.28 19.9035 227.429 19.1217 229.374 19.3605C231.085 19.5706 232.686 20.317 233.946 21.4927C235.38 22.8294 236.162 24.9775 237.725 29.2737L246.008 52.0312C247.572 56.3274 248.354 58.4755 248.115 60.4208C247.905 62.1319 247.159 63.7325 245.983 64.9933C244.646 66.4267 242.498 67.2085 238.202 68.7722L187.491 87.2294C183.195 88.793 181.047 89.5749 179.102 89.336C177.391 89.126 175.79 88.3796 174.529 87.2038C173.096 85.8672 172.314 83.7191 170.75 79.4229L162.467 56.6653Z" fill="white"/>
<path d="M216.187 64.3596L202.078 69.495L192.848 44.1377L206.958 39.0022L216.187 64.3596Z" fill="#FF5F00"/>
<path d="M198.366 56.4854C196.494 51.3415 197.235 45.8829 199.91 41.565C196.382 40.404 192.451 40.3751 188.69 41.7443C179.784 44.9856 175.193 54.8332 178.435 63.7399C181.676 72.6465 191.523 77.2391 200.429 73.9977C204.191 72.6285 207.183 70.0799 209.14 66.9224C204.314 65.3346 200.238 61.6292 198.366 56.4854Z" fill="#EB001B"/>
<path d="M230.602 44.7525C233.843 53.6592 229.252 63.5067 220.347 66.7481C216.585 68.1173 212.654 68.0883 209.125 66.9277C211.802 62.6094 212.542 57.1509 210.67 52.007C208.798 46.8631 204.722 43.1577 199.896 41.5703C201.853 38.4125 204.846 35.8639 208.607 34.4947C217.513 31.2533 227.36 35.8459 230.602 44.7525Z" fill="#F79E1B"/>
<path d="M316.413 265.064C314.127 261.105 312.984 259.125 312.882 257.168C312.791 255.446 313.248 253.74 314.187 252.294C315.255 250.651 317.234 249.508 321.194 247.222L381.051 212.663C385.01 210.377 386.99 209.234 388.947 209.132C390.669 209.042 392.375 209.499 393.82 210.438C395.464 211.505 396.607 213.485 398.893 217.444L415.764 246.666C418.05 250.625 419.193 252.605 419.296 254.562C419.386 256.283 418.929 257.989 417.99 259.435C416.922 261.079 414.943 262.222 410.983 264.508L351.126 299.066C347.167 301.352 345.187 302.495 343.23 302.598C341.508 302.688 339.803 302.231 338.357 301.292C336.713 300.225 335.57 298.245 333.284 294.285L316.413 265.064Z" fill="white"/>
<g clip-path="url(#clip0)">
<path fill-rule="evenodd" clip-rule="evenodd" d="M347.745 255.458L347.749 255.465C347.742 255.47 345.444 256.787 346.098 259.332C346.697 261.666 348.321 268.127 348.365 268.305L347.928 268.558C347.928 268.558 343.036 263.818 341.287 262.1C339.41 260.261 337.113 261.597 337.113 261.597L331.869 264.624L341.498 281.3L346.741 278.273L341.023 268.369L341.241 268.243L341.46 268.117L350.236 276.255L353.878 274.153L351.222 262.49L351.659 262.238L357.373 272.135L362.616 269.108L352.988 252.431L347.745 255.458Z" fill="#4DB45E"/>
<path fill-rule="evenodd" clip-rule="evenodd" d="M366.898 244.4C366.898 244.4 365.441 245.426 365.649 247.452L366.644 257.752L366.207 258.004L360.489 248.1L355.246 251.128L364.874 267.804L369.826 264.945C369.826 264.945 371.351 263.87 371.147 261.852L370.08 251.593L370.516 251.341L376.235 261.245L381.478 258.218L371.85 241.541L366.898 244.4Z" fill="#4DB45E"/>
<path fill-rule="evenodd" clip-rule="evenodd" d="M378.552 247.77L383.808 256.872L389.051 253.845L385.982 248.529L391.662 245.25C394.138 243.82 395.323 241.029 394.829 238.373L378.552 247.77Z" fill="#4DB45E"/>
<path fill-rule="evenodd" clip-rule="evenodd" d="M385.103 233.889L373.444 240.621C375.86 243.459 379.713 244.633 383.273 243.685C384.081 243.471 384.876 243.148 385.633 242.711L394.619 237.522C394.481 237.097 394.294 236.691 394.063 236.29C392.251 233.151 388.242 232.077 385.103 233.889Z" fill="url(#paint1_linear)"/>
</g>
<path d="M7.41867 104.863C8.21258 100.361 8.60953 98.1093 9.78901 96.5441C10.8265 95.1673 12.2732 94.1543 13.9218 93.6502C15.7961 93.0772 18.0473 93.4742 22.5498 94.2681L84.2216 105.142C88.7241 105.936 90.9753 106.333 92.5405 107.513C93.9173 108.55 94.9303 109.997 95.4343 111.646C96.0074 113.52 95.6104 115.771 94.8165 120.274L89.666 149.483C88.8721 153.986 88.4752 156.237 87.2957 157.802C86.2582 159.179 84.8115 160.192 83.1629 160.696C81.2886 161.269 79.0374 160.872 74.5349 160.078L12.8631 149.204C8.36064 148.41 6.10941 148.013 4.54419 146.834C3.16739 145.796 2.15438 144.349 1.65035 142.701C1.07735 140.826 1.4743 138.575 2.26821 134.073L7.41867 104.863Z" fill="white"/>
<g clip-path="url(#clip1)">
<path d="M42.6309 136.364L37.5739 135.472L44.1855 116.472L49.2422 117.363L42.6309 136.364Z" fill="#00579F"/>
<path d="M64.3273 120.516C63.3997 119.945 61.8946 119.229 59.9384 118.884C54.9444 118.003 50.9581 120.046 50.2652 123.85C49.7284 126.652 52.0127 128.663 53.7617 129.937C55.5494 131.239 56.1044 131.981 55.9539 132.834C55.703 134.141 54.0355 134.47 52.5795 134.213C50.5605 133.857 49.5336 133.355 48.0181 132.336L47.4073 131.906L45.9255 136.172C47.0163 136.921 49.1169 137.786 51.3819 138.207C56.6881 139.143 60.6049 137.13 61.3613 133.08C61.7741 130.857 60.7234 128.913 58.0556 127.005C56.4447 125.798 55.4679 125.004 55.6293 124.088C55.7969 123.26 56.8426 122.565 58.8392 122.917C60.4906 123.165 61.6288 123.773 62.4742 124.33L62.8949 124.618L64.3273 120.516Z" fill="#00579F"/>
<path d="M68.906 133.852C69.5206 132.802 71.8899 128.736 71.8899 128.736C71.8615 128.774 72.5073 127.665 72.8854 126.981L72.9417 128.729C72.9417 128.729 73.0738 133.579 73.1094 134.594C72.319 134.454 69.9049 134.029 68.906 133.852ZM77.3751 122.324L73.4635 121.634C72.2573 121.422 71.2785 121.613 70.5343 122.791L59.8603 139.401L65.1665 140.337C65.1665 140.337 66.4657 138.077 66.7452 137.59C67.3273 137.693 72.4891 138.603 73.238 138.735C73.2621 139.447 73.3241 141.775 73.3241 141.775L78.0064 142.601L77.3751 122.324Z" fill="#00579F"/>
<path d="M36.7986 115.169L29.4945 127.632L29.4302 124.832C29.0649 121.55 26.7913 117.653 23.8841 115.402L25.4046 133.305L30.7523 134.248L42.146 116.112L36.7986 115.169Z" fill="#00579F"/>
<path d="M27.2473 113.485L19.1111 112.05L18.9582 112.431C25.0188 115.173 28.5323 119.826 29.4301 124.833L29.2463 115.533C29.1754 114.232 28.3429 113.721 27.2473 113.485Z" fill="#FAA61A"/>
</g>
<path d="M339.459 16.0801C344.848 10.692 347.542 7.99795 350.648 6.98857C353.381 6.10069 356.324 6.10069 359.057 6.98857C362.163 7.99795 364.858 10.692 370.246 16.0801L433.742 79.5764C439.13 84.9645 441.824 87.6585 442.833 90.7651C443.721 93.4977 443.721 96.4412 442.833 99.1738C441.824 102.28 439.13 104.974 433.742 110.363L310.598 233.507C305.209 238.895 302.515 241.589 299.409 242.598C296.676 243.486 293.733 243.486 291 242.598C287.894 241.589 285.199 238.895 279.811 233.507L216.315 170.011C210.927 164.623 208.233 161.928 207.224 158.822C206.336 156.089 206.336 153.146 207.224 150.413C208.233 147.307 210.927 144.613 216.315 139.224L339.459 16.0801Z" fill="url(#paint2_linear)"/>
<path d="M338.497 34.3593C339.56 33.2966 341.283 33.2966 342.346 34.3593L415.463 107.476C416.525 108.539 416.525 110.262 415.463 111.325L385.638 141.149C384.576 142.211 382.853 142.211 381.79 141.149L308.673 68.0316C307.611 66.9689 307.611 65.246 308.673 64.1834L338.497 34.3593Z" fill="url(#paint3_linear)"/>
<g filter="url(#filter0_d)">
<path d="M295.204 77.6523C296.267 76.5897 297.99 76.5897 299.053 77.6523L316.37 94.9695C317.432 96.0322 317.432 97.7551 316.37 98.8178L307.711 107.476C306.648 108.539 304.926 108.539 303.863 107.476L286.546 90.1592C285.483 89.0965 285.483 87.3736 286.546 86.3109L295.204 77.6523Z" fill="url(#paint4_linear)"/>
</g>
<g filter="url(#filter1_d)">
<path d="M278.849 94.0074C279.912 92.9448 281.635 92.9448 282.698 94.0074L300.015 111.325C301.077 112.387 301.077 114.11 300.015 115.173L291.356 123.831C290.293 124.894 288.571 124.894 287.508 123.831L270.191 106.514C269.128 105.452 269.128 103.729 270.191 102.666L278.849 94.0074Z" fill="url(#paint5_linear)"/>
</g>
<g filter="url(#filter2_d)">
<path d="M262.494 110.363C263.557 109.3 265.28 109.3 266.342 110.363L283.66 127.68C284.722 128.742 284.722 130.465 283.66 131.528L275.001 140.187C273.938 141.249 272.215 141.249 271.153 140.187L253.835 122.869C252.773 121.807 252.773 120.084 253.835 119.021L262.494 110.363Z" fill="url(#paint6_linear)"/>
</g>
<g filter="url(#filter3_d)">
<path d="M246.139 126.718C247.202 125.655 248.925 125.655 249.987 126.718L267.305 144.035C268.367 145.098 268.367 146.82 267.305 147.883L242.291 172.897C241.228 173.959 239.505 173.959 238.443 172.897L223.05 157.504C220.924 155.378 220.924 151.933 223.05 149.807L246.139 126.718Z" fill="url(#paint7_linear)"/>
</g>
<g filter="url(#filter4_d)">
<path d="M323.104 105.552C324.167 104.489 325.89 104.489 326.952 105.552L344.27 122.869C345.332 123.932 345.332 125.655 344.27 126.718L335.611 135.376C334.548 136.439 332.825 136.439 331.763 135.376L314.446 118.059C313.383 116.996 313.383 115.273 314.446 114.211L323.104 105.552Z" fill="url(#paint8_linear)"/>
</g>
<g filter="url(#filter5_d)">
<path d="M306.749 121.907C307.812 120.845 309.535 120.845 310.597 121.907L327.915 139.224C328.977 140.287 328.977 142.01 327.915 143.073L319.256 151.731C318.193 152.794 316.47 152.794 315.408 151.731L298.091 134.414C297.028 133.351 297.028 131.629 298.091 130.566L306.749 121.907Z" fill="url(#paint9_linear)"/>
</g>
<g filter="url(#filter6_d)">
<path d="M290.394 138.262C291.457 137.2 293.18 137.2 294.242 138.262L311.56 155.58C312.622 156.642 312.622 158.365 311.56 159.428L302.901 168.086C301.838 169.149 300.115 169.149 299.053 168.086L281.736 150.769C280.673 149.707 280.673 147.984 281.736 146.921L290.394 138.262Z" fill="url(#paint10_linear)"/>
</g>
<g filter="url(#filter7_d)">
<path d="M274.039 154.618C275.102 153.555 276.825 153.555 277.887 154.618L295.204 171.935C296.267 172.997 296.267 174.72 295.204 175.783L286.546 184.442C285.483 185.504 283.76 185.504 282.698 184.442L265.38 167.124C264.318 166.062 264.318 164.339 265.38 163.276L274.039 154.618Z" fill="url(#paint11_linear)"/>
</g>
<g filter="url(#filter8_d)">
<path d="M257.684 170.973C258.746 169.91 260.469 169.91 261.532 170.973L278.849 188.29C279.912 189.353 279.912 191.075 278.849 192.138L270.191 200.797C269.128 201.859 267.405 201.859 266.342 200.797L249.025 183.48C247.963 182.417 247.963 180.694 249.025 179.631L257.684 170.973Z" fill="url(#paint12_linear)"/>
</g>
<g filter="url(#filter9_d)">
<path d="M351.004 133.452C352.067 132.389 353.79 132.389 354.852 133.452L372.17 150.769C373.232 151.832 373.232 153.555 372.17 154.618L363.511 163.276C362.448 164.339 360.725 164.339 359.663 163.276L342.345 145.959C341.283 144.896 341.283 143.173 342.345 142.111L351.004 133.452Z" fill="url(#paint13_linear)"/>
</g>
<g filter="url(#filter10_d)">
<path d="M334.649 149.807C335.712 148.745 337.435 148.745 338.497 149.807L355.815 167.124C356.877 168.187 356.877 169.91 355.815 170.973L347.156 179.631C346.093 180.694 344.37 180.694 343.308 179.631L325.991 162.314C324.928 161.251 324.928 159.529 325.991 158.466L334.649 149.807Z" fill="url(#paint14_linear)"/>
</g>
<g filter="url(#filter11_d)">
<path d="M318.294 166.162C319.357 165.1 321.08 165.1 322.142 166.162L339.46 183.48C340.522 184.542 340.522 186.265 339.46 187.328L330.801 195.986C329.738 197.049 328.015 197.049 326.953 195.986L309.636 178.669C308.573 177.607 308.573 175.884 309.636 174.821L318.294 166.162Z" fill="url(#paint15_linear)"/>
</g>
<g filter="url(#filter12_d)">
<path d="M301.939 182.517C303.002 181.455 304.725 181.455 305.787 182.517L323.104 199.835C324.167 200.897 324.167 202.62 323.104 203.683L300.015 226.772C297.889 228.898 294.444 228.898 292.318 226.772L276.925 211.379C275.863 210.317 275.863 208.594 276.925 207.531L301.939 182.517Z" fill="url(#paint16_linear)"/>
</g>
<g filter="url(#filter13_i)">
<path fill-rule="evenodd" clip-rule="evenodd" d="M303.863 201.759C301.738 199.633 298.292 199.633 296.166 201.759C294.041 203.884 294.041 207.33 296.166 209.455C298.292 211.581 301.738 211.581 303.863 209.455C305.988 207.33 305.988 203.884 303.863 201.759ZM294.242 199.835C297.43 196.647 302.599 196.647 305.787 199.835C308.975 203.023 308.975 208.191 305.787 211.379C302.599 214.567 297.43 214.567 294.242 211.379C291.054 208.191 291.054 203.023 294.242 199.835Z" fill="#009646"/>
</g>
<path fill-rule="evenodd" clip-rule="evenodd" d="M242.291 149.807L237.48 154.618L239.405 156.542L244.215 151.731L249.025 156.542L250.949 154.618L246.139 149.807L250.949 144.997L249.025 143.073L244.215 147.883L239.405 143.073L237.48 144.997L242.291 149.807Z" fill="#E2427C"/>
<path fill-rule="evenodd" clip-rule="evenodd" d="M269.229 188.29L263.456 182.517L261.532 180.593L259.608 182.517L257.684 184.442L259.608 186.366L261.532 184.442L267.304 190.214L269.229 188.29Z" fill="#FDAE55"/>
<path d="M386.701 68.251C386.567 67.9375 386.606 67.5778 386.806 67.3039C386.916 67.1405 387.037 67.0726 387.629 66.9075C389.848 66.2885 391.862 65.0961 393.465 63.4505C395.063 61.895 396.214 59.9654 396.828 57.8148C396.947 57.4715 397.067 57.1494 397.218 56.8275C397.45 56.6598 397.735 56.5772 398.011 56.6322C398.377 56.7461 398.644 57.0657 398.716 57.4316C398.676 57.7702 398.615 58.0875 398.501 58.415C397.983 60.0844 397.216 61.6302 396.2 63.0312C395.371 64.1053 394.42 65.0885 393.372 65.9545C391.977 67.0191 390.421 67.8389 388.746 68.3826C387.732 68.714 387.256 68.8058 387.054 68.603C387.011 68.5604 386.963 68.5123 386.92 68.4697C386.846 68.395 386.776 68.3256 386.701 68.251ZM385.537 64.7634C385.317 64.3752 385.43 63.8783 385.799 63.6375C385.862 63.5744 386.317 63.4507 386.76 63.3057C388.583 62.742 390.201 61.6684 391.418 60.2053C392.306 59.1688 392.958 57.9504 393.341 56.64C393.667 55.6416 393.751 55.5152 394.232 55.4287C394.724 55.4059 395.15 55.7585 395.218 56.2673C395.045 57.2086 394.739 58.1224 394.322 58.9877C393.012 61.6627 390.735 63.7269 387.947 64.7653C386.505 65.3107 385.87 65.3166 385.564 64.7371L385.537 64.7634ZM384.309 61.1907C384.201 60.9145 384.225 60.6023 384.371 60.3492C384.477 60.2441 384.613 60.1074 385.274 59.927C387.488 59.3026 389.212 57.5785 389.836 55.3645C390.152 54.3554 390.289 54.2187 390.824 54.2492C391.041 54.2349 391.248 54.3264 391.387 54.5075C391.728 54.8489 391.757 55.2039 391.451 56.0859C391.085 57.3594 390.4 58.514 389.459 59.4442C388.529 60.417 387.348 61.1284 386.048 61.5001C385.208 61.7639 384.933 61.7513 384.597 61.5105C384.485 61.4197 384.389 61.3025 384.34 61.1591L384.309 61.1907ZM383.183 57.8252C383.091 57.5651 383.094 57.2844 383.208 57.0311C383.339 56.7938 383.55 56.6895 384.1 56.5664C384.724 56.4757 385.294 56.1622 385.709 55.694C386.193 55.2846 386.511 54.7203 386.618 54.091C386.659 53.8689 386.726 53.6523 386.799 53.441C387.071 53.0512 387.61 52.9599 388.042 53.2649C388.382 53.5004 388.464 53.824 388.331 54.4902C387.943 56.4254 386.445 57.9234 384.51 58.3116C383.833 58.4443 383.403 58.2557 383.188 57.8305L383.183 57.8252Z" fill="#343C45"/>
<g filter="url(#filter14_d)">
<path d="M354.327 82.9734L359.952 77.3492L357.808 75.2054L348.372 76.4361L346.427 78.3814L350.834 82.7881L348.849 84.7731L350.688 86.6126L352.673 84.6276L353.824 85.7789L355.479 84.1247L354.327 82.9734ZM349.868 78.5137L350.132 78.2491L355.77 77.4551L356.034 77.7197L352.554 81.2001L349.868 78.5137Z" fill="#F3EBC1"/>
<path d="M359.446 82.428L361.351 84.3336C362.331 83.5132 363.297 83.7117 364.064 84.4792C364.858 85.2732 364.977 86.2657 364.091 87.1523C363.191 88.0522 361.735 88.0257 360.452 87.8272L354.92 87.0332L353.014 88.9388L359.856 95.7805L361.51 94.1263L357.593 90.2092L357.858 89.9446L361.299 90.368C363.059 90.593 364.858 90.2225 366.049 89.0315C367.968 87.1126 367.69 84.7174 365.811 82.8383C363.826 80.8533 361.471 80.5886 359.446 82.428Z" fill="#F3EBC1"/>
<path d="M374.114 91.1412C372.063 89.09 369.046 88.9577 365.671 92.3322C362.31 95.6934 362.442 98.7106 364.493 100.762C366.545 102.813 369.562 102.945 372.923 99.5841C376.298 96.2095 376.165 93.1923 374.114 91.1412ZM366.187 99.0679C364.798 97.6784 366.108 95.7331 367.59 94.251C369.085 92.7556 371.031 91.4455 372.42 92.835C373.823 94.2378 372.513 96.1831 371.017 97.6784C369.535 99.1606 367.59 100.471 366.187 99.0679Z" fill="#F3EBC1"/>
<path d="M371.548 107.473L373.56 105.461L371.522 103.423L369.51 105.435L371.548 107.473Z" fill="#F3EBC1"/>
<path d="M385.887 102.914C383.836 100.863 380.819 100.731 377.444 104.105C374.083 107.466 374.215 110.484 376.266 112.535C378.318 114.586 381.335 114.718 384.696 111.357C388.071 107.983 387.938 104.965 385.887 102.914ZM377.96 110.841C376.571 109.451 377.881 107.506 379.363 106.024C380.858 104.529 382.804 103.219 384.193 104.608C385.596 106.011 384.286 107.956 382.79 109.451C381.308 110.934 379.363 112.244 377.96 110.841Z" fill="#F3EBC1"/>
<path d="M394.442 111.469C392.391 109.418 389.374 109.286 385.999 112.66C382.638 116.022 382.77 119.039 384.822 121.09C386.873 123.141 389.89 123.274 393.251 119.912C396.626 116.538 396.493 113.521 394.442 111.469ZM386.515 119.396C385.126 118.007 386.436 116.061 387.918 114.579C389.414 113.084 391.359 111.774 392.748 113.163C394.151 114.566 392.841 116.511 391.346 118.007C389.863 119.489 387.918 120.799 386.515 119.396Z" fill="#F3EBC1"/>
</g>
<path d="M106.612 119.84C113.078 113.375 116.31 110.142 120.038 108.931C123.317 107.865 126.85 107.865 130.129 108.931C133.857 110.142 137.089 113.375 143.555 119.84L264.666 240.951C271.131 247.416 274.364 250.649 275.575 254.377C276.641 257.656 276.641 261.188 275.575 264.468C274.364 268.195 271.131 271.428 264.666 277.894L210.213 332.347C203.747 338.813 200.514 342.045 196.786 343.257C193.507 344.322 189.975 344.322 186.696 343.257C182.968 342.045 179.735 338.813 173.269 332.347L52.1589 211.237C45.6932 204.771 42.4604 201.538 41.2491 197.81C40.1837 194.531 40.1837 190.999 41.2491 187.72C42.4604 183.992 45.6932 180.759 52.1589 174.293L106.612 119.84Z" fill="url(#paint17_linear)"/>
<path d="M118.965 134.975C121.084 132.856 122.143 131.797 123.361 131.39C124.479 131.017 125.688 131.017 126.806 131.39C128.024 131.797 129.083 132.856 131.202 134.975L149.201 152.974C151.32 155.093 152.38 156.152 152.786 157.37C153.159 158.488 153.159 159.697 152.786 160.815C152.38 162.033 151.32 163.093 149.201 165.212L141.51 172.903C139.391 175.021 138.332 176.081 137.114 176.487C135.996 176.86 134.787 176.86 133.669 176.487C132.451 176.081 131.392 175.021 129.273 172.903L111.274 154.904C109.155 152.785 108.095 151.725 107.689 150.507C107.316 149.389 107.316 148.181 107.689 147.063C108.095 145.845 109.155 144.785 111.274 142.666L118.965 134.975Z" fill="#BF215A"/>
<path fill-rule="evenodd" clip-rule="evenodd" d="M224.726 269.73C230.419 275.423 239.649 275.423 245.342 269.73C251.034 264.037 251.034 254.807 245.342 249.114C239.649 243.422 230.419 243.422 224.726 249.114C219.033 254.807 219.033 264.037 224.726 269.73ZM230.911 234.684C232.721 236.494 233.956 238.663 234.615 240.962C230.03 241.065 225.476 242.867 221.977 246.366C218.478 249.865 216.677 254.419 216.573 259.004C214.274 258.345 212.106 257.11 210.295 255.299C204.602 249.606 204.602 240.376 210.295 234.684C215.988 228.991 225.218 228.991 230.911 234.684Z" fill="#EF85AB"/>
<path fill-rule="evenodd" clip-rule="evenodd" d="M16 255.113C16 336.767 116.578 403 240.493 403C364.548 403 464.987 336.767 464.987 255.113C464.984 271.448 364.476 284.689 240.493 284.689C116.511 284.689 16.0032 271.448 16 255.113Z" fill="url(#paint18_linear)"/>
<defs>
<filter id="filter0_d" x="284.622" y="75.7282" width="33.6723" height="34.6723" filterUnits="userSpaceOnUse" color-interpolation-filters="sRGB">
<feFlood flood-opacity="0" result="BackgroundImageFix"/>
<feColorMatrix in="SourceAlpha" type="matrix" values="0 0 0 0 0 0 0 0 0 0 0 0 0 0 0 0 0 0 127 0"/>
<feOffset dy="1"/>
<feColorMatrix type="matrix" values="0 0 0 0 0.670139 0 0 0 0 0.733997 0 0 0 0 0.833333 0 0 0 1 0"/>
<feBlend mode="normal" in2="BackgroundImageFix" result="effect1_dropShadow"/>
<feBlend mode="normal" in="SourceGraphic" in2="effect1_dropShadow" result="shape"/>
</filter>
<filter id="filter1_d" x="268.267" y="92.0833" width="33.6723" height="34.6723" filterUnits="userSpaceOnUse" color-interpolation-filters="sRGB">
<feFlood flood-opacity="0" result="BackgroundImageFix"/>
<feColorMatrix in="SourceAlpha" type="matrix" values="0 0 0 0 0 0 0 0 0 0 0 0 0 0 0 0 0 0 127 0"/>
<feOffset dy="1"/>
<feColorMatrix type="matrix" values="0 0 0 0 0.670139 0 0 0 0 0.733997 0 0 0 0 0.833333 0 0 0 1 0"/>
<feBlend mode="normal" in2="BackgroundImageFix" result="effect1_dropShadow"/>
<feBlend mode="normal" in="SourceGraphic" in2="effect1_dropShadow" result="shape"/>
</filter>
<filter id="filter2_d" x="251.911" y="108.438" width="33.6723" height="34.6723" filterUnits="userSpaceOnUse" color-interpolation-filters="sRGB">
<feFlood flood-opacity="0" result="BackgroundImageFix"/>
<feColorMatrix in="SourceAlpha" type="matrix" values="0 0 0 0 0 0 0 0 0 0 0 0 0 0 0 0 0 0 127 0"/>
<feOffset dy="1"/>
<feColorMatrix type="matrix" values="0 0 0 0 0.670139 0 0 0 0 0.733997 0 0 0 0 0.833333 0 0 0 1 0"/>
<feBlend mode="normal" in2="BackgroundImageFix" result="effect1_dropShadow"/>
<feBlend mode="normal" in="SourceGraphic" in2="effect1_dropShadow" result="shape"/>
</filter>
<filter id="filter3_d" x="219.201" y="124.794" width="50.0274" height="51.0274" filterUnits="userSpaceOnUse" color-interpolation-filters="sRGB">
<feFlood flood-opacity="0" result="BackgroundImageFix"/>
<feColorMatrix in="SourceAlpha" type="matrix" values="0 0 0 0 0 0 0 0 0 0 0 0 0 0 0 0 0 0 127 0"/>
<feOffset dy="1"/>
<feColorMatrix type="matrix" values="0 0 0 0 0.670139 0 0 0 0 0.733997 0 0 0 0 0.833333 0 0 0 1 0"/>
<feBlend mode="normal" in2="BackgroundImageFix" result="effect1_dropShadow"/>
<feBlend mode="normal" in="SourceGraphic" in2="effect1_dropShadow" result="shape"/>
</filter>
<filter id="filter4_d" x="312.521" y="103.628" width="33.6723" height="34.6723" filterUnits="userSpaceOnUse" color-interpolation-filters="sRGB">
<feFlood flood-opacity="0" result="BackgroundImageFix"/>
<feColorMatrix in="SourceAlpha" type="matrix" values="0 0 0 0 0 0 0 0 0 0 0 0 0 0 0 0 0 0 127 0"/>
<feOffset dy="1"/>
<feColorMatrix type="matrix" values="0 0 0 0 0.670139 0 0 0 0 0.733997 0 0 0 0 0.833333 0 0 0 1 0"/>
<feBlend mode="normal" in2="BackgroundImageFix" result="effect1_dropShadow"/>
<feBlend mode="normal" in="SourceGraphic" in2="effect1_dropShadow" result="shape"/>
</filter>
<filter id="filter5_d" x="296.167" y="119.983" width="33.6723" height="34.6723" filterUnits="userSpaceOnUse" color-interpolation-filters="sRGB">
<feFlood flood-opacity="0" result="BackgroundImageFix"/>
<feColorMatrix in="SourceAlpha" type="matrix" values="0 0 0 0 0 0 0 0 0 0 0 0 0 0 0 0 0 0 127 0"/>
<feOffset dy="1"/>
<feColorMatrix type="matrix" values="0 0 0 0 0.670139 0 0 0 0 0.733997 0 0 0 0 0.833333 0 0 0 1 0"/>
<feBlend mode="normal" in2="BackgroundImageFix" result="effect1_dropShadow"/>
<feBlend mode="normal" in="SourceGraphic" in2="effect1_dropShadow" result="shape"/>
</filter>
<filter id="filter6_d" x="279.812" y="136.338" width="33.6723" height="34.6723" filterUnits="userSpaceOnUse" color-interpolation-filters="sRGB">
<feFlood flood-opacity="0" result="BackgroundImageFix"/>
<feColorMatrix in="SourceAlpha" type="matrix" values="0 0 0 0 0 0 0 0 0 0 0 0 0 0 0 0 0 0 127 0"/>
<feOffset dy="1"/>
<feColorMatrix type="matrix" values="0 0 0 0 0.670139 0 0 0 0 0.733997 0 0 0 0 0.833333 0 0 0 1 0"/>
<feBlend mode="normal" in2="BackgroundImageFix" result="effect1_dropShadow"/>
<feBlend mode="normal" in="SourceGraphic" in2="effect1_dropShadow" result="shape"/>
</filter>
<filter id="filter7_d" x="263.456" y="152.693" width="33.6723" height="34.6723" filterUnits="userSpaceOnUse" color-interpolation-filters="sRGB">
<feFlood flood-opacity="0" result="BackgroundImageFix"/>
<feColorMatrix in="SourceAlpha" type="matrix" values="0 0 0 0 0 0 0 0 0 0 0 0 0 0 0 0 0 0 127 0"/>
<feOffset dy="1"/>
<feColorMatrix type="matrix" values="0 0 0 0 0.670139 0 0 0 0 0.733997 0 0 0 0 0.833333 0 0 0 1 0"/>
<feBlend mode="normal" in2="BackgroundImageFix" result="effect1_dropShadow"/>
<feBlend mode="normal" in="SourceGraphic" in2="effect1_dropShadow" result="shape"/>
</filter>
<filter id="filter8_d" x="247.101" y="169.049" width="33.6723" height="34.6723" filterUnits="userSpaceOnUse" color-interpolation-filters="sRGB">
<feFlood flood-opacity="0" result="BackgroundImageFix"/>
<feColorMatrix in="SourceAlpha" type="matrix" values="0 0 0 0 0 0 0 0 0 0 0 0 0 0 0 0 0 0 127 0"/>
<feOffset dy="1"/>
<feColorMatrix type="matrix" values="0 0 0 0 0.670139 0 0 0 0 0.733997 0 0 0 0 0.833333 0 0 0 1 0"/>
<feBlend mode="normal" in2="BackgroundImageFix" result="effect1_dropShadow"/>
<feBlend mode="normal" in="SourceGraphic" in2="effect1_dropShadow" result="shape"/>
</filter>
<filter id="filter9_d" x="340.421" y="131.528" width="33.6723" height="34.6723" filterUnits="userSpaceOnUse" color-interpolation-filters="sRGB">
<feFlood flood-opacity="0" result="BackgroundImageFix"/>
<feColorMatrix in="SourceAlpha" type="matrix" values="0 0 0 0 0 0 0 0 0 0 0 0 0 0 0 0 0 0 127 0"/>
<feOffset dy="1"/>
<feColorMatrix type="matrix" values="0 0 0 0 0.670139 0 0 0 0 0.733997 0 0 0 0 0.833333 0 0 0 1 0"/>
<feBlend mode="normal" in2="BackgroundImageFix" result="effect1_dropShadow"/>
<feBlend mode="normal" in="SourceGraphic" in2="effect1_dropShadow" result="shape"/>
</filter>
<filter id="filter10_d" x="324.066" y="147.883" width="33.6723" height="34.6723" filterUnits="userSpaceOnUse" color-interpolation-filters="sRGB">
<feFlood flood-opacity="0" result="BackgroundImageFix"/>
<feColorMatrix in="SourceAlpha" type="matrix" values="0 0 0 0 0 0 0 0 0 0 0 0 0 0 0 0 0 0 127 0"/>
<feOffset dy="1"/>
<feColorMatrix type="matrix" values="0 0 0 0 0.670139 0 0 0 0 0.733997 0 0 0 0 0.833333 0 0 0 1 0"/>
<feBlend mode="normal" in2="BackgroundImageFix" result="effect1_dropShadow"/>
<feBlend mode="normal" in="SourceGraphic" in2="effect1_dropShadow" result="shape"/>
</filter>
<filter id="filter11_d" x="307.711" y="164.238" width="33.6723" height="34.6723" filterUnits="userSpaceOnUse" color-interpolation-filters="sRGB">
<feFlood flood-opacity="0" result="BackgroundImageFix"/>
<feColorMatrix in="SourceAlpha" type="matrix" values="0 0 0 0 0 0 0 0 0 0 0 0 0 0 0 0 0 0 127 0"/>
<feOffset dy="1"/>
<feColorMatrix type="matrix" values="0 0 0 0 0.670139 0 0 0 0 0.733997 0 0 0 0 0.833333 0 0 0 1 0"/>
<feBlend mode="normal" in2="BackgroundImageFix" result="effect1_dropShadow"/>
<feBlend mode="normal" in="SourceGraphic" in2="effect1_dropShadow" result="shape"/>
</filter>
<filter id="filter12_d" x="275.001" y="180.593" width="50.0274" height="51.0274" filterUnits="userSpaceOnUse" color-interpolation-filters="sRGB">
<feFlood flood-opacity="0" result="BackgroundImageFix"/>
<feColorMatrix in="SourceAlpha" type="matrix" values="0 0 0 0 0 0 0 0 0 0 0 0 0 0 0 0 0 0 127 0"/>
<feOffset dy="1"/>
<feColorMatrix type="matrix" values="0 0 0 0 0.670139 0 0 0 0 0.733997 0 0 0 0 0.833333 0 0 0 1 0"/>
<feBlend mode="normal" in2="BackgroundImageFix" result="effect1_dropShadow"/>
<feBlend mode="normal" in="SourceGraphic" in2="effect1_dropShadow" result="shape"/>
</filter>
<filter id="filter13_i" x="288.47" y="194.062" width="23.0896" height="24.0896" filterUnits="userSpaceOnUse" color-interpolation-filters="sRGB">
<feFlood flood-opacity="0" result="BackgroundImageFix"/>
<feBlend mode="normal" in="SourceGraphic" in2="BackgroundImageFix" result="shape"/>
<feColorMatrix in="SourceAlpha" type="matrix" values="0 0 0 0 0 0 0 0 0 0 0 0 0 0 0 0 0 0 127 0" result="hardAlpha"/>
<feOffset dy="1"/>
<feGaussianBlur stdDeviation="0.5"/>
<feComposite in2="hardAlpha" operator="arithmetic" k2="-1" k3="1"/>
<feColorMatrix type="matrix" values="0 0 0 0 0 0 0 0 0 0.588235 0 0 0 0 0.27451 0 0 0 1 0"/>
<feBlend mode="normal" in2="shape" result="effect1_innerShadow"/>
</filter>
<filter id="filter14_d" x="340.27" y="66.9178" width="61.7982" height="61.7982" filterUnits="userSpaceOnUse" color-interpolation-filters="sRGB">
<feFlood flood-opacity="0" result="BackgroundImageFix"/>
<feColorMatrix in="SourceAlpha" type="matrix" values="0 0 0 0 0 0 0 0 0 0 0 0 0 0 0 0 0 0 127 0"/>
<feOffset/>
<feGaussianBlur stdDeviation="2"/>
<feColorMatrix type="matrix" values="0 0 0 0 0.952941 0 0 0 0 0.921569 0 0 0 0 0.756863 0 0 0 0.2 0"/>
<feBlend mode="normal" in2="BackgroundImageFix" result="effect1_dropShadow"/>
<feBlend mode="normal" in="SourceGraphic" in2="effect1_dropShadow" result="shape"/>
</filter>
<linearGradient id="paint0_linear" x1="16" y1="255.113" x2="464.987" y2="255.113" gradientUnits="userSpaceOnUse">
<stop stop-color="#B8C4D4"/>
<stop offset="1" stop-color="#EAEDF3"/>
</linearGradient>
<linearGradient id="paint1_linear" x1="375.422" y1="244.042" x2="392.76" y2="234.032" gradientUnits="userSpaceOnUse">
<stop offset="0.3" stop-color="#00B4E6"/>
<stop offset="1" stop-color="#088CCB"/>
</linearGradient>
<linearGradient id="paint2_linear" x1="401.994" y1="47.8282" x2="248.063" y2="201.759" gradientUnits="userSpaceOnUse">
<stop stop-color="#D9E5F7"/>
<stop offset="1" stop-color="#C5D4E7"/>
</linearGradient>
<linearGradient id="paint3_linear" x1="358.701" y1="50.7144" x2="345.608" y2="141.346" gradientUnits="userSpaceOnUse">
<stop stop-color="#4D5664"/>
<stop offset="1" stop-color="#2E363E"/>
</linearGradient>
<linearGradient id="paint4_linear" x1="307.711" y1="86.3109" x2="295.204" y2="98.8178" gradientUnits="userSpaceOnUse">
<stop stop-color="#ECF4FF"/>
<stop offset="1" stop-color="#DCE6F4"/>
</linearGradient>
<linearGradient id="paint5_linear" x1="291.356" y1="102.666" x2="278.849" y2="115.173" gradientUnits="userSpaceOnUse">
<stop stop-color="#ECF4FF"/>
<stop offset="1" stop-color="#DCE6F4"/>
</linearGradient>
<linearGradient id="paint6_linear" x1="275.001" y1="119.021" x2="262.494" y2="131.528" gradientUnits="userSpaceOnUse">
<stop stop-color="#ECF4FF"/>
<stop offset="1" stop-color="#DCE6F4"/>
</linearGradient>
<linearGradient id="paint7_linear" x1="258.646" y1="135.376" x2="229.784" y2="164.238" gradientUnits="userSpaceOnUse">
<stop stop-color="#ECF4FF"/>
<stop offset="1" stop-color="#DCE6F4"/>
</linearGradient>
<linearGradient id="paint8_linear" x1="335.611" y1="114.211" x2="323.104" y2="126.718" gradientUnits="userSpaceOnUse">
<stop stop-color="#ECF4FF"/>
<stop offset="1" stop-color="#DCE6F4"/>
</linearGradient>
<linearGradient id="paint9_linear" x1="319.256" y1="130.566" x2="306.749" y2="143.073" gradientUnits="userSpaceOnUse">
<stop stop-color="#ECF4FF"/>
<stop offset="1" stop-color="#DCE6F4"/>
</linearGradient>
<linearGradient id="paint10_linear" x1="302.901" y1="146.921" x2="290.394" y2="159.428" gradientUnits="userSpaceOnUse">
<stop stop-color="#ECF4FF"/>
<stop offset="1" stop-color="#DCE6F4"/>
</linearGradient>
<linearGradient id="paint11_linear" x1="286.546" y1="163.276" x2="274.039" y2="175.783" gradientUnits="userSpaceOnUse">
<stop stop-color="#ECF4FF"/>
<stop offset="1" stop-color="#DCE6F4"/>
</linearGradient>
<linearGradient id="paint12_linear" x1="270.191" y1="179.631" x2="257.684" y2="192.138" gradientUnits="userSpaceOnUse">
<stop stop-color="#ECF4FF"/>
<stop offset="1" stop-color="#DCE6F4"/>
</linearGradient>
<linearGradient id="paint13_linear" x1="363.511" y1="142.111" x2="351.004" y2="154.618" gradientUnits="userSpaceOnUse">
<stop stop-color="#ECF4FF"/>
<stop offset="1" stop-color="#DCE6F4"/>
</linearGradient>
<linearGradient id="paint14_linear" x1="347.156" y1="158.466" x2="334.649" y2="170.973" gradientUnits="userSpaceOnUse">
<stop stop-color="#ECF4FF"/>
<stop offset="1" stop-color="#DCE6F4"/>
</linearGradient>
<linearGradient id="paint15_linear" x1="330.801" y1="174.821" x2="318.294" y2="187.328" gradientUnits="userSpaceOnUse">
<stop stop-color="#ECF4FF"/>
<stop offset="1" stop-color="#DCE6F4"/>
</linearGradient>
<linearGradient id="paint16_linear" x1="314.446" y1="191.176" x2="285.584" y2="220.038" gradientUnits="userSpaceOnUse">
<stop stop-color="#ECF4FF"/>
<stop offset="1" stop-color="#DCE6F4"/>
</linearGradient>
<linearGradient id="paint17_linear" x1="121.167" y1="105.286" x2="180.661" y2="353.475" gradientUnits="userSpaceOnUse">
<stop stop-color="#EC4883"/>
<stop offset="1" stop-color="#D83B74"/>
</linearGradient>
<linearGradient id="paint18_linear" x1="464.987" y1="309.908" x2="16" y2="309.908" gradientUnits="userSpaceOnUse">
<stop stop-color="#B8C4D4"/>
<stop offset="1" stop-color="#EAEDF3"/>
</linearGradient>
<clipPath id="clip0">
<rect width="68.0283" height="19.2565" fill="white" transform="translate(331.869 264.624) rotate(-30)"/>
</clipPath>
<clipPath id="clip1">
<rect width="63.39" height="20.5154" fill="white" transform="translate(19.0903 111.681) rotate(10)"/>
</clipPath>
</defs>
</svg>
