<svg width="335" height="309" viewBox="0 0 335 309" fill="none" xmlns="http://www.w3.org/2000/svg">
<ellipse cx="165" cy="200" rx="165" ry="22" fill="url(#paint0_linear)"/>
<rect x="118" y="20.1326" width="58.8636" height="37" rx="6" transform="rotate(-20 118 20.1326)" fill="white"/>
<path d="M160.767 34.8089L150.396 38.5834L143.613 19.946L153.983 16.1715L160.767 34.8089Z" fill="#FF5F00"/>
<path d="M147.669 29.0214C146.293 25.2407 146.837 21.2287 148.804 18.0551C146.21 17.2018 143.321 17.1805 140.556 18.1868C134.011 20.5692 130.636 27.8071 133.019 34.3534C135.402 40.8996 142.639 44.2751 149.185 41.8927C151.95 40.8864 154.149 39.0132 155.587 36.6925C152.041 35.5255 149.045 32.8021 147.669 29.0214Z" fill="#EB001B"/>
<path d="M171.361 20.3978C173.744 26.9441 170.37 34.182 163.824 36.5643C161.059 37.5707 158.17 37.5494 155.576 36.6963C157.544 33.5225 158.088 29.5105 156.712 25.7298C155.336 21.9491 152.34 19.2257 148.793 18.059C150.232 15.738 152.431 13.8648 155.196 12.8585C161.741 10.4761 168.979 13.8515 171.361 20.3978Z" fill="#F79E1B"/>
<rect x="216" y="199" width="70" height="44" rx="6" transform="rotate(-30 216 199)" fill="white"/>
<g clip-path="url(#clip0)">
<path fill-rule="evenodd" clip-rule="evenodd" d="M243.828 200.253L243.832 200.259C243.826 200.262 242.137 201.23 242.618 203.101C243.058 204.816 244.252 209.565 244.284 209.696L243.963 209.881C243.963 209.881 240.368 206.398 239.082 205.135C237.702 203.783 236.014 204.765 236.014 204.765L232.16 206.99L239.237 219.247L243.091 217.022L238.888 209.743L239.048 209.65L239.209 209.558L245.66 215.539L248.336 213.994L246.384 205.422L246.705 205.237L250.905 212.51L254.759 210.286L247.682 198.028L243.828 200.253Z" fill="#4DB45E"/>
<path fill-rule="evenodd" clip-rule="evenodd" d="M257.905 192.126C257.905 192.126 256.835 192.88 256.988 194.369L257.719 201.939L257.398 202.125L253.195 194.845L249.342 197.07L256.418 209.328L260.058 207.226C260.058 207.226 261.179 206.436 261.029 204.953L260.244 197.413L260.565 197.227L264.768 204.507L268.622 202.282L261.545 190.025L257.905 192.126Z" fill="#4DB45E"/>
<path fill-rule="evenodd" clip-rule="evenodd" d="M266.472 194.602L270.334 201.293L274.188 199.068L271.932 195.161L276.107 192.75C277.927 191.7 278.798 189.648 278.434 187.696L266.472 194.602Z" fill="#4DB45E"/>
<path fill-rule="evenodd" clip-rule="evenodd" d="M271.287 184.4L262.717 189.348C264.493 191.434 267.325 192.297 269.941 191.6C270.535 191.443 271.119 191.206 271.676 190.884L278.281 187.071C278.179 186.758 278.042 186.459 277.872 186.165C276.54 183.858 273.593 183.069 271.287 184.4Z" fill="url(#paint1_linear)"/>
</g>
<rect x="39.6406" y="51.9996" width="65.2273" height="41" rx="6" transform="rotate(10 39.6406 51.9996)" fill="white"/>
<g clip-path="url(#clip1)">
<path d="M63.8541 84.6064L60.1372 83.951L64.9967 69.9862L68.7133 70.6416L63.8541 84.6064Z" fill="#00579F"/>
<path d="M79.8007 72.9588C79.1188 72.5387 78.0127 72.0125 76.5749 71.759C72.9043 71.1118 69.9745 72.6133 69.4652 75.4089C69.0707 77.4681 70.7495 78.9466 72.0351 79.8831C73.349 80.8401 73.7569 81.3854 73.6463 82.0124C73.4619 82.9729 72.2363 83.2145 71.1661 83.0258C69.6822 82.7641 68.9274 82.395 67.8136 81.6462L67.3647 81.3302L66.2756 84.4653C67.0773 85.0162 68.6212 85.6518 70.286 85.9613C74.186 86.649 77.0648 85.1697 77.6207 82.1929C77.924 80.5591 77.1518 79.1301 75.1911 77.7279C74.007 76.841 73.2891 76.2571 73.4078 75.5841C73.5309 74.975 74.2995 74.4645 75.767 74.7232C76.9807 74.9056 77.8173 75.3526 78.4386 75.7618L78.7479 75.9737L79.8007 72.9588Z" fill="#00579F"/>
<path d="M83.1659 82.7607C83.6176 81.9889 85.359 79.0005 85.359 79.0005C85.3381 79.0284 85.8128 78.2133 86.0907 77.7105L86.132 78.9949C86.132 78.9949 86.2292 82.5598 86.2553 83.3055C85.6744 83.2031 83.9 82.8902 83.1659 82.7607ZM89.3906 74.2874L86.5156 73.7805C85.629 73.6242 84.9096 73.7652 84.3626 74.6306L76.5174 86.839L80.4174 87.5267C80.4174 87.5267 81.3723 85.8657 81.5777 85.5079C82.0055 85.5834 85.7994 86.2523 86.3498 86.3494C86.3675 86.8729 86.4131 88.5839 86.4131 88.5839L89.8545 89.1907L89.3906 74.2874Z" fill="#00579F"/>
<path d="M59.5674 69.0288L54.199 78.1892L54.1518 76.1311C53.8833 73.7185 52.2122 70.8541 50.0755 69.1996L51.193 82.3581L55.1235 83.0512L63.4977 69.7219L59.5674 69.0288Z" fill="#00579F"/>
<path d="M52.5473 67.7911L46.5673 66.7366L46.4549 67.0163C50.9094 69.0317 53.4918 72.4518 54.1517 76.1317L54.0166 69.296C53.9644 68.3402 53.3526 67.9643 52.5473 67.7911Z" fill="#FAA61A"/>
</g>
<g filter="url(#filter0_d)">
<rect x="249.052" y="12.9996" width="98" height="160" rx="10" transform="rotate(45 249.052 12.9996)" fill="url(#paint2_linear)"/>
<rect x="238.446" y="36.3341" width="80" height="35" rx="2" transform="rotate(45 238.446 36.3341)" fill="url(#paint3_linear)"/>
<g filter="url(#filter1_d)">
<rect x="206.626" y="68.1539" width="22" height="13" rx="2" transform="rotate(45 206.626 68.1539)" fill="url(#paint4_linear)"/>
</g>
<g filter="url(#filter2_d)">
<rect x="194.605" y="80.1748" width="22" height="13" rx="2" transform="rotate(45 194.605 80.1748)" fill="url(#paint5_linear)"/>
</g>
<g filter="url(#filter3_d)">
<rect x="182.584" y="92.1956" width="22" height="13" rx="2" transform="rotate(45 182.584 92.1956)" fill="url(#paint6_linear)"/>
</g>
<g filter="url(#filter4_d)">
<path d="M169.15 105.631C169.931 104.85 171.197 104.85 171.978 105.631L184.706 118.359C185.487 119.14 185.487 120.406 184.706 121.187L166.321 139.572C165.54 140.353 164.274 140.353 163.493 139.572L152.179 128.258C150.617 126.696 150.617 124.163 152.179 122.601L169.15 105.631Z" fill="url(#paint7_linear)"/>
</g>
<g filter="url(#filter5_d)">
<rect x="227.132" y="88.66" width="22" height="13" rx="2" transform="rotate(45 227.132 88.66)" fill="url(#paint8_linear)"/>
</g>
<g filter="url(#filter6_d)">
<rect x="215.111" y="100.681" width="22" height="13" rx="2" transform="rotate(45 215.111 100.681)" fill="url(#paint9_linear)"/>
</g>
<g filter="url(#filter7_d)">
<rect x="203.091" y="112.702" width="22" height="13" rx="2" transform="rotate(45 203.091 112.702)" fill="url(#paint10_linear)"/>
</g>
<g filter="url(#filter8_d)">
<rect x="191.07" y="124.723" width="22" height="13" rx="2" transform="rotate(45 191.07 124.723)" fill="url(#paint11_linear)"/>
</g>
<g filter="url(#filter9_d)">
<rect x="179.049" y="136.743" width="22" height="13" rx="2" transform="rotate(45 179.049 136.743)" fill="url(#paint12_linear)"/>
</g>
<g filter="url(#filter10_d)">
<rect x="247.638" y="109.166" width="22" height="13" rx="2" transform="rotate(45 247.638 109.166)" fill="url(#paint13_linear)"/>
</g>
<g filter="url(#filter11_d)">
<rect x="235.617" y="121.187" width="22" height="13" rx="2" transform="rotate(45 235.617 121.187)" fill="url(#paint14_linear)"/>
</g>
<g filter="url(#filter12_d)">
<rect x="223.597" y="133.208" width="22" height="13" rx="2" transform="rotate(45 223.597 133.208)" fill="url(#paint15_linear)"/>
</g>
<g filter="url(#filter13_d)">
<path d="M210.162 146.643C210.943 145.862 212.209 145.862 212.99 146.643L225.718 159.371C226.499 160.152 226.499 161.418 225.718 162.199L208.748 179.17C207.185 180.732 204.653 180.732 203.091 179.17L191.777 167.856C190.996 167.075 190.996 165.809 191.777 165.028L210.162 146.643Z" fill="url(#paint16_linear)"/>
</g>
<g filter="url(#filter14_i)">
<circle cx="208.747" cy="163.613" r="5" transform="rotate(45 208.747 163.613)" stroke="#009646" stroke-width="2"/>
</g>
<path fill-rule="evenodd" clip-rule="evenodd" d="M166.321 122.601L162.785 126.137L164.2 127.551L167.735 124.015L171.271 127.551L172.685 126.137L169.149 122.601L172.685 119.066L171.271 117.651L167.735 121.187L164.2 117.651L162.785 119.066L166.321 122.601Z" fill="#E2427C"/>
<path fill-rule="evenodd" clip-rule="evenodd" d="M186.12 150.885L181.877 146.643L180.463 145.229L179.049 146.643L177.635 148.057L179.049 149.471L180.463 148.057L184.706 152.3L186.12 150.885Z" fill="#FDAE55"/>
<path d="M272.461 62.6584C272.362 62.428 272.391 62.1636 272.538 61.9623C272.619 61.8422 272.708 61.7923 273.143 61.671C274.774 61.216 276.254 60.3396 277.432 59.1301C278.607 57.9868 279.453 56.5686 279.904 54.988C279.992 54.7356 280.08 54.4989 280.191 54.2623C280.361 54.139 280.571 54.0783 280.773 54.1187C281.043 54.2024 281.239 54.4374 281.291 54.7063C281.262 54.9552 281.217 55.1884 281.133 55.429C280.753 56.6561 280.19 57.7922 279.442 58.8219C278.833 59.6114 278.134 60.334 277.364 60.9705C276.339 61.753 275.195 62.3555 273.964 62.7551C273.219 62.9987 272.869 63.0661 272.72 62.9172C272.689 62.8858 272.653 62.8505 272.622 62.8191C272.567 62.7642 272.516 62.7133 272.461 62.6584ZM271.605 60.0951C271.444 59.8098 271.527 59.4445 271.798 59.2675C271.844 59.2212 272.178 59.1302 272.504 59.0237C273.844 58.6093 275.033 57.8203 275.928 56.745C276.58 55.9831 277.06 55.0876 277.341 54.1245C277.581 53.3907 277.642 53.2977 277.996 53.2342C278.358 53.2174 278.671 53.4766 278.72 53.8506C278.593 54.5424 278.369 55.214 278.062 55.85C277.1 57.8161 275.426 59.3332 273.376 60.0965C272.317 60.4973 271.85 60.5016 271.625 60.0758L271.605 60.0951ZM270.703 57.4692C270.623 57.2662 270.641 57.0367 270.749 56.8507C270.826 56.7734 270.926 56.673 271.412 56.5403C273.039 56.0814 274.306 54.8143 274.765 53.187C274.997 52.4453 275.098 52.3449 275.491 52.3672C275.65 52.3567 275.803 52.424 275.905 52.5571C276.156 52.808 276.177 53.069 275.952 53.7172C275.683 54.6532 275.179 55.5018 274.488 56.1856C273.804 56.9005 272.936 57.4234 271.981 57.6965C271.363 57.8905 271.161 57.8812 270.914 57.7042C270.832 57.6375 270.762 57.5513 270.726 57.446L270.703 57.4692ZM269.875 54.9956C269.807 54.8044 269.81 54.5981 269.894 54.4119C269.99 54.2375 270.145 54.1608 270.549 54.0704C271.008 54.0037 271.426 53.7733 271.731 53.4292C272.087 53.1282 272.321 52.7135 272.4 52.251C272.43 52.0877 272.479 51.9285 272.532 51.7733C272.733 51.4867 273.129 51.4196 273.446 51.6438C273.696 51.8169 273.757 52.0547 273.659 52.5444C273.374 53.9667 272.273 55.0678 270.85 55.3531C270.353 55.4506 270.037 55.312 269.879 54.9995L269.875 54.9956Z" fill="#343C45"/>
<g filter="url(#filter15_d)">
<path d="M248.666 73.4791L252.8 69.3454L251.224 67.7698L244.29 68.6743L242.86 70.1041L246.099 73.343L244.64 74.8019L245.992 76.1539L247.451 74.6949L248.297 75.5411L249.513 74.3253L248.666 73.4791ZM245.389 70.2013L245.583 70.0068L249.727 69.4232L249.921 69.6178L247.363 72.1758L245.389 70.2013Z" fill="#F3EBC1"/>
<path d="M252.428 73.0783L253.829 74.4789C254.549 73.8759 255.259 74.0218 255.823 74.5859C256.407 75.1695 256.494 75.8989 255.842 76.5506C255.181 77.212 254.111 77.1925 253.168 77.0467L249.102 76.4631L247.701 77.8637L252.73 82.8922L253.946 81.6764L251.067 78.7974L251.261 78.6029L253.79 78.9141C255.084 79.0795 256.407 78.8071 257.282 77.9318C258.692 76.5214 258.488 74.761 257.107 73.3798C255.648 71.9209 253.917 71.7263 252.428 73.0783Z" fill="#F3EBC1"/>
<path d="M263.209 79.4823C261.702 77.9748 259.484 77.8775 257.004 80.3577C254.533 82.8282 254.631 85.0458 256.138 86.5534C257.646 88.061 259.864 88.1583 262.334 85.6878C264.814 83.2075 264.717 80.9899 263.209 79.4823ZM257.383 85.3084C256.362 84.2872 257.325 82.8574 258.414 81.768C259.513 80.669 260.943 79.7061 261.964 80.7273C262.995 81.7583 262.033 83.1881 260.933 84.2872C259.844 85.3765 258.414 86.3394 257.383 85.3084Z" fill="#F3EBC1"/>
<path d="M261.324 91.4858L262.802 90.0074L261.304 88.5096L259.826 89.988L261.324 91.4858Z" fill="#F3EBC1"/>
<path d="M271.862 88.1354C270.355 86.6278 268.137 86.5305 265.657 89.0108C263.187 91.4813 263.284 93.6989 264.791 95.2065C266.299 96.714 268.517 96.8113 270.987 94.3408C273.467 91.8606 273.37 89.643 271.862 88.1354ZM266.036 93.9615C265.015 92.9402 265.978 91.5104 267.067 90.4211C268.166 89.322 269.596 88.3591 270.617 89.3804C271.648 90.4114 270.686 91.8411 269.586 92.9402C268.497 94.0296 267.067 94.9925 266.036 93.9615Z" fill="#F3EBC1"/>
<path d="M278.15 94.4233C276.643 92.9157 274.425 92.8185 271.945 95.2987C269.474 97.7692 269.572 99.9868 271.079 101.494C272.587 103.002 274.805 103.099 277.275 100.629C279.755 98.1485 279.658 95.9309 278.15 94.4233ZM272.324 100.249C271.303 99.2282 272.266 97.7984 273.355 96.709C274.454 95.61 275.884 94.647 276.905 95.6683C277.936 96.6993 276.973 98.1291 275.874 99.2282C274.785 100.318 273.355 101.28 272.324 100.249Z" fill="#F3EBC1"/>
</g>
</g>
<rect x="80.175" y="86.9996" width="164.286" height="95" rx="12" transform="rotate(45 80.175 86.9996)" fill="url(#paint17_linear)"/>
<rect x="80.175" y="107.203" width="31.4286" height="20.7143" rx="4" transform="rotate(45 80.175 107.203)" fill="#BF215A"/>
<path fill-rule="evenodd" clip-rule="evenodd" d="M153.411 210.743C157.595 214.928 164.379 214.928 168.563 210.743C172.748 206.559 172.748 199.775 168.563 195.591C164.379 191.407 157.595 191.407 153.411 195.591C149.227 199.775 149.227 206.559 153.411 210.743ZM157.957 184.984C159.288 186.315 160.195 187.909 160.679 189.599C157.309 189.675 153.962 190.999 151.391 193.571C148.819 196.142 147.495 199.49 147.419 202.86C145.729 202.375 144.135 201.468 142.804 200.137C138.62 195.953 138.62 189.169 142.804 184.984C146.989 180.8 153.773 180.8 157.957 184.984Z" fill="#EF85AB"/>
<path fill-rule="evenodd" clip-rule="evenodd" d="M0 200C0 260.015 73.9233 308.695 165 308.695C256.179 308.695 330 260.015 330 200C329.998 212.006 256.126 221.738 165 221.738C73.8745 221.738 0.00237058 212.006 0 200Z" fill="url(#paint18_linear)"/>
<defs>
<filter id="filter0_d" x="120.058" y="1.14172" width="214.149" height="214.149" filterUnits="userSpaceOnUse" color-interpolation-filters="sRGB">
<feFlood flood-opacity="0" result="BackgroundImageFix"/>
<feColorMatrix in="SourceAlpha" type="matrix" values="0 0 0 0 0 0 0 0 0 0 0 0 0 0 0 0 0 0 127 0"/>
<feOffset dy="4"/>
<feGaussianBlur stdDeviation="10"/>
<feColorMatrix type="matrix" values="0 0 0 0 0.180392 0 0 0 0 0.211765 0 0 0 0 0.243137 0 0 0 0.2 0"/>
<feBlend mode="normal" in2="BackgroundImageFix" result="effect1_dropShadow"/>
<feBlend mode="normal" in="SourceGraphic" in2="effect1_dropShadow" result="shape"/>
</filter>
<filter id="filter1_d" x="198.262" y="68.9823" width="23.0919" height="24.0919" filterUnits="userSpaceOnUse" color-interpolation-filters="sRGB">
<feFlood flood-opacity="0" result="BackgroundImageFix"/>
<feColorMatrix in="SourceAlpha" type="matrix" values="0 0 0 0 0 0 0 0 0 0 0 0 0 0 0 0 0 0 127 0"/>
<feOffset dy="1"/>
<feColorMatrix type="matrix" values="0 0 0 0 0.670139 0 0 0 0 0.733997 0 0 0 0 0.833333 0 0 0 1 0"/>
<feBlend mode="normal" in2="BackgroundImageFix" result="effect1_dropShadow"/>
<feBlend mode="normal" in="SourceGraphic" in2="effect1_dropShadow" result="shape"/>
</filter>
<filter id="filter2_d" x="186.241" y="81.0032" width="23.0919" height="24.0919" filterUnits="userSpaceOnUse" color-interpolation-filters="sRGB">
<feFlood flood-opacity="0" result="BackgroundImageFix"/>
<feColorMatrix in="SourceAlpha" type="matrix" values="0 0 0 0 0 0 0 0 0 0 0 0 0 0 0 0 0 0 127 0"/>
<feOffset dy="1"/>
<feColorMatrix type="matrix" values="0 0 0 0 0.670139 0 0 0 0 0.733997 0 0 0 0 0.833333 0 0 0 1 0"/>
<feBlend mode="normal" in2="BackgroundImageFix" result="effect1_dropShadow"/>
<feBlend mode="normal" in="SourceGraphic" in2="effect1_dropShadow" result="shape"/>
</filter>
<filter id="filter3_d" x="174.22" y="93.0239" width="23.0919" height="24.0919" filterUnits="userSpaceOnUse" color-interpolation-filters="sRGB">
<feFlood flood-opacity="0" result="BackgroundImageFix"/>
<feColorMatrix in="SourceAlpha" type="matrix" values="0 0 0 0 0 0 0 0 0 0 0 0 0 0 0 0 0 0 127 0"/>
<feOffset dy="1"/>
<feColorMatrix type="matrix" values="0 0 0 0 0.670139 0 0 0 0 0.733997 0 0 0 0 0.833333 0 0 0 1 0"/>
<feBlend mode="normal" in2="BackgroundImageFix" result="effect1_dropShadow"/>
<feBlend mode="normal" in="SourceGraphic" in2="effect1_dropShadow" result="shape"/>
</filter>
<filter id="filter4_d" x="151.007" y="105.045" width="34.2843" height="36.1127" filterUnits="userSpaceOnUse" color-interpolation-filters="sRGB">
<feFlood flood-opacity="0" result="BackgroundImageFix"/>
<feColorMatrix in="SourceAlpha" type="matrix" values="0 0 0 0 0 0 0 0 0 0 0 0 0 0 0 0 0 0 127 0"/>
<feOffset dy="1"/>
<feColorMatrix type="matrix" values="0 0 0 0 0.670139 0 0 0 0 0.733997 0 0 0 0 0.833333 0 0 0 1 0"/>
<feBlend mode="normal" in2="BackgroundImageFix" result="effect1_dropShadow"/>
<feBlend mode="normal" in="SourceGraphic" in2="effect1_dropShadow" result="shape"/>
</filter>
<filter id="filter5_d" x="218.768" y="89.4884" width="23.0919" height="24.0919" filterUnits="userSpaceOnUse" color-interpolation-filters="sRGB">
<feFlood flood-opacity="0" result="BackgroundImageFix"/>
<feColorMatrix in="SourceAlpha" type="matrix" values="0 0 0 0 0 0 0 0 0 0 0 0 0 0 0 0 0 0 127 0"/>
<feOffset dy="1"/>
<feColorMatrix type="matrix" values="0 0 0 0 0.670139 0 0 0 0 0.733997 0 0 0 0 0.833333 0 0 0 1 0"/>
<feBlend mode="normal" in2="BackgroundImageFix" result="effect1_dropShadow"/>
<feBlend mode="normal" in="SourceGraphic" in2="effect1_dropShadow" result="shape"/>
</filter>
<filter id="filter6_d" x="206.747" y="101.509" width="23.0919" height="24.0919" filterUnits="userSpaceOnUse" color-interpolation-filters="sRGB">
<feFlood flood-opacity="0" result="BackgroundImageFix"/>
<feColorMatrix in="SourceAlpha" type="matrix" values="0 0 0 0 0 0 0 0 0 0 0 0 0 0 0 0 0 0 127 0"/>
<feOffset dy="1"/>
<feColorMatrix type="matrix" values="0 0 0 0 0.670139 0 0 0 0 0.733997 0 0 0 0 0.833333 0 0 0 1 0"/>
<feBlend mode="normal" in2="BackgroundImageFix" result="effect1_dropShadow"/>
<feBlend mode="normal" in="SourceGraphic" in2="effect1_dropShadow" result="shape"/>
</filter>
<filter id="filter7_d" x="194.727" y="113.53" width="23.0919" height="24.0919" filterUnits="userSpaceOnUse" color-interpolation-filters="sRGB">
<feFlood flood-opacity="0" result="BackgroundImageFix"/>
<feColorMatrix in="SourceAlpha" type="matrix" values="0 0 0 0 0 0 0 0 0 0 0 0 0 0 0 0 0 0 127 0"/>
<feOffset dy="1"/>
<feColorMatrix type="matrix" values="0 0 0 0 0.670139 0 0 0 0 0.733997 0 0 0 0 0.833333 0 0 0 1 0"/>
<feBlend mode="normal" in2="BackgroundImageFix" result="effect1_dropShadow"/>
<feBlend mode="normal" in="SourceGraphic" in2="effect1_dropShadow" result="shape"/>
</filter>
<filter id="filter8_d" x="182.706" y="125.551" width="23.0919" height="24.0919" filterUnits="userSpaceOnUse" color-interpolation-filters="sRGB">
<feFlood flood-opacity="0" result="BackgroundImageFix"/>
<feColorMatrix in="SourceAlpha" type="matrix" values="0 0 0 0 0 0 0 0 0 0 0 0 0 0 0 0 0 0 127 0"/>
<feOffset dy="1"/>
<feColorMatrix type="matrix" values="0 0 0 0 0.670139 0 0 0 0 0.733997 0 0 0 0 0.833333 0 0 0 1 0"/>
<feBlend mode="normal" in2="BackgroundImageFix" result="effect1_dropShadow"/>
<feBlend mode="normal" in="SourceGraphic" in2="effect1_dropShadow" result="shape"/>
</filter>
<filter id="filter9_d" x="170.685" y="137.572" width="23.0919" height="24.0919" filterUnits="userSpaceOnUse" color-interpolation-filters="sRGB">
<feFlood flood-opacity="0" result="BackgroundImageFix"/>
<feColorMatrix in="SourceAlpha" type="matrix" values="0 0 0 0 0 0 0 0 0 0 0 0 0 0 0 0 0 0 127 0"/>
<feOffset dy="1"/>
<feColorMatrix type="matrix" values="0 0 0 0 0.670139 0 0 0 0 0.733997 0 0 0 0 0.833333 0 0 0 1 0"/>
<feBlend mode="normal" in2="BackgroundImageFix" result="effect1_dropShadow"/>
<feBlend mode="normal" in="SourceGraphic" in2="effect1_dropShadow" result="shape"/>
</filter>
<filter id="filter10_d" x="239.274" y="109.995" width="23.0919" height="24.0919" filterUnits="userSpaceOnUse" color-interpolation-filters="sRGB">
<feFlood flood-opacity="0" result="BackgroundImageFix"/>
<feColorMatrix in="SourceAlpha" type="matrix" values="0 0 0 0 0 0 0 0 0 0 0 0 0 0 0 0 0 0 127 0"/>
<feOffset dy="1"/>
<feColorMatrix type="matrix" values="0 0 0 0 0.670139 0 0 0 0 0.733997 0 0 0 0 0.833333 0 0 0 1 0"/>
<feBlend mode="normal" in2="BackgroundImageFix" result="effect1_dropShadow"/>
<feBlend mode="normal" in="SourceGraphic" in2="effect1_dropShadow" result="shape"/>
</filter>
<filter id="filter11_d" x="227.253" y="122.015" width="23.0919" height="24.0919" filterUnits="userSpaceOnUse" color-interpolation-filters="sRGB">
<feFlood flood-opacity="0" result="BackgroundImageFix"/>
<feColorMatrix in="SourceAlpha" type="matrix" values="0 0 0 0 0 0 0 0 0 0 0 0 0 0 0 0 0 0 127 0"/>
<feOffset dy="1"/>
<feColorMatrix type="matrix" values="0 0 0 0 0.670139 0 0 0 0 0.733997 0 0 0 0 0.833333 0 0 0 1 0"/>
<feBlend mode="normal" in2="BackgroundImageFix" result="effect1_dropShadow"/>
<feBlend mode="normal" in="SourceGraphic" in2="effect1_dropShadow" result="shape"/>
</filter>
<filter id="filter12_d" x="215.233" y="134.036" width="23.0919" height="24.0919" filterUnits="userSpaceOnUse" color-interpolation-filters="sRGB">
<feFlood flood-opacity="0" result="BackgroundImageFix"/>
<feColorMatrix in="SourceAlpha" type="matrix" values="0 0 0 0 0 0 0 0 0 0 0 0 0 0 0 0 0 0 127 0"/>
<feOffset dy="1"/>
<feColorMatrix type="matrix" values="0 0 0 0 0.670139 0 0 0 0 0.733997 0 0 0 0 0.833333 0 0 0 1 0"/>
<feBlend mode="normal" in2="BackgroundImageFix" result="effect1_dropShadow"/>
<feBlend mode="normal" in="SourceGraphic" in2="effect1_dropShadow" result="shape"/>
</filter>
<filter id="filter13_d" x="191.191" y="146.057" width="35.1127" height="35.2843" filterUnits="userSpaceOnUse" color-interpolation-filters="sRGB">
<feFlood flood-opacity="0" result="BackgroundImageFix"/>
<feColorMatrix in="SourceAlpha" type="matrix" values="0 0 0 0 0 0 0 0 0 0 0 0 0 0 0 0 0 0 127 0"/>
<feOffset dy="1"/>
<feColorMatrix type="matrix" values="0 0 0 0 0.670139 0 0 0 0 0.733997 0 0 0 0 0.833333 0 0 0 1 0"/>
<feBlend mode="normal" in2="BackgroundImageFix" result="effect1_dropShadow"/>
<feBlend mode="normal" in="SourceGraphic" in2="effect1_dropShadow" result="shape"/>
</filter>
<filter id="filter14_i" x="202.747" y="157.613" width="12" height="13" filterUnits="userSpaceOnUse" color-interpolation-filters="sRGB">
<feFlood flood-opacity="0" result="BackgroundImageFix"/>
<feBlend mode="normal" in="SourceGraphic" in2="BackgroundImageFix" result="shape"/>
<feColorMatrix in="SourceAlpha" type="matrix" values="0 0 0 0 0 0 0 0 0 0 0 0 0 0 0 0 0 0 127 0" result="hardAlpha"/>
<feOffset dy="1"/>
<feGaussianBlur stdDeviation="0.5"/>
<feComposite in2="hardAlpha" operator="arithmetic" k2="-1" k3="1"/>
<feColorMatrix type="matrix" values="0 0 0 0 0 0 0 0 0 0.588235 0 0 0 0 0.27451 0 0 0 1 0"/>
<feBlend mode="normal" in2="shape" result="effect1_innerShadow"/>
</filter>
<filter id="filter15_d" x="238.86" y="63.7698" width="44.3627" height="42.7977" filterUnits="userSpaceOnUse" color-interpolation-filters="sRGB">
<feFlood flood-opacity="0" result="BackgroundImageFix"/>
<feColorMatrix in="SourceAlpha" type="matrix" values="0 0 0 0 0 0 0 0 0 0 0 0 0 0 0 0 0 0 127 0"/>
<feOffset/>
<feGaussianBlur stdDeviation="2"/>
<feColorMatrix type="matrix" values="0 0 0 0 0.952941 0 0 0 0 0.921569 0 0 0 0 0.756863 0 0 0 0.2 0"/>
<feBlend mode="normal" in2="BackgroundImageFix" result="effect1_dropShadow"/>
<feBlend mode="normal" in="SourceGraphic" in2="effect1_dropShadow" result="shape"/>
</filter>
<linearGradient id="paint0_linear" x1="-2.30502e-06" y1="200" x2="330" y2="200" gradientUnits="userSpaceOnUse">
<stop stop-color="#B8C4D4"/>
<stop offset="1" stop-color="#EAEDF3"/>
</linearGradient>
<linearGradient id="paint1_linear" x1="264.171" y1="191.863" x2="276.914" y2="184.506" gradientUnits="userSpaceOnUse">
<stop offset="0.3" stop-color="#00B4E6"/>
<stop offset="1" stop-color="#088CCB"/>
</linearGradient>
<linearGradient id="paint2_linear" x1="298.052" y1="12.9996" x2="298.052" y2="173" gradientUnits="userSpaceOnUse">
<stop stop-color="#D9E5F7"/>
<stop offset="1" stop-color="#C5D4E7"/>
</linearGradient>
<linearGradient id="paint3_linear" x1="257.446" y1="36.3341" x2="297.744" y2="90.2411" gradientUnits="userSpaceOnUse">
<stop stop-color="#4D5664"/>
<stop offset="1" stop-color="#2E363E"/>
</linearGradient>
<linearGradient id="paint4_linear" x1="217.626" y1="68.1539" x2="217.626" y2="81.1539" gradientUnits="userSpaceOnUse">
<stop stop-color="#ECF4FF"/>
<stop offset="1" stop-color="#DCE6F4"/>
</linearGradient>
<linearGradient id="paint5_linear" x1="205.605" y1="80.1748" x2="205.605" y2="93.1748" gradientUnits="userSpaceOnUse">
<stop stop-color="#ECF4FF"/>
<stop offset="1" stop-color="#DCE6F4"/>
</linearGradient>
<linearGradient id="paint6_linear" x1="193.584" y1="92.1956" x2="193.584" y2="105.196" gradientUnits="userSpaceOnUse">
<stop stop-color="#ECF4FF"/>
<stop offset="1" stop-color="#DCE6F4"/>
</linearGradient>
<linearGradient id="paint7_linear" x1="178.342" y1="111.995" x2="157.129" y2="133.208" gradientUnits="userSpaceOnUse">
<stop stop-color="#ECF4FF"/>
<stop offset="1" stop-color="#DCE6F4"/>
</linearGradient>
<linearGradient id="paint8_linear" x1="238.132" y1="88.66" x2="238.132" y2="101.66" gradientUnits="userSpaceOnUse">
<stop stop-color="#ECF4FF"/>
<stop offset="1" stop-color="#DCE6F4"/>
</linearGradient>
<linearGradient id="paint9_linear" x1="226.111" y1="100.681" x2="226.111" y2="113.681" gradientUnits="userSpaceOnUse">
<stop stop-color="#ECF4FF"/>
<stop offset="1" stop-color="#DCE6F4"/>
</linearGradient>
<linearGradient id="paint10_linear" x1="214.091" y1="112.702" x2="214.091" y2="125.702" gradientUnits="userSpaceOnUse">
<stop stop-color="#ECF4FF"/>
<stop offset="1" stop-color="#DCE6F4"/>
</linearGradient>
<linearGradient id="paint11_linear" x1="202.07" y1="124.723" x2="202.07" y2="137.723" gradientUnits="userSpaceOnUse">
<stop stop-color="#ECF4FF"/>
<stop offset="1" stop-color="#DCE6F4"/>
</linearGradient>
<linearGradient id="paint12_linear" x1="190.049" y1="136.743" x2="190.049" y2="149.743" gradientUnits="userSpaceOnUse">
<stop stop-color="#ECF4FF"/>
<stop offset="1" stop-color="#DCE6F4"/>
</linearGradient>
<linearGradient id="paint13_linear" x1="258.638" y1="109.166" x2="258.638" y2="122.166" gradientUnits="userSpaceOnUse">
<stop stop-color="#ECF4FF"/>
<stop offset="1" stop-color="#DCE6F4"/>
</linearGradient>
<linearGradient id="paint14_linear" x1="246.617" y1="121.187" x2="246.617" y2="134.187" gradientUnits="userSpaceOnUse">
<stop stop-color="#ECF4FF"/>
<stop offset="1" stop-color="#DCE6F4"/>
</linearGradient>
<linearGradient id="paint15_linear" x1="234.597" y1="133.208" x2="234.597" y2="146.208" gradientUnits="userSpaceOnUse">
<stop stop-color="#ECF4FF"/>
<stop offset="1" stop-color="#DCE6F4"/>
</linearGradient>
<linearGradient id="paint16_linear" x1="219.354" y1="153.007" x2="198.141" y2="174.22" gradientUnits="userSpaceOnUse">
<stop stop-color="#ECF4FF"/>
<stop offset="1" stop-color="#DCE6F4"/>
</linearGradient>
<linearGradient id="paint17_linear" x1="80.175" y1="91.0711" x2="240.083" y2="189.138" gradientUnits="userSpaceOnUse">
<stop stop-color="#EC4883"/>
<stop offset="1" stop-color="#D83B74"/>
</linearGradient>
<linearGradient id="paint18_linear" x1="330" y1="240.274" x2="-6.38371e-06" y2="240.274" gradientUnits="userSpaceOnUse">
<stop stop-color="#B8C4D4"/>
<stop offset="1" stop-color="#EAEDF3"/>
</linearGradient>
<clipPath id="clip0">
<rect width="50" height="14.1533" fill="white" transform="translate(232.16 206.99) rotate(-30)"/>
</clipPath>
<clipPath id="clip1">
<rect width="46.5909" height="15.0786" fill="white" transform="translate(46.552 66.4652) rotate(10)"/>
</clipPath>
</defs>
</svg>
