<svg width="875" height="145" viewBox="0 0 875 145" fill="none" xmlns="http://www.w3.org/2000/svg">
<path d="M68.1892 0C23.9054 0 0 31.3514 0 72.5C0 113.649 23.9054 145 68.1892 145C112.473 145 136.378 113.649 136.378 72.5C136.378 31.3514 112.473 0 68.1892 0ZM68.1892 118.939C42.1284 118.939 29.9797 98.3649 29.9797 72.5C29.9797 46.6351 42.1284 26.0608 68.1892 26.0608C94.4459 26.0608 106.399 46.6351 106.399 72.5C106.399 98.3649 94.4459 118.939 68.1892 118.939Z" fill="#2E363E"/>
<path d="M155.962 113.845V142.453H161.057C194.564 142.453 210.435 131.284 210.435 66.4257V28.6081H255.895V142.453H285.287V2.5473H182.807V64.4662C182.807 109.338 176.537 113.845 160.861 113.845H155.962Z" fill="#2E363E"/>
<path d="M321.259 2.5473V142.453H358.097L411.982 42.5203H415.901V142.453H443.333V2.5473H405.124L352.415 100.324H348.496V2.5473H321.259Z" fill="#2E363E"/>
<path d="M576.376 71.7162V67.7973C585.389 63.2905 591.072 52.3176 591.072 39.5811C591.072 19.5946 575.984 2.5473 545.024 2.5473H479.383V142.453H546.788C579.903 142.453 594.991 125.209 594.991 101.892C594.991 87.9797 586.369 75.8311 576.376 71.7162ZM541.497 58H508.579V26.8446H541.302C554.43 26.8446 561.092 31.9392 561.092 42.3243C561.092 52.9054 554.626 58 541.497 58ZM542.477 117.568H508.579V82.4932H542.869C557.761 82.4932 565.011 88.5676 565.011 100.324C565.011 112.081 556.977 117.568 542.477 117.568Z" fill="#2E363E"/>
<path d="M685.25 116.784H656.25V75.6351H685.25C704.844 75.6351 711.898 82.8851 711.898 96.0135C711.898 109.338 704.844 116.784 685.25 116.784ZM690.148 142.453C722.871 142.453 741.878 125.014 741.878 96.0135C741.878 67.4054 722.871 49.9662 690.148 49.9662H656.25V2.5473H627.054V142.453H690.148Z" fill="#2E363E"/>
<path d="M798.227 116.392V83.473H856.031V58H798.227V28.6081H872.491V2.5473H769.031V142.453H874.646V116.392H798.227Z" fill="#2E363E"/>
</svg>
