<svg width="254" height="253" viewBox="0 0 254 253" fill="none" xmlns="http://www.w3.org/2000/svg">
<path d="M254 169.697C254 178.902 198.036 186.364 129 186.364C59.9644 186.364 4 178.902 4 169.697C4 160.492 59.9644 153.03 129 153.03C198.036 153.03 254 160.492 254 169.697Z" fill="url(#paint0_linear_2825_11225)"/>
<path d="M100.37 127.982C101.87 126.482 102.62 125.732 103.485 125.451C104.246 125.204 105.065 125.204 105.826 125.451C106.691 125.732 107.441 126.482 108.941 127.982L148.582 167.623C150.082 169.123 150.832 169.873 151.113 170.738C151.36 171.499 151.36 172.318 151.113 173.079C150.832 173.944 150.082 174.694 148.582 176.194L114.298 210.478C112.798 211.978 112.048 212.728 111.183 213.009C110.422 213.256 109.602 213.256 108.842 213.009C107.977 212.728 107.227 211.978 105.727 210.478L66.0858 170.837C64.5857 169.337 63.8357 168.587 63.5547 167.722C63.3075 166.961 63.3075 166.142 63.5547 165.381C63.8357 164.516 64.5857 163.766 66.0858 162.266L100.37 127.982Z" fill="url(#paint1_linear_2825_11225)"/>
<g filter="url(#filter0_d_2825_11225)">
<path d="M123.404 142.446L134.118 153.16L123.94 163.338C123.644 163.633 123.164 163.633 122.869 163.338L113.226 153.695C112.93 153.399 112.93 152.92 113.226 152.624L123.404 142.446Z" fill="url(#paint2_linear_2825_11225)"/>
</g>
<path opacity="0.2" fill-rule="evenodd" clip-rule="evenodd" d="M78.4063 159.588L77.335 158.516L69.8353 166.016L70.9067 167.087L78.4063 159.588ZM94.4769 175.658L93.4056 174.587L85.906 182.087L86.9773 183.158L94.4769 175.658ZM78.942 160.123L79.4777 160.659L73.5852 166.552L73.0495 166.016L78.942 160.123ZM81.0848 162.266L80.0134 161.195L74.1208 167.087L75.1922 168.159L81.0848 162.266ZM84.8346 166.016L85.906 167.087L80.0134 172.98L78.942 171.909L84.8346 166.016ZM90.7271 171.909L89.6558 170.837L83.7632 176.73L84.8346 177.801L90.7271 171.909ZM81.6205 162.802L82.1561 163.338L76.2636 169.23L75.7279 168.694L81.6205 162.802ZM83.2275 164.409L82.6918 163.873L76.7993 169.766L77.335 170.301L83.2275 164.409ZM87.513 168.694L88.0487 169.23L82.1561 175.123L81.6205 174.587L87.513 168.694ZM91.7985 172.98L91.2628 172.444L85.3703 178.337L85.906 178.872L91.7985 172.98ZM83.7632 164.945L84.2989 165.48L78.4063 171.373L77.8706 170.837L83.7632 164.945ZM89.1201 170.301L88.5844 169.766L82.6918 175.658L83.2275 176.194L89.1201 170.301ZM92.3342 173.516L92.8699 174.051L86.9773 179.944L86.4416 179.408L92.3342 173.516ZM86.9773 168.159L86.4416 167.623L78.942 175.123L79.4777 175.658L86.9773 168.159Z" fill="black"/>
<path opacity="0.2" fill-rule="evenodd" clip-rule="evenodd" d="M111.083 198.693L109.476 197.086L115.369 196.55L114.833 202.443L113.226 200.836L110.548 203.514L108.405 201.371L111.083 198.693Z" fill="black"/>
<path opacity="0.2" fill-rule="evenodd" clip-rule="evenodd" d="M104.656 192.265L103.049 190.657L108.941 190.122L108.405 196.014L106.798 194.407L104.12 197.086L101.977 194.943L104.656 192.265Z" fill="black"/>
<path d="M47.8727 75.4847C49.3728 73.9847 50.1228 73.2346 50.9877 72.9536C51.7485 72.7064 52.568 72.7064 53.3287 72.9536C54.1936 73.2346 54.9436 73.9847 56.4437 75.4847L96.0845 115.126C97.5846 116.626 98.3346 117.376 98.6156 118.241C98.8628 119.001 98.8628 119.821 98.6156 120.582C98.3346 121.446 97.5846 122.196 96.0845 123.697L61.8006 157.981C60.3005 159.481 59.5505 160.231 58.6856 160.512C57.9248 160.759 57.1053 160.759 56.3446 160.512C55.4797 160.231 54.7296 159.481 53.2296 157.981L13.5887 118.34C12.0887 116.84 11.3386 116.09 11.0576 115.225C10.8104 114.464 10.8104 113.644 11.0576 112.884C11.3386 112.019 12.0887 111.269 13.5887 109.769L47.8727 75.4847Z" fill="url(#paint3_linear_2825_11225)"/>
<g filter="url(#filter1_d_2825_11225)">
<path d="M70.9072 89.9482L81.621 100.662L71.4429 110.84C71.1471 111.136 70.6674 111.136 70.3715 110.84L60.7292 101.198C60.4333 100.902 60.4333 100.422 60.7292 100.126L70.9072 89.9482Z" fill="url(#paint4_linear_2825_11225)"/>
</g>
<path opacity="0.2" fill-rule="evenodd" clip-rule="evenodd" d="M25.9093 107.09L24.8379 106.019L17.3383 113.518L18.4096 114.59L25.9093 107.09ZM41.9799 123.161L40.9085 122.089L33.4089 129.589L34.4803 130.66L41.9799 123.161ZM26.445 107.626L26.9806 108.162L21.0881 114.054L20.5524 113.518L26.445 107.626ZM28.5877 109.769L27.5163 108.697L21.6238 114.59L22.6951 115.661L28.5877 109.769ZM32.3375 113.518L33.4089 114.59L27.5163 120.482L26.445 119.411L32.3375 113.518ZM38.2301 119.411L37.1587 118.34L31.2661 124.232L32.3375 125.304L38.2301 119.411ZM29.1234 110.304L29.6591 110.84L23.7665 116.733L23.2308 116.197L29.1234 110.304ZM30.7304 111.911L30.1948 111.376L24.3022 117.268L24.8379 117.804L30.7304 111.911ZM35.0159 116.197L35.5516 116.733L29.6591 122.625L29.1234 122.089L35.0159 116.197ZM39.3014 120.482L38.7658 119.947L32.8732 125.839L33.4089 126.375L39.3014 120.482ZM31.2661 112.447L31.8018 112.983L25.9093 118.875L25.3736 118.34L31.2661 112.447ZM36.623 117.804L36.0873 117.268L30.1948 123.161L30.7304 123.696L36.623 117.804ZM39.8371 121.018L40.3728 121.554L34.4803 127.446L33.9446 126.911L39.8371 121.018ZM34.4803 115.661L33.9446 115.125L26.445 122.625L26.9806 123.161L34.4803 115.661Z" fill="black"/>
<path opacity="0.2" fill-rule="evenodd" clip-rule="evenodd" d="M58.5863 146.195L56.9792 144.588L62.8718 144.052L62.3361 149.945L60.729 148.338L58.0506 151.016L55.9079 148.874L58.5863 146.195Z" fill="black"/>
<path opacity="0.2" fill-rule="evenodd" clip-rule="evenodd" d="M52.1586 139.767L50.5515 138.16L56.4441 137.624L55.9084 143.517L54.3013 141.91L51.6229 144.588L49.4801 142.445L52.1586 139.767Z" fill="black"/>
<path fill-rule="evenodd" clip-rule="evenodd" d="M4 169.697C4 215.163 60.0025 252.042 129 252.042C198.075 252.042 254 215.163 254 169.697C253.998 178.792 198.034 186.166 129 186.166C59.9655 186.166 4.0018 178.792 4 169.697Z" fill="url(#paint5_linear_2825_11225)"/>
<g filter="url(#filter2_d_2825_11225)">
<path d="M48.3591 78.6609C49.5675 89.0508 42.1245 98.4531 31.7346 99.6616C21.3447 100.87 11.9424 93.427 10.734 83.0371C9.52553 72.6472 16.9686 63.2449 27.3585 62.0364C37.7484 60.828 47.1507 68.271 48.3591 78.6609Z" fill="url(#paint6_linear_2825_11225)"/>
</g>
<path d="M19.023 82.1753L20.619 80.3149C22.8281 81.0838 24.2441 81.6987 26.7891 83.1012C30.6246 77.5727 33.2493 74.6887 38.284 70.6804L39.0214 71.9507C34.9994 76.377 32.2278 81.1091 28.4922 90.1237C25.1816 87.034 22.984 85.0737 19.023 82.1753Z" fill="white"/>
<path d="M192.508 35.8437C195.508 32.8436 197.008 31.3435 198.738 30.7815C200.26 30.2871 201.899 30.2871 203.42 30.7815C205.15 31.3435 206.65 32.8436 209.65 35.8437L240.72 66.9135C243.72 69.9137 245.22 71.4137 245.782 73.1435C246.277 74.665 246.277 76.304 245.782 77.8256C245.22 79.5553 243.72 81.0554 240.72 84.0555L166.795 157.98C163.795 160.98 162.295 162.48 160.565 163.043C159.044 163.537 157.405 163.537 155.883 163.043C154.153 162.481 152.653 160.98 149.653 157.98L118.583 126.91C115.583 123.91 114.083 122.41 113.521 120.681C113.027 119.159 113.027 117.52 113.521 115.998C114.083 114.269 115.583 112.769 118.583 109.768L192.508 35.8437Z" fill="url(#paint7_linear_2825_11225)"/>
<path opacity="0.2" d="M193.472 38.0937C195.572 35.9936 196.622 34.9436 197.833 34.5501C198.898 34.2041 200.045 34.2041 201.11 34.5501C202.321 34.9436 203.371 35.9936 205.471 38.0937L238.47 71.092C240.57 73.1921 241.62 74.2421 242.013 75.453C242.359 76.518 242.359 77.6653 242.013 78.7304C241.62 79.9413 240.57 80.9913 238.47 83.0914L164.223 157.338C162.123 159.438 161.073 160.488 159.863 160.881C158.797 161.227 157.65 161.227 156.585 160.881C155.374 160.488 154.324 159.438 152.224 157.338L119.226 124.339C117.126 122.239 116.076 121.189 115.682 119.978C115.336 118.913 115.336 117.766 115.682 116.701C116.076 115.49 117.126 114.44 119.226 112.34L193.472 38.0937Z" fill="white"/>
<path opacity="0.2" d="M196.794 41.2005C197.386 40.6088 198.345 40.6088 198.937 41.2005L218.221 60.4853C218.813 61.077 218.813 62.0363 218.221 62.628C217.63 63.2197 216.67 63.2197 216.079 62.628L196.794 43.3433C196.202 42.7516 196.202 41.7922 196.794 41.2005Z" fill="white"/>
<path opacity="0.2" d="M192.509 45.486C193.1 44.8943 194.06 44.8943 194.651 45.486L206.437 57.2712C207.028 57.8629 207.028 58.8222 206.437 59.4139C205.845 60.0056 204.886 60.0056 204.294 59.4139L192.509 47.6288C191.917 47.0371 191.917 46.0778 192.509 45.486Z" fill="white"/>
<mask id="mask0_2825_11225" style="mask-type:alpha" maskUnits="userSpaceOnUse" x="115" y="34" width="128" height="127">
<path d="M193.472 38.0937C195.572 35.9936 196.622 34.9436 197.833 34.5501C198.898 34.2041 200.045 34.2041 201.11 34.5501C202.321 34.9436 203.371 35.9936 205.471 38.0937L238.47 71.092C240.57 73.1921 241.62 74.2421 242.013 75.453C242.359 76.518 242.359 77.6653 242.013 78.7304C241.62 79.9413 240.57 80.9913 238.47 83.0914L164.759 156.802C162.659 158.902 161.609 159.952 160.398 160.345C159.333 160.692 158.186 160.692 157.121 160.345C155.91 159.952 154.86 158.902 152.76 156.802L119.761 123.804C117.661 121.704 116.611 120.653 116.218 119.443C115.872 118.378 115.872 117.23 116.218 116.165C116.611 114.954 117.661 113.904 119.761 111.804L193.472 38.0937Z" fill="white"/>
</mask>
<g mask="url(#mask0_2825_11225)">
<path d="M180.187 67.4494C172.867 66.5711 168.58 64.2352 165.991 62.3603L125.815 102.537L173.491 150.213L228.399 95.305C214.203 97.1799 205.096 88.0733 200.007 79.2345C194.918 70.3956 186.883 68.2529 180.187 67.4494Z" fill="url(#paint8_linear_2825_11225)"/>
<path fill-rule="evenodd" clip-rule="evenodd" d="M228.548 96.4315C213.68 98.3951 204.209 88.8092 199.023 79.8014C194.202 71.4281 186.618 69.3654 180.052 68.5775C172.527 67.6746 168.059 65.2605 165.325 63.2806L166.658 61.4398C169.102 63.2097 173.208 65.4673 180.323 66.321C187.148 67.14 195.635 69.3629 200.992 78.6674C205.984 87.3372 214.726 95.9645 228.25 94.1783L228.548 96.4315Z" fill="#48CC8D"/>
</g>
<g opacity="0.15">
<path d="M143.492 94.5014C143.936 94.0576 144.656 94.0576 145.099 94.5014L164.92 114.322C165.364 114.766 165.364 115.485 164.92 115.929C164.476 116.373 163.757 116.373 163.313 115.929L143.492 96.1085C143.049 95.6647 143.049 94.9452 143.492 94.5014Z" fill="white"/>
<path d="M175.098 126.107C175.542 125.663 176.261 125.663 176.705 126.107L182.062 131.464C182.506 131.908 182.506 132.627 182.062 133.071C181.618 133.515 180.898 133.515 180.455 133.071L175.098 127.714C174.654 127.27 174.654 126.551 175.098 126.107Z" fill="white"/>
<path d="M139.207 98.7869C139.651 98.3432 140.37 98.3432 140.814 98.7869L163.849 121.821C164.293 122.265 164.293 122.985 163.849 123.429C163.405 123.872 162.686 123.872 162.242 123.429L139.207 100.394C138.763 99.9502 138.763 99.2307 139.207 98.7869Z" fill="white"/>
<path d="M171.884 131.464C172.328 131.02 173.047 131.02 173.491 131.464L177.777 135.749C178.22 136.193 178.22 136.913 177.777 137.356C177.333 137.8 176.613 137.8 176.169 137.356L171.884 133.071C171.44 132.627 171.44 131.908 171.884 131.464Z" fill="white"/>
<path d="M134.921 103.072C135.365 102.629 136.084 102.629 136.528 103.072L154.741 121.286C155.185 121.73 155.185 122.449 154.741 122.893C154.298 123.337 153.578 123.337 153.134 122.893L134.921 104.68C134.477 104.236 134.477 103.516 134.921 103.072Z" fill="white"/>
<path d="M166.527 134.678C166.97 134.234 167.69 134.234 168.134 134.678L173.49 140.035C173.934 140.479 173.934 141.198 173.49 141.642C173.047 142.086 172.327 142.086 171.883 141.642L166.527 136.285C166.083 135.841 166.083 135.122 166.527 134.678Z" fill="white"/>
<path d="M130.636 107.358C131.08 106.914 131.799 106.914 132.243 107.358L146.171 121.286C146.615 121.729 146.615 122.449 146.171 122.893C145.727 123.337 145.008 123.337 144.564 122.893L130.636 108.965C130.192 108.521 130.192 107.802 130.636 107.358Z" fill="white"/>
<path d="M164.384 141.106C164.828 140.662 165.547 140.662 165.991 141.106L169.205 144.32C169.649 144.764 169.649 145.484 169.205 145.927C168.761 146.371 168.042 146.371 167.598 145.927L164.384 142.713C163.94 142.27 163.94 141.55 164.384 141.106Z" fill="white"/>
<path d="M126.351 111.643C126.795 111.2 127.514 111.2 127.958 111.643L149.385 133.071C149.829 133.515 149.829 134.234 149.385 134.678C148.942 135.122 148.222 135.122 147.778 134.678L126.351 113.251C125.907 112.807 125.907 112.087 126.351 111.643Z" fill="white"/>
<path d="M159.028 144.32C159.471 143.877 160.191 143.877 160.635 144.32L164.92 148.606C165.364 149.05 165.364 149.769 164.92 150.213C164.476 150.657 163.757 150.657 163.313 150.213L159.028 145.927C158.584 145.484 158.584 144.764 159.028 144.32Z" fill="white"/>
<path d="M122.065 115.929C122.508 115.485 123.228 115.485 123.672 115.929L143.492 135.749C143.936 136.193 143.936 136.913 143.492 137.356C143.048 137.8 142.329 137.8 141.885 137.356L122.065 117.536C121.621 117.092 121.621 116.373 122.065 115.929Z" fill="white"/>
<path d="M153.67 147.535C154.114 147.091 154.833 147.091 155.277 147.535L160.634 152.891C161.078 153.335 161.078 154.055 160.634 154.499C160.19 154.942 159.471 154.942 159.027 154.499L153.67 149.142C153.226 148.698 153.226 147.978 153.67 147.535Z" fill="white"/>
</g>
<g filter="url(#filter3_d_2825_11225)">
<path d="M226.727 154.545C226.727 165.005 218.248 173.485 207.788 173.485C197.328 173.485 188.849 165.005 188.849 154.545C188.849 144.086 197.328 135.606 207.788 135.606C218.248 135.606 226.727 144.086 226.727 154.545Z" fill="url(#paint9_linear_2825_11225)"/>
</g>
<g filter="url(#filter4_d_2825_11225)">
<path d="M93.8266 37.0542C94.2722 32.8348 94.495 30.7251 95.4863 29.2003C96.3583 27.859 97.6326 26.8281 99.1265 26.2556C100.825 25.6046 102.934 25.8274 107.154 26.273L120.715 27.7051C124.934 28.1507 127.044 28.3735 128.569 29.3648C129.91 30.2368 130.941 31.511 131.513 33.0049C132.164 34.7032 131.942 36.8129 131.496 41.0322L130.064 54.5932C129.618 58.8126 129.395 60.9222 128.404 62.4471C127.532 63.7884 126.258 64.8192 124.764 65.3918C123.066 66.0428 120.956 65.82 116.737 65.3744L103.176 63.9423C98.9564 63.4967 96.8467 63.2739 95.3218 62.2826C93.9805 61.4106 92.9497 60.1363 92.3771 58.6425C91.7262 56.9442 91.9489 54.8345 92.3945 50.6151L93.8266 37.0542Z" fill="url(#paint10_linear_2825_11225)"/>
</g>
<path d="M102.629 40.2691C102.717 39.4369 103.463 38.8336 104.295 38.9215L105.802 39.0806C106.634 39.1685 107.237 39.9143 107.149 40.7465L105.717 54.3074C105.629 55.1396 104.883 55.743 104.051 55.6551L102.545 55.496C101.712 55.4081 101.109 54.6622 101.197 53.8301L102.629 40.2691Z" fill="white"/>
<path d="M109.686 45.585C109.773 44.7529 110.519 44.1495 111.351 44.2374L112.858 44.3965C113.69 44.4844 114.294 45.2302 114.206 46.0624L113.251 55.103C113.163 55.9352 112.417 56.5386 111.585 56.4507L110.079 56.2916C109.246 56.2037 108.643 55.4578 108.731 54.6257L109.686 45.585Z" fill="white"/>
<path d="M118.174 37.3399C118.262 36.5077 119.008 35.9044 119.84 35.9923L121.347 36.1514C122.179 36.2393 122.782 36.9851 122.694 37.8173L120.785 55.8985C120.697 56.7307 119.951 57.3341 119.119 57.2462L117.612 57.0871C116.78 56.9992 116.177 56.2533 116.264 55.4212L118.174 37.3399Z" fill="white"/>
<defs>
<filter id="filter0_d_2825_11225" x="112.004" y="142.446" width="23.1143" height="23.1136" filterUnits="userSpaceOnUse" color-interpolation-filters="sRGB">
<feFlood flood-opacity="0" result="BackgroundImageFix"/>
<feColorMatrix in="SourceAlpha" type="matrix" values="0 0 0 0 0 0 0 0 0 0 0 0 0 0 0 0 0 0 127 0" result="hardAlpha"/>
<feOffset dy="1"/>
<feGaussianBlur stdDeviation="0.5"/>
<feColorMatrix type="matrix" values="0 0 0 0 0.695833 0 0 0 0 0.641537 0 0 0 0 0.397205 0 0 0 1 0"/>
<feBlend mode="normal" in2="BackgroundImageFix" result="effect1_dropShadow_2825_11225"/>
<feBlend mode="normal" in="SourceGraphic" in2="effect1_dropShadow_2825_11225" result="shape"/>
</filter>
<filter id="filter1_d_2825_11225" x="59.5068" y="89.9482" width="23.1143" height="23.1136" filterUnits="userSpaceOnUse" color-interpolation-filters="sRGB">
<feFlood flood-opacity="0" result="BackgroundImageFix"/>
<feColorMatrix in="SourceAlpha" type="matrix" values="0 0 0 0 0 0 0 0 0 0 0 0 0 0 0 0 0 0 127 0" result="hardAlpha"/>
<feOffset dy="1"/>
<feGaussianBlur stdDeviation="0.5"/>
<feColorMatrix type="matrix" values="0 0 0 0 0.695833 0 0 0 0 0.641537 0 0 0 0 0.397205 0 0 0 1 0"/>
<feBlend mode="normal" in2="BackgroundImageFix" result="effect1_dropShadow_2825_11225"/>
<feBlend mode="normal" in="SourceGraphic" in2="effect1_dropShadow_2825_11225" result="shape"/>
</filter>
<filter id="filter2_d_2825_11225" x="0.605469" y="56.9078" width="57.8818" height="57.8823" filterUnits="userSpaceOnUse" color-interpolation-filters="sRGB">
<feFlood flood-opacity="0" result="BackgroundImageFix"/>
<feColorMatrix in="SourceAlpha" type="matrix" values="0 0 0 0 0 0 0 0 0 0 0 0 0 0 0 0 0 0 127 0" result="hardAlpha"/>
<feOffset dy="5"/>
<feGaussianBlur stdDeviation="5"/>
<feColorMatrix type="matrix" values="0 0 0 0 0.305882 0 0 0 0 0.74902 0 0 0 0 0.415686 0 0 0 0.4 0"/>
<feBlend mode="normal" in2="BackgroundImageFix" result="effect1_dropShadow_2825_11225"/>
<feBlend mode="normal" in="SourceGraphic" in2="effect1_dropShadow_2825_11225" result="shape"/>
</filter>
<filter id="filter3_d_2825_11225" x="173.849" y="125.606" width="67.8789" height="67.8788" filterUnits="userSpaceOnUse" color-interpolation-filters="sRGB">
<feFlood flood-opacity="0" result="BackgroundImageFix"/>
<feColorMatrix in="SourceAlpha" type="matrix" values="0 0 0 0 0 0 0 0 0 0 0 0 0 0 0 0 0 0 127 0" result="hardAlpha"/>
<feOffset dy="5"/>
<feGaussianBlur stdDeviation="7.5"/>
<feColorMatrix type="matrix" values="0 0 0 0 1 0 0 0 0 0.603922 0 0 0 0 0.00392157 0 0 0 0.5 0"/>
<feBlend mode="normal" in2="BackgroundImageFix" result="effect1_dropShadow_2825_11225"/>
<feBlend mode="normal" in="SourceGraphic" in2="effect1_dropShadow_2825_11225" result="shape"/>
</filter>
<filter id="filter4_d_2825_11225" x="51.9697" y="0.848267" width="119.951" height="119.951" filterUnits="userSpaceOnUse" color-interpolation-filters="sRGB">
<feFlood flood-opacity="0" result="BackgroundImageFix"/>
<feColorMatrix in="SourceAlpha" type="matrix" values="0 0 0 0 0 0 0 0 0 0 0 0 0 0 0 0 0 0 127 0" result="hardAlpha"/>
<feOffset dy="15"/>
<feGaussianBlur stdDeviation="20"/>
<feColorMatrix type="matrix" values="0 0 0 0 0.188235 0 0 0 0 0.717647 0 0 0 0 0.972549 0 0 0 0.3 0"/>
<feBlend mode="normal" in2="BackgroundImageFix" result="effect1_dropShadow_2825_11225"/>
<feBlend mode="normal" in="SourceGraphic" in2="effect1_dropShadow_2825_11225" result="shape"/>
</filter>
<linearGradient id="paint0_linear_2825_11225" x1="4" y1="169.697" x2="254" y2="169.697" gradientUnits="userSpaceOnUse">
<stop stop-color="#B8C4D4"/>
<stop offset="1" stop-color="#EAEDF3"/>
</linearGradient>
<linearGradient id="paint1_linear_2825_11225" x1="86.2644" y1="190.777" x2="129" y2="148.041" gradientUnits="userSpaceOnUse">
<stop stop-color="#928855"/>
<stop offset="0.0316449" stop-color="#B1A774"/>
<stop offset="0.135417" stop-color="#AFA46A"/>
<stop offset="0.973682" stop-color="#CBC089"/>
<stop offset="1" stop-color="#E8DEB0"/>
</linearGradient>
<linearGradient id="paint2_linear_2825_11225" x1="128.761" y1="147.803" x2="118.047" y2="158.516" gradientUnits="userSpaceOnUse">
<stop stop-color="#FDF5CB"/>
<stop offset="0.132857" stop-color="#E8DFAF"/>
<stop offset="1" stop-color="#E0D7A6"/>
</linearGradient>
<linearGradient id="paint3_linear_2825_11225" x1="33.7673" y1="138.279" x2="76.5029" y2="95.5439" gradientUnits="userSpaceOnUse">
<stop stop-color="#928855"/>
<stop offset="0.0316449" stop-color="#B1A774"/>
<stop offset="0.135417" stop-color="#AFA46A"/>
<stop offset="0.973682" stop-color="#CBC089"/>
<stop offset="1" stop-color="#E8DEB0"/>
</linearGradient>
<linearGradient id="paint4_linear_2825_11225" x1="76.2641" y1="95.3051" x2="65.5504" y2="106.019" gradientUnits="userSpaceOnUse">
<stop stop-color="#FDF5CB"/>
<stop offset="0.132857" stop-color="#E8DFAF"/>
<stop offset="1" stop-color="#E0D7A6"/>
</linearGradient>
<linearGradient id="paint5_linear_2825_11225" x1="254" y1="200.208" x2="4" y2="200.208" gradientUnits="userSpaceOnUse">
<stop stop-color="#B8C4D4"/>
<stop offset="1" stop-color="#EAEDF3"/>
</linearGradient>
<linearGradient id="paint6_linear_2825_11225" x1="27.3585" y1="62.0364" x2="15.9899" y2="92.3763" gradientUnits="userSpaceOnUse">
<stop stop-color="#6CD189"/>
<stop offset="1" stop-color="#30AC4B"/>
</linearGradient>
<linearGradient id="paint7_linear_2825_11225" x1="134.611" y1="142.43" x2="225.424" y2="51.6174" gradientUnits="userSpaceOnUse">
<stop stop-color="#2E363E"/>
<stop offset="1" stop-color="#526171"/>
</linearGradient>
<linearGradient id="paint8_linear_2825_11225" x1="204.561" y1="71.467" x2="150.724" y2="125.304" gradientUnits="userSpaceOnUse">
<stop stop-color="#48CC8D" stop-opacity="0.6"/>
<stop offset="0.447917" stop-color="#48CC8D" stop-opacity="0.2"/>
<stop offset="1" stop-color="#48CC8D" stop-opacity="0"/>
</linearGradient>
<linearGradient id="paint9_linear_2825_11225" x1="207.788" y1="135.606" x2="207.788" y2="173.485" gradientUnits="userSpaceOnUse">
<stop stop-color="#FFDA00"/>
<stop offset="1" stop-color="#FF9200"/>
</linearGradient>
<linearGradient id="paint10_linear_2825_11225" x1="113.934" y1="26.989" x2="109.956" y2="64.6583" gradientUnits="userSpaceOnUse">
<stop stop-color="#38CFFF"/>
<stop offset="1" stop-color="#29A4F2"/>
</linearGradient>
</defs>
</svg>
