<svg width="345" height="419" viewBox="0 0 345 419" fill="none" xmlns="http://www.w3.org/2000/svg">
<path d="M345 311.362C345 323.271 267.769 332.925 172.5 332.925C77.2309 332.925 0 323.271 0 311.362C0 299.454 77.2309 289.8 172.5 289.8C267.769 289.8 345 299.454 345 311.362Z" fill="url(#paint0_linear_2825_11182)"/>
<path d="M82.1441 229.4C87.2676 224.276 89.8293 221.715 92.7833 220.755C95.3818 219.911 98.1807 219.911 100.779 220.755C103.733 221.715 106.295 224.276 111.418 229.4L182.339 300.32C187.462 305.444 190.024 308.005 190.984 310.959C191.828 313.558 191.828 316.357 190.984 318.955C190.024 321.909 187.462 324.471 182.339 329.594L150.625 361.308C145.501 366.432 142.94 368.993 139.986 369.953C137.387 370.797 134.588 370.797 131.99 369.953C129.036 368.993 126.474 366.432 121.351 361.308L50.4304 290.388C45.3069 285.264 42.7452 282.703 41.7854 279.749C40.9411 277.15 40.9411 274.351 41.7854 271.753C42.7452 268.799 45.3069 266.237 50.4304 261.114L82.1441 229.4Z" fill="url(#paint1_linear_2825_11182)"/>
<g style="mix-blend-mode:overlay">
<path d="M91.9327 237.036C93.6118 235.357 94.4513 234.517 95.4164 234.195C96.3023 233.9 97.2602 233.9 98.1461 234.195C99.1112 234.517 99.9507 235.357 101.63 237.036L111.1 246.507C112.779 248.186 113.619 249.025 113.941 249.99C114.236 250.876 114.236 251.834 113.941 252.72C113.619 253.685 112.779 254.525 111.1 256.204L108.164 259.14C106.485 260.819 105.646 261.658 104.68 261.98C103.795 262.276 102.837 262.276 101.951 261.98C100.986 261.658 100.146 260.819 98.4671 259.14L88.9966 249.669C87.3175 247.99 86.478 247.151 86.156 246.186C85.8604 245.3 85.8604 244.342 86.156 243.456C86.478 242.491 87.3175 241.651 88.9966 239.972L91.9327 237.036Z" fill="black" fill-opacity="0.4"/>
</g>
<g style="mix-blend-mode:overlay" opacity="0.5">
<path fill-rule="evenodd" clip-rule="evenodd" d="M163.868 299.275C165.016 300.423 165.799 301.798 166.217 303.255C163.31 303.32 160.423 304.462 158.205 306.68C155.987 308.898 154.845 311.785 154.78 314.692C153.322 314.274 151.948 313.491 150.8 312.344C147.191 308.735 147.191 302.884 150.8 299.275C154.408 295.666 160.26 295.666 163.868 299.275ZM159.948 321.492C163.557 325.101 169.408 325.101 173.017 321.492C176.625 317.883 176.625 312.032 173.017 308.423C169.408 304.814 163.557 304.814 159.948 308.423C156.339 312.032 156.339 317.883 159.948 321.492Z" fill="white"/>
</g>
<path fill-rule="evenodd" clip-rule="evenodd" d="M172.5 332.494C267.769 332.494 345 322.84 345 310.931C345 370.459 267.823 418.744 172.5 418.744C77.2834 418.744 0 370.459 0 310.931C0 322.84 77.2309 332.494 172.5 332.494Z" fill="url(#paint2_linear_2825_11182)"/>
<g filter="url(#filter0_d_2825_11182)">
<path d="M81.0752 233.953C81.0752 245.266 71.904 254.438 60.5908 254.438C49.2776 254.438 40.1064 245.266 40.1064 233.953C40.1064 222.64 49.2776 213.469 60.5908 213.469C71.904 213.469 81.0752 222.64 81.0752 233.953Z" fill="url(#paint3_linear_2825_11182)"/>
</g>
<g filter="url(#filter1_d_2825_11182)">
<path d="M288.506 292.819C288.506 304.727 278.852 314.381 266.943 314.381C255.035 314.381 245.381 304.727 245.381 292.819C245.381 280.91 255.035 271.256 266.943 271.256C278.852 271.256 288.506 280.91 288.506 292.819Z" fill="url(#paint4_linear_2825_11182)"/>
</g>
<g filter="url(#filter2_d_2825_11182)">
<path d="M163.973 150.722C160.175 136.759 139.451 134.985 135.396 150.12C132.603 160.542 142.196 174.534 152.738 192.651C170.928 182.233 186.229 174.911 189.022 164.489C193.091 149.303 174.168 140.604 163.973 150.722Z" fill="url(#paint5_linear_2825_11182)"/>
</g>
<path d="M233.256 170.811C217.861 186.206 210.557 195.395 204.116 203.407C198.225 210.869 193.12 217.231 180.788 229.562C168.378 241.973 162.016 247.078 154.633 252.89C153.297 253.911 151.962 255.09 150.548 256.189L199.56 305.201C206.944 299.232 215.741 292.006 229.486 278.26C244.959 262.787 252.186 253.676 258.626 245.664C264.517 238.202 269.623 231.84 281.954 219.509C291.772 209.691 297.82 204.428 303.633 199.715L254.699 150.782C249.044 155.652 242.21 161.857 233.256 170.811Z" fill="url(#paint6_linear_2825_11182)"/>
<g style="mix-blend-mode:overlay">
<path d="M241.111 216.367C250.654 225.911 252.764 239.274 245.823 246.214C238.883 253.155 225.52 251.045 215.976 241.502C206.433 231.958 204.323 218.595 211.264 211.654C218.204 204.714 231.567 206.824 241.111 216.367Z" fill="white" fill-opacity="0.49"/>
</g>
<g filter="url(#filter3_d_2825_11182)">
<path fill-rule="evenodd" clip-rule="evenodd" d="M91.3481 137.532C106.185 135.755 117.214 125.968 115.98 115.673C114.747 105.377 101.719 98.4723 86.8821 100.25C72.0449 102.027 61.0167 111.814 62.25 122.109C62.6061 125.082 63.9457 127.772 66.0283 130.052C65.1032 135.891 62.0104 140.729 60.2685 142.708C68.0874 142.088 73.4167 139.19 76.6398 136.367C81.0128 137.697 86.0658 138.165 91.3481 137.532Z" fill="url(#paint7_linear_2825_11182)"/>
</g>
<g filter="url(#filter4_d_2825_11182)">
<path d="M227.247 65.2046C227.343 63.9847 228.922 63.5675 229.608 64.5808L240.813 81.1308L260.247 76.465C261.436 76.1793 262.321 77.5522 261.569 78.5177L249.292 94.2882L259.735 111.329C260.374 112.372 259.342 113.638 258.191 113.222L239.399 106.418L226.419 121.616C225.624 122.546 224.101 121.956 224.142 120.733L224.805 100.758L206.34 93.1094C205.21 92.6412 205.301 91.0105 206.477 90.6712L225.679 85.1292L227.247 65.2046Z" fill="url(#paint8_linear_2825_11182)"/>
</g>
<path d="M145.763 32.7748C145.763 44.4453 136.302 53.9061 124.631 53.9061C112.961 53.9061 103.5 44.4453 103.5 32.7748C103.5 21.1043 112.961 11.6436 124.631 11.6436C136.302 11.6436 145.763 21.1043 145.763 32.7748Z" fill="url(#paint9_linear_2825_11182)"/>
<path fill-rule="evenodd" clip-rule="evenodd" d="M137.921 46.4959C145.257 39.1591 145.257 27.2638 137.921 19.9269C130.584 12.5901 118.688 12.5901 111.352 19.9269C104.015 27.2638 104.015 39.1591 111.352 46.4959C118.688 53.8328 130.584 53.8328 137.921 46.4959ZM141.242 16.6058C149.738 25.1025 150.363 38.4901 143.116 47.706L144.563 49.1527C145.975 48.9519 147.462 49.3948 148.548 50.4814L175.117 77.0504C176.951 78.8846 176.951 81.8584 175.117 83.6926C173.283 85.5268 170.309 85.5269 168.475 83.6926L141.906 57.1236C140.819 56.0371 140.376 54.5505 140.577 53.1379L139.131 51.6914C129.915 58.9385 116.527 58.3137 108.03 49.8171C98.8594 40.646 98.8594 25.7768 108.03 16.6058C117.201 7.43476 132.071 7.43475 141.242 16.6058Z" fill="url(#paint10_linear_2825_11182)"/>
<defs>
<filter id="filter0_d_2825_11182" x="10.1064" y="193.469" width="100.969" height="100.969" filterUnits="userSpaceOnUse" color-interpolation-filters="sRGB">
<feFlood flood-opacity="0" result="BackgroundImageFix"/>
<feColorMatrix in="SourceAlpha" type="matrix" values="0 0 0 0 0 0 0 0 0 0 0 0 0 0 0 0 0 0 127 0" result="hardAlpha"/>
<feOffset dy="10"/>
<feGaussianBlur stdDeviation="15"/>
<feColorMatrix type="matrix" values="0 0 0 0 1 0 0 0 0 0.603922 0 0 0 0 0.00392157 0 0 0 0.5 0"/>
<feBlend mode="normal" in2="BackgroundImageFix" result="effect1_dropShadow_2825_11182"/>
<feBlend mode="normal" in="SourceGraphic" in2="effect1_dropShadow_2825_11182" result="shape"/>
</filter>
<filter id="filter1_d_2825_11182" x="215.381" y="251.256" width="103.125" height="103.125" filterUnits="userSpaceOnUse" color-interpolation-filters="sRGB">
<feFlood flood-opacity="0" result="BackgroundImageFix"/>
<feColorMatrix in="SourceAlpha" type="matrix" values="0 0 0 0 0 0 0 0 0 0 0 0 0 0 0 0 0 0 127 0" result="hardAlpha"/>
<feOffset dy="10"/>
<feGaussianBlur stdDeviation="15"/>
<feColorMatrix type="matrix" values="0 0 0 0 1 0 0 0 0 0.603922 0 0 0 0 0.00392157 0 0 0 0.5 0"/>
<feBlend mode="normal" in2="BackgroundImageFix" result="effect1_dropShadow_2825_11182"/>
<feBlend mode="normal" in="SourceGraphic" in2="effect1_dropShadow_2825_11182" result="shape"/>
</filter>
<filter id="filter2_d_2825_11182" x="94.9053" y="129.491" width="134.681" height="133.159" filterUnits="userSpaceOnUse" color-interpolation-filters="sRGB">
<feFlood flood-opacity="0" result="BackgroundImageFix"/>
<feColorMatrix in="SourceAlpha" type="matrix" values="0 0 0 0 0 0 0 0 0 0 0 0 0 0 0 0 0 0 127 0" result="hardAlpha"/>
<feOffset dy="30"/>
<feGaussianBlur stdDeviation="20"/>
<feColorMatrix type="matrix" values="0 0 0 0 0.87451 0 0 0 0 0.247059 0 0 0 0 0.47451 0 0 0 0.2 0"/>
<feBlend mode="normal" in2="BackgroundImageFix" result="effect1_dropShadow_2825_11182"/>
<feBlend mode="normal" in="SourceGraphic" in2="effect1_dropShadow_2825_11182" result="shape"/>
</filter>
<filter id="filter3_d_2825_11182" x="20.2686" y="74.9707" width="135.806" height="122.738" filterUnits="userSpaceOnUse" color-interpolation-filters="sRGB">
<feFlood flood-opacity="0" result="BackgroundImageFix"/>
<feColorMatrix in="SourceAlpha" type="matrix" values="0 0 0 0 0 0 0 0 0 0 0 0 0 0 0 0 0 0 127 0" result="hardAlpha"/>
<feOffset dy="15"/>
<feGaussianBlur stdDeviation="20"/>
<feColorMatrix type="matrix" values="0 0 0 0 0.188235 0 0 0 0 0.717647 0 0 0 0 0.972549 0 0 0 0.3 0"/>
<feBlend mode="normal" in2="BackgroundImageFix" result="effect1_dropShadow_2825_11182"/>
<feBlend mode="normal" in="SourceGraphic" in2="effect1_dropShadow_2825_11182" result="shape"/>
</filter>
<filter id="filter4_d_2825_11182" x="175.542" y="44.0107" width="116.306" height="118.062" filterUnits="userSpaceOnUse" color-interpolation-filters="sRGB">
<feFlood flood-opacity="0" result="BackgroundImageFix"/>
<feColorMatrix in="SourceAlpha" type="matrix" values="0 0 0 0 0 0 0 0 0 0 0 0 0 0 0 0 0 0 127 0" result="hardAlpha"/>
<feOffset dy="10"/>
<feGaussianBlur stdDeviation="15"/>
<feColorMatrix type="matrix" values="0 0 0 0 0.929412 0 0 0 0 0.796078 0 0 0 0 0.313726 0 0 0 0.4 0"/>
<feBlend mode="normal" in2="BackgroundImageFix" result="effect1_dropShadow_2825_11182"/>
<feBlend mode="normal" in="SourceGraphic" in2="effect1_dropShadow_2825_11182" result="shape"/>
</filter>
<linearGradient id="paint0_linear_2825_11182" x1="-2.4098e-06" y1="311.362" x2="345" y2="311.362" gradientUnits="userSpaceOnUse">
<stop stop-color="#B8C4D4"/>
<stop offset="1" stop-color="#EAEDF3"/>
</linearGradient>
<linearGradient id="paint1_linear_2825_11182" x1="94.1675" y1="217.376" x2="135.988" y2="375.945" gradientUnits="userSpaceOnUse">
<stop stop-color="#8966AF"/>
<stop offset="1" stop-color="#633F90"/>
</linearGradient>
<linearGradient id="paint2_linear_2825_11182" x1="345" y1="350.878" x2="-6.67387e-06" y2="350.878" gradientUnits="userSpaceOnUse">
<stop stop-color="#B8C4D4"/>
<stop offset="1" stop-color="#EAEDF3"/>
</linearGradient>
<linearGradient id="paint3_linear_2825_11182" x1="60.5908" y1="213.469" x2="60.5908" y2="254.438" gradientUnits="userSpaceOnUse">
<stop stop-color="#FFDA00"/>
<stop offset="1" stop-color="#FF9200"/>
</linearGradient>
<linearGradient id="paint4_linear_2825_11182" x1="266.943" y1="271.256" x2="266.943" y2="314.381" gradientUnits="userSpaceOnUse">
<stop stop-color="#FFDA00"/>
<stop offset="1" stop-color="#FF9200"/>
</linearGradient>
<linearGradient id="paint5_linear_2825_11182" x1="165.919" y1="143.459" x2="152.738" y2="192.651" gradientUnits="userSpaceOnUse">
<stop stop-color="#F9508D"/>
<stop offset="1" stop-color="#CC336A"/>
</linearGradient>
<linearGradient id="paint6_linear_2825_11182" x1="253.678" y1="150.389" x2="201.445" y2="307.872" gradientUnits="userSpaceOnUse">
<stop stop-color="#6CD189"/>
<stop offset="0.433727" stop-color="#52C16E"/>
<stop offset="1" stop-color="#30AC4B"/>
</linearGradient>
<linearGradient id="paint7_linear_2825_11182" x1="84.6891" y1="100.512" x2="89.3302" y2="139.257" gradientUnits="userSpaceOnUse">
<stop stop-color="#38CFFF"/>
<stop offset="1" stop-color="#29A4F2"/>
</linearGradient>
<linearGradient id="paint8_linear_2825_11182" x1="227.537" y1="61.5215" x2="242.842" y2="119.452" gradientUnits="userSpaceOnUse">
<stop stop-color="#ECD379"/>
<stop offset="0.96875" stop-color="#EDC125"/>
</linearGradient>
<linearGradient id="paint9_linear_2825_11182" x1="130.237" y1="53.9061" x2="117.516" y2="13.5842" gradientUnits="userSpaceOnUse">
<stop stop-color="#E5EFFE"/>
<stop offset="1" stop-color="white"/>
</linearGradient>
<linearGradient id="paint10_linear_2825_11182" x1="174.225" y1="84.7407" x2="122.259" y2="13.8001" gradientUnits="userSpaceOnUse">
<stop stop-color="#8391A5"/>
<stop offset="1" stop-color="#BBC6D6"/>
</linearGradient>
</defs>
</svg>
