<svg width="955" height="584" viewBox="0 0 955 584" fill="none" xmlns="http://www.w3.org/2000/svg">
<path d="M10 200V384" stroke="#4AA58F" stroke-width="20"/>
<path d="M65 184L65 400" stroke="#4AA58F" stroke-width="20"/>
<path d="M120 130L120 454" stroke="#4AA58F" stroke-width="20"/>
<path d="M175 161L175 423" stroke="#4AA58F" stroke-width="20"/>
<path d="M230 172L230 412" stroke="#4AA58F" stroke-width="20"/>
<path d="M285 219L285 365" stroke="#4AA58F" stroke-width="20"/>
<path d="M340 227L340 357" stroke="#4AA58F" stroke-width="20"/>
<path d="M395 255L395 329" stroke="#4AA58F" stroke-width="20"/>
<path d="M450 59L450 525" stroke="#4AA58F" stroke-width="20"/>
<path d="M505 40L505 544" stroke="#4AA58F" stroke-width="20"/>
<path d="M560 11L560 573" stroke="#4AA58F" stroke-width="20"/>
<path d="M615 0L615 584" stroke="#4AA58F" stroke-width="20"/>
<path d="M670 67L670 517" stroke="#4AA58F" stroke-width="20"/>
<path d="M725 171L725 413" stroke="#4AA58F" stroke-width="20"/>
<path d="M780 116L780 468" stroke="#4AA58F" stroke-width="20"/>
<path d="M835 209L835 375" stroke="#4AA58F" stroke-width="20"/>
<path d="M890 235L890 349" stroke="#4AA58F" stroke-width="20"/>
<path d="M945 162L945 422" stroke="#4AA58F" stroke-width="20"/>
</svg>
