<svg width="19" height="17" viewBox="0 0 19 17" fill="none" xmlns="http://www.w3.org/2000/svg">
<path fill-rule="evenodd" clip-rule="evenodd" d="M0.217987 1.09202C0 1.51984 0 2.0799 0 3.2V9.8C0 10.9201 0 11.4802 0.217987 11.908C0.409734 12.2843 0.715695 12.5903 1.09202 12.782C1.51984 13 2.07989 13 3.2 13H15.8C16.9201 13 17.4802 13 17.908 12.782C18.2843 12.5903 18.5903 12.2843 18.782 11.908C19 11.4802 19 10.9201 19 9.8V3.2C19 2.0799 19 1.51984 18.782 1.09202C18.5903 0.715695 18.2843 0.409734 17.908 0.217987C17.4802 0 16.9201 0 15.8 0H3.2C2.0799 0 1.51984 0 1.09202 0.217987C0.715695 0.409734 0.409734 0.715695 0.217987 1.09202ZM15 16H11V14H8V16H4V17H8H11H15V16ZM9.38604 3.16831C9.42364 3.11277 9.46162 3.05667 9.49997 3C9.53831 3.05667 9.57629 3.11277 9.61389 3.16831C10.969 5.17 11.8333 6.44667 11.8333 7.68854C11.8333 8.96546 10.7894 10 9.49997 10C8.21051 10 7.16663 8.96546 7.16663 7.68854C7.16663 6.44667 8.03092 5.17 9.38604 3.16831Z" fill="white"/>
</svg>
