<svg width="330" height="330" viewBox="0 0 330 330" fill="none" xmlns="http://www.w3.org/2000/svg">
<path d="M4.19048 131.779C4.32465 131.168 4.66699 127.407 5.41183 121.68C6.15666 115.953 8.90468 109.073 9.81606 106.496C10.7274 103.92 13.6466 98.6688 15.6776 95.7542C17.7131 92.8396 20.0494 87.9265 21.7103 84.4013C23.3711 80.876 27.3682 73.5572 28.3536 71.9658C29.3344 70.3743 33.8774 63.8327 35.1312 62.3061C36.3849 60.7794 40.1137 56.0374 41.2656 54.9179C42.4176 53.7983 43.5001 52.5122 46.72 52.5122C49.9399 52.5122 53.0257 56.884 53.9741 58.4431C54.9225 60.0022 58.6836 63.3932 59.4285 64.1011C60.1733 64.8135 66.3402 69.759 68.1722 71.4199C70.0042 73.0807 74.0707 74.9451 81.5607 80.2977C89.0507 85.6504 95.8606 93.4457 95.8606 93.4457C95.8606 93.4457 105.178 104.054 107.722 114.421C110.262 124.793 108.944 134.245 107.181 139.565C105.418 144.885 102.675 150.715 97.762 155.119C92.8488 159.523 85.3589 162.812 77.2582 162.947C69.1576 163.081 63.2267 160.471 61.2281 158.949C59.2295 157.423 53.4004 153.999 50.4858 150.34C47.5713 146.68 48.5891 147.291 46.7941 143.734C44.9991 140.176 44.319 136.785 44.2866 133.634C44.2542 130.484 45.6421 124.317 45.2674 118.52C44.8926 112.723 39.3365 112.589 39.3365 112.589C31.8465 112.455 29.575 119.64 29.3066 124.585C29.0383 129.531 31.407 136.817 31.407 136.817C32.6931 141.966 35.1682 145.288 35.7094 146.509C36.2507 147.731 39.2671 152.135 40.0119 153.56C40.7567 154.985 44.4161 158.441 45.1286 158.912C45.841 159.389 48.8204 162.165 49.0609 162.539C49.3015 162.914 51.4666 164.876 53.2616 165.861C55.0566 166.842 56.7175 168.096 58.1747 168.947C59.632 169.793 62.579 170.64 62.579 170.64C62.579 170.64 68.9494 173.013 73.4924 173.115C78.0354 173.217 82.5738 172.167 84.54 171.829C86.5062 171.491 91.5535 170.034 92.7424 169.322C93.9268 168.609 96.9107 167.087 98.3356 166.402C99.7605 165.718 101.893 164.339 104.84 161.73C107.787 159.121 111.854 153.527 111.854 153.527C113.075 152.001 114.565 148.207 115.953 145.057C117.34 141.906 118.391 135.23 118.391 135.23C120.357 120.995 118.289 113.871 116.966 108.99C115.643 104.109 114.019 101.949 113.764 101.213C113.51 100.478 110.332 96.1058 109.823 95.1898C109.314 94.2738 107.001 91.0446 106.339 90.309C105.678 89.5735 104.23 87.9728 103.67 87.3112C103.11 86.6496 100.468 83.7258 98.715 82.176C96.9616 80.6262 92.5111 76.407 91.0631 75.3661C89.6151 74.3252 86.7699 72.0629 85.1414 70.7907C83.513 69.5185 82.5507 68.9355 76.0415 64.8922C69.5369 60.8488 66.7889 57.6983 66.7889 57.6983C66.206 56.9118 65.6971 56.5278 64.1704 55.2325C62.6437 53.9371 62.2366 53.5809 60.053 50.5321C57.8694 47.4834 55.9865 46.4147 56.0374 43.3383C56.0883 40.2618 58.2719 38.1522 60.511 36.8337C62.7455 35.5106 63.5089 34.6501 64.7811 33.6554C66.0533 32.6654 66.9647 32.1287 71.0081 29.6629C75.0515 27.1971 77.6422 25.2679 79.1689 23.9957C80.6956 22.7235 87.8848 17.1349 92.562 17.2598C97.2392 17.3847 97.3919 22.6726 97.4936 25.5224C97.5954 28.3722 96.6794 33.1465 96.2214 35.5615C95.7634 37.9764 94.5929 45.5774 103.008 45.6792C111.423 45.7809 109.314 34.9554 108.5 28.0668C107.685 21.1783 107.075 18.6385 106.746 17.3153C106.418 15.9922 105.858 13.6791 107.255 11.5463C108.652 9.41362 111.576 8.5485 111.576 8.5485C112.464 8.27093 113.408 7.81292 114.472 7.50759C115.541 7.20225 116.226 7.10047 116.226 7.10047C119.862 6.46667 121.129 8.62715 121.666 9.76985C122.203 10.9125 122.42 13.4709 122.42 13.4709C122.49 14.8264 124.386 24.2455 124.386 24.2455C124.386 24.2455 126.422 36.5792 126.658 38.3789C126.894 40.1785 127.981 49.903 127.981 49.903C128.184 51.8368 128.86 61.3577 128.828 64.0363C128.795 66.7149 128.277 79.8212 128.277 79.8212L127.694 96.2168C127.694 96.2168 127.491 103.411 127.083 108.037C126.676 112.663 126.602 112.33 125.913 120.824C125.224 129.318 125.372 133.856 125.372 133.856C125.95 142.498 126.524 145.82 129.915 152.87C133.306 159.921 140.791 165.782 149.031 170.187C157.27 174.591 166.282 174.508 166.282 174.508C179.245 174.457 186.869 168.355 186.869 168.355C199.069 159.713 199.527 151.071 200.271 146.292C201.016 141.513 201.322 129.281 201.322 129.281C201.322 129.281 201.118 115.962 201.322 110.47C201.525 104.979 201.016 96.1012 201.016 96.1012C200.438 88.5788 200.609 84.6464 200.609 83.7304C200.609 82.8144 200.845 79.7333 200.642 76.3099C200.438 72.8864 200.915 56.6527 200.915 56.6527C200.915 56.6527 201.289 41.0621 201.761 33.165C202.238 25.2679 203.362 22.1498 203.695 19.7626C204.028 17.3755 205.231 13.6097 205.601 12.9018C205.971 12.1894 206.235 11.1207 206.582 10.2695C206.929 9.41825 207.28 8.63178 207.28 8.63178C208.807 6.04105 210.574 6.2955 210.574 6.2955C215.251 6.67023 214.71 13.4801 214.437 18.0232C214.164 22.5662 215.15 32.4248 215.15 32.4248C215.15 32.4248 216.098 47.4695 216.2 50.4211C216.302 53.3727 216.977 67.3672 216.977 67.3672C216.977 67.3672 217.417 80.5846 217.588 82.0418C217.759 83.4991 218.004 100.367 218.027 105.53C218.05 110.688 217.773 111.275 217.722 113.815C217.671 116.355 215.335 137.451 215.335 137.451C215.029 139.283 214.113 155.04 214.419 157.987C214.724 160.934 214.571 171.662 222.806 171.662C231.041 171.662 230.685 159.666 230.787 158.089C230.888 156.511 230.125 147.768 230.074 145.94C230.023 144.108 229.648 130.979 229.648 130.979C229.547 129.147 229.514 118.983 229.547 118.136C229.579 117.29 229.681 110.544 229.718 108.578C229.75 106.612 229.75 101.056 229.75 100.14C229.75 99.2239 229.579 92.1087 229.681 90.582C229.783 89.0553 229.306 80.4504 229.306 80.4504C229.306 80.4504 228.765 69.3334 228.899 68.2509C229.033 67.1683 228.746 63.2868 228.672 57.8463C228.598 52.4058 229.121 49.8845 229.121 49.8845C229.375 48.9685 229.579 48.4457 230.527 49.8012C231.476 51.1567 233.322 57.1894 233.322 57.1894L235.737 65.5537L237.212 71.1469C237.439 72.4932 239.118 77.6006 239.118 77.6006C239.424 78.5397 240.543 82.3009 240.543 82.3009C240.696 83.166 241.89 87.1817 241.89 87.1817C241.89 87.1817 243.213 91.7293 243.389 92.5713C243.564 93.4087 245.271 99.3812 245.271 99.3812C245.271 99.3812 247.205 105.937 247.432 107.26C247.659 108.583 250.458 122.254 250.458 122.254C250.458 122.254 252.692 132.649 252.72 132.751C252.748 132.852 254.27 139.306 254.829 141.952C255.389 144.594 255.87 145.815 256.227 146.884C256.583 147.953 257.776 151.432 257.776 151.432C260.469 160.582 264.281 174.258 275.634 173.476C286.987 172.699 286.408 150.802 286.58 148.975C286.751 147.143 286.307 132.538 286.205 130.368C286.103 128.198 285.9 117.997 285.83 115.356C285.761 112.714 285.798 96.92 285.798 96.1058C285.798 95.2916 285.798 84.3781 285.798 81.5653C285.798 78.7525 285.867 69.7729 285.867 68.9263C285.867 68.0797 285.529 62.2505 287.833 59.6737C290.137 57.0969 292.275 60.2844 292.275 60.2844C292.275 60.2844 297.359 66.4882 298.714 68.5886C300.07 70.6889 304.206 76.9946 305.899 81.0935C307.592 85.1924 310.507 89.4624 310.507 89.4624C310.507 89.4624 314.846 95.361 316.132 99.1545C317.419 102.948 320.065 109.254 320.065 109.254C320.065 109.254 321.522 113.098 323.581 120.038C325.639 126.977 326.556 131.756 326.556 131.756C326.556 131.756 327.573 137.118 327.495 140.042C327.421 142.966 328.23 148.869 328.23 148.869C328.23 148.869 329.618 161.068 329.618 162.086C329.618 163.104 330.095 171.103 328.975 180.961C327.855 190.825 327.448 192.994 326.366 198.074C325.283 203.158 321.656 213.022 321.281 213.563C320.907 214.104 318.876 220.41 318.399 223.223C317.923 226.035 315.79 232.17 314.772 233.761C313.755 235.353 312.061 239.623 312.061 239.623C312.061 239.623 310.502 244.064 309.045 244.198C307.588 244.332 307.893 239.757 307.893 239.59C307.893 239.424 307.995 236.949 306.709 235.117C305.423 233.285 302.101 232.679 299.492 234.742C296.882 236.805 296.882 239.553 298.034 249.181C299.186 258.803 297.9 261.551 297.9 261.551C297.359 263.652 296.272 265.447 293.528 268.5C290.785 271.549 290.443 271.549 287.426 274.87C284.41 278.192 283.623 279.862 279.608 283.623C275.592 287.385 274.778 288.911 272.516 288.985C270.253 289.059 269.365 286.52 268.574 283.929C267.788 281.338 267.839 275.264 267.94 271.169C268.042 267.075 267.33 260.927 267.381 259.502C267.431 258.077 266.77 250.684 266.77 249.768C266.77 248.852 266.492 243.06 266.617 241.89C266.742 240.719 266.21 234.798 266.136 234.367C266.062 233.937 265.678 229.056 266.668 227.275C267.658 225.494 269.004 224.328 273.936 224.351C278.868 224.374 286.644 225.698 286.644 225.698C286.644 225.698 298.21 227.655 297.447 221.201C296.683 214.747 289.744 214.946 285.756 214.895C281.764 214.844 270.989 215.885 270.989 215.885C265.882 216.089 265.498 211.768 265.396 211.287C265.294 210.806 264.836 204.222 264.836 203.329C264.836 202.437 264.48 196.441 264.48 193.901C264.48 191.361 266.081 190.01 266.081 190.01C268.875 187.697 272.335 187.85 272.335 187.85C272.335 187.85 278.766 187.623 281.916 187.572C285.067 187.521 287.838 187.369 288.245 187.369C288.652 187.369 291.599 187.063 293.431 188.817C295.263 190.57 295.083 193.013 295.083 195.858C295.083 198.703 295.49 205.212 300.597 205.388C305.705 205.564 306.163 199.49 306.265 197.51C306.366 195.53 305.298 189.02 305.043 187.901C304.789 186.781 304.229 183.608 304.229 183.608C302.957 178.907 300.57 177.001 298.483 176.261C296.397 175.525 292.969 175.498 290.197 175.882C287.426 176.261 278.164 176.899 274.982 177.219C271.794 177.542 268.185 177.76 264.29 177.963C260.395 178.167 258.48 178.699 258.48 178.699C253.192 180.022 251.896 183.501 251.286 186.018C250.675 188.535 251.411 194.535 251.563 197.685C251.716 200.836 252.757 207.317 252.757 207.317C253.011 208.844 253.52 218.754 253.469 220.151C253.418 221.548 254.154 230.925 254.154 230.925C254.154 230.925 254.612 238.425 254.714 239.692C254.815 240.964 254.815 250.189 254.714 251.027C254.612 251.864 255.121 262.033 255.426 264.6C255.732 267.168 255.75 278.59 255.75 278.59C255.75 278.59 256.004 288.301 256.037 288.842C256.069 289.383 256.273 295.333 255.954 297.313C255.634 299.293 255.075 301.583 254.006 301.583C252.937 301.583 251.887 298.992 251.721 298.33C251.554 297.669 250.791 294.958 250.041 293.723C249.292 292.487 246.669 285.812 246.16 284.336C245.651 282.86 242.551 277.438 242.246 276.675C241.941 275.911 237.74 268.408 237.435 267.542C237.129 266.677 234.538 262.884 234.113 261.917C233.687 260.95 231.198 257.799 230.842 256.934C230.486 256.069 227.099 251.596 226.623 250.629C226.146 249.662 225.439 249.407 224.809 248.255C224.18 247.103 221.03 243.661 220.572 243.12C220.114 242.579 216.741 238.869 215.742 237.698C214.743 236.528 214.761 234.529 214.761 234.529C214.812 231.758 218.115 228.122 219.184 227.109C220.252 226.091 223.199 222.205 224.065 221.159C224.93 220.114 227.978 215.543 228.409 214.298C228.839 213.054 229.63 211.782 230.773 209.112C231.915 206.443 233.595 198.666 233.595 198.666C233.974 196.149 234.774 191.509 234.723 186.814C234.673 182.118 234.062 181.341 232.739 179.546C231.416 177.751 227.335 176.205 225.027 177.242C222.723 178.273 222.334 180.226 222.57 182.206C222.806 184.19 222.755 186.374 222.755 186.374C222.723 193.323 220.891 199.929 220.891 199.929C220.891 199.929 218.656 207.488 215.908 212.434C213.165 217.384 210.926 219.72 209.098 221.515C207.271 223.31 202.117 229.921 197.847 229.954C193.577 229.986 194.475 220.396 194.475 220.396C194.475 220.396 194.729 215.922 194.78 201.738C194.831 187.554 194.22 185.218 192.393 181.863C190.561 178.509 187.767 178.357 181.919 180.235C176.071 182.118 171.954 180.439 171.343 184.251C170.733 188.063 175.766 188.114 178.204 189.946C180.642 191.778 180.489 195.03 181.151 197.57C181.813 200.11 182.678 211.041 182.423 213.836C182.169 216.63 182.372 230.356 182.321 231.8C182.271 233.238 182.881 248.556 182.881 248.556C182.881 248.556 183.441 257.707 183.237 260.094C183.034 262.481 183.339 268.653 183.339 268.653C183.339 268.653 184.052 276.388 183.362 289.577C182.673 302.767 183.057 302.665 182.983 306.047C182.909 309.429 183.922 316.419 184.227 317.715C184.533 319.01 184.991 321.504 184.991 321.504C185.245 324.326 184.713 326.588 182.83 326.537C180.947 326.486 179.143 325.417 177.367 322.674C175.586 319.931 174.137 315.378 173.73 313.551C173.323 311.719 172.995 310.373 172.995 310.373C172.717 308.925 172.107 308.999 171.265 303.739C170.427 298.478 169.562 295.046 169.132 291.41C168.702 287.773 167.175 283.045 166.717 281.088C166.259 279.131 165.954 274.177 165.676 271.151C165.398 268.125 164.482 264.11 163.821 259.308C163.159 254.506 162.04 250.439 162.04 250.439C161.101 246.192 160.971 244.846 160.971 244.846C160.846 242.533 160.462 239.646 160.462 239.646C160.462 238.933 159.074 231.138 159.074 231.138C157.922 223.107 157.344 222.089 156.465 218.023C155.586 213.956 154.531 208.229 154.531 208.229C154.295 206.975 153.819 200.975 152.227 193.656C150.636 186.337 147.379 182.844 147.379 182.844C147.379 182.844 142.938 177.32 135.619 177.353C128.3 177.385 124.844 180.503 124.844 180.503C116.133 187.147 114.838 196.45 114.56 197.26C114.282 198.074 112.654 205.953 112.654 205.953C112.224 207.886 111.076 210.907 111.076 210.907C110.771 211.388 108.791 220.058 108.56 221.076C108.333 222.094 107.542 225.092 107.491 226.082C107.44 227.072 106.524 230.375 106.117 231.471C105.71 232.563 105.178 234.242 104.997 235.283C104.822 236.324 103.6 242.223 103.193 243.467C102.786 244.712 101.667 250.966 101.491 252.211C101.315 253.455 99.594 261.769 99.3534 262.819C99.1175 263.869 98.1321 270.984 97.3872 275.019C96.6424 279.053 95.7958 281.967 95.4534 283.457C95.1157 284.947 93.3531 294.403 92.9136 299.149C92.4741 303.896 91.6599 308.268 90.915 309.725C90.1702 311.182 88.477 311.895 86.1037 310.368C83.7304 308.841 82.0372 306.977 82.1713 304.775C82.3055 302.573 83.3233 300.537 84.813 298.742C86.3026 296.947 87.3528 295.185 87.3528 295.185C91.8588 287.153 92.0994 282.342 92.4695 279.46C92.8442 276.578 91.757 270.105 86.2332 270.277C80.7094 270.448 80.3347 276.342 80.2699 279.733C80.2005 283.124 78.9838 287.019 76.3052 290.711C73.6266 294.403 70.2031 296.813 67.2562 296.744C64.3092 296.674 62.3754 294.879 62.0053 294.338C61.6352 293.797 59.632 291.595 59.632 291.595C58.5495 290.17 51.9709 285.021 49.7364 283.665C47.5019 282.31 41.3998 275.601 39.0959 271.873C36.792 268.144 30.1671 260.501 30.1671 260.501C24.3704 252.928 19.0363 245.406 18.2729 238.591C17.5096 231.781 19.5775 222.663 23.001 211.615C26.4245 200.568 33.3732 194.16 33.3732 194.16C42.066 185.898 51.6979 186.892 51.6979 186.892C60.8487 187.272 66.6686 190.043 69.412 191.875C72.1554 193.707 76.2728 197.634 78.4102 202.649C80.5475 207.664 80.3301 210.019 80.3023 211.014C80.2792 212.004 80.1034 213.512 80.1034 213.512C80.0016 219.716 85.5254 219.309 85.5254 219.309C94.6762 219.545 92.4371 208.039 92.4371 208.039C90.7069 197.769 86.0297 192.129 86.0297 192.129C81.7596 185.773 77.2351 182.571 69.6618 179.319C62.0886 176.067 52.5492 176.303 52.5492 176.303C50.7542 176.201 41.0945 176.474 33.4703 181.318C25.8462 186.166 22.5245 191.588 20.6601 194.401C18.7957 197.214 16.3391 202.779 15.0947 206.008C13.8502 209.237 11.7637 217.167 11.7637 217.167C11.7637 217.167 11.0698 219.785 9.77905 219.785C8.48831 219.785 6.01787 214.872 5.3378 210.061C4.65774 205.249 4.59297 207.146 3.70935 202.673C2.83035 198.199 1.20189 185.523 1.31293 180.984C1.42396 176.441 0.387666 168.581 0.318272 165.463C0.248877 162.345 -0.361794 157.261 0.318272 150.617C0.998338 143.974 2.62217 137.062 2.62217 137.062C3.34387 134.837 4.05632 132.39 4.19048 131.779ZM164.89 163.261C164.89 163.261 181.156 160.481 185.093 153.805C192.411 141.402 190.737 123.1 191.195 117.257C191.653 111.414 190.737 96.0595 190.737 96.0595C190.737 96.0595 190.533 87.5934 190.561 85.5625C190.584 83.5269 190.154 76.3376 190.154 76.3376C190.154 76.3376 189.673 68.9679 189.645 67.7744C189.622 66.5808 189.034 59.5118 188.932 58.2673C188.831 57.0228 188.248 48.8112 188.22 48.0478C188.197 47.2845 187.049 36.3063 187.179 29.5426C187.304 22.7836 188.627 15.104 188.627 15.104C188.627 15.104 189.312 11.9257 190.612 8.87697C191.912 5.82824 193.05 1.50728 183.853 0.868854C174.656 0.230425 174.323 0.0546256 170.052 0.00373639C165.782 -0.0471529 164.404 0.438608 159.653 0.438608C154.901 0.438608 152.255 0.16103 147.657 0.614408C147.657 0.614408 145.723 0.841096 144.862 0.891985C143.997 0.942874 141.277 1.27134 139.218 2.724C137.16 4.17203 136.475 6.58696 136.549 8.79833C136.623 11.0097 137.386 14.646 138.126 21.331C138.862 28.016 139.246 36.6579 139.246 36.6579C139.246 36.6579 140.06 48.7325 139.602 55.5424C139.144 62.3523 138.968 75.2412 138.686 78.3408C138.409 81.4404 137.465 100.783 137.261 103.226C137.058 105.664 135.582 128.388 135.684 130.882C135.786 133.371 136.04 151.672 153.934 160.314C153.934 160.314 158.098 162.507 163.923 163.169C164.191 163.201 164.464 163.224 164.737 163.252C164.788 163.252 164.839 163.256 164.89 163.261ZM171.066 163.261C173.009 163.15 184.838 161.869 189.053 143.771C193.267 125.677 178.014 135.503 178.014 135.503L165.274 150.687L163.173 163.071C163.169 163.071 165.607 163.566 171.066 163.261ZM276.342 112.224C276.342 112.224 275.833 102.717 275.426 98.0396C275.019 93.3624 274.796 87.0753 274.796 87.0753C274.796 87.0753 274.186 75.3152 274.084 74.3992C273.982 73.4832 273.237 62.9121 273.168 61.6584C273.099 60.4047 272.252 49.0193 271.405 45.2582C270.559 41.497 269.273 36.718 264.526 33.4287C259.78 30.1394 256.865 28.1409 254.496 26.8871C252.123 25.6334 249.953 24.6526 246.905 22.1776C243.856 19.7025 240.159 17.2274 238.263 18.1434C236.366 19.0595 236.125 21.9046 237.009 26.5124C237.888 31.1202 239.313 33.017 241.413 39.6604C243.513 46.3037 245.105 50.7079 245.854 54.3026C246.599 57.8926 248.26 64.2306 248.972 67.5199C248.972 67.5199 251.919 80.0572 252.091 81.3479C252.262 82.6386 254.936 91.8542 255.209 93.0756C255.482 94.2969 258.53 105.007 258.665 106.057C258.799 107.107 262.157 119.408 262.393 120.935C262.629 122.462 264.225 129.341 264.799 131.71C265.377 134.083 265.646 136.216 267.274 141.911C268.903 147.606 268.866 147.263 269.407 148.924C269.948 150.585 271.544 155.836 273.575 155.905C275.611 155.975 276.388 152.278 276.559 148.753C276.73 145.228 277.036 139.061 276.934 135.129C276.832 131.196 276.975 125.538 276.952 123.706C276.929 121.874 276.753 119.279 276.342 112.224ZM200.956 242.385C194.322 242.995 194.933 252.475 194.905 253.645C194.882 254.815 195.132 261.297 195.386 264.905C195.641 268.514 195.793 273.14 195.844 273.927C195.895 274.713 195.918 285.21 195.997 286.584C196.075 287.958 196.251 300.232 196.149 303.438C196.048 306.639 196.811 311.978 197.32 314.518C197.829 317.058 198.717 320.897 200.498 322.854C202.279 324.811 205.758 324.941 208.631 324.228C211.504 323.516 218.314 320.694 219.66 320.162C221.007 319.63 224.541 318.612 226.803 317.826C229.066 317.039 230.361 316.452 231.328 316.072C232.295 315.693 234.122 315.082 235.672 314.291C237.222 313.505 239.817 311.215 239.586 306.894C239.359 302.573 238.568 301.148 237.476 297.465C236.384 293.778 235.39 292.256 234.682 290.424C233.969 288.592 233.03 286.103 232.165 284.068C231.3 282.032 230.638 280.154 229.598 278.678C228.557 277.202 227.946 275.907 227.946 275.907C225.61 270.924 225.184 270.994 223.759 268.01C222.334 265.026 219.762 261.773 216.237 256.421C212.712 251.068 209.256 247.474 209.256 247.474C204.532 241.76 200.956 242.385 200.956 242.385ZM115.111 254.797C110.618 255.949 110.012 260.492 109.86 261.154C109.707 261.815 108.472 268.829 108.472 268.829C108.472 268.829 107.473 275.014 107.44 275.791C107.408 276.568 107.167 279.418 105.964 284.553C104.762 289.689 103.628 295.837 103.508 296.262C103.388 296.688 102.49 302.938 102.49 302.938C102.49 302.938 101.778 307.888 101.981 312.408C102.185 316.933 106.177 319.371 106.177 319.371C107.436 320.083 110.688 321.467 114.819 321.888C118.95 322.309 124.733 323.669 124.733 323.669C125.774 323.886 133.199 325.663 133.667 325.852C134.139 326.042 138.011 327.481 141.078 327.939C144.141 328.397 144.992 328.651 149.341 329.364C153.689 330.076 156.738 329.997 156.738 329.997C162.1 329.59 163.474 325.954 163.576 322.272C163.677 318.589 162.179 313.172 162.179 313.172C161.822 312.052 161.008 305.344 160.781 304.201C160.555 303.059 160.12 300.236 159.639 297.872C159.158 295.508 158.824 293.246 158.824 293.246C158.214 287.806 157.094 283.383 156.386 280.232C155.674 277.082 155.776 274.588 155.42 270.522C155.063 266.455 154.503 263.305 153.134 260.659C151.76 258.017 147.948 257.457 145.815 257.457C143.683 257.457 139.362 256.999 136.41 256.592C133.463 256.185 123.854 255.065 123.854 255.065C116.438 254.191 115.111 254.797 115.111 254.797ZM125.617 246.391C125.617 246.391 132.903 247.441 137.002 247.816C141.101 248.191 145.168 248.732 146.222 248.834C147.273 248.935 151.644 250.087 151.57 245.512C151.57 245.512 151.547 244.573 150.451 238.906C149.359 233.238 148.975 232.373 148.466 229.551C147.957 226.729 146.583 221.849 146.583 221.849C146.583 221.849 145.491 217.199 144.983 213.614C144.474 210.028 143.761 204.898 143.761 204.898C143.761 204.898 142.794 199.05 140.509 194.655C138.224 190.26 136.012 189.853 134.18 189.774C132.348 189.7 129.175 190.663 126.505 194.757C126.505 194.757 124.497 198.264 123.507 202.279C122.517 206.295 122.11 206.17 121.652 208.099C121.194 210.028 120.176 213.998 119.163 218.444C118.145 222.889 116.647 227.414 116.596 228.917C116.545 230.416 115.046 234.636 114.764 237.101C114.486 239.567 112.807 245.082 120.176 245.794C127.546 246.507 125.617 246.391 125.617 246.391Z" fill="#FF4E6D"/>
</svg>
