<svg xmlns="http://www.w3.org/2000/svg" width="64" height="45" viewBox="0 0 64 45">
    <g fill="none" fill-rule="evenodd">
        <g fill-rule="nonzero">
            <g>
                <path fill="#000" fill-opacity=".342" d="M62.681 7.041c-.737-2.753-2.9-4.923-5.64-5.665C52.031 0 31.998 0 31.998 0S11.967 0 6.96 1.324c-2.69.74-4.904 2.964-5.641 5.717C0 12.071 0 22.5 0 22.5s0 10.482 1.318 15.459c.738 2.753 2.9 4.923 5.641 5.664C12.019 45 31.999 45 31.999 45s20.033 0 25.041-1.324c2.742-.741 4.904-2.911 5.642-5.664C64 32.982 64 22.553 64 22.553s.052-10.483-1.319-15.512zM25.701 32.5V13l16.63 9.75L25.7 32.5z" transform="translate(-128 -1024) translate(128 1024)"/>
                <path fill="#FFF" d="M25.5 32.5L25.5 13 42 22.75z" transform="translate(-128 -1024) translate(128 1024)"/>
            </g>
        </g>
    </g>
</svg>
