<svg width="1456" height="119" viewBox="0 0 1456 119" fill="none" xmlns="http://www.w3.org/2000/svg">
<g filter="url(#filter0_d)">
<rect x="40" y="20" width="1376" height="39" fill="#E8ECF0"/>
</g>
<path d="M675.907 47V34.1152H684.6V35.6357H677.612V39.626H683.659V41.1465H677.612V47H675.907ZM686.604 47V37.666H688.027V39.0811C688.391 38.4189 688.725 37.9824 689.029 37.7715C689.34 37.5605 689.68 37.4551 690.049 37.4551C690.582 37.4551 691.124 37.625 691.675 37.9648L691.13 39.4326C690.743 39.2041 690.356 39.0898 689.97 39.0898C689.624 39.0898 689.313 39.1953 689.038 39.4062C688.763 39.6113 688.566 39.8984 688.449 40.2676C688.273 40.8301 688.186 41.4453 688.186 42.1133V47H686.604ZM692.026 42.333C692.026 40.6045 692.507 39.3242 693.468 38.4922C694.271 37.8008 695.249 37.4551 696.403 37.4551C697.687 37.4551 698.735 37.877 699.55 38.7207C700.364 39.5586 700.771 40.7188 700.771 42.2012C700.771 43.4023 700.59 44.3486 700.227 45.04C699.869 45.7256 699.345 46.2588 698.653 46.6396C697.968 47.0205 697.218 47.2109 696.403 47.2109C695.097 47.2109 694.039 46.792 693.23 45.9541C692.428 45.1162 692.026 43.9092 692.026 42.333ZM693.652 42.333C693.652 43.5283 693.913 44.4248 694.435 45.0225C694.956 45.6143 695.612 45.9102 696.403 45.9102C697.188 45.9102 697.842 45.6113 698.363 45.0137C698.885 44.416 699.146 43.5049 699.146 42.2803C699.146 41.126 698.882 40.2529 698.354 39.6611C697.833 39.0635 697.183 38.7646 696.403 38.7646C695.612 38.7646 694.956 39.0605 694.435 39.6523C693.913 40.2441 693.652 41.1377 693.652 42.333ZM702.635 47V37.666H704.059V38.9932C704.744 37.9678 705.734 37.4551 707.029 37.4551C707.592 37.4551 708.107 37.5576 708.576 37.7627C709.051 37.9619 709.405 38.2256 709.64 38.5537C709.874 38.8818 710.038 39.2715 710.132 39.7227C710.19 40.0156 710.22 40.5283 710.22 41.2607V47H708.638V41.3223C708.638 40.6777 708.576 40.1973 708.453 39.8809C708.33 39.5586 708.11 39.3037 707.794 39.1162C707.483 38.9229 707.117 38.8262 706.695 38.8262C706.021 38.8262 705.438 39.04 704.946 39.4678C704.46 39.8955 704.217 40.707 704.217 41.9023V47H702.635ZM716.108 45.585L716.337 46.9824C715.892 47.0762 715.493 47.123 715.142 47.123C714.567 47.123 714.122 47.0322 713.806 46.8506C713.489 46.6689 713.267 46.4316 713.138 46.1387C713.009 45.8398 712.944 45.2158 712.944 44.2666V38.8965H711.784V37.666H712.944V35.3545L714.518 34.4053V37.666H716.108V38.8965H714.518V44.3545C714.518 44.8057 714.544 45.0957 714.597 45.2246C714.655 45.3535 714.746 45.4561 714.869 45.5322C714.998 45.6084 715.18 45.6465 715.414 45.6465C715.59 45.6465 715.821 45.626 716.108 45.585ZM717.075 42.333C717.075 40.6045 717.556 39.3242 718.517 38.4922C719.319 37.8008 720.298 37.4551 721.452 37.4551C722.735 37.4551 723.784 37.877 724.599 38.7207C725.413 39.5586 725.82 40.7188 725.82 42.2012C725.82 43.4023 725.639 44.3486 725.275 45.04C724.918 45.7256 724.394 46.2588 723.702 46.6396C723.017 47.0205 722.267 47.2109 721.452 47.2109C720.146 47.2109 719.088 46.792 718.279 45.9541C717.477 45.1162 717.075 43.9092 717.075 42.333ZM718.701 42.333C718.701 43.5283 718.962 44.4248 719.483 45.0225C720.005 45.6143 720.661 45.9102 721.452 45.9102C722.237 45.9102 722.891 45.6113 723.412 45.0137C723.934 44.416 724.194 43.5049 724.194 42.2803C724.194 41.126 723.931 40.2529 723.403 39.6611C722.882 39.0635 722.231 38.7646 721.452 38.7646C720.661 38.7646 720.005 39.0605 719.483 39.6523C718.962 40.2441 718.701 41.1377 718.701 42.333ZM727.648 47V34.1152H729.23V47H727.648ZM739.848 47V35.6357H735.603V34.1152H745.815V35.6357H741.553V47H739.848ZM746.686 47V37.666H748.109V39.0811C748.473 38.4189 748.807 37.9824 749.111 37.7715C749.422 37.5605 749.762 37.4551 750.131 37.4551C750.664 37.4551 751.206 37.625 751.757 37.9648L751.212 39.4326C750.825 39.2041 750.438 39.0898 750.052 39.0898C749.706 39.0898 749.396 39.1953 749.12 39.4062C748.845 39.6113 748.648 39.8984 748.531 40.2676C748.355 40.8301 748.268 41.4453 748.268 42.1133V47H746.686ZM758.788 45.8486C758.202 46.3467 757.637 46.6982 757.092 46.9033C756.553 47.1084 755.973 47.2109 755.352 47.2109C754.326 47.2109 753.538 46.9619 752.987 46.4639C752.437 45.96 752.161 45.3184 752.161 44.5391C752.161 44.082 752.264 43.666 752.469 43.291C752.68 42.9102 752.952 42.6055 753.286 42.377C753.626 42.1484 754.007 41.9756 754.429 41.8584C754.739 41.7764 755.208 41.6973 755.835 41.6211C757.112 41.4688 758.053 41.2871 758.656 41.0762C758.662 40.8594 758.665 40.7217 758.665 40.6631C758.665 40.0186 758.516 39.5645 758.217 39.3008C757.812 38.9434 757.212 38.7646 756.415 38.7646C755.671 38.7646 755.12 38.8965 754.763 39.1602C754.411 39.418 754.15 39.8779 753.98 40.54L752.434 40.3291C752.574 39.667 752.806 39.1338 753.128 38.7295C753.45 38.3193 753.916 38.0059 754.525 37.7891C755.135 37.5664 755.841 37.4551 756.644 37.4551C757.44 37.4551 758.088 37.5488 758.586 37.7363C759.084 37.9238 759.45 38.1611 759.685 38.4482C759.919 38.7295 760.083 39.0869 760.177 39.5205C760.229 39.79 760.256 40.2764 760.256 40.9795V43.0889C760.256 44.5596 760.288 45.4912 760.353 45.8838C760.423 46.2705 760.558 46.6426 760.757 47H759.104C758.94 46.6719 758.835 46.2881 758.788 45.8486ZM758.656 42.3154C758.082 42.5498 757.221 42.749 756.072 42.9131C755.422 43.0068 754.962 43.1123 754.692 43.2295C754.423 43.3467 754.215 43.5195 754.068 43.748C753.922 43.9707 753.849 44.2197 753.849 44.4951C753.849 44.917 754.007 45.2686 754.323 45.5498C754.646 45.8311 755.114 45.9717 755.729 45.9717C756.339 45.9717 756.881 45.8398 757.355 45.5762C757.83 45.3066 758.179 44.9404 758.401 44.4775C758.571 44.1201 758.656 43.5928 758.656 42.8955V42.3154ZM768.772 47V45.8223C768.181 46.748 767.311 47.2109 766.162 47.2109C765.418 47.2109 764.732 47.0059 764.105 46.5957C763.484 46.1855 763.001 45.6143 762.655 44.8818C762.315 44.1436 762.146 43.2969 762.146 42.3418C762.146 41.4102 762.301 40.5664 762.611 39.8105C762.922 39.0488 763.388 38.4658 764.009 38.0615C764.63 37.6572 765.324 37.4551 766.092 37.4551C766.654 37.4551 767.155 37.5752 767.595 37.8154C768.034 38.0498 768.392 38.3574 768.667 38.7383V34.1152H770.24V47H768.772ZM763.771 42.3418C763.771 43.5371 764.023 44.4307 764.527 45.0225C765.031 45.6143 765.626 45.9102 766.312 45.9102C767.003 45.9102 767.589 45.6289 768.069 45.0664C768.556 44.498 768.799 43.6338 768.799 42.4736C768.799 41.1963 768.553 40.2588 768.061 39.6611C767.568 39.0635 766.962 38.7646 766.241 38.7646C765.538 38.7646 764.949 39.0518 764.475 39.626C764.006 40.2002 763.771 41.1055 763.771 42.3418ZM779.126 43.9941L780.761 44.1963C780.503 45.1514 780.025 45.8926 779.328 46.4199C778.631 46.9473 777.74 47.2109 776.656 47.2109C775.291 47.2109 774.207 46.792 773.404 45.9541C772.607 45.1104 772.209 43.9297 772.209 42.4121C772.209 40.8418 772.613 39.623 773.422 38.7559C774.23 37.8887 775.279 37.4551 776.568 37.4551C777.816 37.4551 778.836 37.8799 779.627 38.7295C780.418 39.5791 780.813 40.7744 780.813 42.3154C780.813 42.4092 780.811 42.5498 780.805 42.7373H773.844C773.902 43.7627 774.192 44.5479 774.714 45.0928C775.235 45.6377 775.886 45.9102 776.665 45.9102C777.245 45.9102 777.74 45.7578 778.15 45.4531C778.561 45.1484 778.886 44.6621 779.126 43.9941ZM773.932 41.4365H779.144C779.073 40.6514 778.874 40.0625 778.546 39.6699C778.042 39.0605 777.389 38.7559 776.586 38.7559C775.859 38.7559 775.247 38.999 774.749 39.4854C774.257 39.9717 773.984 40.6221 773.932 41.4365Z" fill="#2E373C"/>
<path fill-rule="evenodd" clip-rule="evenodd" d="M1360 37H1348V45H1360V37ZM1346 37V35V33H1362V35V37V47H1346V37ZM1387.44 40L1382 45.4443L1383.56 46.9999L1389 41.5555L1394.44 47L1396 45.4445L1390.56 40L1396 34.5555L1394.44 33L1389 38.4445L1383.56 33.0001L1382 34.5556L1387.44 40ZM1326 45H1310V47H1326V45Z" fill="#2E373C"/>
<defs>
<filter id="filter0_d" x="0" y="0" width="1456" height="60" filterUnits="userSpaceOnUse" color-interpolation-filters="sRGB">
<feBlend mode="normal" in="SourceGraphic" in2="effect1_dropShadow" result="shape"/>
</filter>
</defs>
</svg>
