<svg width="365" height="312" viewBox="0 0 365 312" fill="none" xmlns="http://www.w3.org/2000/svg">
<rect width="365" height="310" fill="#00B956"/>
<path d="M240.594 151.784C229.101 110.804 191.607 103.929 173.096 105.93C149.256 108.83 129.282 130.092 130.571 161.342C131.172 171.854 133.608 181.371 137.513 189.583M240.594 151.784C241.435 154.784 242.137 157.967 242.682 161.342C252.669 223.197 208.856 224.485 181.15 221.586C162.055 219.587 146.173 207.795 137.513 189.583M240.594 151.784C239.735 143.829 241.86 127.92 257.237 127.92C276.458 127.92 286.268 163.558 287.469 171.567C288.671 179.575 293.906 201.541 303.215 198.861C312.524 196.181 303.356 169.382 300.676 161.342C299.903 159.022 298.578 155.917 297.291 152.549M305.19 136.093C307.964 136.422 313.342 136.319 312.665 133.272C312.205 131.199 310.24 129.126 307.157 128.486M262.169 182.922C264.403 190.528 268.996 201.537 275.768 211.123M317.027 143.011C336.764 178.608 339.042 230.598 308.857 231.162C294.946 231.897 283.817 222.516 275.768 211.123M297.291 152.549C294.116 144.243 291.169 134.346 297.291 130.733C301.212 128.419 304.576 127.951 307.157 128.486M297.291 152.549C299.809 149.417 307.831 142.982 319.77 142.302C324.115 141.546 326.004 138.146 330.349 138.901C334.694 139.657 338 138.146 338 135.029C338 132.825 334.837 129.771 328.175 129.973M318.07 132.195C322.055 130.701 325.415 130.057 328.175 129.973M307.157 128.486C312.368 125.597 323.867 121.849 328.175 129.973M137.513 189.583C134.034 182.908 123.539 169.591 109.398 169.718C91.7218 169.878 89.3326 199.816 96.9765 249.183C98.0913 257.145 88.0584 262.401 83.9179 253.642C80.1968 245.77 75.4469 232.625 70.5925 233.743M127.871 213.512C128.347 221.126 128.96 231.866 129.538 243.609M131.215 309.379C131.726 294.912 130.702 267.231 129.538 243.609M129.538 243.609C127.559 285.778 105.201 295.152 94.2697 294.569C57.6427 293.772 52.3875 263.993 50.3173 256.986C49.3062 253.564 49.1307 250.522 49.6982 248.193M70.5925 233.743C70.0456 233.868 69.4973 234.175 68.9491 234.691C63.5347 239.787 57.9609 242.654 53.8205 243.609C51.7022 244.098 50.2926 245.754 49.6982 248.193M70.5925 233.743C70.9472 225.619 68.9493 209.148 58.1205 208.256C50.3173 207.619 46.8139 217.97 40.7625 220.041C37.6224 221.115 37.2264 223.69 38.6179 225.296M58.1205 224.34C56.5281 220.996 53.8205 220.837 46.3357 225.296C42.7348 227.441 39.908 226.785 38.6179 225.296M49.6982 248.193C46.5073 247.12 38.2781 245.618 30.889 248.193C21.6526 251.412 17.6717 256.861 14.4868 252.527C12.6476 250.024 16.3839 244.89 22.9361 241.12M40.7625 236.602C34.0333 236.333 27.7308 238.361 22.9361 241.12M22.9361 241.12C21.8749 237.597 23.5255 229.5 38.6179 225.296M275.768 211.123C275.019 231.68 273.363 280.111 272.725 309.379M195.794 161.342C195.902 162.938 196.224 165.554 196.843 168.396M200.212 177.772C198.628 175.13 197.544 171.618 196.843 168.396M163.488 170.869C164.19 172.112 165.315 174.361 166.146 176.654M167.215 181.223C167.17 179.901 166.731 178.267 166.146 176.654M166.146 176.654C168.067 176.751 173.152 176.336 178.122 173.906C184.335 170.869 190.574 168.132 196.843 168.396" stroke="#FAFAFA" stroke-width="4" stroke-linecap="round"/>
<path d="M154.451 134.833C152.317 132.423 146.603 130.186 140.819 140.513M184.918 123.989C187.74 119.376 194.894 112.03 200.925 119.548M197.724 125.951C202.165 125.056 211.108 125.125 211.356 132.561C211.666 141.856 202.681 145.16 197.724 143.301C192.766 141.442 187.913 127.913 197.724 125.951ZM148.048 143.301C150.114 142.441 154.906 141.69 157.549 145.573C160.854 150.427 156.517 163.027 148.048 162.511C139.579 161.994 135.365 148.371 148.048 143.301Z" stroke="#FAFAFA" stroke-width="4" stroke-linecap="round"/>
<ellipse cx="147.798" cy="152.746" rx="2.73001" ry="2.58104" fill="#FAFAFA"/>
<ellipse cx="203.985" cy="133.786" rx="2.73001" ry="2.58104" fill="#FAFAFA"/>
</svg>
