<svg width="16" height="16" viewBox="0 0 16 16" fill="none" xmlns="http://www.w3.org/2000/svg">
<path fill-rule="evenodd" clip-rule="evenodd" d="M7.87772 0C10.0026 0 11.9721 0.836601 13.475 2.35294C14.978 3.86928 15.7554 5.85621 15.7554 8C15.7554 10.1438 14.978 12.1307 13.475 13.6471C11.9721 15.1634 10.0026 16 7.87772 16C5.75281 16 3.78338 15.1634 2.2804 13.6471C0.829239 12.183 0 10.1438 0 8C0 5.85621 0.777411 3.86928 2.2804 2.35294C3.78338 0.836601 5.75281 0 7.87772 0ZM1.45116 8C1.45116 11.7124 4.30165 14.5882 7.87772 14.5882C11.4538 14.5882 14.3043 11.7124 14.3043 8C14.3043 4.28758 11.4538 1.41176 7.87772 1.41176C4.24982 1.41176 1.45116 4.28758 1.45116 8ZM9.22517 5.43787H5.33814V4.23525H11.661V10.5621H10.4172V6.69277L10.2617 6.53591L4.71622 12.0784L3.83516 11.1895L9.32883 5.59473L9.22517 5.43787Z" fill="#FAFAFA"/>
</svg>
