<svg width="104" height="104" viewBox="0 0 104 104" fill="none" xmlns="http://www.w3.org/2000/svg">
<circle cx="52" cy="52" r="52" fill="white"/>
<circle cx="52" cy="52" r="45" fill="white" stroke="#E31017" stroke-width="10"/>
<path d="M51.9477 24C40.5475 24 34.2311 31.0096 34 40.7923H42.8583C43.0894 34.3219 46.4787 31.7029 52.1018 31.7029C57.7249 31.7029 60.729 35.4003 60.729 39.3288C60.729 43.8735 58.1871 45.5681 54.5667 48.3411C48.7895 52.8858 46.4787 55.3508 46.4787 61.8212V64.4402H55.337V61.8212C55.337 57.6616 56.6465 56.4292 60.2668 53.8102C65.5048 49.8817 69.6644 46.8776 69.6644 39.3288C69.6644 30.4704 63.348 24 51.9477 24ZM50.8308 80C53.6173 80 55.8762 77.7411 55.8762 74.9546V74.7235C55.8762 71.937 53.6173 69.6781 50.8308 69.6781C48.0443 69.6781 45.7854 71.937 45.7854 74.7235V74.9546C45.7854 77.7411 48.0443 80 50.8308 80Z" fill="black"/>
<path d="M87.7638 27.0261L15.2358 77.4734" stroke="#E31017" stroke-width="7"/>
</svg>
