<svg width="270" height="230" viewBox="0 0 270 230" fill="none" xmlns="http://www.w3.org/2000/svg">
<rect x="142" width="20" height="228" fill="#1A1A1A"/>
<path d="M38.067 21.6531C40.5666 16.6241 41.5323 14.7694 42.8843 13.4409L40.7815 11.3012L42.8843 13.4409C44.1557 12.1915 45.6895 11.2411 47.3742 10.6586C49.1656 10.0393 51.2562 10 56.8721 10H250.8C254.21 10 256.587 10.0023 258.437 10.1535C260.253 10.3019 261.296 10.5784 262.086 10.9809C263.779 11.8438 265.156 13.2206 266.019 14.9141C266.422 15.7042 266.698 16.7472 266.846 18.5627C266.998 20.4132 267 22.7902 267 26.2V156.8C267 160.21 266.998 162.587 266.846 164.437C266.698 166.253 266.422 167.296 266.019 168.086C265.156 169.779 263.779 171.156 262.086 172.019C261.296 172.422 260.253 172.698 258.437 172.846C256.587 172.998 254.21 173 250.8 173H56.8721C51.2562 173 49.1656 172.961 47.3742 172.341C45.6895 171.759 44.1557 170.808 42.8843 169.559C41.5323 168.231 40.5666 166.376 38.067 161.347L4.45629 93.7255C3.73029 92.2648 3.65061 92.0443 3.61752 91.8669C3.57225 91.6244 3.57225 91.3756 3.61752 91.1331C3.65061 90.9557 3.73028 90.7352 4.45629 89.2745L38.067 21.6531Z" fill="white" stroke="#1A1A1A" stroke-width="6"/>
<path fill-rule="evenodd" clip-rule="evenodd" d="M101.867 27.4229H109.25C109.631 27.3936 110.002 27.3789 110.363 27.3789C113.898 27.3789 116.125 28.6436 117.043 31.1729C117.229 31.876 117.321 32.5449 117.321 33.1797C117.321 35.0938 116.467 36.6123 114.758 37.7354C116.623 38.1748 117.795 39.2295 118.273 40.8994C118.381 41.3291 118.454 41.7441 118.493 42.1445C118.542 42.5449 118.566 42.9307 118.566 43.3018C118.566 46.0752 117.199 48.1064 114.465 49.3955H114.289L113.879 49.5713H113.703C113.352 49.708 113.02 49.7861 112.707 49.8057C112.551 49.8057 112.404 49.8105 112.268 49.8203C112.131 49.8301 112.004 49.8447 111.887 49.8643H101.867V27.4229ZM105.793 46.3486H111.125L112.414 46.2314C114.104 45.499 114.948 44.4004 114.948 42.9355C114.948 42.584 114.904 42.2178 114.816 41.8369C114.406 40.8213 113.762 40.0986 112.883 39.6689C112.629 39.6006 112.39 39.5469 112.165 39.5078C111.95 39.4688 111.76 39.4443 111.594 39.4346H105.793V46.3486ZM105.793 36.3877H111.359C111.564 36.3584 111.75 36.3242 111.916 36.2852C112.082 36.2461 112.229 36.2021 112.355 36.1533C113.342 35.46 113.835 34.5811 113.835 33.5166V33.3408C113.835 33.2822 113.83 33.2236 113.82 33.165C113.547 32.2568 113.02 31.5732 112.238 31.1143L111.535 30.9385L111.184 30.8799H105.793V36.3877ZM136.906 40.3721L136.965 41.251C137.004 41.2998 137.023 41.3584 137.023 41.4268V43.1846H126.301C126.525 45.1768 127.541 46.3486 129.348 46.7002C129.641 46.7295 129.929 46.7441 130.212 46.7441C131.687 46.7441 132.941 46.2607 133.977 45.2939C134.104 45.5088 134.26 45.6846 134.445 45.8213L134.504 45.9971L134.68 46.1729C134.816 46.2998 134.934 46.4219 135.031 46.5391C135.129 46.6465 135.207 46.7588 135.266 46.876C135.334 46.915 135.373 46.9541 135.383 46.9932L136.203 47.9307C134.348 49.4834 132.37 50.2598 130.271 50.2598C129.909 50.2598 129.543 50.2354 129.172 50.1865C128.801 50.1377 128.43 50.0693 128.059 49.9814C124.68 48.8584 122.824 46.4365 122.492 42.7158C122.492 42.667 122.487 42.5693 122.478 42.4229V42.1445C122.478 37.0566 124.768 34.1611 129.348 33.458C133.898 33.6143 136.418 35.9189 136.906 40.3721ZM126.242 40.4307H133.332V40.2549C133.293 40.1377 133.273 40.0205 133.273 39.9033V39.7861C133.176 39.5713 133.117 39.376 133.098 39.2002C132.375 37.5303 131.184 36.6904 129.523 36.6807C127.434 37.1787 126.34 38.4287 126.242 40.4307ZM149.445 37.208V33.458H148.684C147.082 33.458 145.715 34.1025 144.582 35.3916C144.543 35.2061 144.523 34.9766 144.523 34.7031V33.8096H140.949V49.7471H144.523V40.958L144.582 40.5479L144.758 39.6104C145.607 37.999 147.004 37.1934 148.947 37.1934H149.196C149.284 37.1934 149.367 37.1982 149.445 37.208ZM166.496 36.6221V36.7979C166.623 37.0322 166.701 37.2666 166.73 37.501V49.7471H163.156V39.376L163.098 39.0244C162.609 37.5498 161.789 36.8125 160.637 36.8125C160.285 36.8125 159.895 36.8857 159.465 37.0322C158.488 37.4521 157.785 38.1162 157.355 39.0244L157.121 40.0205V49.7471H153.605V33.751H157.121V35.0986C158.215 34.1221 159.406 33.5361 160.695 33.3408H160.959C163.576 33.3408 165.422 34.4346 166.496 36.6221ZM183.078 37.3252C182.951 36.7197 182.658 36.1338 182.199 35.5674L182.023 35.2158C180.832 33.9951 179.304 33.3848 177.438 33.3848C177.263 33.3848 177.082 33.3945 176.896 33.4141C176.721 33.4238 176.535 33.4385 176.34 33.458L175.051 33.6924C174.729 33.7119 174.396 33.79 174.055 33.9268L173.586 34.0439C173.41 34.0635 173.215 34.1221 173 34.2197L172.707 34.2783C172.434 34.3662 172.121 34.5029 171.77 34.6885H171.755C171.726 34.6885 171.691 34.708 171.652 34.7471H171.477L171.359 34.8643L171.184 34.9229L171.066 34.9814L170.891 35.04C170.959 35.3135 171.096 35.5869 171.301 35.8604C171.35 36.0361 171.428 36.2119 171.535 36.3877L171.652 36.7393L171.711 36.8564L171.828 36.9736L171.945 37.3252L172.18 37.8525C174.27 37.042 175.915 36.6367 177.116 36.6367C178.845 36.6367 179.709 37.4521 179.709 39.083V39.376C179.709 39.4639 179.699 39.5615 179.68 39.6689L178.215 39.8447H178.039L177.863 39.9033H177.453L177.277 39.9619C177.17 39.9619 177.072 39.9814 176.984 40.0205H176.94C172.517 40.0205 170.305 41.9102 170.305 45.6895V45.7627C170.744 47.7451 172.014 49.1123 174.113 49.8643C174.816 50.1084 175.529 50.2305 176.252 50.2305C177.59 50.2305 178.889 49.7764 180.148 48.8682H180.324C180.979 49.6299 181.877 50.1572 183.02 50.4502C183.088 50.3428 183.161 50.2207 183.239 50.084C183.317 49.9375 183.4 49.7666 183.488 49.5713C183.703 49.3857 183.879 49.1123 184.016 48.751C184.152 48.6143 184.27 48.4385 184.367 48.2236L184.484 48.1064L184.543 47.9307C184.582 47.9209 184.621 47.8818 184.66 47.8135L184.777 47.6377C184.084 47.4912 183.557 47.0615 183.195 46.3486V38.6143C183.195 38.4482 183.186 38.2578 183.166 38.043C183.146 37.8184 183.117 37.5791 183.078 37.3252ZM177.922 42.6572H178.273C178.342 42.6572 178.4 42.6377 178.449 42.5986H179.621V45.3525L179.68 45.5869L179.621 45.7627C179.543 45.8506 179.465 46.0068 179.387 46.2314C178.557 46.9639 177.688 47.3301 176.779 47.3301C176.066 47.3301 175.334 47.1006 174.582 46.6416C174.064 46.1436 173.806 45.6357 173.806 45.1182C173.806 44.5518 174.123 43.9658 174.758 43.3604C174.953 43.3213 175.188 43.2236 175.461 43.0674H175.637L176.574 42.833H176.75C176.818 42.833 176.877 42.8135 176.926 42.7744H177.102L177.336 42.7158H177.424C177.502 42.7158 177.58 42.7109 177.658 42.7012C177.746 42.6914 177.834 42.6768 177.922 42.6572ZM197.492 33.458V37.208C197.414 37.1982 197.331 37.1934 197.243 37.1934H196.994C195.051 37.1934 193.654 37.999 192.805 39.6104L192.629 40.5479L192.57 40.958V49.7471H188.996V33.8096H192.57V34.7031C192.57 34.9766 192.59 35.2061 192.629 35.3916C193.762 34.1025 195.129 33.458 196.73 33.458H197.492ZM215.305 27.4814H211.672V34.8643C210.51 33.9365 209.24 33.4727 207.863 33.4727C207.043 33.4727 206.164 33.6436 205.227 33.9854C202.805 35.001 201.301 36.9346 200.715 39.7861C200.666 40.1768 200.627 40.5527 200.598 40.9141C200.568 41.2754 200.554 41.6318 200.554 41.9834C200.554 46.2803 202.639 49.0049 206.809 50.1572C206.955 50.1768 207.097 50.1914 207.233 50.2012C207.38 50.2109 207.526 50.2158 207.673 50.2158C209.06 50.2158 210.373 49.708 211.613 48.6924C211.652 48.8779 211.672 49.1074 211.672 49.3809V49.8057H215.305V27.4814ZM206.867 46.29C205.412 45.4795 204.533 44.1514 204.23 42.3057C204.221 42.208 204.216 42.1152 204.216 42.0273V41.7344C204.216 39.3027 205.373 37.7158 207.688 36.9736C210.363 37.0322 211.701 38.375 211.701 41.002C211.701 41.3926 211.672 41.8076 211.613 42.2471C211.623 42.3252 211.628 42.4033 211.628 42.4814V42.6865C211.628 45.1865 210.52 46.4365 208.303 46.4365C208.078 46.4365 207.849 46.4268 207.614 46.4072C207.38 46.3779 207.131 46.3389 206.867 46.29ZM134.46 68.6924C134.538 68.6436 134.597 68.585 134.636 68.5166C133.142 64.0146 129.89 61.7637 124.88 61.7637H124.543C124.436 61.7637 124.323 61.7686 124.206 61.7783C120.104 62.2373 117.312 64.5615 115.827 68.751C115.28 70.3428 115.007 71.9443 115.007 73.5557C115.007 75.8994 115.593 78.2822 116.765 80.7041C118.669 83.8877 121.555 85.4795 125.422 85.4795H125.92C126.096 85.4795 126.267 85.4697 126.433 85.4502C130.515 85.0498 133.249 82.7646 134.636 78.5947L133.581 78.3604L133.171 78.3018L132.937 78.2432L131.999 78.0674L131.882 78.0088C131.784 77.999 131.682 77.9893 131.574 77.9795C131.467 77.96 131.354 77.9307 131.237 77.8916L130.944 77.833C130.056 80.6064 128.044 81.9932 124.909 81.9932H124.851C121.989 81.7295 120.173 80.1475 119.401 77.2471C119.099 76.0947 118.947 74.8984 118.947 73.6582C118.947 72.0957 119.196 70.4795 119.694 68.8096C119.87 68.5752 120.026 68.2822 120.163 67.9307L120.28 67.8721L120.339 67.6963L120.632 67.4033L120.69 67.2275C120.827 67.1396 120.969 67.0273 121.115 66.8906C121.271 66.7539 121.442 66.5928 121.628 66.4072L121.804 66.3486L121.921 66.2314L122.097 66.1143L122.272 66.0557C122.312 66.0459 122.351 66.0068 122.39 65.9385C122.575 65.8896 122.771 65.8115 122.976 65.7041L123.386 65.5283C123.454 65.5283 123.513 65.5088 123.562 65.4697C124.284 65.3037 124.943 65.2207 125.539 65.2207C128.088 65.2207 129.89 66.6123 130.944 69.3955L131.882 69.2197L131.999 69.1611L132.409 69.1025L132.644 69.0439C132.712 69.0439 132.771 69.0244 132.819 68.9854H132.878C133.024 68.9854 133.2 68.9463 133.405 68.8682C133.513 68.8682 133.61 68.8486 133.698 68.8096H133.933L134.167 68.751L134.46 68.6924ZM149.562 70.5674L149.387 70.2158C148.195 68.9951 146.667 68.3848 144.802 68.3848C144.626 68.3848 144.445 68.3945 144.26 68.4141C144.084 68.4238 143.898 68.4385 143.703 68.458L142.414 68.6924C142.092 68.7119 141.76 68.79 141.418 68.9268L140.949 69.0439C140.773 69.0635 140.578 69.1221 140.363 69.2197L140.07 69.2783C139.797 69.3662 139.484 69.5029 139.133 69.6885H139.118C139.089 69.6885 139.055 69.708 139.016 69.7471H138.84L138.723 69.8643L138.547 69.9229L138.43 69.9814L138.254 70.04C138.322 70.3135 138.459 70.5869 138.664 70.8604C138.713 71.0361 138.791 71.2119 138.898 71.3877L139.016 71.7393L139.074 71.8564L139.191 71.9736L139.309 72.3252L139.543 72.8525C141.633 72.042 143.278 71.6367 144.479 71.6367C146.208 71.6367 147.072 72.4521 147.072 74.083V74.376C147.072 74.4639 147.062 74.5615 147.043 74.6689L145.578 74.8447H145.402L145.227 74.9033H144.816L144.641 74.9619C144.533 74.9619 144.436 74.9814 144.348 75.0205H144.304C139.88 75.0205 137.668 76.9102 137.668 80.6895V80.7627C138.107 82.7451 139.377 84.1123 141.477 84.8643C142.18 85.1084 142.893 85.2305 143.615 85.2305C144.953 85.2305 146.252 84.7764 147.512 83.8682H147.688C148.342 84.6299 149.24 85.1572 150.383 85.4502C150.451 85.3428 150.524 85.2207 150.603 85.084C150.681 84.9375 150.764 84.7666 150.852 84.5713C151.066 84.3857 151.242 84.1123 151.379 83.751C151.516 83.6143 151.633 83.4385 151.73 83.2236L151.848 83.1064L151.906 82.9307C151.945 82.9209 151.984 82.8818 152.023 82.8135L152.141 82.6377C151.447 82.4912 150.92 82.0615 150.559 81.3486V73.6143C150.559 73.4482 150.549 73.2578 150.529 73.043C150.51 72.8184 150.48 72.5791 150.441 72.3252C150.314 71.7197 150.021 71.1338 149.562 70.5674ZM145.285 77.6572H145.637C145.705 77.6572 145.764 77.6377 145.812 77.5986H146.984V80.3525L147.043 80.5869L146.984 80.7627C146.906 80.8506 146.828 81.0068 146.75 81.2314C145.92 81.9639 145.051 82.3301 144.143 82.3301C143.43 82.3301 142.697 82.1006 141.945 81.6416C141.428 81.1436 141.169 80.6357 141.169 80.1182C141.169 79.5518 141.486 78.9658 142.121 78.3604C142.316 78.3213 142.551 78.2236 142.824 78.0674H143L143.938 77.833H144.113C144.182 77.833 144.24 77.8135 144.289 77.7744H144.465L144.699 77.7158H144.787C144.865 77.7158 144.943 77.7109 145.021 77.7012C145.109 77.6914 145.197 77.6768 145.285 77.6572ZM167.375 70.9775L167.199 71.1533L167.023 71.2705L166.789 71.6221L166.672 71.7393L166.555 71.7979C166.428 71.9736 166.311 72.1104 166.203 72.208L165.441 73.0869C163.82 72.042 162.478 71.5195 161.413 71.5195C160.319 71.5195 159.514 72.0615 158.996 73.1455C159.016 73.7803 159.27 74.249 159.758 74.5518C159.973 74.6104 160.129 74.6689 160.227 74.7275C160.607 74.7861 160.92 74.8643 161.164 74.9619C164.865 75.2354 166.936 76.7197 167.375 79.415C167.395 79.5322 167.404 79.6494 167.404 79.7666V80.0889C167.404 82.0518 166.574 83.5264 164.914 84.5127C163.723 85.0498 162.526 85.3184 161.325 85.3184C159.04 85.3184 156.76 84.3467 154.484 82.4033L154.602 82.1689L154.895 81.876C155.09 81.6416 155.266 81.4658 155.422 81.3486C155.461 81.2803 155.5 81.2412 155.539 81.2314L155.656 81.0557C155.695 80.9873 155.734 80.9482 155.773 80.9385L155.832 80.8213L155.949 80.7627L156.711 79.8838C158.156 81.251 159.67 81.9346 161.252 81.9346C161.916 81.9346 162.59 81.8174 163.273 81.583C163.449 81.3486 163.625 81.1729 163.801 81.0557C163.859 80.8213 163.889 80.6016 163.889 80.3965C163.889 79.8887 163.723 79.4639 163.391 79.1221L162.043 78.6533C158.02 78.4092 155.832 76.6904 155.48 73.4971C155.744 70.2842 157.561 68.5654 160.93 68.3408H161.135C163.723 68.3408 165.861 69.1416 167.551 70.7432L167.375 70.9775ZM176.633 68.8096V62.7158C176.633 62.6182 176.594 62.5205 176.516 62.4229L175.637 62.7744H175.622C175.593 62.7744 175.559 62.7939 175.52 62.833H175.505C175.476 62.833 175.441 62.8525 175.402 62.8916L174.934 63.0088L174.758 63.126C174.689 63.126 174.631 63.1455 174.582 63.1846C174.514 63.1846 174.455 63.2041 174.406 63.2432C174.338 63.2432 174.279 63.2627 174.23 63.3018L173.938 63.3604L173.762 63.4775L173.293 63.5947L173.059 63.7119V68.8096H170.246V71.8564H173.059V80.8359C173.059 80.9824 173.063 81.1436 173.073 81.3193C173.083 81.4854 173.098 81.6709 173.117 81.876V82.0518C173.166 82.2666 173.244 82.501 173.352 82.7549L173.469 83.1064L173.527 83.2236C174.367 84.4639 175.739 85.084 177.644 85.084C178.112 85.084 178.61 85.0449 179.138 84.9668C179.675 84.8887 180.246 84.7764 180.852 84.6299L180.676 83.165C180.666 83.0869 180.651 82.999 180.632 82.9014C180.622 82.7939 180.598 82.6865 180.559 82.5791V82.4326C180.559 82.3545 180.554 82.2764 180.544 82.1982C180.534 82.1104 180.52 82.0225 180.5 81.9346V81.583L180.441 81.4072C179.816 81.6416 179.235 81.7588 178.698 81.7588C177.927 81.7588 177.258 81.5049 176.691 80.9971C176.672 80.8604 176.657 80.7188 176.647 80.5723C176.638 80.416 176.633 80.2451 176.633 80.0596V71.8564H180.852V68.8096H176.633ZM184.309 62.3643H187.883V78.5947C187.873 78.7217 187.868 78.8438 187.868 78.9609V79.2979C187.868 79.9619 187.912 80.5283 188 80.9971C188.42 81.5342 189.064 81.8027 189.934 81.8027C190.305 81.8027 190.734 81.749 191.223 81.6416V81.9932L191.281 82.1689L191.398 82.9893V83.3408L191.457 83.458V83.8096L191.633 84.8057C190.549 85.0693 189.582 85.2012 188.732 85.2012C186.467 85.2012 185.012 84.2686 184.367 82.4033C184.357 82.3057 184.348 82.2178 184.338 82.1396C184.338 82.0615 184.328 81.9932 184.309 81.9346V62.3643ZM207.688 76.251L207.629 75.3721C207.141 70.9189 204.621 68.6143 200.07 68.458C195.49 69.1611 193.2 72.0566 193.2 77.1445V77.4229C193.21 77.5693 193.215 77.667 193.215 77.7158C193.547 81.4365 195.402 83.8584 198.781 84.9814C199.152 85.0693 199.523 85.1377 199.895 85.1865C200.266 85.2354 200.632 85.2598 200.993 85.2598C203.093 85.2598 205.07 84.4834 206.926 82.9307L206.105 81.9932C206.096 81.9541 206.057 81.915 205.988 81.876C205.93 81.7588 205.852 81.6465 205.754 81.5391C205.656 81.4219 205.539 81.2998 205.402 81.1729L205.227 80.9971L205.168 80.8213C204.982 80.6846 204.826 80.5088 204.699 80.2939C203.664 81.2607 202.409 81.7441 200.935 81.7441C200.651 81.7441 200.363 81.7295 200.07 81.7002C198.264 81.3486 197.248 80.1768 197.023 78.1846H207.746V76.4268C207.746 76.3584 207.727 76.2998 207.688 76.251ZM204.055 75.4307H196.965C197.062 73.4287 198.156 72.1787 200.246 71.6807C201.906 71.6904 203.098 72.5303 203.82 74.2002C203.84 74.376 203.898 74.5713 203.996 74.7861V74.9033C203.996 75.0205 204.016 75.1377 204.055 75.2549V75.4307ZM160.695 97.3643H157.121V116.935C157.141 116.993 157.15 117.062 157.15 117.14C157.16 117.218 157.17 117.306 157.18 117.403C157.824 119.269 159.279 120.201 161.545 120.201C162.395 120.201 163.361 120.069 164.445 119.806L164.27 118.81V118.458L164.211 118.341V117.989L164.094 117.169L164.035 116.993V116.642C163.547 116.749 163.117 116.803 162.746 116.803C161.877 116.803 161.232 116.534 160.812 115.997C160.725 115.528 160.681 114.962 160.681 114.298V113.961C160.681 113.844 160.686 113.722 160.695 113.595V97.3643ZM115.915 97.4229H101.853V119.864H116.56V116.407H105.954C105.798 116.407 105.72 116.31 105.72 116.114V110.255H115.036V106.798H105.939C105.803 106.798 105.729 106.72 105.72 106.563V100.938H115.915V97.4229ZM130.52 103.868V104.981C129.318 104.005 127.868 103.517 126.169 103.517H125.949C123.85 103.819 122.248 104.991 121.145 107.032C120.461 108.263 120.119 109.571 120.119 110.958C120.119 111.446 120.158 111.944 120.236 112.452C120.324 112.96 120.451 113.478 120.617 114.005C121.193 116.046 122.561 117.491 124.719 118.341C125.363 118.536 125.988 118.634 126.594 118.634C127.951 118.634 129.26 118.165 130.52 117.228V119.688C130.451 120.011 130.295 120.343 130.051 120.685L129.992 120.86C128.938 121.505 127.8 121.827 126.579 121.827C125.231 121.827 123.771 121.427 122.199 120.626L122.082 121.036C121.965 121.212 121.848 121.446 121.73 121.739L121.613 121.974L121.555 122.149L121.32 122.735L121.027 123.38L120.91 123.614C122.766 124.679 124.792 125.211 126.989 125.211C128.2 125.211 129.455 125.05 130.754 124.728L131.984 124.142L132.219 123.849C132.6 123.565 132.932 123.175 133.215 122.677L133.449 122.325L133.625 121.974L133.859 121.271L133.918 120.919L133.977 120.802L134.035 120.157V103.868H130.52ZM126.535 107.032H126.799C126.818 107.032 126.848 107.013 126.887 106.974C129.211 107.003 130.402 108.312 130.461 110.899C130.471 110.978 130.476 111.056 130.476 111.134V111.354C130.476 113.639 129.436 114.913 127.355 115.177C125.266 115.089 124.094 113.937 123.84 111.72C123.811 111.495 123.796 111.275 123.796 111.061C123.796 109.771 124.279 108.585 125.246 107.501L126.535 107.032ZM148.566 104.981V103.868H152.082V120.157L152.023 120.802L151.965 120.919L151.906 121.271L151.672 121.974L151.496 122.325L151.262 122.677C150.979 123.175 150.646 123.565 150.266 123.849L150.031 124.142L148.801 124.728C147.502 125.05 146.247 125.211 145.036 125.211C142.839 125.211 140.812 124.679 138.957 123.614L139.074 123.38L139.367 122.735L139.602 122.149L139.66 121.974L139.777 121.739C139.895 121.446 140.012 121.212 140.129 121.036L140.246 120.626C141.818 121.427 143.278 121.827 144.626 121.827C145.847 121.827 146.984 121.505 148.039 120.86L148.098 120.685C148.342 120.343 148.498 120.011 148.566 119.688V117.228C147.307 118.165 145.998 118.634 144.641 118.634C144.035 118.634 143.41 118.536 142.766 118.341C140.607 117.491 139.24 116.046 138.664 114.005C138.498 113.478 138.371 112.96 138.283 112.452C138.205 111.944 138.166 111.446 138.166 110.958C138.166 109.571 138.508 108.263 139.191 107.032C140.295 104.991 141.896 103.819 143.996 103.517H144.216C145.915 103.517 147.365 104.005 148.566 104.981ZM144.846 107.032H144.582L143.293 107.501C142.326 108.585 141.843 109.771 141.843 111.061C141.843 111.275 141.857 111.495 141.887 111.72C142.141 113.937 143.312 115.089 145.402 115.177C147.482 114.913 148.522 113.639 148.522 111.354V111.134C148.522 111.056 148.518 110.978 148.508 110.899C148.449 108.312 147.258 107.003 144.934 106.974C144.895 107.013 144.865 107.032 144.846 107.032ZM180.441 110.372L180.5 111.251C180.539 111.3 180.559 111.358 180.559 111.427V113.185H169.836C170.061 115.177 171.076 116.349 172.883 116.7C173.176 116.729 173.464 116.744 173.747 116.744C175.222 116.744 176.477 116.261 177.512 115.294C177.639 115.509 177.795 115.685 177.98 115.821L178.039 115.997L178.215 116.173C178.352 116.3 178.469 116.422 178.566 116.539C178.664 116.646 178.742 116.759 178.801 116.876C178.869 116.915 178.908 116.954 178.918 116.993L179.738 117.931C177.883 119.483 175.905 120.26 173.806 120.26C173.444 120.26 173.078 120.235 172.707 120.187C172.336 120.138 171.965 120.069 171.594 119.981C168.215 118.858 166.359 116.437 166.027 112.716C166.027 112.667 166.022 112.569 166.013 112.423V112.145C166.013 107.057 168.303 104.161 172.883 103.458C177.434 103.614 179.953 105.919 180.441 110.372ZM169.777 110.431H176.867V110.255C176.828 110.138 176.809 110.021 176.809 109.903V109.786C176.711 109.571 176.652 109.376 176.633 109.2C175.91 107.53 174.719 106.69 173.059 106.681C170.969 107.179 169.875 108.429 169.777 110.431ZM195.5 105.978L195.676 105.743C193.986 104.142 191.848 103.341 189.26 103.341H189.055C185.686 103.565 183.869 105.284 183.605 108.497C183.957 111.69 186.145 113.409 190.168 113.653L191.516 114.122C191.848 114.464 192.014 114.889 192.014 115.396C192.014 115.602 191.984 115.821 191.926 116.056C191.75 116.173 191.574 116.349 191.398 116.583C190.715 116.817 190.041 116.935 189.377 116.935C187.795 116.935 186.281 116.251 184.836 114.884L184.074 115.763L183.957 115.821L183.898 115.938C183.859 115.948 183.82 115.987 183.781 116.056L183.664 116.231C183.625 116.241 183.586 116.28 183.547 116.349C183.391 116.466 183.215 116.642 183.02 116.876L182.727 117.169L182.609 117.403C184.885 119.347 187.165 120.318 189.45 120.318C190.651 120.318 191.848 120.05 193.039 119.513C194.699 118.526 195.529 117.052 195.529 115.089V114.767C195.529 114.649 195.52 114.532 195.5 114.415C195.061 111.72 192.99 110.235 189.289 109.962C189.045 109.864 188.732 109.786 188.352 109.728C188.254 109.669 188.098 109.61 187.883 109.552C187.395 109.249 187.141 108.78 187.121 108.146C187.639 107.062 188.444 106.52 189.538 106.52C190.603 106.52 191.945 107.042 193.566 108.087L194.328 107.208C194.436 107.11 194.553 106.974 194.68 106.798L194.797 106.739L194.914 106.622L195.148 106.271L195.324 106.153L195.5 105.978ZM204.758 97.7158V103.81H208.977V106.856H204.758V115.06C204.758 115.245 204.763 115.416 204.772 115.572C204.782 115.719 204.797 115.86 204.816 115.997C205.383 116.505 206.052 116.759 206.823 116.759C207.36 116.759 207.941 116.642 208.566 116.407L208.625 116.583V116.935C208.645 117.022 208.659 117.11 208.669 117.198C208.679 117.276 208.684 117.354 208.684 117.433V117.579C208.723 117.687 208.747 117.794 208.757 117.901C208.776 117.999 208.791 118.087 208.801 118.165L208.977 119.63C208.371 119.776 207.8 119.889 207.263 119.967C206.735 120.045 206.237 120.084 205.769 120.084C203.864 120.084 202.492 119.464 201.652 118.224L201.594 118.106L201.477 117.755C201.369 117.501 201.291 117.267 201.242 117.052V116.876C201.223 116.671 201.208 116.485 201.198 116.319C201.188 116.144 201.184 115.982 201.184 115.836V106.856H198.371V103.81H201.184V98.7119L201.418 98.5947L201.887 98.4775L202.062 98.3604L202.355 98.3018C202.404 98.2627 202.463 98.2432 202.531 98.2432C202.58 98.2041 202.639 98.1846 202.707 98.1846C202.756 98.1455 202.814 98.126 202.883 98.126L203.059 98.0088L203.527 97.8916C203.566 97.8525 203.601 97.833 203.63 97.833H203.645C203.684 97.7939 203.718 97.7744 203.747 97.7744H203.762L204.641 97.4229C204.719 97.5205 204.758 97.6182 204.758 97.7158ZM226.921 111.734C226.921 110.172 226.584 108.585 225.91 106.974C224.348 104.464 221.984 103.209 218.82 103.209H218.557C218.469 103.209 218.381 103.214 218.293 103.224C213.83 104.22 211.599 107.159 211.599 112.042V112.438C211.599 112.564 211.604 112.696 211.613 112.833C211.74 115.44 212.932 117.53 215.188 119.103C216.389 119.894 217.712 120.289 219.157 120.289C219.528 120.279 219.904 120.255 220.285 120.216C220.666 120.167 221.057 120.089 221.457 119.981C224.182 119.259 225.881 117.442 226.555 114.532C226.799 113.624 226.921 112.691 226.921 111.734ZM219.23 116.817C216.896 116.583 215.568 115.157 215.246 112.54C215.217 112.228 215.202 111.93 215.202 111.646C215.202 108.951 216.447 107.296 218.938 106.681C221.877 106.886 223.347 108.468 223.347 111.427C223.356 111.681 223.347 111.944 223.317 112.218C223.288 112.491 223.254 112.774 223.215 113.067C222.951 115.343 221.623 116.593 219.23 116.817ZM244.309 106.622V106.798C244.436 107.032 244.514 107.267 244.543 107.501V119.747H240.969V109.376L240.91 109.024C240.422 107.55 239.602 106.812 238.449 106.812C238.098 106.812 237.707 106.886 237.277 107.032C236.301 107.452 235.598 108.116 235.168 109.024L234.934 110.021V119.747H231.418V103.751H234.934V105.099C236.027 104.122 237.219 103.536 238.508 103.341H238.771C241.389 103.341 243.234 104.435 244.309 106.622ZM178.054 136.407C178.298 137.178 178.42 137.92 178.42 138.633C178.42 140.557 177.497 142.061 175.651 143.145C177.565 144.394 178.601 146.035 178.757 148.066C178.767 148.125 178.771 148.188 178.771 148.256V148.432C178.771 150.219 178.161 151.679 176.94 152.812C175.075 154.403 173.083 155.199 170.964 155.199C170.036 155.199 169.099 155.048 168.151 154.745C165.183 153.808 163.425 151.952 162.878 149.179V148.916C162.878 146.318 163.913 144.434 165.983 143.262C164.167 141.914 163.259 140.313 163.259 138.457C163.259 137.969 163.327 137.442 163.464 136.876C164.499 134.093 166.647 132.491 169.909 132.071C170.026 132.062 170.139 132.057 170.246 132.057H170.583C174.147 132.057 176.638 133.507 178.054 136.407ZM167.097 139.278C167.731 141.006 168.889 141.87 170.568 141.87C170.715 141.87 170.861 141.865 171.008 141.856C171.164 141.836 171.325 141.817 171.491 141.797C173.435 141.514 174.47 140.498 174.597 138.75C174.353 136.592 173.073 135.513 170.759 135.513H170.51C170.432 135.513 170.349 135.518 170.261 135.528C168.151 135.919 167.097 137.066 167.097 138.97V139.278ZM166.745 148.593C167.155 150.722 168.43 151.786 170.568 151.786H170.876L171.198 151.757C173.542 151.601 174.792 150.449 174.948 148.3C174.567 146.035 173.176 144.902 170.773 144.902H170.495C168.112 145.205 166.862 146.435 166.745 148.593ZM139.074 137.11H138.84C138.625 137.227 138.41 137.305 138.195 137.344C137.98 137.442 137.785 137.501 137.609 137.52C137.561 137.559 137.502 137.579 137.434 137.579L137.258 137.696L137.082 137.754C136.975 137.793 136.872 137.818 136.774 137.828C136.677 137.837 136.584 137.852 136.496 137.872C136.193 138.028 135.92 138.125 135.676 138.165C134.826 136.358 133.562 135.455 131.882 135.455C131.53 135.455 131.154 135.499 130.754 135.587C128.352 136.417 127.15 138.248 127.15 141.079V141.489C127.16 141.626 127.17 141.768 127.18 141.914C128.898 140.479 130.622 139.761 132.351 139.761C133.894 139.761 135.451 140.342 137.023 141.504C138.684 143.213 139.514 145.098 139.514 147.158C139.514 147.715 139.445 148.31 139.309 148.945C138.625 152.001 136.906 153.993 134.152 154.921C133.293 155.126 132.473 155.229 131.691 155.229C129.406 155.229 127.492 154.345 125.949 152.577C124.27 150.527 123.43 148.32 123.43 145.957V145.664L123.312 145.254C123.293 145 123.278 144.756 123.269 144.521C123.259 144.277 123.254 144.038 123.254 143.804C123.254 140.972 123.879 138.448 125.129 136.231C126.438 133.761 128.371 132.374 130.93 132.071H131.237C135.114 132.071 137.727 133.751 139.074 137.11ZM127.414 148.066C127.727 149.58 128.488 150.673 129.699 151.347C130.441 151.562 131.13 151.669 131.765 151.669C133.845 151.669 135.09 150.449 135.5 148.007V147.744C135.5 144.639 133.977 143.086 130.93 143.086C128.566 143.73 127.385 145.166 127.385 147.392V147.729C127.395 147.837 127.404 147.949 127.414 148.066ZM101.867 132.423H109.25C109.631 132.394 110.002 132.379 110.363 132.379C113.898 132.379 116.125 133.643 117.043 136.173C117.229 136.876 117.321 137.544 117.321 138.179C117.321 140.093 116.467 141.611 114.758 142.734C116.623 143.174 117.795 144.228 118.273 145.898C118.381 146.328 118.454 146.743 118.493 147.143C118.542 147.544 118.566 147.929 118.566 148.3C118.566 151.074 117.199 153.105 114.465 154.394H114.289L113.879 154.569H113.703C113.352 154.706 113.02 154.784 112.707 154.804C112.551 154.804 112.404 154.809 112.268 154.818C112.131 154.828 112.004 154.843 111.887 154.862H101.867V132.423ZM105.793 151.347H111.125L112.414 151.23C114.104 150.497 114.948 149.399 114.948 147.934C114.948 147.583 114.904 147.216 114.816 146.836C114.406 145.82 113.762 145.098 112.883 144.668C112.629 144.6 112.39 144.546 112.165 144.507C111.95 144.468 111.76 144.443 111.594 144.434H105.793V151.347ZM105.793 141.387H111.359C111.564 141.358 111.75 141.323 111.916 141.284C112.082 141.245 112.229 141.201 112.355 141.153C113.342 140.459 113.835 139.58 113.835 138.516V138.34C113.835 138.282 113.83 138.223 113.82 138.165C113.547 137.256 113.02 136.573 112.238 136.114L111.535 135.938L111.184 135.88H105.793V141.387ZM158.146 139.043C158.127 138.789 158.098 138.536 158.059 138.282C157.463 134.18 154.934 132.13 150.471 132.13H150.09C145.549 132.667 143.278 135.211 143.278 139.761V140.113C143.278 140.22 143.283 140.332 143.293 140.449H147.043C146.984 140.069 146.955 139.712 146.955 139.38C146.955 137.769 147.629 136.641 148.977 135.997C149.582 135.704 150.173 135.557 150.749 135.557C151.677 135.557 152.59 135.919 153.488 136.641L153.898 137.227C154.104 138.018 154.206 138.78 154.206 139.512C154.206 142.1 152.932 144.326 150.383 146.191C150.207 146.396 149.973 146.611 149.68 146.836L149.562 147.011H149.548C149.519 147.011 149.484 147.031 149.445 147.07C149.406 147.08 149.367 147.119 149.328 147.187L148.977 147.422L148.801 147.597L148.039 148.183L147.922 148.242L147.863 148.359L147.453 148.593L147.336 148.769C147.268 148.779 147.209 148.818 147.16 148.886L146.984 148.945C146.926 148.994 146.857 149.047 146.779 149.106C146.701 149.165 146.613 149.228 146.516 149.296L146.398 149.355L146.281 149.472L145.93 149.707L145.754 149.882C145.549 149.96 145.354 150.078 145.168 150.234L144.934 150.351L144.758 150.527L143.527 151.171L143.293 151.347V154.804H158.176V151.347H149.387C149.523 151.269 149.675 151.166 149.841 151.039C150.007 150.903 150.188 150.751 150.383 150.585L150.91 150.292L151.027 150.117C151.096 150.107 151.154 150.068 151.203 149.999L151.379 149.941L151.496 149.765C151.672 149.697 151.848 149.56 152.023 149.355C152.16 149.287 152.297 149.169 152.434 149.003C152.629 148.896 152.824 148.72 153.02 148.476L153.195 148.418L153.84 147.715C153.879 147.705 153.918 147.666 153.957 147.597L154.133 147.48L154.25 147.304C154.582 147.06 154.953 146.689 155.363 146.191L155.422 146.074C155.461 146.064 155.5 146.025 155.539 145.957L156.066 145.488L156.184 145.312L156.301 145.195L156.418 145.019L156.477 144.844L156.652 144.726L157.18 143.73L157.297 143.613L157.473 143.145L157.531 142.969L157.648 142.793C158 141.836 158.176 140.835 158.176 139.79C158.176 139.546 158.166 139.297 158.146 139.043ZM197.873 139.043C197.854 138.789 197.824 138.536 197.785 138.282C197.189 134.18 194.66 132.13 190.197 132.13H189.816C185.275 132.667 183.005 135.211 183.005 139.761V140.113C183.005 140.22 183.01 140.332 183.02 140.449H186.77C186.711 140.069 186.682 139.712 186.682 139.38C186.682 137.769 187.355 136.641 188.703 135.997C189.309 135.704 189.899 135.557 190.476 135.557C191.403 135.557 192.316 135.919 193.215 136.641L193.625 137.227C193.83 138.018 193.933 138.78 193.933 139.512C193.933 142.1 192.658 144.326 190.109 146.191C189.934 146.396 189.699 146.611 189.406 146.836L189.289 147.011H189.274C189.245 147.011 189.211 147.031 189.172 147.07C189.133 147.08 189.094 147.119 189.055 147.187L188.703 147.422L188.527 147.597L187.766 148.183L187.648 148.242L187.59 148.359L187.18 148.593L187.062 148.769C186.994 148.779 186.936 148.818 186.887 148.886L186.711 148.945C186.652 148.994 186.584 149.047 186.506 149.106C186.428 149.165 186.34 149.228 186.242 149.296L186.125 149.355L186.008 149.472L185.656 149.707L185.48 149.882C185.275 149.96 185.08 150.078 184.895 150.234L184.66 150.351L184.484 150.527L183.254 151.171L183.02 151.347V154.804H197.902V151.347H189.113C189.25 151.269 189.401 151.166 189.567 151.039C189.733 150.903 189.914 150.751 190.109 150.585L190.637 150.292L190.754 150.117C190.822 150.107 190.881 150.068 190.93 149.999L191.105 149.941L191.223 149.765C191.398 149.697 191.574 149.56 191.75 149.355C191.887 149.287 192.023 149.169 192.16 149.003C192.355 148.896 192.551 148.72 192.746 148.476L192.922 148.418L193.566 147.715C193.605 147.705 193.645 147.666 193.684 147.597L193.859 147.48L193.977 147.304C194.309 147.06 194.68 146.689 195.09 146.191L195.148 146.074C195.188 146.064 195.227 146.025 195.266 145.957L195.793 145.488L195.91 145.312L196.027 145.195L196.145 145.019L196.203 144.844L196.379 144.726L196.906 143.73L197.023 143.613L197.199 143.145L197.258 142.969L197.375 142.793C197.727 141.836 197.902 140.835 197.902 139.79C197.902 139.546 197.893 139.297 197.873 139.043Z" fill="#1A1A1A"/>
<path d="M53 22H83L50 91.5L83 161H53L20 91.5L53 22Z" fill="#1A1A1A"/>
<rect x="112" y="228" width="80" height="2" fill="#1A1A1A"/>
</svg>
