<svg width="20" height="20" viewBox="0 0 20 20" fill="none" xmlns="http://www.w3.org/2000/svg">
<path fill-rule="evenodd" clip-rule="evenodd" d="M9.84715 0C12.5033 0 14.9651 1.04575 16.8438 2.94118C18.7225 4.8366 19.6943 7.32026 19.6943 10C19.6943 12.6797 18.7225 15.1634 16.8438 17.0588C14.9651 18.9542 12.5033 20 9.84715 20C7.19101 20 4.72923 18.9542 2.8505 17.0588C1.03655 15.2288 0 12.6797 0 10C0 7.32026 0.971764 4.8366 2.8505 2.94118C4.72923 1.04575 7.19101 0 9.84715 0ZM1.81395 10C1.81395 14.6405 5.37706 18.2353 9.84715 18.2353C14.3172 18.2353 17.8804 14.6405 17.8804 10C17.8804 5.35948 14.3172 1.76471 9.84715 1.76471C5.31228 1.76471 1.81395 5.35948 1.81395 10ZM11.5313 6.79736H6.67252V5.2941H14.5762V13.2026H13.0213V8.36599L12.827 8.16991L5.89512 15.098L4.7938 13.9869L11.6609 6.99344L11.5313 6.79736Z" fill="#1A1A1A"/>
</svg>
