<svg width="131" height="93" viewBox="0 0 131 93" fill="none" xmlns="http://www.w3.org/2000/svg">
<rect x="2.5" y="2.5" width="126" height="88" rx="8.5" fill="white"/>
<path d="M29.5 16.7812H33.625V27.4062L33.875 27.0938L34.25 26.7188C34.2917 26.6458 34.3333 26.6042 34.375 26.5938L34.4375 26.4688L34.5625 26.3438L35.375 25.4062L35.6875 25.0938L35.75 24.9062L36.125 24.5938L36.1875 24.4688L36.875 23.6562L37.125 23.3438L37.8125 22.5938L38.0625 22.3438L38.25 22.0312C38.3646 21.8854 38.474 21.7656 38.5781 21.6719C38.6927 21.5677 38.7917 21.4792 38.875 21.4062C39.0625 21.0729 39.2708 20.8229 39.5 20.6562L40.125 19.8438L40.3125 19.6562L40.5 19.4062L41 18.9062L41.5625 18.2188L41.6875 18.0938C41.7292 18.0208 41.7708 17.9792 41.8125 17.9688L41.875 17.8438L42 17.7188L42.8125 16.7812H47.625C47.3646 17.2292 47.0729 17.5833 46.75 17.8438C46.6667 17.9896 46.5625 18.1146 46.4375 18.2188L46.1875 18.5938L45.6875 19.0938L45.3125 19.5938L45.1875 19.7188C45.1146 19.8125 45.0417 19.8958 44.9688 19.9688C44.8958 20.0417 44.8229 20.1042 44.75 20.1562C44.5 20.5729 44.2292 20.8854 43.9375 21.0938L43.75 21.3438L43.0625 22.2188L42.875 22.4062C42.75 22.5417 42.6406 22.6667 42.5469 22.7812C42.4531 22.8854 42.375 22.9896 42.3125 23.0938L42.125 23.2188L41.9375 23.4062L41.8125 23.6562L41.5 23.9688L41.375 24.1562L41.25 24.2812L41.125 24.4688L40.9375 24.5938L40.875 24.7188L40.75 24.8438C40.3125 25.4062 39.9375 25.8229 39.625 26.0938C39.8542 26.5938 40.0625 26.9688 40.25 27.2188L40.4375 27.6562C40.5312 27.75 40.5938 27.8542 40.625 27.9688L40.875 28.2812L41.125 28.7188L41.25 28.9688L41.375 29.1562L41.5 29.4062L41.5625 29.5938L41.6875 29.6562L41.75 29.9062C41.7917 29.9375 41.8125 29.9688 41.8125 30V30.0312C42.0938 30.3229 42.2812 30.6354 42.375 30.9688L42.625 31.4062L42.75 31.5312L43.375 32.5938L43.625 33.0312L43.8125 33.4688L44.0625 33.7812L44.125 33.9688C44.2292 34.1042 44.3177 34.2344 44.3906 34.3594C44.4635 34.4844 44.5208 34.6042 44.5625 34.7188L44.75 34.9688L44.875 35.2812L45.0625 35.5312L45.5 36.2812L45.75 36.6562L45.8125 36.9062L46 37.1562L46.0625 37.3438C46.1354 37.3958 46.1771 37.4583 46.1875 37.5312L46.3125 37.7812C46.5208 38.0104 46.6667 38.2604 46.75 38.5312C47.0104 38.8021 47.1771 39.0729 47.25 39.3438L47.375 39.4688L48 40.6562H43.375L43.1875 40.2188L43 40.0312L42.875 39.7812L42.625 39.3438L42.5625 39.1562L42.4375 39.0312L42.375 38.9062C42.2917 38.7604 42.2135 38.6302 42.1406 38.5156C42.0781 38.401 42.0104 38.3021 41.9375 38.2188L41.875 38.0312L41.75 37.7812L41.5 37.4062L41.3125 37.0312L41.125 36.7188L40.875 36.3438L40.6875 36.0312L40.625 35.9062C40.3646 35.4896 40.1771 35.1354 40.0625 34.8438C39.9688 34.7292 39.9062 34.625 39.875 34.5312C39.8542 34.5104 39.8385 34.4948 39.8281 34.4844C39.8177 34.4635 39.8125 34.4427 39.8125 34.4219V34.4062C39.4896 33.9896 39.2604 33.6146 39.125 33.2812L39.0625 33.0938C38.7917 32.7708 38.6042 32.5 38.5 32.2812L38.4375 32.0312L38.3125 31.8438L38.125 31.5938L38.0625 31.4062L37.8125 31.0312L37.75 30.8438L37.625 30.7188L37.5625 30.5938L37.5 30.4062L37.375 30.3438C37.2083 29.9792 37.0417 29.6667 36.875 29.4062L36.75 29.5312L36.6875 29.6562C36.5104 29.8021 36.3854 29.9479 36.3125 30.0938L36.125 30.2188L35.5625 30.9688L35.3125 31.1562L35.0625 31.5312L34.875 31.6562C34.6667 31.9896 34.4583 32.2396 34.25 32.4062C34.0521 32.6875 33.8438 32.9167 33.625 33.0938V40.6562H29.5V16.7812ZM65.375 30.5312L65.4375 31.4688C65.4792 31.5208 65.5 31.5833 65.5 31.6562V33.5312H54.0625C54.3021 35.6562 55.3854 36.9062 57.3125 37.2812C57.625 37.3125 57.9323 37.3281 58.2344 37.3281C59.8073 37.3281 61.1458 36.8125 62.25 35.7812C62.3854 36.0104 62.5521 36.1979 62.75 36.3438L62.8125 36.5312L63 36.7188C63.1458 36.8542 63.2708 36.9844 63.375 37.1094C63.4792 37.224 63.5625 37.3438 63.625 37.4688C63.6979 37.5104 63.7396 37.5521 63.75 37.5938L64.625 38.5938C62.6458 40.25 60.5365 41.0781 58.2969 41.0781C57.9115 41.0781 57.5208 41.0521 57.125 41C56.7292 40.9479 56.3333 40.875 55.9375 40.7812C52.3333 39.5833 50.3542 37 50 33.0312C50 32.9792 49.9948 32.875 49.9844 32.7188C49.9844 32.5625 49.9844 32.4635 49.9844 32.4219C49.9844 26.9948 52.4271 23.9062 57.3125 23.1562C62.1667 23.3229 64.8542 25.7812 65.375 30.5312ZM54 30.5938H61.5625V30.4062C61.5208 30.2812 61.5 30.1562 61.5 30.0312V29.9062C61.3958 29.6771 61.3333 29.4688 61.3125 29.2812C60.5417 27.5 59.2708 26.6042 57.5 26.5938C55.2708 27.125 54.1042 28.4583 54 30.5938ZM83.8125 30.5312L83.875 31.4688C83.9167 31.5208 83.9375 31.5833 83.9375 31.6562V33.5312H72.5C72.7396 35.6562 73.8229 36.9062 75.75 37.2812C76.0625 37.3125 76.3698 37.3281 76.6719 37.3281C78.2448 37.3281 79.5833 36.8125 80.6875 35.7812C80.8229 36.0104 80.9896 36.1979 81.1875 36.3438L81.25 36.5312L81.4375 36.7188C81.5833 36.8542 81.7083 36.9844 81.8125 37.1094C81.9167 37.224 82 37.3438 82.0625 37.4688C82.1354 37.5104 82.1771 37.5521 82.1875 37.5938L83.0625 38.5938C81.0833 40.25 78.974 41.0781 76.7344 41.0781C76.349 41.0781 75.9583 41.0521 75.5625 41C75.1667 40.9479 74.7708 40.875 74.375 40.7812C70.7708 39.5833 68.7917 37 68.4375 33.0312C68.4375 32.9792 68.4323 32.875 68.4219 32.7188C68.4219 32.5625 68.4219 32.4635 68.4219 32.4219C68.4219 26.9948 70.8646 23.9062 75.75 23.1562C80.6042 23.3229 83.2917 25.7812 83.8125 30.5312ZM72.4375 30.5938H80V30.4062C79.9583 30.2812 79.9375 30.1562 79.9375 30.0312V29.9062C79.8333 29.6771 79.7708 29.4688 79.75 29.2812C78.9792 27.5 77.7083 26.6042 75.9375 26.5938C73.7083 27.125 72.5417 28.4583 72.4375 30.5938ZM96.1875 23.1562C96.4583 23.1562 96.7083 23.1719 96.9375 23.2031C97.1771 23.224 97.3854 23.25 97.5625 23.2812C101.594 24.75 103.609 27.5938 103.609 31.8125C103.609 32.1875 103.594 32.5729 103.562 32.9688C103.281 36.6146 101.656 39.0938 98.6875 40.4062C97.6771 40.7812 96.7083 40.9688 95.7812 40.9688C94.2396 40.9688 92.8542 40.4479 91.625 39.4062V45.9062H87.875V23.4688H91.625V24.7812C92.6979 23.9062 93.8646 23.3646 95.125 23.1562H96.1875ZM91.75 31.4062C91.7188 31.6458 91.6979 31.875 91.6875 32.0938C91.6771 32.3125 91.6719 32.526 91.6719 32.7344C91.6719 34.224 92.0312 35.4062 92.75 36.2812C93.6458 36.9062 94.5208 37.2188 95.375 37.2188C96.0521 37.2188 96.7188 37.0312 97.375 36.6562C98.9062 35.5312 99.6719 34.0365 99.6719 32.1719C99.6719 31.9219 99.6562 31.6667 99.625 31.4062C99.1458 28.7083 97.6667 27.25 95.1875 27.0312C92.8854 27.5 91.7344 28.7812 91.7344 30.875V31.1406C91.7344 31.224 91.7396 31.3125 91.75 31.4062ZM44.3125 60.7812L43.625 61.0312C43.4688 61.1562 43.3021 61.2604 43.125 61.3438L43 61.4062L42.625 61.5312C42.4583 61.6667 42.2917 61.75 42.125 61.7812L41.125 62.3438C40.2188 60.5729 38.9271 59.6875 37.25 59.6875C36.9583 59.6875 36.6458 59.7188 36.3125 59.7812L36.125 59.9062L35.9375 59.9688L35.25 60.3438C35.0833 60.5417 34.9271 60.7188 34.7812 60.875C34.6354 61.0312 34.5 61.1667 34.375 61.2812C33.7188 62.625 33.3906 63.9167 33.3906 65.1562C33.3906 66.4688 33.7604 67.7396 34.5 68.9688C35.2812 69.9792 36.2344 70.4844 37.3594 70.4844C37.4115 70.4844 37.4635 70.4844 37.5156 70.4844C37.5781 70.4844 37.6354 70.4792 37.6875 70.4688C39.3854 70.1979 40.5521 69.3229 41.1875 67.8438L41.8125 68.2188L42.0625 68.3438C42.2917 68.4062 42.4583 68.4688 42.5625 68.5312L42.8125 68.6562L42.9375 68.7812L44.3125 69.4062C42.6458 72.3542 40.349 73.8281 37.4219 73.8281C37.1927 73.8281 36.9583 73.8177 36.7188 73.7969C36.4792 73.776 36.2396 73.75 36 73.7188C32.2708 72.9375 30.1458 70.5833 29.625 66.6562C29.5625 66.125 29.5312 65.6042 29.5312 65.0938C29.5312 63.25 29.9583 61.5833 30.8125 60.0938C32.1146 57.75 34.1146 56.5 36.8125 56.3438C40.3854 56.4271 42.8854 57.9062 44.3125 60.7812ZM59.5 58.0312L59.6875 58.4062C60.1771 59.0104 60.4896 59.6354 60.625 60.2812C60.6667 60.5521 60.6979 60.8073 60.7188 61.0469C60.7396 61.276 60.75 61.4792 60.75 61.6562V69.9062C61.1354 70.6667 61.6979 71.125 62.4375 71.2812L62.3125 71.4688C62.2708 71.5417 62.2292 71.5833 62.1875 71.5938L62.125 71.7812L62 71.9062C61.8958 72.1354 61.7708 72.3229 61.625 72.4688C61.4792 72.8542 61.2917 73.1458 61.0625 73.3438C60.9688 73.5521 60.8802 73.7344 60.7969 73.8906C60.7135 74.0365 60.6354 74.1667 60.5625 74.2812C59.3438 73.9688 58.3854 73.4062 57.6875 72.5938H57.5C56.1562 73.5625 54.7708 74.0469 53.3438 74.0469C52.5729 74.0469 51.8125 73.9167 51.0625 73.6562C48.8229 72.8542 47.4688 71.3958 47 69.2812V69.2031C47 65.1719 49.3594 63.1562 54.0781 63.1562H54.125C54.2188 63.1146 54.3229 63.0938 54.4375 63.0938L54.625 63.0312H55.0625L55.25 62.9688H55.4375L57 62.7812C57.0208 62.6667 57.0312 62.5625 57.0312 62.4688V62.1562C57.0312 60.4167 56.1094 59.5469 54.2656 59.5469C52.9844 59.5469 51.2292 59.9792 49 60.8438L48.75 60.2812L48.625 59.9062L48.5 59.7812L48.4375 59.6562L48.3125 59.2812C48.1979 59.0938 48.1146 58.9062 48.0625 58.7188C47.8438 58.4271 47.6979 58.1354 47.625 57.8438L47.8125 57.7812L47.9375 57.7188L48.125 57.6562L48.25 57.5312H48.4375C48.4792 57.4896 48.5156 57.4688 48.5469 57.4688H48.5625C48.9375 57.2708 49.2708 57.125 49.5625 57.0312L49.875 56.9688C50.1042 56.8646 50.3125 56.8021 50.5 56.7812L51 56.6562C51.3646 56.5104 51.7188 56.4271 52.0625 56.4062L53.4375 56.1562C53.6458 56.1354 53.8438 56.1198 54.0312 56.1094C54.2292 56.0885 54.4219 56.0781 54.6094 56.0781C56.599 56.0781 58.2292 56.7292 59.5 58.0312ZM55.5 65.9688H55.125C55.0312 65.9896 54.9375 66.0052 54.8438 66.0156C54.7604 66.026 54.6771 66.0312 54.5938 66.0312H54.5L54.25 66.0938H54.0625C54.0104 66.1354 53.9479 66.1562 53.875 66.1562H53.6875L52.6875 66.4062H52.5C52.2083 66.5729 51.9583 66.6771 51.75 66.7188C51.0729 67.3646 50.7344 67.9896 50.7344 68.5938C50.7344 69.1458 51.0104 69.6875 51.5625 70.2188C52.3646 70.7083 53.1458 70.9531 53.9062 70.9531C54.875 70.9531 55.8021 70.5625 56.6875 69.7812C56.7708 69.5417 56.8542 69.375 56.9375 69.2812L57 69.0938L56.9375 68.8438V65.9062H55.6875C55.6354 65.9479 55.5729 65.9688 55.5 65.9688ZM66.6875 49.6562H70.5V66.9688C70.4896 67.1042 70.4844 67.2344 70.4844 67.3594V67.7188C70.4844 68.4271 70.5312 69.0312 70.625 69.5312C71.0729 70.1042 71.7604 70.3906 72.6875 70.3906C73.0833 70.3906 73.5417 70.3333 74.0625 70.2188V70.5938L74.125 70.7812L74.25 71.6562V72.0312L74.3125 72.1562V72.5312L74.5 73.5938C73.3438 73.875 72.3125 74.0156 71.4062 74.0156C68.9896 74.0156 67.4375 73.0208 66.75 71.0312C66.7396 70.9271 66.7292 70.8333 66.7188 70.75C66.7188 70.6667 66.7083 70.5938 66.6875 70.5312V49.6562ZM89.1875 58.3438C90.6458 56.9375 92.1979 56.2344 93.8438 56.2344C94.2396 56.2344 94.6354 56.276 95.0312 56.3594C95.4271 56.4427 95.8333 56.5625 96.25 56.7188C97.4688 57.2292 98.4062 57.9792 99.0625 58.9688L99.125 59.0938L99.25 59.4688L99.3125 59.5938L99.6875 60.7812C99.7083 61.0208 99.724 61.2448 99.7344 61.4531C99.7448 61.6615 99.75 61.8542 99.75 62.0312V73.5312H96V62.9062L95.875 61.8438C95.7396 61.6146 95.6562 61.3854 95.625 61.1562C95.0104 60.1667 94.2812 59.6719 93.4375 59.6719C92.9271 59.6719 92.3646 59.8542 91.75 60.2188C91.1354 60.6771 90.6979 61.1979 90.4375 61.7812L90.3125 62.5312V73.5312H86.5V62.4688L86.4375 61.9062L86.3125 61.6562V61.4688C86.2083 61.3021 86.1198 61.151 86.0469 61.0156C85.974 60.8698 85.9167 60.7292 85.875 60.5938C85.2917 60.0417 84.6458 59.75 83.9375 59.7188C82.5729 59.9062 81.5938 60.5521 81 61.6562L80.875 62.0938L80.8125 62.7812C80.8438 62.8646 80.8646 62.9427 80.875 63.0156C80.8854 63.0781 80.8906 63.1458 80.8906 63.2188C80.8906 63.3021 80.8854 63.3646 80.875 63.4062V73.5312H77V56.4688H80.875V57.7188C82.0312 56.8542 83.2396 56.3542 84.5 56.2188H84.5625C86.5833 56.2188 88.125 56.9271 89.1875 58.3438Z" fill="#1A1A1A"/>
<rect x="2.5" y="2.5" width="126" height="88" rx="8.5" stroke="#1A1A1A" stroke-width="5"/>
</svg>
