<svg width="43" height="24" viewBox="0 0 43 24" fill="none" xmlns="http://www.w3.org/2000/svg">
<rect x="24.221" y="7.40498" width="15.5" height="15.5" transform="rotate(-8.78468 24.221 7.40498)" fill="black" stroke="black" stroke-width="1.5"/>
<path d="M33.9639 9.67155C34.0743 10.4756 33.4871 11.242 32.6524 11.3834C31.8177 11.5249 31.0517 10.9878 30.9413 10.1838C30.831 9.37974 31.4182 8.61329 32.2529 8.47185C33.0875 8.33041 33.8536 8.86753 33.9639 9.67155Z" fill="white"/>
<path d="M32.1631 18.0898C32.2735 18.8938 33.0397 19.431 33.8744 19.2897C34.7091 19.1484 35.2962 18.382 35.1858 17.578C35.0753 16.774 34.3092 16.2368 33.4745 16.3781C32.6398 16.5195 32.0527 17.2858 32.1631 18.0898Z" fill="white"/>
<rect x="3.18717" y="0.854341" width="15.5" height="15.5" transform="rotate(8.65665 3.18717 0.854341)" fill="black" stroke="black" stroke-width="1.5"/>
<path fill-rule="evenodd" clip-rule="evenodd" d="M14.0419 7.78719C14.8767 7.92678 15.6415 7.38772 15.7502 6.58318C15.8589 5.77863 15.2702 5.01325 14.4354 4.87366C13.6006 4.73407 12.8358 5.27313 12.7271 6.07768C12.6184 6.88222 13.2071 7.6476 14.0419 7.78719ZM6.13304 6.58309C6.96782 6.72268 7.73262 6.18362 7.84127 5.37908C7.94992 4.57453 7.36128 3.80915 6.52651 3.66956C5.69173 3.52997 4.92693 4.06903 4.81828 4.87357C4.70963 5.67812 5.29827 6.4435 6.13304 6.58309Z" fill="white"/>
<path d="M3.61455 12.7822C3.50584 13.5866 4.09443 14.3517 4.92919 14.4912C5.76396 14.6306 6.5288 14.0916 6.63751 13.2873C6.74622 12.4829 6.15763 11.7178 5.32286 11.5784C4.4881 11.4389 3.72326 11.9779 3.61455 12.7822Z" fill="white"/>
<path d="M11.5236 13.9862C11.4149 14.7906 12.0035 15.5557 12.8384 15.6951C13.6732 15.8346 14.438 15.2957 14.5467 14.4913C14.6554 13.687 14.0668 12.9219 13.232 12.7824C12.3972 12.6429 11.6323 13.1819 11.5236 13.9862Z" fill="white"/>
</svg>
