<svg width="1880" height="1040" viewBox="0 0 1880 1040" fill="none" xmlns="http://www.w3.org/2000/svg">
<mask id="mask0_2471:7387" style="mask-type:alpha" maskUnits="userSpaceOnUse" x="0" y="0" width="1880" height="1040">
<rect width="1880" height="1040" fill="#C4C4C4"/>
</mask>
<g mask="url(#mask0_2471:7387)">
<path d="M938.4 125H1944.2C1949.87 125 1952.01 125.023 1953.94 125.41C1958.05 126.234 1961.81 128.266 1964.75 131.246C1966.14 132.647 1967.33 134.426 1970.44 139.165L2018.77 212.765C2022.52 218.474 2023.91 220.654 2024.7 222.827C2026.39 227.461 2026.39 232.539 2024.7 237.173C2023.91 239.346 2022.52 241.526 2018.77 247.235L1970.44 320.835C1967.33 325.574 1966.14 327.353 1964.75 328.754C1961.81 331.734 1958.05 333.766 1953.94 334.59C1952.01 334.977 1949.87 335 1944.2 335H938.4C928.332 335 924.484 334.938 921.511 333.972C915.117 331.895 910.105 326.883 908.028 320.489C907.062 317.516 907 313.668 907 303.6V156.4C907 146.332 907.062 142.484 908.028 139.511C910.105 133.117 915.117 128.105 921.511 126.028C924.484 125.062 928.332 125 938.4 125Z" fill="#FAFAFA" stroke="#1A1A1A" stroke-width="10"/>
<path d="M1155.75 191.96V201.2H1181.05V265H1190.95V201.2H1216.25V191.96H1155.75ZM1230.88 287.44V259.5C1234.73 263.79 1240.78 266.43 1247.93 266.43C1264.65 266.43 1273.56 253.67 1273.56 239.7C1273.56 225.73 1264.65 212.97 1247.93 212.97C1240.78 212.97 1234.73 215.61 1230.88 219.9V214.4H1221.42V287.44H1230.88ZM1230.55 239.7C1230.55 227.71 1238.8 221.77 1247.6 221.77C1257.39 221.77 1264.1 230.02 1264.1 239.7C1264.1 249.38 1257.39 257.63 1247.6 257.63C1238.8 257.63 1230.55 251.69 1230.55 239.7ZM1308.05 212.97C1296.5 212.97 1286.27 218.69 1283.41 229.14H1293.86C1295.95 224.3 1301.89 221.77 1308.05 221.77C1316.41 221.77 1322.79 224.85 1322.79 233.21H1306.84C1295.07 233.21 1284.62 237.28 1284.62 249.6C1284.62 260.93 1293.31 266.43 1305.19 266.43C1313.11 266.43 1318.83 263.79 1322.79 259.5V265H1332.25V232.77C1332.25 220.12 1322.46 212.97 1308.05 212.97ZM1322.79 244.76C1322.79 252.35 1316.41 257.63 1306.18 257.63C1298.81 257.63 1294.08 255.21 1294.08 249.6C1294.08 243.99 1298.81 241.46 1306.73 241.46H1322.79V244.76ZM1387.76 214.4V235.3H1358.17V214.4H1348.71V265H1358.17V243.66H1387.76V265H1397.22V214.4H1387.76ZM1461.75 229.14C1458.12 219.35 1449.21 212.97 1437.88 212.97C1422.92 212.97 1411.48 224.41 1411.48 239.7C1411.48 254.99 1422.92 266.43 1437.88 266.43C1449.21 266.43 1458.12 260.05 1461.75 250.26H1451.41C1448.77 254.77 1443.93 257.63 1437.88 257.63C1427.98 257.63 1420.94 249.82 1420.94 239.7C1420.94 229.58 1427.98 221.77 1437.88 221.77C1443.93 221.77 1448.77 224.63 1451.41 229.14H1461.75ZM1504.07 191.41V214.4H1499.01C1483.39 214.4 1472.17 225.07 1472.17 239.59C1472.17 254.88 1482.18 265 1499.01 265H1504.07V287.44H1513.53V265H1518.59C1535.42 265 1545.43 254.88 1545.43 239.59C1545.43 225.07 1534.21 214.4 1518.59 214.4H1513.53V191.41H1504.07ZM1518.26 222.76C1529.37 222.76 1535.97 229.91 1535.97 239.59C1535.97 249.27 1530.25 256.64 1518.37 256.64H1513.53V222.76H1518.26ZM1504.07 222.76V256.64H1499.23C1487.35 256.64 1481.63 249.27 1481.63 239.59C1481.63 229.91 1488.23 222.76 1499.34 222.76H1504.07ZM1582.9 257.63C1574.1 257.63 1567.39 251.47 1566.18 243.22H1606.99C1607.32 241.79 1607.21 240.25 1607.21 239.04C1607.21 224.52 1596.76 212.97 1582.35 212.97C1567.06 212.97 1556.39 224.41 1556.39 239.59C1556.39 255.21 1567.61 266.43 1582.9 266.43C1594.01 266.43 1603.03 260.6 1606.55 250.81H1596.32C1593.68 255.32 1588.95 257.63 1582.9 257.63ZM1582.35 221.77C1590.71 221.77 1596.1 227.05 1597.31 234.97H1566.29C1567.5 227.05 1573.55 221.77 1582.35 221.77ZM1630.92 287.44V259.5C1634.77 263.79 1640.82 266.43 1647.97 266.43C1664.69 266.43 1673.6 253.67 1673.6 239.7C1673.6 225.73 1664.69 212.97 1647.97 212.97C1640.82 212.97 1634.77 215.61 1630.92 219.9V214.4H1621.46V287.44H1630.92ZM1630.59 239.7C1630.59 227.71 1638.84 221.77 1647.64 221.77C1657.43 221.77 1664.14 230.02 1664.14 239.7C1664.14 249.38 1657.43 257.63 1647.64 257.63C1638.84 257.63 1630.59 251.69 1630.59 239.7ZM1740.31 214.4V265H1749.77V214.4H1740.31ZM1697.3 231.12V214.4H1687.84V265H1712.7C1725.79 265 1731.73 257.19 1731.73 248.06C1731.73 238.93 1725.79 231.12 1712.7 231.12H1697.3ZM1697.3 256.64V239.48H1712.37C1718.53 239.48 1722.27 242.45 1722.27 248.06C1722.27 253.67 1718.53 256.64 1712.37 256.64H1697.3Z" fill="#1A1A1A"/>
<path d="M1155.75 191.96V190.96H1154.75V191.96H1155.75ZM1155.75 201.2H1154.75V202.2H1155.75V201.2ZM1181.05 201.2H1182.05V200.2H1181.05V201.2ZM1181.05 265H1180.05V266H1181.05V265ZM1190.95 265V266H1191.95V265H1190.95ZM1190.95 201.2V200.2H1189.95V201.2H1190.95ZM1216.25 201.2V202.2H1217.25V201.2H1216.25ZM1216.25 191.96H1217.25V190.96H1216.25V191.96ZM1154.75 191.96V201.2H1156.75V191.96H1154.75ZM1155.75 202.2H1181.05V200.2H1155.75V202.2ZM1180.05 201.2V265H1182.05V201.2H1180.05ZM1181.05 266H1190.95V264H1181.05V266ZM1191.95 265V201.2H1189.95V265H1191.95ZM1190.95 202.2H1216.25V200.2H1190.95V202.2ZM1217.25 201.2V191.96H1215.25V201.2H1217.25ZM1216.25 190.96H1155.75V192.96H1216.25V190.96ZM1230.88 287.44V288.44H1231.88V287.44H1230.88ZM1230.88 259.5L1231.62 258.832L1229.88 256.889V259.5H1230.88ZM1230.88 219.9H1229.88V222.511L1231.62 220.568L1230.88 219.9ZM1230.88 214.4H1231.88V213.4H1230.88V214.4ZM1221.42 214.4V213.4H1220.42V214.4H1221.42ZM1221.42 287.44H1220.42V288.44H1221.42V287.44ZM1231.88 287.44V259.5H1229.88V287.44H1231.88ZM1230.13 260.168C1234.2 264.698 1240.54 267.43 1247.93 267.43V265.43C1241.02 265.43 1235.26 262.882 1231.62 258.832L1230.13 260.168ZM1247.93 267.43C1256.57 267.43 1263.25 264.125 1267.77 258.962C1272.27 253.817 1274.56 246.89 1274.56 239.7H1272.56C1272.56 246.48 1270.4 252.918 1266.26 257.645C1262.14 262.355 1256.01 265.43 1247.93 265.43V267.43ZM1274.56 239.7C1274.56 232.51 1272.27 225.583 1267.77 220.438C1263.25 215.275 1256.57 211.97 1247.93 211.97V213.97C1256.01 213.97 1262.14 217.045 1266.26 221.755C1270.4 226.482 1272.56 232.92 1272.56 239.7H1274.56ZM1247.93 211.97C1240.54 211.97 1234.2 214.702 1230.13 219.232L1231.62 220.568C1235.26 216.518 1241.02 213.97 1247.93 213.97V211.97ZM1231.88 219.9V214.4H1229.88V219.9H1231.88ZM1230.88 213.4H1221.42V215.4H1230.88V213.4ZM1220.42 214.4V287.44H1222.42V214.4H1220.42ZM1221.42 288.44H1230.88V286.44H1221.42V288.44ZM1231.55 239.7C1231.55 233.948 1233.52 229.74 1236.46 226.966C1239.41 224.18 1243.42 222.77 1247.6 222.77V220.77C1242.98 220.77 1238.46 222.33 1235.09 225.511C1231.7 228.705 1229.55 233.462 1229.55 239.7H1231.55ZM1247.6 222.77C1256.73 222.77 1263.1 230.456 1263.1 239.7H1265.1C1265.1 229.584 1258.05 220.77 1247.6 220.77V222.77ZM1263.1 239.7C1263.1 248.944 1256.73 256.63 1247.6 256.63V258.63C1258.05 258.63 1265.1 249.816 1265.1 239.7H1263.1ZM1247.6 256.63C1243.42 256.63 1239.41 255.22 1236.46 252.434C1233.52 249.66 1231.55 245.452 1231.55 239.7H1229.55C1229.55 245.938 1231.7 250.695 1235.09 253.889C1238.46 257.07 1242.98 258.63 1247.6 258.63V256.63ZM1283.41 229.14L1282.44 228.876L1282.1 230.14H1283.41V229.14ZM1293.86 229.14V230.14H1294.51L1294.77 229.536L1293.86 229.14ZM1322.79 233.21V234.21H1323.79V233.21H1322.79ZM1322.79 259.5H1323.79V256.942L1322.05 258.822L1322.79 259.5ZM1322.79 265H1321.79V266H1322.79V265ZM1332.25 265V266H1333.25V265H1332.25ZM1322.79 241.46H1323.79V240.46H1322.79V241.46ZM1308.05 211.97C1296.21 211.97 1285.46 217.853 1282.44 228.876L1284.37 229.404C1287.07 219.527 1296.78 213.97 1308.05 213.97V211.97ZM1283.41 230.14H1293.86V228.14H1283.41V230.14ZM1294.77 229.536C1296.63 225.227 1302.07 222.77 1308.05 222.77V220.77C1301.7 220.77 1295.26 223.373 1292.94 228.744L1294.77 229.536ZM1308.05 222.77C1312.13 222.77 1315.58 223.527 1317.98 225.179C1320.33 226.789 1321.79 229.325 1321.79 233.21H1323.79C1323.79 228.735 1322.06 225.551 1319.12 223.531C1316.24 221.553 1312.32 220.77 1308.05 220.77V222.77ZM1322.79 232.21H1306.84V234.21H1322.79V232.21ZM1306.84 232.21C1300.86 232.21 1295.09 233.238 1290.78 235.937C1286.4 238.68 1283.62 243.099 1283.62 249.6H1285.62C1285.62 243.781 1288.05 240.005 1291.84 237.633C1295.7 235.217 1301.04 234.21 1306.84 234.21V232.21ZM1283.62 249.6C1283.62 255.552 1285.91 260.064 1289.84 263.059C1293.73 266.025 1299.11 267.43 1305.19 267.43V265.43C1299.38 265.43 1294.48 264.085 1291.05 261.469C1287.66 258.881 1285.62 254.978 1285.62 249.6H1283.62ZM1305.19 267.43C1313.35 267.43 1319.35 264.698 1323.52 260.178L1322.05 258.822C1318.3 262.882 1312.86 265.43 1305.19 265.43V267.43ZM1321.79 259.5V265H1323.79V259.5H1321.79ZM1322.79 266H1332.25V264H1322.79V266ZM1333.25 265V232.77H1331.25V265H1333.25ZM1333.25 232.77C1333.25 226.16 1330.67 220.913 1326.17 217.343C1321.7 213.794 1315.4 211.97 1308.05 211.97V213.97C1315.1 213.97 1320.91 215.721 1324.93 218.91C1328.92 222.077 1331.25 226.73 1331.25 232.77H1333.25ZM1321.79 244.76C1321.79 248.248 1320.33 251.177 1317.7 253.256C1315.04 255.352 1311.13 256.63 1306.18 256.63V258.63C1311.45 258.63 1315.84 257.268 1318.94 254.826C1322.05 252.368 1323.79 248.862 1323.79 244.76H1321.79ZM1306.18 256.63C1302.57 256.63 1299.76 256.033 1297.89 254.869C1296.09 253.749 1295.08 252.067 1295.08 249.6H1293.08C1293.08 252.743 1294.43 255.076 1296.83 256.568C1299.17 258.017 1302.41 258.63 1306.18 258.63V256.63ZM1295.08 249.6C1295.08 247.135 1296.08 245.426 1297.95 244.278C1299.9 243.086 1302.84 242.46 1306.73 242.46V240.46C1302.69 240.46 1299.31 241.099 1296.91 242.574C1294.43 244.094 1293.08 246.455 1293.08 249.6H1295.08ZM1306.73 242.46H1322.79V240.46H1306.73V242.46ZM1321.79 241.46V244.76H1323.79V241.46H1321.79ZM1387.76 214.4V213.4H1386.76V214.4H1387.76ZM1387.76 235.3V236.3H1388.76V235.3H1387.76ZM1358.17 235.3H1357.17V236.3H1358.17V235.3ZM1358.17 214.4H1359.17V213.4H1358.17V214.4ZM1348.71 214.4V213.4H1347.71V214.4H1348.71ZM1348.71 265H1347.71V266H1348.71V265ZM1358.17 265V266H1359.17V265H1358.17ZM1358.17 243.66V242.66H1357.17V243.66H1358.17ZM1387.76 243.66H1388.76V242.66H1387.76V243.66ZM1387.76 265H1386.76V266H1387.76V265ZM1397.22 265V266H1398.22V265H1397.22ZM1397.22 214.4H1398.22V213.4H1397.22V214.4ZM1386.76 214.4V235.3H1388.76V214.4H1386.76ZM1387.76 234.3H1358.17V236.3H1387.76V234.3ZM1359.17 235.3V214.4H1357.17V235.3H1359.17ZM1358.17 213.4H1348.71V215.4H1358.17V213.4ZM1347.71 214.4V265H1349.71V214.4H1347.71ZM1348.71 266H1358.17V264H1348.71V266ZM1359.17 265V243.66H1357.17V265H1359.17ZM1358.17 244.66H1387.76V242.66H1358.17V244.66ZM1386.76 243.66V265H1388.76V243.66H1386.76ZM1387.76 266H1397.22V264H1387.76V266ZM1398.22 265V214.4H1396.22V265H1398.22ZM1397.22 213.4H1387.76V215.4H1397.22V213.4ZM1461.75 229.14V230.14H1463.19L1462.69 228.792L1461.75 229.14ZM1461.75 250.26L1462.69 250.608L1463.19 249.26H1461.75V250.26ZM1451.41 250.26V249.26H1450.84L1450.55 249.755L1451.41 250.26ZM1451.41 229.14L1450.55 229.645L1450.84 230.14H1451.41V229.14ZM1462.69 228.792C1458.91 218.602 1449.62 211.97 1437.88 211.97V213.97C1448.8 213.97 1457.33 220.098 1460.81 229.488L1462.69 228.792ZM1437.88 211.97C1422.36 211.97 1410.48 223.866 1410.48 239.7H1412.48C1412.48 224.954 1423.48 213.97 1437.88 213.97V211.97ZM1410.48 239.7C1410.48 255.534 1422.36 267.43 1437.88 267.43V265.43C1423.48 265.43 1412.48 254.446 1412.48 239.7H1410.48ZM1437.88 267.43C1449.62 267.43 1458.91 260.798 1462.69 250.608L1460.81 249.912C1457.33 259.302 1448.8 265.43 1437.88 265.43V267.43ZM1461.75 249.26H1451.41V251.26H1461.75V249.26ZM1450.55 249.755C1448.09 253.942 1443.59 256.63 1437.88 256.63V258.63C1444.26 258.63 1449.44 255.598 1452.27 250.765L1450.55 249.755ZM1437.88 256.63C1428.6 256.63 1421.94 249.336 1421.94 239.7H1419.94C1419.94 250.304 1427.36 258.63 1437.88 258.63V256.63ZM1421.94 239.7C1421.94 230.064 1428.6 222.77 1437.88 222.77V220.77C1427.36 220.77 1419.94 229.096 1419.94 239.7H1421.94ZM1437.88 222.77C1443.59 222.77 1448.09 225.458 1450.55 229.645L1452.27 228.635C1449.44 223.802 1444.26 220.77 1437.88 220.77V222.77ZM1451.41 230.14H1461.75V228.14H1451.41V230.14ZM1504.07 191.41V190.41H1503.07V191.41H1504.07ZM1504.07 214.4V215.4H1505.07V214.4H1504.07ZM1504.07 265H1505.07V264H1504.07V265ZM1504.07 287.44H1503.07V288.44H1504.07V287.44ZM1513.53 287.44V288.44H1514.53V287.44H1513.53ZM1513.53 265V264H1512.53V265H1513.53ZM1513.53 214.4H1512.53V215.4H1513.53V214.4ZM1513.53 191.41H1514.53V190.41H1513.53V191.41ZM1513.53 256.64H1512.53V257.64H1513.53V256.64ZM1513.53 222.76V221.76H1512.53V222.76H1513.53ZM1504.07 222.76H1505.07V221.76H1504.07V222.76ZM1504.07 256.64V257.64H1505.07V256.64H1504.07ZM1503.07 191.41V214.4H1505.07V191.41H1503.07ZM1504.07 213.4H1499.01V215.4H1504.07V213.4ZM1499.01 213.4C1482.9 213.4 1471.17 224.462 1471.17 239.59H1473.17C1473.17 225.678 1483.89 215.4 1499.01 215.4V213.4ZM1471.17 239.59C1471.17 247.458 1473.75 254.088 1478.59 258.749C1483.42 263.406 1490.4 266 1499.01 266V264C1490.8 264 1484.36 261.534 1479.97 257.309C1475.6 253.087 1473.17 247.012 1473.17 239.59H1471.17ZM1499.01 266H1504.07V264H1499.01V266ZM1503.07 265V287.44H1505.07V265H1503.07ZM1504.07 288.44H1513.53V286.44H1504.07V288.44ZM1514.53 287.44V265H1512.53V287.44H1514.53ZM1513.53 266H1518.59V264H1513.53V266ZM1518.59 266C1527.21 266 1534.19 263.406 1539.02 258.749C1543.85 254.088 1546.43 247.458 1546.43 239.59H1544.43C1544.43 247.012 1542.01 253.087 1537.63 257.309C1533.25 261.534 1526.81 264 1518.59 264V266ZM1546.43 239.59C1546.43 224.462 1534.71 213.4 1518.59 213.4V215.4C1533.72 215.4 1544.43 225.678 1544.43 239.59H1546.43ZM1518.59 213.4H1513.53V215.4H1518.59V213.4ZM1514.53 214.4V191.41H1512.53V214.4H1514.53ZM1513.53 190.41H1504.07V192.41H1513.53V190.41ZM1518.26 223.76C1523.6 223.76 1527.76 225.472 1530.58 228.257C1533.4 231.043 1534.97 234.982 1534.97 239.59H1536.97C1536.97 234.518 1535.24 230.042 1531.99 226.833C1528.73 223.623 1524.04 221.76 1518.26 221.76V223.76ZM1534.97 239.59C1534.97 244.238 1533.6 248.23 1530.9 251.054C1528.22 253.87 1524.1 255.64 1518.37 255.64V257.64C1524.52 257.64 1529.21 255.725 1532.35 252.436C1535.48 249.155 1536.97 244.622 1536.97 239.59H1534.97ZM1518.37 255.64H1513.53V257.64H1518.37V255.64ZM1514.53 256.64V222.76H1512.53V256.64H1514.53ZM1513.53 223.76H1518.26V221.76H1513.53V223.76ZM1503.07 222.76V256.64H1505.07V222.76H1503.07ZM1504.07 255.64H1499.23V257.64H1504.07V255.64ZM1499.23 255.64C1493.5 255.64 1489.39 253.87 1486.7 251.054C1484 248.23 1482.63 244.238 1482.63 239.59H1480.63C1480.63 244.622 1482.12 249.155 1485.25 252.436C1488.4 255.725 1493.08 257.64 1499.23 257.64V255.64ZM1482.63 239.59C1482.63 234.982 1484.2 231.043 1487.02 228.257C1489.85 225.472 1494.01 223.76 1499.34 223.76V221.76C1493.57 221.76 1488.87 223.623 1485.62 226.833C1482.36 230.042 1480.63 234.518 1480.63 239.59H1482.63ZM1499.34 223.76H1504.07V221.76H1499.34V223.76ZM1566.18 243.22V242.22H1565.02L1565.19 243.365L1566.18 243.22ZM1606.99 243.22V244.22H1607.79L1607.97 243.445L1606.99 243.22ZM1606.55 250.81L1607.49 251.148L1607.97 249.81H1606.55V250.81ZM1596.32 250.81V249.81H1595.75L1595.46 250.305L1596.32 250.81ZM1597.31 234.97V235.97H1598.48L1598.3 234.819L1597.31 234.97ZM1566.29 234.97L1565.3 234.819L1565.13 235.97H1566.29V234.97ZM1582.9 256.63C1574.61 256.63 1568.31 250.848 1567.17 243.075L1565.19 243.365C1566.47 252.092 1573.59 258.63 1582.9 258.63V256.63ZM1566.18 244.22H1606.99V242.22H1566.18V244.22ZM1607.97 243.445C1608.33 241.869 1608.21 240.147 1608.21 239.04H1606.21C1606.21 240.353 1606.31 241.711 1606.02 242.995L1607.97 243.445ZM1608.21 239.04C1608.21 224.028 1597.37 211.97 1582.35 211.97V213.97C1596.15 213.97 1606.21 225.012 1606.21 239.04H1608.21ZM1582.35 211.97C1566.47 211.97 1555.39 223.894 1555.39 239.59H1557.39C1557.39 224.926 1567.65 213.97 1582.35 213.97V211.97ZM1555.39 239.59C1555.39 255.754 1567.05 267.43 1582.9 267.43V265.43C1568.17 265.43 1557.39 254.666 1557.39 239.59H1555.39ZM1582.9 267.43C1594.38 267.43 1603.81 261.383 1607.49 251.148L1605.61 250.472C1602.25 259.817 1593.64 265.43 1582.9 265.43V267.43ZM1606.55 249.81H1596.32V251.81H1606.55V249.81ZM1595.46 250.305C1593.04 254.439 1588.68 256.63 1582.9 256.63V258.63C1589.22 258.63 1594.32 256.201 1597.18 251.315L1595.46 250.305ZM1582.35 222.77C1586.31 222.77 1589.5 224.016 1591.84 226.14C1594.19 228.27 1595.75 231.347 1596.32 235.121L1598.3 234.819C1597.67 230.673 1595.93 227.15 1593.18 224.66C1590.44 222.164 1586.75 220.77 1582.35 220.77V222.77ZM1597.31 233.97H1566.29V235.97H1597.31V233.97ZM1567.28 235.121C1567.85 231.38 1569.55 228.308 1572.12 226.167C1574.68 224.026 1578.15 222.77 1582.35 222.77V220.77C1577.75 220.77 1573.8 222.154 1570.83 224.633C1567.87 227.112 1565.94 230.64 1565.3 234.819L1567.28 235.121ZM1630.92 287.44V288.44H1631.92V287.44H1630.92ZM1630.92 259.5L1631.66 258.832L1629.92 256.889V259.5H1630.92ZM1630.92 219.9H1629.92V222.511L1631.66 220.568L1630.92 219.9ZM1630.92 214.4H1631.92V213.4H1630.92V214.4ZM1621.46 214.4V213.4H1620.46V214.4H1621.46ZM1621.46 287.44H1620.46V288.44H1621.46V287.44ZM1631.92 287.44V259.5H1629.92V287.44H1631.92ZM1630.17 260.168C1634.24 264.698 1640.57 267.43 1647.97 267.43V265.43C1641.06 265.43 1635.3 262.882 1631.66 258.832L1630.17 260.168ZM1647.97 267.43C1656.6 267.43 1663.29 264.125 1667.81 258.962C1672.31 253.817 1674.6 246.89 1674.6 239.7H1672.6C1672.6 246.48 1670.44 252.918 1666.3 257.645C1662.18 262.355 1656.05 265.43 1647.97 265.43V267.43ZM1674.6 239.7C1674.6 232.51 1672.31 225.583 1667.81 220.438C1663.29 215.275 1656.6 211.97 1647.97 211.97V213.97C1656.05 213.97 1662.18 217.045 1666.3 221.755C1670.44 226.482 1672.6 232.92 1672.6 239.7H1674.6ZM1647.97 211.97C1640.57 211.97 1634.24 214.702 1630.17 219.232L1631.66 220.568C1635.3 216.518 1641.06 213.97 1647.97 213.97V211.97ZM1631.92 219.9V214.4H1629.92V219.9H1631.92ZM1630.92 213.4H1621.46V215.4H1630.92V213.4ZM1620.46 214.4V287.44H1622.46V214.4H1620.46ZM1621.46 288.44H1630.92V286.44H1621.46V288.44ZM1631.59 239.7C1631.59 233.948 1633.56 229.74 1636.5 226.966C1639.45 224.18 1643.46 222.77 1647.64 222.77V220.77C1643.02 220.77 1638.5 222.33 1635.13 225.511C1631.74 228.705 1629.59 233.462 1629.59 239.7H1631.59ZM1647.64 222.77C1656.77 222.77 1663.14 230.456 1663.14 239.7H1665.14C1665.14 229.584 1658.09 220.77 1647.64 220.77V222.77ZM1663.14 239.7C1663.14 248.944 1656.77 256.63 1647.64 256.63V258.63C1658.09 258.63 1665.14 249.816 1665.14 239.7H1663.14ZM1647.64 256.63C1643.46 256.63 1639.45 255.22 1636.5 252.434C1633.56 249.66 1631.59 245.452 1631.59 239.7H1629.59C1629.59 245.938 1631.74 250.695 1635.13 253.889C1638.5 257.07 1643.02 258.63 1647.64 258.63V256.63ZM1740.31 214.4V213.4H1739.31V214.4H1740.31ZM1740.31 265H1739.31V266H1740.31V265ZM1749.77 265V266H1750.77V265H1749.77ZM1749.77 214.4H1750.77V213.4H1749.77V214.4ZM1697.3 231.12H1696.3V232.12H1697.3V231.12ZM1697.3 214.4H1698.3V213.4H1697.3V214.4ZM1687.84 214.4V213.4H1686.84V214.4H1687.84ZM1687.84 265H1686.84V266H1687.84V265ZM1697.3 256.64H1696.3V257.64H1697.3V256.64ZM1697.3 239.48V238.48H1696.3V239.48H1697.3ZM1739.31 214.4V265H1741.31V214.4H1739.31ZM1740.31 266H1749.77V264H1740.31V266ZM1750.77 265V214.4H1748.77V265H1750.77ZM1749.77 213.4H1740.31V215.4H1749.77V213.4ZM1698.3 231.12V214.4H1696.3V231.12H1698.3ZM1697.3 213.4H1687.84V215.4H1697.3V213.4ZM1686.84 214.4V265H1688.84V214.4H1686.84ZM1687.84 266H1712.7V264H1687.84V266ZM1712.7 266C1719.45 266 1724.48 263.983 1727.83 260.664C1731.18 257.349 1732.73 252.841 1732.73 248.06H1730.73C1730.73 252.409 1729.32 256.371 1726.42 259.244C1723.53 262.112 1719.05 264 1712.7 264V266ZM1732.73 248.06C1732.73 243.279 1731.18 238.771 1727.83 235.456C1724.48 232.137 1719.45 230.12 1712.7 230.12V232.12C1719.05 232.12 1723.53 234.008 1726.42 236.876C1729.32 239.749 1730.73 243.711 1730.73 248.06H1732.73ZM1712.7 230.12H1697.3V232.12H1712.7V230.12ZM1698.3 256.64V239.48H1696.3V256.64H1698.3ZM1697.3 240.48H1712.37V238.48H1697.3V240.48ZM1712.37 240.48C1715.31 240.48 1717.52 241.188 1718.99 242.429C1720.43 243.649 1721.27 245.492 1721.27 248.06H1723.27C1723.27 245.018 1722.25 242.571 1720.28 240.903C1718.34 239.257 1715.6 238.48 1712.37 238.48V240.48ZM1721.27 248.06C1721.27 250.628 1720.43 252.471 1718.99 253.691C1717.52 254.932 1715.31 255.64 1712.37 255.64V257.64C1715.6 257.64 1718.34 256.863 1720.28 255.217C1722.25 253.549 1723.27 251.102 1723.27 248.06H1721.27ZM1712.37 255.64H1697.3V257.64H1712.37V255.64Z" fill="#1A1A1A"/>
<path d="M1086.4 239.522V201.627L1074.74 190H972L975.022 197.321H985.814V222.727L1003.51 264.928H1022.08C1022.08 273.11 1028.55 280 1037.19 280C1045.82 280 1052.3 273.541 1052.3 264.928C1052.3 256.316 1045.82 250.287 1037.19 250.287V244.689C1048.41 244.689 1057.48 253.732 1057.48 264.928H1085.97V255.455H1092.01V239.091H1086.4V239.522ZM1016.9 227.895H994.448V197.321H1016.9V227.895ZM1064.81 225.311L1061.36 221.866L1068.7 214.545V213.684H1033.3V214.545L1040.64 221.866L1037.19 225.311L1023.37 211.531L1037.62 197.321L1041.07 200.766L1033.73 208.086V208.947H1069.13V208.086L1061.79 200.766L1065.25 197.321L1079.06 211.531L1064.81 225.311Z" fill="#1A1A1A"/>
<rect x="-15" y="125" width="852" height="210" rx="21" fill="#FAFAFA" stroke="#1A1A1A" stroke-width="10"/>
<path d="M52.75 191.96V201.2H78.05V265H87.95V201.2H113.25V191.96H52.75ZM134.685 212.97C123.135 212.97 112.905 218.69 110.045 229.14H120.495C122.585 224.3 128.525 221.77 134.685 221.77C143.045 221.77 149.425 224.85 149.425 233.21H133.475C121.705 233.21 111.255 237.28 111.255 249.6C111.255 260.93 119.945 266.43 131.825 266.43C139.745 266.43 145.465 263.79 149.425 259.5V265H158.885V232.77C158.885 220.12 149.095 212.97 134.685 212.97ZM149.425 244.76C149.425 252.35 143.045 257.63 132.815 257.63C125.445 257.63 120.715 255.21 120.715 249.6C120.715 243.99 125.445 241.46 133.365 241.46H149.425V244.76ZM184.813 265L214.403 228.15V265H223.863V214.4H214.403L184.813 251.25V214.4H175.353V265H184.813ZM246.367 214.4V235.85C246.367 244.65 246.147 256.09 236.797 256.09H234.817V265H238.007C254.727 265 255.827 248.61 255.827 235.85V222.76H277.387V265H286.847V214.4H246.367ZM324.714 212.97C313.164 212.97 302.934 218.69 300.074 229.14H310.524C312.614 224.3 318.554 221.77 324.714 221.77C333.074 221.77 339.454 224.85 339.454 233.21H323.504C311.734 233.21 301.284 237.28 301.284 249.6C301.284 260.93 309.974 266.43 321.854 266.43C329.774 266.43 335.494 263.79 339.454 259.5V265H348.914V232.77C348.914 220.12 339.124 212.97 324.714 212.97ZM339.454 244.76C339.454 252.35 333.074 257.63 322.844 257.63C315.474 257.63 310.744 255.21 310.744 249.6C310.744 243.99 315.474 241.46 323.394 241.46H339.454V244.76ZM404.432 214.4V235.3H374.842V214.4H365.382V265H374.842V243.66H404.432V265H413.892V214.4H404.432ZM486.226 278.86V256.64H477.976V214.4H437.056V235.41C437.056 243.88 435.516 252.24 430.786 256.64H424.846V278.86H434.306V265H476.766V278.86H486.226ZM446.516 222.76H468.516V256.64H442.116C445.746 250.7 446.516 242.34 446.516 235.3V222.76Z" fill="#1A1A1A"/>
<path d="M52.75 191.96V190.96H51.75V191.96H52.75ZM52.75 201.2H51.75V202.2H52.75V201.2ZM78.05 201.2H79.05V200.2H78.05V201.2ZM78.05 265H77.05V266H78.05V265ZM87.95 265V266H88.95V265H87.95ZM87.95 201.2V200.2H86.95V201.2H87.95ZM113.25 201.2V202.2H114.25V201.2H113.25ZM113.25 191.96H114.25V190.96H113.25V191.96ZM51.75 191.96V201.2H53.75V191.96H51.75ZM52.75 202.2H78.05V200.2H52.75V202.2ZM77.05 201.2V265H79.05V201.2H77.05ZM78.05 266H87.95V264H78.05V266ZM88.95 265V201.2H86.95V265H88.95ZM87.95 202.2H113.25V200.2H87.95V202.2ZM114.25 201.2V191.96H112.25V201.2H114.25ZM113.25 190.96H52.75V192.96H113.25V190.96ZM110.045 229.14L109.08 228.876L108.734 230.14H110.045V229.14ZM120.495 229.14V230.14H121.152L121.413 229.536L120.495 229.14ZM149.425 233.21V234.21H150.425V233.21H149.425ZM149.425 259.5H150.425V256.942L148.69 258.822L149.425 259.5ZM149.425 265H148.425V266H149.425V265ZM158.885 265V266H159.885V265H158.885ZM149.425 241.46H150.425V240.46H149.425V241.46ZM134.685 211.97C122.846 211.97 112.097 217.853 109.08 228.876L111.009 229.404C113.712 219.527 123.423 213.97 134.685 213.97V211.97ZM110.045 230.14H120.495V228.14H110.045V230.14ZM121.413 229.536C123.273 225.227 128.707 222.77 134.685 222.77V220.77C128.342 220.77 121.896 223.373 119.576 228.744L121.413 229.536ZM134.685 222.77C138.769 222.77 142.22 223.527 144.623 225.179C146.964 226.789 148.425 229.325 148.425 233.21H150.425C150.425 228.735 148.695 225.551 145.756 223.531C142.879 221.553 138.96 220.77 134.685 220.77V222.77ZM149.425 232.21H133.475V234.21H149.425V232.21ZM133.475 232.21C127.503 232.21 121.731 233.238 117.42 235.937C113.041 238.68 110.255 243.099 110.255 249.6H112.255C112.255 243.781 114.693 240.005 118.482 237.633C122.338 235.217 127.677 234.21 133.475 234.21V232.21ZM110.255 249.6C110.255 255.552 112.553 260.064 116.478 263.059C120.365 266.025 125.748 267.43 131.825 267.43V265.43C126.022 265.43 121.119 264.085 117.691 261.469C114.301 258.881 112.255 254.978 112.255 249.6H110.255ZM131.825 267.43C139.989 267.43 145.988 264.698 150.159 260.178L148.69 258.822C144.941 262.882 139.5 265.43 131.825 265.43V267.43ZM148.425 259.5V265H150.425V259.5H148.425ZM149.425 266H158.885V264H149.425V266ZM159.885 265V232.77H157.885V265H159.885ZM159.885 232.77C159.885 226.16 157.313 220.913 152.81 217.343C148.334 213.794 142.042 211.97 134.685 211.97V213.97C141.737 213.97 147.545 215.721 151.567 218.91C155.561 222.077 157.885 226.73 157.885 232.77H159.885ZM148.425 244.76C148.425 248.248 146.97 251.177 144.336 253.256C141.682 255.352 137.767 256.63 132.815 256.63V258.63C138.092 258.63 142.482 257.268 145.575 254.826C148.689 252.368 150.425 248.862 150.425 244.76H148.425ZM132.815 256.63C129.21 256.63 126.403 256.033 124.528 254.869C122.725 253.749 121.715 252.067 121.715 249.6H119.715C119.715 252.743 121.07 255.076 123.473 256.568C125.806 258.017 129.049 258.63 132.815 258.63V256.63ZM121.715 249.6C121.715 247.135 122.723 245.426 124.593 244.278C126.536 243.086 129.481 242.46 133.365 242.46V240.46C129.328 240.46 125.948 241.099 123.546 242.574C121.071 244.094 119.715 246.455 119.715 249.6H121.715ZM133.365 242.46H149.425V240.46H133.365V242.46ZM148.425 241.46V244.76H150.425V241.46H148.425ZM184.813 265V266H185.292L185.592 265.626L184.813 265ZM214.403 228.15H215.403V225.307L213.623 227.524L214.403 228.15ZM214.403 265H213.403V266H214.403V265ZM223.863 265V266H224.863V265H223.863ZM223.863 214.4H224.863V213.4H223.863V214.4ZM214.403 214.4V213.4H213.923L213.623 213.774L214.403 214.4ZM184.813 251.25H183.813V254.093L185.592 251.876L184.813 251.25ZM184.813 214.4H185.813V213.4H184.813V214.4ZM175.353 214.4V213.4H174.353V214.4H175.353ZM175.353 265H174.353V266H175.353V265ZM185.592 265.626L215.182 228.776L213.623 227.524L184.033 264.374L185.592 265.626ZM213.403 228.15V265H215.403V228.15H213.403ZM214.403 266H223.863V264H214.403V266ZM224.863 265V214.4H222.863V265H224.863ZM223.863 213.4H214.403V215.4H223.863V213.4ZM213.623 213.774L184.033 250.624L185.592 251.876L215.182 215.026L213.623 213.774ZM185.813 251.25V214.4H183.813V251.25H185.813ZM184.813 213.4H175.353V215.4H184.813V213.4ZM174.353 214.4V265H176.353V214.4H174.353ZM175.353 266H184.813V264H175.353V266ZM246.367 214.4V213.4H245.367V214.4H246.367ZM234.817 256.09V255.09H233.817V256.09H234.817ZM234.817 265H233.817V266H234.817V265ZM255.827 222.76V221.76H254.827V222.76H255.827ZM277.387 222.76H278.387V221.76H277.387V222.76ZM277.387 265H276.387V266H277.387V265ZM286.847 265V266H287.847V265H286.847ZM286.847 214.4H287.847V213.4H286.847V214.4ZM245.367 214.4V235.85H247.367V214.4H245.367ZM245.367 235.85C245.367 240.282 245.304 245.185 244.133 248.975C243.552 250.855 242.722 252.376 241.566 253.424C240.432 254.451 238.911 255.09 236.797 255.09V257.09C239.358 257.09 241.372 256.299 242.908 254.906C244.423 253.534 245.401 251.645 246.044 249.565C247.32 245.435 247.367 240.218 247.367 235.85H245.367ZM236.797 255.09H234.817V257.09H236.797V255.09ZM233.817 256.09V265H235.817V256.09H233.817ZM234.817 266H238.007V264H234.817V266ZM238.007 266C242.357 266 245.772 264.931 248.423 263.056C251.068 261.185 252.876 258.566 254.111 255.594C256.562 249.694 256.827 242.216 256.827 235.85H254.827C254.827 242.244 254.542 249.341 252.264 254.826C251.134 257.546 249.531 259.823 247.268 261.423C245.01 263.02 242.017 264 238.007 264V266ZM256.827 235.85V222.76H254.827V235.85H256.827ZM255.827 223.76H277.387V221.76H255.827V223.76ZM276.387 222.76V265H278.387V222.76H276.387ZM277.387 266H286.847V264H277.387V266ZM287.847 265V214.4H285.847V265H287.847ZM286.847 213.4H246.367V215.4H286.847V213.4ZM300.074 229.14L299.109 228.876L298.763 230.14H300.074V229.14ZM310.524 229.14V230.14H311.181L311.442 229.536L310.524 229.14ZM339.454 233.21V234.21H340.454V233.21H339.454ZM339.454 259.5H340.454V256.942L338.719 258.822L339.454 259.5ZM339.454 265H338.454V266H339.454V265ZM348.914 265V266H349.914V265H348.914ZM339.454 241.46H340.454V240.46H339.454V241.46ZM324.714 211.97C312.875 211.97 302.126 217.853 299.109 228.876L301.038 229.404C303.741 219.527 313.452 213.97 324.714 213.97V211.97ZM300.074 230.14H310.524V228.14H300.074V230.14ZM311.442 229.536C313.303 225.227 318.736 222.77 324.714 222.77V220.77C318.372 220.77 311.925 223.373 309.606 228.744L311.442 229.536ZM324.714 222.77C328.798 222.77 332.249 223.527 334.652 225.179C336.994 226.789 338.454 229.325 338.454 233.21H340.454C340.454 228.735 338.724 225.551 335.785 223.531C332.908 221.553 328.989 220.77 324.714 220.77V222.77ZM339.454 232.21H323.504V234.21H339.454V232.21ZM323.504 232.21C317.532 232.21 311.76 233.238 307.449 235.937C303.07 238.68 300.284 243.099 300.284 249.6H302.284C302.284 243.781 304.722 240.005 308.511 237.633C312.368 235.217 317.706 234.21 323.504 234.21V232.21ZM300.284 249.6C300.284 255.552 302.583 260.064 306.507 263.059C310.395 266.025 315.777 267.43 321.854 267.43V265.43C316.051 265.43 311.148 264.085 307.72 261.469C304.33 258.881 302.284 254.978 302.284 249.6H300.284ZM321.854 267.43C330.018 267.43 336.017 264.698 340.189 260.178L338.719 258.822C334.971 262.882 329.529 265.43 321.854 265.43V267.43ZM338.454 259.5V265H340.454V259.5H338.454ZM339.454 266H348.914V264H339.454V266ZM349.914 265V232.77H347.914V265H349.914ZM349.914 232.77C349.914 226.16 347.342 220.913 342.839 217.343C338.363 213.794 332.071 211.97 324.714 211.97V213.97C331.766 213.97 337.574 215.721 341.596 218.91C345.59 222.077 347.914 226.73 347.914 232.77H349.914ZM338.454 244.76C338.454 248.248 336.999 251.177 334.365 253.256C331.711 255.352 327.796 256.63 322.844 256.63V258.63C328.122 258.63 332.511 257.268 335.605 254.826C338.718 252.368 340.454 248.862 340.454 244.76H338.454ZM322.844 256.63C319.239 256.63 316.432 256.033 314.558 254.869C312.754 253.749 311.744 252.067 311.744 249.6H309.744C309.744 252.743 311.099 255.076 313.503 256.568C315.836 258.017 319.079 258.63 322.844 258.63V256.63ZM311.744 249.6C311.744 247.135 312.752 245.426 314.622 244.278C316.565 243.086 319.51 242.46 323.394 242.46V240.46C319.357 240.46 315.978 241.099 313.576 242.574C311.1 244.094 309.744 246.455 309.744 249.6H311.744ZM323.394 242.46H339.454V240.46H323.394V242.46ZM338.454 241.46V244.76H340.454V241.46H338.454ZM404.432 214.4V213.4H403.432V214.4H404.432ZM404.432 235.3V236.3H405.432V235.3H404.432ZM374.842 235.3H373.842V236.3H374.842V235.3ZM374.842 214.4H375.842V213.4H374.842V214.4ZM365.382 214.4V213.4H364.382V214.4H365.382ZM365.382 265H364.382V266H365.382V265ZM374.842 265V266H375.842V265H374.842ZM374.842 243.66V242.66H373.842V243.66H374.842ZM404.432 243.66H405.432V242.66H404.432V243.66ZM404.432 265H403.432V266H404.432V265ZM413.892 265V266H414.892V265H413.892ZM413.892 214.4H414.892V213.4H413.892V214.4ZM403.432 214.4V235.3H405.432V214.4H403.432ZM404.432 234.3H374.842V236.3H404.432V234.3ZM375.842 235.3V214.4H373.842V235.3H375.842ZM374.842 213.4H365.382V215.4H374.842V213.4ZM364.382 214.4V265H366.382V214.4H364.382ZM365.382 266H374.842V264H365.382V266ZM375.842 265V243.66H373.842V265H375.842ZM374.842 244.66H404.432V242.66H374.842V244.66ZM403.432 243.66V265H405.432V243.66H403.432ZM404.432 266H413.892V264H404.432V266ZM414.892 265V214.4H412.892V265H414.892ZM413.892 213.4H404.432V215.4H413.892V213.4ZM486.226 278.86V279.86H487.226V278.86H486.226ZM486.226 256.64H487.226V255.64H486.226V256.64ZM477.977 256.64H476.977V257.64H477.977V256.64ZM477.977 214.4H478.977V213.4H477.977V214.4ZM437.056 214.4V213.4H436.056V214.4H437.056ZM430.786 256.64V257.64H431.18L431.468 257.372L430.786 256.64ZM424.846 256.64V255.64H423.846V256.64H424.846ZM424.846 278.86H423.846V279.86H424.846V278.86ZM434.306 278.86V279.86H435.306V278.86H434.306ZM434.306 265V264H433.306V265H434.306ZM476.766 265H477.766V264H476.766V265ZM476.766 278.86H475.766V279.86H476.766V278.86ZM446.516 222.76V221.76H445.516V222.76H446.516ZM468.516 222.76H469.516V221.76H468.516V222.76ZM468.516 256.64V257.64H469.516V256.64H468.516ZM442.116 256.64L441.263 256.119L440.333 257.64H442.116V256.64ZM487.226 278.86V256.64H485.226V278.86H487.226ZM486.226 255.64H477.977V257.64H486.226V255.64ZM478.977 256.64V214.4H476.977V256.64H478.977ZM477.977 213.4H437.056V215.4H477.977V213.4ZM436.056 214.4V235.41H438.056V214.4H436.056ZM436.056 235.41C436.056 239.592 435.676 243.707 434.728 247.296C433.779 250.892 432.282 253.883 430.105 255.908L431.468 257.372C434.021 254.997 435.659 251.608 436.662 247.806C437.667 243.998 438.056 239.698 438.056 235.41H436.056ZM430.786 255.64H424.846V257.64H430.786V255.64ZM423.846 256.64V278.86H425.846V256.64H423.846ZM424.846 279.86H434.306V277.86H424.846V279.86ZM435.306 278.86V265H433.306V278.86H435.306ZM434.306 266H476.766V264H434.306V266ZM475.766 265V278.86H477.766V265H475.766ZM476.766 279.86H486.226V277.86H476.766V279.86ZM446.516 223.76H468.516V221.76H446.516V223.76ZM467.516 222.76V256.64H469.516V222.76H467.516ZM468.516 255.64H442.116V257.64H468.516V255.64ZM442.97 257.161C446.756 250.966 447.516 242.358 447.516 235.3H445.516C445.516 242.322 444.737 250.434 441.263 256.119L442.97 257.161ZM447.516 235.3V222.76H445.516V235.3H447.516Z" fill="#1A1A1A"/>
<path d="M631.554 201.2L596.244 265H607.244L642.334 201.2V191.96H592.614V201.2H631.554ZM678.734 218.14C670.484 218.14 663.334 221.55 659.484 226.28C659.814 209.23 668.724 199.77 679.394 199.77C685.554 199.77 690.614 201.97 693.364 207.58H703.484C699.194 196.25 691.164 190.53 679.284 190.53C658.054 190.53 649.694 210.33 649.694 230.02C649.694 255.98 661.574 266.43 677.854 266.43C693.144 266.43 703.924 255.1 703.924 242.34C703.924 228.37 692.374 218.14 678.734 218.14ZM677.414 257.19C668.284 257.19 661.134 251.14 661.134 242.34C661.134 233.54 668.284 227.38 677.414 227.38C686.544 227.38 694.024 233.54 694.024 242.34C694.024 251.03 686.544 257.19 677.414 257.19ZM730.959 223.2V232.33H739.209C748.889 232.33 754.939 237.06 754.939 244.98C754.939 252.13 748.449 257.19 739.209 257.19C731.729 257.19 726.119 254.44 723.039 246.85H712.809C716.329 260.38 726.889 266.43 739.209 266.43C755.489 266.43 764.839 256.31 764.839 244.87C764.839 238.82 762.749 232.77 755.269 227.6C762.309 222.76 764.509 217.04 764.509 211.32C764.509 200.43 755.379 190.53 739.539 190.53C727.439 190.53 716.769 196.47 713.249 210.11H723.479C726.229 202.74 732.169 199.77 739.539 199.77C748.449 199.77 754.609 204.39 754.609 211.32C754.609 218.91 748.779 223.2 739.539 223.2H730.959Z" fill="#1A1A1A"/>
<path d="M631.554 201.2L632.429 201.684L633.25 200.2H631.554V201.2ZM596.244 265L595.369 264.516L594.548 266H596.244V265ZM607.244 265V266H607.835L608.12 265.482L607.244 265ZM642.334 201.2L643.21 201.682L643.334 201.457V201.2H642.334ZM642.334 191.96H643.334V190.96H642.334V191.96ZM592.614 191.96V190.96H591.614V191.96H592.614ZM592.614 201.2H591.614V202.2H592.614V201.2ZM630.679 200.716L595.369 264.516L597.119 265.484L632.429 201.684L630.679 200.716ZM596.244 266H607.244V264H596.244V266ZM608.12 265.482L643.21 201.682L641.458 200.718L606.368 264.518L608.12 265.482ZM643.334 201.2V191.96H641.334V201.2H643.334ZM642.334 190.96H592.614V192.96H642.334V190.96ZM591.614 191.96V201.2H593.614V191.96H591.614ZM592.614 202.2H631.554V200.2H592.614V202.2ZM659.484 226.28L658.484 226.261L658.428 229.161L660.259 226.911L659.484 226.28ZM693.364 207.58L692.466 208.02L692.74 208.58H693.364V207.58ZM703.484 207.58V208.58H704.932L704.419 207.226L703.484 207.58ZM678.734 217.14C670.231 217.14 662.776 220.651 658.708 225.649L660.259 226.911C663.891 222.449 670.737 219.14 678.734 219.14V217.14ZM660.484 226.299C660.645 217.938 662.909 211.541 666.342 207.257C669.764 202.985 674.377 200.77 679.394 200.77V198.77C673.74 198.77 668.564 201.285 664.781 206.006C661.008 210.714 658.652 217.572 658.484 226.261L660.484 226.299ZM679.394 200.77C685.294 200.77 689.931 202.85 692.466 208.02L694.262 207.14C691.296 201.09 685.814 198.77 679.394 198.77V200.77ZM693.364 208.58H703.484V206.58H693.364V208.58ZM704.419 207.226C702.22 201.419 699.033 196.975 694.807 193.99C690.578 191.002 685.389 189.53 679.284 189.53V191.53C685.059 191.53 689.824 192.918 693.653 195.623C697.484 198.33 700.457 202.411 702.549 207.934L704.419 207.226ZM679.284 189.53C668.297 189.53 660.596 194.68 655.685 202.352C650.805 209.976 648.694 220.056 648.694 230.02H650.694C650.694 220.294 652.762 210.629 657.37 203.43C661.947 196.28 669.04 191.53 679.284 191.53V189.53ZM648.694 230.02C648.694 243.136 651.693 252.506 656.908 258.61C662.145 264.737 669.491 267.43 677.854 267.43V265.43C669.937 265.43 663.203 262.897 658.429 257.31C653.634 251.699 650.694 242.864 650.694 230.02H648.694ZM677.854 267.43C693.658 267.43 704.924 255.689 704.924 242.34H702.924C702.924 254.511 692.629 265.43 677.854 265.43V267.43ZM704.924 242.34C704.924 227.758 692.864 217.14 678.734 217.14V219.14C691.884 219.14 702.924 228.982 702.924 242.34H704.924ZM677.414 256.19C668.726 256.19 662.134 250.483 662.134 242.34H660.134C660.134 251.797 667.842 258.19 677.414 258.19V256.19ZM662.134 242.34C662.134 234.187 668.736 228.38 677.414 228.38V226.38C667.832 226.38 660.134 232.893 660.134 242.34H662.134ZM677.414 228.38C686.119 228.38 693.024 234.212 693.024 242.34H695.024C695.024 232.868 686.968 226.38 677.414 226.38V228.38ZM693.024 242.34C693.024 250.354 686.124 256.19 677.414 256.19V258.19C686.963 258.19 695.024 251.706 695.024 242.34H693.024ZM730.959 223.2V222.2H729.959V223.2H730.959ZM730.959 232.33H729.959V233.33H730.959V232.33ZM723.039 246.85L723.965 246.474L723.712 245.85H723.039V246.85ZM712.809 246.85V245.85H711.515L711.841 247.102L712.809 246.85ZM755.269 227.6L754.702 226.776L753.507 227.598L754.7 228.423L755.269 227.6ZM713.249 210.11L712.281 209.86L711.958 211.11H713.249V210.11ZM723.479 210.11V211.11H724.173L724.416 210.46L723.479 210.11ZM729.959 223.2V232.33H731.959V223.2H729.959ZM730.959 233.33H739.209V231.33H730.959V233.33ZM739.209 233.33C743.899 233.33 747.587 234.477 750.08 236.467C752.546 238.435 753.939 241.3 753.939 244.98H755.939C755.939 240.74 754.306 237.28 751.328 234.903C748.376 232.548 744.199 231.33 739.209 231.33V233.33ZM753.939 244.98C753.939 251.358 748.146 256.19 739.209 256.19V258.19C748.752 258.19 755.939 252.902 755.939 244.98H753.939ZM739.209 256.19C735.586 256.19 732.509 255.524 729.989 254.009C727.482 252.502 725.438 250.103 723.965 246.474L722.112 247.226C723.72 251.187 726.021 253.958 728.959 255.723C731.884 257.481 735.352 258.19 739.209 258.19V256.19ZM723.039 245.85H712.809V247.85H723.039V245.85ZM711.841 247.102C713.657 254.08 717.308 259.185 722.139 262.535C726.959 265.878 732.889 267.43 739.209 267.43V265.43C733.209 265.43 727.699 263.957 723.279 260.892C718.87 257.835 715.481 253.15 713.777 246.598L711.841 247.102ZM739.209 267.43C755.946 267.43 765.839 256.953 765.839 244.87H763.839C763.839 255.667 755.032 265.43 739.209 265.43V267.43ZM765.839 244.87C765.839 241.727 765.295 238.542 763.753 235.458C762.21 232.372 759.696 229.444 755.837 226.777L754.7 228.423C758.322 230.926 760.592 233.608 761.964 236.352C763.337 239.098 763.839 241.963 763.839 244.87H765.839ZM755.835 228.424C763.153 223.393 765.509 217.362 765.509 211.32H763.509C763.509 216.718 761.465 222.127 754.702 226.776L755.835 228.424ZM765.509 211.32C765.509 199.781 755.829 189.53 739.539 189.53V191.53C754.928 191.53 763.509 201.079 763.509 211.32H765.509ZM739.539 189.53C733.329 189.53 727.428 191.054 722.608 194.382C717.776 197.718 714.096 202.824 712.281 209.86L714.217 210.36C715.921 203.756 719.336 199.072 723.745 196.028C728.165 192.976 733.648 191.53 739.539 191.53V189.53ZM713.249 211.11H723.479V209.11H713.249V211.11ZM724.416 210.46C725.719 206.967 727.753 204.569 730.294 203.032C732.848 201.487 735.983 200.77 739.539 200.77V198.77C735.724 198.77 732.205 199.538 729.259 201.321C726.299 203.111 723.989 205.883 722.542 209.76L724.416 210.46ZM739.539 200.77C743.831 200.77 747.37 201.884 749.809 203.742C752.228 205.584 753.609 208.183 753.609 211.32H755.609C755.609 207.527 753.91 204.351 751.021 202.151C748.153 199.966 744.156 198.77 739.539 198.77V200.77ZM753.609 211.32C753.609 214.831 752.275 217.498 749.927 219.315C747.545 221.158 744.02 222.2 739.539 222.2V224.2C744.298 224.2 748.307 223.097 751.151 220.897C754.027 218.672 755.609 215.399 755.609 211.32H753.609ZM739.539 222.2H730.959V224.2H739.539V222.2Z" fill="#1A1A1A"/>
<rect x="-797" y="415" width="852" height="210" rx="21" fill="#FAFAFA" stroke="#1A1A1A" stroke-width="10"/>
<rect x="-554" y="705" width="852" height="210" rx="21" fill="#FAFAFA" stroke="#1A1A1A" stroke-width="10"/>
<path d="M82.3202 798.58V820.25H54.3802L90.0202 771.96H78.5802L42.9402 820.25V829.49H82.3202V845H92.2202V829.49H104.76V820.25H92.2202V798.58H82.3202ZM126.395 835.76L150.595 813.43C157.195 807.38 161.595 800.78 161.595 792.75C161.595 779.22 151.365 770.53 136.625 770.53C122.765 770.53 113.745 779.22 111.325 791.65H121.665C123.535 783.62 129.695 779.77 137.175 779.77C145.315 779.77 151.805 784.94 151.805 793.08C151.805 799.35 147.405 804.08 142.895 808.37L113.085 835.76V845H162.915V835.76H126.395ZM202.468 770.53C180.468 770.53 174.528 793.52 174.528 808.48C174.528 823.44 180.468 846.43 202.468 846.43C224.468 846.43 230.408 823.44 230.408 808.48C230.408 793.52 224.468 770.53 202.468 770.53ZM202.468 837.19C188.718 837.19 184.428 820.8 184.428 808.48C184.428 796.16 188.718 779.77 202.468 779.77C216.218 779.77 220.508 796.16 220.508 808.48C220.508 820.8 216.218 837.19 202.468 837.19Z" fill="#1A1A1A"/>
<path d="M82.3202 798.58V797.58H81.3202V798.58H82.3202ZM82.3202 820.25V821.25H83.3202V820.25H82.3202ZM54.3802 820.25L53.5756 819.656L52.3993 821.25H54.3802V820.25ZM90.0202 771.96L90.8248 772.554L92.0011 770.96H90.0202V771.96ZM78.5802 771.96V770.96H78.0754L77.7756 771.366L78.5802 771.96ZM42.9402 820.25L42.1356 819.656L41.9402 819.921V820.25H42.9402ZM42.9402 829.49H41.9402V830.49H42.9402V829.49ZM82.3202 829.49H83.3202V828.49H82.3202V829.49ZM82.3202 845H81.3202V846H82.3202V845ZM92.2202 845V846H93.2202V845H92.2202ZM92.2202 829.49V828.49H91.2202V829.49H92.2202ZM104.76 829.49V830.49H105.76V829.49H104.76ZM104.76 820.25H105.76V819.25H104.76V820.25ZM92.2202 820.25H91.2202V821.25H92.2202V820.25ZM92.2202 798.58H93.2202V797.58H92.2202V798.58ZM81.3202 798.58V820.25H83.3202V798.58H81.3202ZM82.3202 819.25H54.3802V821.25H82.3202V819.25ZM55.1848 820.844L90.8248 772.554L89.2156 771.366L53.5756 819.656L55.1848 820.844ZM90.0202 770.96H78.5802V772.96H90.0202V770.96ZM77.7756 771.366L42.1356 819.656L43.7448 820.844L79.3848 772.554L77.7756 771.366ZM41.9402 820.25V829.49H43.9402V820.25H41.9402ZM42.9402 830.49H82.3202V828.49H42.9402V830.49ZM81.3202 829.49V845H83.3202V829.49H81.3202ZM82.3202 846H92.2202V844H82.3202V846ZM93.2202 845V829.49H91.2202V845H93.2202ZM92.2202 830.49H104.76V828.49H92.2202V830.49ZM105.76 829.49V820.25H103.76V829.49H105.76ZM104.76 819.25H92.2202V821.25H104.76V819.25ZM93.2202 820.25V798.58H91.2202V820.25H93.2202ZM92.2202 797.58H82.3202V799.58H92.2202V797.58ZM126.395 835.76L125.717 835.025L123.837 836.76H126.395V835.76ZM150.595 813.43L149.919 812.693L149.917 812.695L150.595 813.43ZM111.325 791.65L110.343 791.459L110.112 792.65H111.325V791.65ZM121.665 791.65V792.65H122.459L122.639 791.877L121.665 791.65ZM142.895 808.37L143.572 809.106L143.578 809.101L143.584 809.095L142.895 808.37ZM113.085 835.76L112.408 835.024L112.085 835.321V835.76H113.085ZM113.085 845H112.085V846H113.085V845ZM162.915 845V846H163.915V845H162.915ZM162.915 835.76H163.915V834.76H162.915V835.76ZM127.073 836.495L151.273 814.165L149.917 812.695L125.717 835.025L127.073 836.495ZM151.271 814.167C157.959 808.037 162.595 801.189 162.595 792.75H160.595C160.595 800.371 156.431 806.723 149.919 812.693L151.271 814.167ZM162.595 792.75C162.595 785.716 159.927 779.88 155.297 775.815C150.68 771.76 144.187 769.53 136.625 769.53V771.53C143.803 771.53 149.795 773.645 153.978 777.318C158.148 780.98 160.595 786.254 160.595 792.75H162.595ZM136.625 769.53C129.476 769.53 123.517 771.775 119.029 775.674C114.547 779.567 111.59 785.058 110.343 791.459L112.307 791.841C113.48 785.812 116.243 780.743 120.341 777.184C124.433 773.63 129.914 771.53 136.625 771.53V769.53ZM111.325 792.65H121.665V790.65H111.325V792.65ZM122.639 791.877C123.524 788.075 125.406 785.321 127.904 783.508C130.411 781.688 133.604 780.77 137.175 780.77V778.77C133.266 778.77 129.639 779.777 126.729 781.889C123.809 784.009 121.676 787.195 120.691 791.423L122.639 791.877ZM137.175 780.77C144.892 780.77 150.805 785.614 150.805 793.08H152.805C152.805 784.266 145.738 778.77 137.175 778.77V780.77ZM150.805 793.08C150.805 798.87 146.747 803.325 142.206 807.645L143.584 809.095C148.063 804.835 152.805 799.83 152.805 793.08H150.805ZM142.218 807.634L112.408 835.024L113.762 836.496L143.572 809.106L142.218 807.634ZM112.085 835.76V845H114.085V835.76H112.085ZM113.085 846H162.915V844H113.085V846ZM163.915 845V835.76H161.915V845H163.915ZM162.915 834.76H126.395V836.76H162.915V834.76ZM202.468 769.53C191.034 769.53 183.748 775.541 179.374 783.409C175.028 791.225 173.528 800.898 173.528 808.48H175.528C175.528 801.102 176.997 791.8 181.122 784.381C185.218 777.014 191.902 771.53 202.468 771.53V769.53ZM173.528 808.48C173.528 816.062 175.028 825.735 179.374 833.551C183.748 841.419 191.034 847.43 202.468 847.43V845.43C191.902 845.43 185.218 839.946 181.122 832.579C176.997 825.16 175.528 815.858 175.528 808.48H173.528ZM202.468 847.43C213.902 847.43 221.188 841.419 225.562 833.551C229.907 825.735 231.408 816.062 231.408 808.48H229.408C229.408 815.858 227.938 825.16 223.814 832.579C219.718 839.946 213.034 845.43 202.468 845.43V847.43ZM231.408 808.48C231.408 800.898 229.907 791.225 225.562 783.409C221.188 775.541 213.902 769.53 202.468 769.53V771.53C213.034 771.53 219.718 777.014 223.814 784.381C227.938 791.8 229.408 801.102 229.408 808.48H231.408ZM202.468 836.19C196.093 836.19 191.871 832.43 189.188 827.011C186.489 821.56 185.428 814.551 185.428 808.48H183.428C183.428 814.729 184.512 822.075 187.395 827.899C190.295 833.755 195.093 838.19 202.468 838.19V836.19ZM185.428 808.48C185.428 802.409 186.489 795.4 189.188 789.949C191.871 784.53 196.093 780.77 202.468 780.77V778.77C195.093 778.77 190.295 783.205 187.395 789.061C184.512 794.885 183.428 802.231 183.428 808.48H185.428ZM202.468 780.77C208.843 780.77 213.065 784.53 215.748 789.949C218.447 795.4 219.508 802.409 219.508 808.48H221.508C221.508 802.231 220.424 794.885 217.54 789.061C214.641 783.205 209.843 778.77 202.468 778.77V780.77ZM219.508 808.48C219.508 814.551 218.447 821.56 215.748 827.011C213.065 832.43 208.843 836.19 202.468 836.19V838.19C209.843 838.19 214.641 833.755 217.54 827.899C220.424 822.075 221.508 814.729 221.508 808.48H219.508Z" fill="#1A1A1A"/>
<rect x="1319" y="415" width="852" height="210" rx="21" fill="#FAFAFA" stroke="#1A1A1A" stroke-width="10"/>
<path d="M1452.2 503.41C1452.2 489.66 1442.63 481.96 1428.88 481.96H1393.35V555H1403.25V524.86H1428.88C1442.63 524.86 1452.2 517.16 1452.2 503.41ZM1442.3 503.41C1442.3 511.33 1436.8 515.62 1428.88 515.62H1403.25V491.2H1428.88C1436.8 491.2 1442.3 495.49 1442.3 503.41ZM1485.3 502.97C1470.01 502.97 1458.79 514.41 1458.79 529.7C1458.79 544.99 1470.01 556.43 1485.3 556.43C1500.48 556.43 1511.81 544.99 1511.81 529.7C1511.81 514.41 1500.48 502.97 1485.3 502.97ZM1485.3 547.63C1475.29 547.63 1468.25 539.6 1468.25 529.7C1468.25 519.58 1475.29 511.77 1485.3 511.77C1495.31 511.77 1502.35 519.58 1502.35 529.7C1502.35 539.6 1495.31 547.63 1485.3 547.63ZM1573.08 519.14C1569.45 509.35 1560.54 502.97 1549.21 502.97C1534.25 502.97 1522.81 514.41 1522.81 529.7C1522.81 544.99 1534.25 556.43 1549.21 556.43C1560.54 556.43 1569.45 550.05 1573.08 540.26H1562.74C1560.1 544.77 1555.26 547.63 1549.21 547.63C1539.31 547.63 1532.27 539.82 1532.27 529.7C1532.27 519.58 1539.31 511.77 1549.21 511.77C1555.26 511.77 1560.1 514.63 1562.74 519.14H1573.08ZM1633.77 519.14C1630.14 509.35 1621.23 502.97 1609.9 502.97C1594.94 502.97 1583.5 514.41 1583.5 529.7C1583.5 544.99 1594.94 556.43 1609.9 556.43C1621.23 556.43 1630.14 550.05 1633.77 540.26H1623.43C1620.79 544.77 1615.95 547.63 1609.9 547.63C1600 547.63 1592.96 539.82 1592.96 529.7C1592.96 519.58 1600 511.77 1609.9 511.77C1615.95 511.77 1620.79 514.63 1623.43 519.14H1633.77ZM1656.96 555L1686.55 518.15V555H1696.01V504.4H1686.55L1656.96 541.25V504.4H1647.5V555H1656.96ZM1745.24 538.28V555H1754.7V504.4H1728.74C1715.65 504.4 1709.71 512.21 1709.71 521.34C1709.71 528.71 1713.45 535.09 1721.81 537.4L1706.74 555H1719.17L1733.47 538.28H1745.24ZM1745.24 512.76V529.92H1729.07C1722.91 529.92 1719.17 526.95 1719.17 521.34C1719.17 515.73 1722.91 512.76 1729.07 512.76H1745.24Z" fill="#1A1A1A"/>
<path d="M1393.35 481.96V480.96H1392.35V481.96H1393.35ZM1393.35 555H1392.35V556H1393.35V555ZM1403.25 555V556H1404.25V555H1403.25ZM1403.25 524.86V523.86H1402.25V524.86H1403.25ZM1403.25 515.62H1402.25V516.62H1403.25V515.62ZM1403.25 491.2V490.2H1402.25V491.2H1403.25ZM1453.2 503.41C1453.2 496.288 1450.71 490.639 1446.36 486.78C1442.02 482.936 1435.93 480.96 1428.88 480.96V482.96C1435.58 482.96 1441.15 484.834 1445.03 488.277C1448.9 491.706 1451.2 496.782 1451.2 503.41H1453.2ZM1428.88 480.96H1393.35V482.96H1428.88V480.96ZM1392.35 481.96V555H1394.35V481.96H1392.35ZM1393.35 556H1403.25V554H1393.35V556ZM1404.25 555V524.86H1402.25V555H1404.25ZM1403.25 525.86H1428.88V523.86H1403.25V525.86ZM1428.88 525.86C1435.93 525.86 1442.02 523.884 1446.36 520.04C1450.71 516.181 1453.2 510.532 1453.2 503.41H1451.2C1451.2 510.038 1448.9 515.114 1445.03 518.543C1441.15 521.986 1435.58 523.86 1428.88 523.86V525.86ZM1441.3 503.41C1441.3 507.123 1440.02 509.885 1437.9 511.731C1435.77 513.594 1432.67 514.62 1428.88 514.62V516.62C1433.01 516.62 1436.62 515.501 1439.22 513.239C1441.83 510.96 1443.3 507.617 1443.3 503.41H1441.3ZM1428.88 514.62H1403.25V516.62H1428.88V514.62ZM1404.25 515.62V491.2H1402.25V515.62H1404.25ZM1403.25 492.2H1428.88V490.2H1403.25V492.2ZM1428.88 492.2C1432.67 492.2 1435.77 493.226 1437.9 495.089C1440.02 496.935 1441.3 499.697 1441.3 503.41H1443.3C1443.3 499.203 1441.83 495.86 1439.22 493.581C1436.62 491.319 1433.01 490.2 1428.88 490.2V492.2ZM1485.3 501.97C1469.44 501.97 1457.79 513.869 1457.79 529.7H1459.79C1459.79 514.951 1470.57 503.97 1485.3 503.97V501.97ZM1457.79 529.7C1457.79 545.531 1469.44 557.43 1485.3 557.43V555.43C1470.57 555.43 1459.79 544.449 1459.79 529.7H1457.79ZM1485.3 557.43C1501.04 557.43 1512.81 545.534 1512.81 529.7H1510.81C1510.81 544.446 1499.92 555.43 1485.3 555.43V557.43ZM1512.81 529.7C1512.81 513.866 1501.04 501.97 1485.3 501.97V503.97C1499.92 503.97 1510.81 514.954 1510.81 529.7H1512.81ZM1485.3 546.63C1475.91 546.63 1469.25 539.119 1469.25 529.7H1467.25C1467.25 540.081 1474.67 548.63 1485.3 548.63V546.63ZM1469.25 529.7C1469.25 520.069 1475.9 512.77 1485.3 512.77V510.77C1474.67 510.77 1467.25 519.091 1467.25 529.7H1469.25ZM1485.3 512.77C1494.69 512.77 1501.35 520.069 1501.35 529.7H1503.35C1503.35 519.091 1495.92 510.77 1485.3 510.77V512.77ZM1501.35 529.7C1501.35 539.119 1494.69 546.63 1485.3 546.63V548.63C1495.93 548.63 1503.35 540.081 1503.35 529.7H1501.35ZM1573.08 519.14V520.14H1574.52L1574.02 518.792L1573.08 519.14ZM1573.08 540.26L1574.02 540.608L1574.52 539.26H1573.08V540.26ZM1562.74 540.26V539.26H1562.17L1561.88 539.755L1562.74 540.26ZM1562.74 519.14L1561.88 519.645L1562.17 520.14H1562.74V519.14ZM1574.02 518.792C1570.24 508.602 1560.95 501.97 1549.21 501.97V503.97C1560.13 503.97 1568.66 510.098 1572.14 519.488L1574.02 518.792ZM1549.21 501.97C1533.69 501.97 1521.81 513.866 1521.81 529.7H1523.81C1523.81 514.954 1534.81 503.97 1549.21 503.97V501.97ZM1521.81 529.7C1521.81 545.534 1533.69 557.43 1549.21 557.43V555.43C1534.81 555.43 1523.81 544.446 1523.81 529.7H1521.81ZM1549.21 557.43C1560.95 557.43 1570.24 550.798 1574.02 540.608L1572.14 539.912C1568.66 549.302 1560.13 555.43 1549.21 555.43V557.43ZM1573.08 539.26H1562.74V541.26H1573.08V539.26ZM1561.88 539.755C1559.43 543.942 1554.92 546.63 1549.21 546.63V548.63C1555.6 548.63 1560.77 545.598 1563.6 540.765L1561.88 539.755ZM1549.21 546.63C1539.93 546.63 1533.27 539.336 1533.27 529.7H1531.27C1531.27 540.304 1538.69 548.63 1549.21 548.63V546.63ZM1533.27 529.7C1533.27 520.064 1539.93 512.77 1549.21 512.77V510.77C1538.69 510.77 1531.27 519.096 1531.27 529.7H1533.27ZM1549.21 512.77C1554.92 512.77 1559.43 515.458 1561.88 519.645L1563.6 518.635C1560.77 513.802 1555.6 510.77 1549.21 510.77V512.77ZM1562.74 520.14H1573.08V518.14H1562.74V520.14ZM1633.77 519.14V520.14H1635.21L1634.71 518.792L1633.77 519.14ZM1633.77 540.26L1634.71 540.608L1635.21 539.26H1633.77V540.26ZM1623.43 540.26V539.26H1622.86L1622.57 539.755L1623.43 540.26ZM1623.43 519.14L1622.57 519.645L1622.86 520.14H1623.43V519.14ZM1634.71 518.792C1630.93 508.602 1621.64 501.97 1609.9 501.97V503.97C1620.82 503.97 1629.35 510.098 1632.84 519.488L1634.71 518.792ZM1609.9 501.97C1594.38 501.97 1582.5 513.866 1582.5 529.7H1584.5C1584.5 514.954 1595.5 503.97 1609.9 503.97V501.97ZM1582.5 529.7C1582.5 545.534 1594.38 557.43 1609.9 557.43V555.43C1595.5 555.43 1584.5 544.446 1584.5 529.7H1582.5ZM1609.9 557.43C1621.64 557.43 1630.93 550.798 1634.71 540.608L1632.84 539.912C1629.35 549.302 1620.82 555.43 1609.9 555.43V557.43ZM1633.77 539.26H1623.43V541.26H1633.77V539.26ZM1622.57 539.755C1620.12 543.942 1615.62 546.63 1609.9 546.63V548.63C1616.29 548.63 1621.47 545.598 1624.3 540.765L1622.57 539.755ZM1609.9 546.63C1600.62 546.63 1593.96 539.336 1593.96 529.7H1591.96C1591.96 540.304 1599.39 548.63 1609.9 548.63V546.63ZM1593.96 529.7C1593.96 520.064 1600.62 512.77 1609.9 512.77V510.77C1599.39 510.77 1591.96 519.096 1591.96 529.7H1593.96ZM1609.9 512.77C1615.62 512.77 1620.12 515.458 1622.57 519.645L1624.3 518.635C1621.47 513.802 1616.29 510.77 1609.9 510.77V512.77ZM1623.43 520.14H1633.77V518.14H1623.43V520.14ZM1656.96 555V556H1657.44L1657.74 555.626L1656.96 555ZM1686.55 518.15H1687.55V515.307L1685.77 517.524L1686.55 518.15ZM1686.55 555H1685.55V556H1686.55V555ZM1696.01 555V556H1697.01V555H1696.01ZM1696.01 504.4H1697.01V503.4H1696.01V504.4ZM1686.55 504.4V503.4H1686.07L1685.77 503.774L1686.55 504.4ZM1656.96 541.25H1655.96V544.093L1657.74 541.876L1656.96 541.25ZM1656.96 504.4H1657.96V503.4H1656.96V504.4ZM1647.5 504.4V503.4H1646.5V504.4H1647.5ZM1647.5 555H1646.5V556H1647.5V555ZM1657.74 555.626L1687.33 518.776L1685.77 517.524L1656.18 554.374L1657.74 555.626ZM1685.55 518.15V555H1687.55V518.15H1685.55ZM1686.55 556H1696.01V554H1686.55V556ZM1697.01 555V504.4H1695.01V555H1697.01ZM1696.01 503.4H1686.55V505.4H1696.01V503.4ZM1685.77 503.774L1656.18 540.624L1657.74 541.876L1687.33 505.026L1685.77 503.774ZM1657.96 541.25V504.4H1655.96V541.25H1657.96ZM1656.96 503.4H1647.5V505.4H1656.96V503.4ZM1646.5 504.4V555H1648.5V504.4H1646.5ZM1647.5 556H1656.96V554H1647.5V556ZM1745.24 538.28H1746.24V537.28H1745.24V538.28ZM1745.24 555H1744.24V556H1745.24V555ZM1754.7 555V556H1755.7V555H1754.7ZM1754.7 504.4H1755.7V503.4H1754.7V504.4ZM1721.81 537.4L1722.57 538.05L1723.59 536.855L1722.08 536.436L1721.81 537.4ZM1706.74 555L1705.98 554.35L1704.57 556H1706.74V555ZM1719.17 555V556H1719.63L1719.93 555.65L1719.17 555ZM1733.47 538.28V537.28H1733.01L1732.71 537.63L1733.47 538.28ZM1745.24 512.76H1746.24V511.76H1745.24V512.76ZM1745.24 529.92V530.92H1746.24V529.92H1745.24ZM1744.24 538.28V555H1746.24V538.28H1744.24ZM1745.24 556H1754.7V554H1745.24V556ZM1755.7 555V504.4H1753.7V555H1755.7ZM1754.7 503.4H1728.74V505.4H1754.7V503.4ZM1728.74 503.4C1721.99 503.4 1716.96 505.417 1713.61 508.736C1710.27 512.051 1708.71 516.559 1708.71 521.34H1710.71C1710.71 516.991 1712.12 513.029 1715.02 510.156C1717.92 507.288 1722.4 505.4 1728.74 505.4V503.4ZM1708.71 521.34C1708.71 525.192 1709.69 528.841 1711.81 531.844C1713.94 534.856 1717.16 537.153 1721.55 538.364L1722.08 536.436C1718.1 535.337 1715.28 533.289 1713.44 530.691C1711.6 528.084 1710.71 524.858 1710.71 521.34H1708.71ZM1721.05 536.75L1705.98 554.35L1707.5 555.65L1722.57 538.05L1721.05 536.75ZM1706.74 556H1719.17V554H1706.74V556ZM1719.93 555.65L1734.23 538.93L1732.71 537.63L1718.41 554.35L1719.93 555.65ZM1733.47 539.28H1745.24V537.28H1733.47V539.28ZM1744.24 512.76V529.92H1746.24V512.76H1744.24ZM1745.24 528.92H1729.07V530.92H1745.24V528.92ZM1729.07 528.92C1726.14 528.92 1723.92 528.212 1722.46 526.971C1721.02 525.751 1720.17 523.908 1720.17 521.34H1718.17C1718.17 524.382 1719.2 526.829 1721.17 528.497C1723.11 530.143 1725.85 530.92 1729.07 530.92V528.92ZM1720.17 521.34C1720.17 518.772 1721.02 516.929 1722.46 515.709C1723.92 514.468 1726.14 513.76 1729.07 513.76V511.76C1725.85 511.76 1723.11 512.537 1721.17 514.183C1719.2 515.851 1718.17 518.298 1718.17 521.34H1720.17ZM1729.07 513.76H1745.24V511.76H1729.07V513.76Z" fill="#1A1A1A"/>
<rect x="1564" y="705" width="852" height="210" rx="21" fill="#FAFAFA" stroke="#1A1A1A" stroke-width="10"/>
<path d="M1638.35 771.96V845H1672.67C1683.45 845 1695 839.39 1695 824.43C1695 816.95 1691.81 812 1686.42 808.48C1691.81 804.96 1695 800.01 1695 792.53C1695 777.57 1683.45 771.96 1672.67 771.96H1638.35ZM1685.1 824.43C1685.1 831.91 1680.04 835.76 1672.56 835.76H1648.25V813.1H1672.56C1680.04 813.1 1685.1 816.95 1685.1 824.43ZM1685.1 792.53C1685.1 800.01 1680.04 803.86 1672.56 803.86H1648.25V781.2H1672.56C1680.04 781.2 1685.1 785.05 1685.1 792.53ZM1719.34 811.12V794.4H1709.88V845H1736.94C1750.03 845 1755.97 837.19 1755.97 828.06C1755.97 818.93 1750.03 811.12 1736.94 811.12H1719.34ZM1719.34 836.64V819.48H1736.61C1742.77 819.48 1746.51 822.45 1746.51 828.06C1746.51 833.67 1742.77 836.64 1736.61 836.64H1719.34ZM1791.31 837.63C1782.51 837.63 1775.8 831.47 1774.59 823.22H1815.4C1815.73 821.79 1815.62 820.25 1815.62 819.04C1815.62 804.52 1805.17 792.97 1790.76 792.97C1775.47 792.97 1764.8 804.41 1764.8 819.59C1764.8 835.21 1776.02 846.43 1791.31 846.43C1802.42 846.43 1811.44 840.6 1814.96 830.81H1804.73C1802.09 835.32 1797.36 837.63 1791.31 837.63ZM1790.76 801.77C1799.12 801.77 1804.51 807.05 1805.72 814.97H1774.7C1775.91 807.05 1781.96 801.77 1790.76 801.77ZM1822.2 802.76H1841.78V845H1851.24V802.76H1870.82V794.4H1822.2V802.76Z" fill="#1A1A1A"/>
<path d="M1638.35 771.96V770.96H1637.35V771.96H1638.35ZM1638.35 845H1637.35V846H1638.35V845ZM1686.42 808.48L1685.87 807.643L1684.59 808.48L1685.87 809.317L1686.42 808.48ZM1648.25 835.76H1647.25V836.76H1648.25V835.76ZM1648.25 813.1V812.1H1647.25V813.1H1648.25ZM1648.25 803.86H1647.25V804.86H1648.25V803.86ZM1648.25 781.2V780.2H1647.25V781.2H1648.25ZM1637.35 771.96V845H1639.35V771.96H1637.35ZM1638.35 846H1672.67V844H1638.35V846ZM1672.67 846C1678.21 846 1684.03 844.56 1688.49 841.116C1692.98 837.643 1696 832.201 1696 824.43H1694C1694 831.619 1691.24 836.462 1687.27 839.534C1683.25 842.635 1677.91 844 1672.67 844V846ZM1696 824.43C1696 820.542 1695.17 817.261 1693.6 814.479C1692.04 811.7 1689.77 809.472 1686.97 807.643L1685.87 809.317C1688.46 811.008 1690.48 813.015 1691.86 815.461C1693.24 817.903 1694 820.838 1694 824.43H1696ZM1686.97 809.317C1689.77 807.488 1692.04 805.26 1693.6 802.481C1695.17 799.698 1696 796.418 1696 792.53H1694C1694 796.122 1693.24 799.056 1691.86 801.499C1690.48 803.945 1688.46 805.952 1685.87 807.643L1686.97 809.317ZM1696 792.53C1696 784.759 1692.98 779.317 1688.49 775.844C1684.03 772.4 1678.21 770.96 1672.67 770.96V772.96C1677.91 772.96 1683.25 774.325 1687.27 777.426C1691.24 780.498 1694 785.341 1694 792.53H1696ZM1672.67 770.96H1638.35V772.96H1672.67V770.96ZM1684.1 824.43C1684.1 827.93 1682.93 830.466 1680.98 832.143C1679.02 833.838 1676.14 834.76 1672.56 834.76V836.76C1676.46 836.76 1679.85 835.757 1682.29 833.657C1684.74 831.539 1686.1 828.41 1686.1 824.43H1684.1ZM1672.56 834.76H1648.25V836.76H1672.56V834.76ZM1649.25 835.76V813.1H1647.25V835.76H1649.25ZM1648.25 814.1H1672.56V812.1H1648.25V814.1ZM1672.56 814.1C1676.14 814.1 1679.02 815.022 1680.98 816.717C1682.93 818.394 1684.1 820.93 1684.1 824.43H1686.1C1686.1 820.45 1684.74 817.321 1682.29 815.203C1679.85 813.103 1676.46 812.1 1672.56 812.1V814.1ZM1684.1 792.53C1684.1 796.03 1682.93 798.566 1680.98 800.243C1679.02 801.938 1676.14 802.86 1672.56 802.86V804.86C1676.46 804.86 1679.85 803.857 1682.29 801.757C1684.74 799.639 1686.1 796.51 1686.1 792.53H1684.1ZM1672.56 802.86H1648.25V804.86H1672.56V802.86ZM1649.25 803.86V781.2H1647.25V803.86H1649.25ZM1648.25 782.2H1672.56V780.2H1648.25V782.2ZM1672.56 782.2C1676.14 782.2 1679.02 783.122 1680.98 784.817C1682.93 786.494 1684.1 789.03 1684.1 792.53H1686.1C1686.1 788.55 1684.74 785.421 1682.29 783.303C1679.85 781.203 1676.46 780.2 1672.56 780.2V782.2ZM1719.34 811.12H1718.34V812.12H1719.34V811.12ZM1719.34 794.4H1720.34V793.4H1719.34V794.4ZM1709.88 794.4V793.4H1708.88V794.4H1709.88ZM1709.88 845H1708.88V846H1709.88V845ZM1719.34 836.64H1718.34V837.64H1719.34V836.64ZM1719.34 819.48V818.48H1718.34V819.48H1719.34ZM1720.34 811.12V794.4H1718.34V811.12H1720.34ZM1719.34 793.4H1709.88V795.4H1719.34V793.4ZM1708.88 794.4V845H1710.88V794.4H1708.88ZM1709.88 846H1736.94V844H1709.88V846ZM1736.94 846C1743.69 846 1748.72 843.983 1752.07 840.664C1755.41 837.349 1756.97 832.841 1756.97 828.06H1754.97C1754.97 832.409 1753.56 836.371 1750.66 839.244C1747.77 842.112 1743.28 844 1736.94 844V846ZM1756.97 828.06C1756.97 823.279 1755.41 818.771 1752.07 815.456C1748.72 812.137 1743.69 810.12 1736.94 810.12V812.12C1743.28 812.12 1747.77 814.008 1750.66 816.876C1753.56 819.749 1754.97 823.711 1754.97 828.06H1756.97ZM1736.94 810.12H1719.34V812.12H1736.94V810.12ZM1720.34 836.64V819.48H1718.34V836.64H1720.34ZM1719.34 820.48H1736.61V818.48H1719.34V820.48ZM1736.61 820.48C1739.54 820.48 1741.76 821.188 1743.22 822.429C1744.66 823.649 1745.51 825.492 1745.51 828.06H1747.51C1747.51 825.018 1746.49 822.571 1744.52 820.903C1742.57 819.257 1739.84 818.48 1736.61 818.48V820.48ZM1745.51 828.06C1745.51 830.628 1744.66 832.471 1743.22 833.691C1741.76 834.932 1739.54 835.64 1736.61 835.64V837.64C1739.84 837.64 1742.57 836.863 1744.52 835.217C1746.49 833.549 1747.51 831.102 1747.51 828.06H1745.51ZM1736.61 835.64H1719.34V837.64H1736.61V835.64ZM1774.59 823.22V822.22H1773.44L1773.6 823.365L1774.59 823.22ZM1815.4 823.22V824.22H1816.2L1816.38 823.445L1815.4 823.22ZM1814.96 830.81L1815.9 831.148L1816.38 829.81H1814.96V830.81ZM1804.73 830.81V829.81H1804.16L1803.87 830.305L1804.73 830.81ZM1805.72 814.97V815.97H1806.89L1806.71 814.819L1805.72 814.97ZM1774.7 814.97L1773.71 814.819L1773.54 815.97H1774.7V814.97ZM1791.31 836.63C1783.02 836.63 1776.72 830.848 1775.58 823.075L1773.6 823.365C1774.88 832.092 1782 838.63 1791.31 838.63V836.63ZM1774.59 824.22H1815.4V822.22H1774.59V824.22ZM1816.38 823.445C1816.74 821.869 1816.62 820.147 1816.62 819.04H1814.62C1814.62 820.353 1814.72 821.711 1814.43 822.995L1816.38 823.445ZM1816.62 819.04C1816.62 804.028 1805.78 791.97 1790.76 791.97V793.97C1804.56 793.97 1814.62 805.012 1814.62 819.04H1816.62ZM1790.76 791.97C1774.88 791.97 1763.8 803.894 1763.8 819.59H1765.8C1765.8 804.926 1776.06 793.97 1790.76 793.97V791.97ZM1763.8 819.59C1763.8 835.754 1775.46 847.43 1791.31 847.43V845.43C1776.58 845.43 1765.8 834.666 1765.8 819.59H1763.8ZM1791.31 847.43C1802.79 847.43 1812.22 841.383 1815.9 831.148L1814.02 830.472C1810.66 839.817 1802.05 845.43 1791.31 845.43V847.43ZM1814.96 829.81H1804.73V831.81H1814.96V829.81ZM1803.87 830.305C1801.45 834.439 1797.1 836.63 1791.31 836.63V838.63C1797.63 838.63 1802.74 836.201 1805.6 831.315L1803.87 830.305ZM1790.76 802.77C1794.72 802.77 1797.91 804.016 1800.25 806.14C1802.6 808.27 1804.16 811.347 1804.73 815.121L1806.71 814.819C1806.08 810.673 1804.34 807.15 1801.6 804.66C1798.85 802.164 1795.16 800.77 1790.76 800.77V802.77ZM1805.72 813.97H1774.7V815.97H1805.72V813.97ZM1775.69 815.121C1776.26 811.38 1777.97 808.308 1780.53 806.167C1783.09 804.026 1786.57 802.77 1790.76 802.77V800.77C1786.16 800.77 1782.21 802.154 1779.25 804.633C1776.28 807.112 1774.35 810.64 1773.71 814.819L1775.69 815.121ZM1822.2 802.76H1821.2V803.76H1822.2V802.76ZM1841.78 802.76H1842.78V801.76H1841.78V802.76ZM1841.78 845H1840.78V846H1841.78V845ZM1851.24 845V846H1852.24V845H1851.24ZM1851.24 802.76V801.76H1850.24V802.76H1851.24ZM1870.82 802.76V803.76H1871.82V802.76H1870.82ZM1870.82 794.4H1871.82V793.4H1870.82V794.4ZM1822.2 794.4V793.4H1821.2V794.4H1822.2ZM1822.2 803.76H1841.78V801.76H1822.2V803.76ZM1840.78 802.76V845H1842.78V802.76H1840.78ZM1841.78 846H1851.24V844H1841.78V846ZM1852.24 845V802.76H1850.24V845H1852.24ZM1851.24 803.76H1870.82V801.76H1851.24V803.76ZM1871.82 802.76V794.4H1869.82V802.76H1871.82ZM1870.82 793.4H1822.2V795.4H1870.82V793.4ZM1821.2 794.4V802.76H1823.2V794.4H1821.2Z" fill="#1A1A1A"/>
<path d="M120 446.4C120 436.721 120 431.882 121.273 427.966C123.844 420.05 130.05 413.844 137.966 411.273C141.882 410 146.721 410 156.4 410H1162.2C1167.66 410 1170.39 410 1172.92 410.508C1178.01 411.527 1182.67 414.044 1186.31 417.734C1188.13 419.571 1189.63 421.854 1192.62 426.421L1240.95 500.021C1244.56 505.518 1246.37 508.266 1247.4 511.119C1249.49 516.856 1249.49 523.144 1247.4 528.881C1246.37 531.734 1244.56 534.482 1240.95 539.979L1192.62 613.579C1189.63 618.146 1188.13 620.429 1186.31 622.266C1182.67 625.956 1178.01 628.473 1172.92 629.492C1170.39 630 1167.66 630 1162.2 630H156.4C146.721 630 141.882 630 137.966 628.727C130.05 626.156 123.844 619.95 121.273 612.034C120 608.118 120 603.279 120 593.6V446.4Z" fill="#191919"/>
<path fill-rule="evenodd" clip-rule="evenodd" d="M1162.67 436.889H1139.19L1197.62 520.414L1139.19 603.94H1162.67L1221.1 520.414L1162.67 436.889Z" fill="#FAFAFA"/>
<path d="M399.08 489.77C413.05 489.77 424.49 499.78 425.92 513.86H386.32V523.1H425.92C424.16 537.29 413.27 547.19 399.08 547.19C389.51 547.19 382.58 543.12 378.07 536.85H366.85C372.68 548.62 384.01 556.43 399.08 556.43C420.09 556.43 436.15 540.37 436.15 518.48C436.15 496.59 420.09 480.53 399.08 480.53C384.01 480.53 372.68 488.34 366.85 500.11H378.07C382.58 493.84 389.51 489.77 399.08 489.77ZM449.896 504.4V555H459.356V534.21L483.666 555H496.316L468.266 529.7L496.316 504.4H483.666L459.356 526.51V504.4H449.896ZM552.081 519.14C548.451 509.35 539.541 502.97 528.211 502.97C513.251 502.97 501.811 514.41 501.811 529.7C501.811 544.99 513.251 556.43 528.211 556.43C539.541 556.43 548.451 550.05 552.081 540.26H541.741C539.101 544.77 534.261 547.63 528.211 547.63C518.311 547.63 511.271 539.82 511.271 529.7C511.271 519.58 518.311 511.77 528.211 511.77C534.261 511.77 539.101 514.63 541.741 519.14H552.081ZM565.804 504.4V555H575.264V534.21L599.574 555H612.224L584.174 529.7L612.224 504.4H599.574L575.264 526.51V504.4H565.804ZM637.053 554.34L634.963 559.18C631.553 566.99 629.463 569.08 623.523 569.08H620.443V577.44H625.283C637.163 577.44 638.813 573.04 645.523 557.75L669.393 504.4H659.383L642.333 542.57L625.393 504.4H614.723L637.053 554.34ZM689.131 577.44V549.5C692.981 553.79 699.031 556.43 706.181 556.43C722.901 556.43 731.811 543.67 731.811 529.7C731.811 515.73 722.901 502.97 706.181 502.97C699.031 502.97 692.981 505.61 689.131 509.9V504.4H679.671V577.44H689.131ZM688.801 529.7C688.801 517.71 697.051 511.77 705.851 511.77C715.641 511.77 722.351 520.02 722.351 529.7C722.351 539.38 715.641 547.63 705.851 547.63C697.051 547.63 688.801 541.69 688.801 529.7ZM793.028 519.14C789.398 509.35 780.488 502.97 769.158 502.97C754.198 502.97 742.758 514.41 742.758 529.7C742.758 544.99 754.198 556.43 769.158 556.43C780.488 556.43 789.398 550.05 793.028 540.26H782.688C780.048 544.77 775.208 547.63 769.158 547.63C759.258 547.63 752.218 539.82 752.218 529.7C752.218 519.58 759.258 511.77 769.158 511.77C775.208 511.77 780.048 514.63 782.688 519.14H793.028ZM816.211 555L845.801 518.15V555H855.261V504.4H845.801L816.211 541.25V504.4H806.751V555H816.211ZM882.276 555L911.866 518.15V555H921.326V504.4H911.866L882.276 541.25V504.4H872.816V555H882.276Z" fill="#FAFAFA"/>
<path d="M425.92 513.86V514.86H427.027L426.915 513.759L425.92 513.86ZM386.32 513.86V512.86H385.32V513.86H386.32ZM386.32 523.1H385.32V524.1H386.32V523.1ZM425.92 523.1L426.912 523.223L427.052 522.1H425.92V523.1ZM378.07 536.85L378.882 536.266L378.583 535.85H378.07V536.85ZM366.85 536.85V535.85H365.239L365.954 537.294L366.85 536.85ZM366.85 500.11L365.954 499.666L365.239 501.11H366.85V500.11ZM378.07 500.11V501.11H378.583L378.882 500.694L378.07 500.11ZM399.08 490.77C412.55 490.77 423.548 500.404 424.925 513.961L426.915 513.759C425.432 499.156 413.55 488.77 399.08 488.77V490.77ZM425.92 512.86H386.32V514.86H425.92V512.86ZM385.32 513.86V523.1H387.32V513.86H385.32ZM386.32 524.1H425.92V522.1H386.32V524.1ZM424.928 522.977C423.228 536.683 412.748 546.19 399.08 546.19V548.19C413.792 548.19 425.092 537.897 426.912 523.223L424.928 522.977ZM399.08 546.19C389.836 546.19 383.206 542.278 378.882 536.266L377.258 537.434C381.954 543.962 389.184 548.19 399.08 548.19V546.19ZM378.07 535.85H366.85V537.85H378.07V535.85ZM365.954 537.294C371.949 549.396 383.621 557.43 399.08 557.43V555.43C384.399 555.43 373.411 547.844 367.746 536.406L365.954 537.294ZM399.08 557.43C420.658 557.43 437.15 540.907 437.15 518.48H435.15C435.15 539.833 419.522 555.43 399.08 555.43V557.43ZM437.15 518.48C437.15 496.053 420.658 479.53 399.08 479.53V481.53C419.522 481.53 435.15 497.127 435.15 518.48H437.15ZM399.08 479.53C383.621 479.53 371.949 487.564 365.954 499.666L367.746 500.554C373.411 489.116 384.399 481.53 399.08 481.53V479.53ZM366.85 501.11H378.07V499.11H366.85V501.11ZM378.882 500.694C383.206 494.682 389.836 490.77 399.08 490.77V488.77C389.184 488.77 381.954 492.998 377.258 499.526L378.882 500.694ZM449.896 504.4V503.4H448.896V504.4H449.896ZM449.896 555H448.896V556H449.896V555ZM459.356 555V556H460.356V555H459.356ZM459.356 534.21L460.006 533.45L458.356 532.039V534.21H459.356ZM483.666 555L483.016 555.76L483.296 556H483.666V555ZM496.316 555V556H498.917L496.985 554.257L496.316 555ZM468.266 529.7L467.596 528.957L466.773 529.7L467.596 530.443L468.266 529.7ZM496.316 504.4L496.985 505.143L498.917 503.4H496.316V504.4ZM483.666 504.4V503.4H483.279L482.993 503.66L483.666 504.4ZM459.356 526.51H458.356V528.771L460.029 527.25L459.356 526.51ZM459.356 504.4H460.356V503.4H459.356V504.4ZM448.896 504.4V555H450.896V504.4H448.896ZM449.896 556H459.356V554H449.896V556ZM460.356 555V534.21H458.356V555H460.356ZM458.706 534.97L483.016 555.76L484.316 554.24L460.006 533.45L458.706 534.97ZM483.666 556H496.316V554H483.666V556ZM496.985 554.257L468.935 528.957L467.596 530.443L495.646 555.743L496.985 554.257ZM468.935 530.443L496.985 505.143L495.646 503.657L467.596 528.957L468.935 530.443ZM496.316 503.4H483.666V505.4H496.316V503.4ZM482.993 503.66L458.683 525.77L460.029 527.25L484.339 505.14L482.993 503.66ZM460.356 526.51V504.4H458.356V526.51H460.356ZM459.356 503.4H449.896V505.4H459.356V503.4ZM552.081 519.14V520.14H553.518L553.018 518.792L552.081 519.14ZM552.081 540.26L553.018 540.608L553.518 539.26H552.081V540.26ZM541.741 540.26V539.26H541.167L540.878 539.755L541.741 540.26ZM541.741 519.14L540.878 519.645L541.167 520.14H541.741V519.14ZM553.018 518.792C549.24 508.602 539.95 501.97 528.211 501.97V503.97C539.131 503.97 547.661 510.098 551.143 519.488L553.018 518.792ZM528.211 501.97C512.69 501.97 500.811 513.866 500.811 529.7H502.811C502.811 514.954 513.811 503.97 528.211 503.97V501.97ZM500.811 529.7C500.811 545.534 512.69 557.43 528.211 557.43V555.43C513.811 555.43 502.811 544.446 502.811 529.7H500.811ZM528.211 557.43C539.95 557.43 549.24 550.798 553.018 540.608L551.143 539.912C547.661 549.302 539.131 555.43 528.211 555.43V557.43ZM552.081 539.26H541.741V541.26H552.081V539.26ZM540.878 539.755C538.427 543.942 533.925 546.63 528.211 546.63V548.63C534.596 548.63 539.775 545.598 542.604 540.765L540.878 539.755ZM528.211 546.63C518.928 546.63 512.271 539.336 512.271 529.7H510.271C510.271 540.304 517.693 548.63 528.211 548.63V546.63ZM512.271 529.7C512.271 520.064 518.928 512.77 528.211 512.77V510.77C517.693 510.77 510.271 519.096 510.271 529.7H512.271ZM528.211 512.77C533.925 512.77 538.427 515.458 540.878 519.645L542.604 518.635C539.775 513.802 534.596 510.77 528.211 510.77V512.77ZM541.741 520.14H552.081V518.14H541.741V520.14ZM565.804 504.4V503.4H564.804V504.4H565.804ZM565.804 555H564.804V556H565.804V555ZM575.264 555V556H576.264V555H575.264ZM575.264 534.21L575.914 533.45L574.264 532.039V534.21H575.264ZM599.574 555L598.924 555.76L599.205 556H599.574V555ZM612.224 555V556H614.826L612.894 554.257L612.224 555ZM584.174 529.7L583.504 528.957L582.681 529.7L583.504 530.443L584.174 529.7ZM612.224 504.4L612.894 505.143L614.826 503.4H612.224V504.4ZM599.574 504.4V503.4H599.187L598.901 503.66L599.574 504.4ZM575.264 526.51H574.264V528.771L575.937 527.25L575.264 526.51ZM575.264 504.4H576.264V503.4H575.264V504.4ZM564.804 504.4V555H566.804V504.4H564.804ZM565.804 556H575.264V554H565.804V556ZM576.264 555V534.21H574.264V555H576.264ZM574.614 534.97L598.924 555.76L600.224 554.24L575.914 533.45L574.614 534.97ZM599.574 556H612.224V554H599.574V556ZM612.894 554.257L584.844 528.957L583.504 530.443L611.554 555.743L612.894 554.257ZM584.844 530.443L612.894 505.143L611.554 503.657L583.504 528.957L584.844 530.443ZM612.224 503.4H599.574V505.4H612.224V503.4ZM598.901 503.66L574.591 525.77L575.937 527.25L600.247 505.14L598.901 503.66ZM576.264 526.51V504.4H574.264V526.51H576.264ZM575.264 503.4H565.804V505.4H575.264V503.4ZM637.053 554.34L637.971 554.736L638.145 554.333L637.966 553.932L637.053 554.34ZM634.963 559.18L635.879 559.58L635.881 559.576L634.963 559.18ZM620.443 569.08V568.08H619.443V569.08H620.443ZM620.443 577.44H619.443V578.44H620.443V577.44ZM645.523 557.75L644.61 557.342L644.607 557.348L645.523 557.75ZM669.393 504.4L670.306 504.808L670.936 503.4H669.393V504.4ZM659.383 504.4V503.4H658.734L658.47 503.992L659.383 504.4ZM642.333 542.57L641.419 542.976L642.33 545.029L643.246 542.978L642.333 542.57ZM625.393 504.4L626.307 503.994L626.043 503.4H625.393V504.4ZM614.723 504.4V503.4H613.18L613.81 504.808L614.723 504.4ZM636.135 553.944L634.045 558.784L635.881 559.576L637.971 554.736L636.135 553.944ZM634.047 558.78C632.338 562.692 631.036 564.974 629.529 566.31C628.094 567.581 626.37 568.08 623.523 568.08V570.08C626.616 570.08 628.907 569.534 630.855 567.807C632.73 566.146 634.178 563.478 635.879 559.58L634.047 558.78ZM623.523 568.08H620.443V570.08H623.523V568.08ZM619.443 569.08V577.44H621.443V569.08H619.443ZM620.443 578.44H625.283V576.44H620.443V578.44ZM625.283 578.44C631.358 578.44 635.076 577.309 638.082 574.001C639.541 572.395 640.796 570.316 642.094 567.725C643.393 565.134 644.767 561.962 646.439 558.152L644.607 557.348C642.924 561.183 641.576 564.295 640.306 566.829C639.037 569.363 637.878 571.251 636.602 572.656C634.135 575.371 631.087 576.44 625.283 576.44V578.44ZM646.436 558.158L670.306 504.808L668.48 503.992L644.61 557.342L646.436 558.158ZM669.393 503.4H659.383V505.4H669.393V503.4ZM658.47 503.992L641.42 542.162L643.246 542.978L660.296 504.808L658.47 503.992ZM643.247 542.164L626.307 503.994L624.479 504.806L641.419 542.976L643.247 542.164ZM625.393 503.4H614.723V505.4H625.393V503.4ZM613.81 504.808L636.14 554.748L637.966 553.932L615.636 503.992L613.81 504.808ZM689.131 577.44V578.44H690.131V577.44H689.131ZM689.131 549.5L689.875 548.832L688.131 546.889V549.5H689.131ZM689.131 509.9H688.131V512.511L689.875 510.568L689.131 509.9ZM689.131 504.4H690.131V503.4H689.131V504.4ZM679.671 504.4V503.4H678.671V504.4H679.671ZM679.671 577.44H678.671V578.44H679.671V577.44ZM690.131 577.44V549.5H688.131V577.44H690.131ZM688.387 550.168C692.452 554.698 698.788 557.43 706.181 557.43V555.43C699.275 555.43 693.51 552.882 689.875 548.832L688.387 550.168ZM706.181 557.43C714.817 557.43 721.503 554.125 726.019 548.962C730.519 543.817 732.811 536.89 732.811 529.7H730.811C730.811 536.48 728.648 542.918 724.513 547.645C720.394 552.355 714.265 555.43 706.181 555.43V557.43ZM732.811 529.7C732.811 522.51 730.519 515.583 726.019 510.438C721.503 505.275 714.817 501.97 706.181 501.97V503.97C714.265 503.97 720.394 507.045 724.513 511.755C728.648 516.482 730.811 522.92 730.811 529.7H732.811ZM706.181 501.97C698.788 501.97 692.452 504.702 688.387 509.232L689.875 510.568C693.51 506.518 699.275 503.97 706.181 503.97V501.97ZM690.131 509.9V504.4H688.131V509.9H690.131ZM689.131 503.4H679.671V505.4H689.131V503.4ZM678.671 504.4V577.44H680.671V504.4H678.671ZM679.671 578.44H689.131V576.44H679.671V578.44ZM689.801 529.7C689.801 523.948 691.772 519.74 694.712 516.966C697.665 514.18 701.671 512.77 705.851 512.77V510.77C701.231 510.77 696.712 512.33 693.34 515.511C689.955 518.705 687.801 523.462 687.801 529.7H689.801ZM705.851 512.77C714.979 512.77 721.351 520.456 721.351 529.7H723.351C723.351 519.584 716.303 510.77 705.851 510.77V512.77ZM721.351 529.7C721.351 538.944 714.979 546.63 705.851 546.63V548.63C716.303 548.63 723.351 539.816 723.351 529.7H721.351ZM705.851 546.63C701.671 546.63 697.665 545.22 694.712 542.434C691.772 539.66 689.801 535.452 689.801 529.7H687.801C687.801 535.938 689.955 540.695 693.34 543.889C696.712 547.07 701.231 548.63 705.851 548.63V546.63ZM793.028 519.14V520.14H794.465L793.965 518.792L793.028 519.14ZM793.028 540.26L793.965 540.608L794.465 539.26H793.028V540.26ZM782.688 540.26V539.26H782.114L781.825 539.755L782.688 540.26ZM782.688 519.14L781.825 519.645L782.114 520.14H782.688V519.14ZM793.965 518.792C790.187 508.602 780.897 501.97 769.158 501.97V503.97C780.078 503.97 788.609 510.098 792.09 519.488L793.965 518.792ZM769.158 501.97C753.637 501.97 741.758 513.866 741.758 529.7H743.758C743.758 514.954 754.758 503.97 769.158 503.97V501.97ZM741.758 529.7C741.758 545.534 753.637 557.43 769.158 557.43V555.43C754.758 555.43 743.758 544.446 743.758 529.7H741.758ZM769.158 557.43C780.897 557.43 790.187 550.798 793.965 540.608L792.09 539.912C788.609 549.302 780.078 555.43 769.158 555.43V557.43ZM793.028 539.26H782.688V541.26H793.028V539.26ZM781.825 539.755C779.374 543.942 774.872 546.63 769.158 546.63V548.63C775.544 548.63 780.722 545.598 783.551 540.765L781.825 539.755ZM769.158 546.63C759.876 546.63 753.218 539.336 753.218 529.7H751.218C751.218 540.304 758.64 548.63 769.158 548.63V546.63ZM753.218 529.7C753.218 520.064 759.876 512.77 769.158 512.77V510.77C758.64 510.77 751.218 519.096 751.218 529.7H753.218ZM769.158 512.77C774.872 512.77 779.374 515.458 781.825 519.645L783.551 518.635C780.722 513.802 775.544 510.77 769.158 510.77V512.77ZM782.688 520.14H793.028V518.14H782.688V520.14ZM816.211 555V556H816.691L816.991 555.626L816.211 555ZM845.801 518.15H846.801V515.307L845.021 517.524L845.801 518.15ZM845.801 555H844.801V556H845.801V555ZM855.261 555V556H856.261V555H855.261ZM855.261 504.4H856.261V503.4H855.261V504.4ZM845.801 504.4V503.4H845.322L845.021 503.774L845.801 504.4ZM816.211 541.25H815.211V544.093L816.991 541.876L816.211 541.25ZM816.211 504.4H817.211V503.4H816.211V504.4ZM806.751 504.4V503.4H805.751V504.4H806.751ZM806.751 555H805.751V556H806.751V555ZM816.991 555.626L846.581 518.776L845.021 517.524L815.431 554.374L816.991 555.626ZM844.801 518.15V555H846.801V518.15H844.801ZM845.801 556H855.261V554H845.801V556ZM856.261 555V504.4H854.261V555H856.261ZM855.261 503.4H845.801V505.4H855.261V503.4ZM845.021 503.774L815.431 540.624L816.991 541.876L846.581 505.026L845.021 503.774ZM817.211 541.25V504.4H815.211V541.25H817.211ZM816.211 503.4H806.751V505.4H816.211V503.4ZM805.751 504.4V555H807.751V504.4H805.751ZM806.751 556H816.211V554H806.751V556ZM882.276 555V556H882.755L883.055 555.626L882.276 555ZM911.866 518.15H912.866V515.307L911.086 517.524L911.866 518.15ZM911.866 555H910.866V556H911.866V555ZM921.326 555V556H922.326V555H921.326ZM921.326 504.4H922.326V503.4H921.326V504.4ZM911.866 504.4V503.4H911.386L911.086 503.774L911.866 504.4ZM882.276 541.25H881.276V544.093L883.055 541.876L882.276 541.25ZM882.276 504.4H883.276V503.4H882.276V504.4ZM872.816 504.4V503.4H871.816V504.4H872.816ZM872.816 555H871.816V556H872.816V555ZM883.055 555.626L912.645 518.776L911.086 517.524L881.496 554.374L883.055 555.626ZM910.866 518.15V555H912.866V518.15H910.866ZM911.866 556H921.326V554H911.866V556ZM922.326 555V504.4H920.326V555H922.326ZM921.326 503.4H911.866V505.4H921.326V503.4ZM911.086 503.774L881.496 540.624L883.055 541.876L912.645 505.026L911.086 503.774ZM883.276 541.25V504.4H881.276V541.25H883.276ZM882.276 503.4H872.816V505.4H882.276V503.4ZM871.816 504.4V555H873.816V504.4H871.816ZM872.816 556H882.276V554H872.816V556Z" fill="#FAFAFA"/>
<g clip-path="url(#clip0_2471:7387)">
<path d="M244.228 553.699L217.632 563.388L190 513.561L225.576 501.104L220.741 486.917L265.643 471L274.968 527.055L239.392 539.512L244.228 553.699Z" fill="#FAFAFA"/>
<path d="M284.985 471H274.968L291.893 571H302.255L284.985 471Z" fill="#FAFAFA"/>
</g>
<path d="M396.4 705H1402.2C1407.87 705 1410.01 705.023 1411.94 705.41C1416.05 706.234 1419.81 708.266 1422.75 711.246C1424.14 712.647 1425.33 714.426 1428.44 719.165L1476.77 792.765C1480.52 798.474 1481.91 800.654 1482.7 802.827C1484.39 807.461 1484.39 812.539 1482.7 817.173C1481.91 819.346 1480.52 821.526 1476.77 827.235L1428.44 900.835C1425.33 905.574 1424.14 907.353 1422.75 908.754C1419.81 911.734 1416.05 913.766 1411.94 914.59C1410.01 914.977 1407.87 915 1402.2 915H396.4C386.332 915 382.484 914.938 379.511 913.972C373.117 911.895 368.105 906.883 366.028 900.489C365.062 897.516 365 893.668 365 883.6V736.4C365 726.332 365.062 722.484 366.028 719.511C368.105 713.117 373.117 708.105 379.511 706.028C382.484 705.062 386.332 705 396.4 705Z" fill="#FAFAFA" stroke="#1A1A1A" stroke-width="10"/>
<path fill-rule="evenodd" clip-rule="evenodd" d="M1402.67 726.889H1379.19L1437.62 810.414L1379.19 893.94H1402.67L1461.1 810.414L1402.67 726.889Z" fill="#1A1A1A"/>
<path d="M639.72 808.48L678.77 771.96H665.57L631.25 803.53V771.96H621.35V845H631.25V813.43L665.57 845H678.77L639.72 808.48ZM708.033 792.97C692.743 792.97 681.523 804.41 681.523 819.7C681.523 834.99 692.743 846.43 708.033 846.43C723.213 846.43 734.543 834.99 734.543 819.7C734.543 804.41 723.213 792.97 708.033 792.97ZM708.033 837.63C698.023 837.63 690.983 829.6 690.983 819.7C690.983 809.58 698.023 801.77 708.033 801.77C718.043 801.77 725.083 809.58 725.083 819.7C725.083 829.6 718.043 837.63 708.033 837.63ZM787.897 794.4V815.3H758.307V794.4H748.847V845H758.307V823.66H787.897V845H797.357V794.4H787.897ZM870.791 858.86V836.64H862.541V794.4H853.081V836.64H824.371V794.4H814.911V845H861.331V858.86H870.791ZM907.194 837.63C898.394 837.63 891.684 831.47 890.474 823.22H931.284C931.614 821.79 931.504 820.25 931.504 819.04C931.504 804.52 921.054 792.97 906.644 792.97C891.354 792.97 880.684 804.41 880.684 819.59C880.684 835.21 891.904 846.43 907.194 846.43C918.304 846.43 927.324 840.6 930.844 830.81H920.614C917.974 835.32 913.244 837.63 907.194 837.63ZM906.644 801.77C915.004 801.77 920.394 807.05 921.604 814.97H890.584C891.794 807.05 897.844 801.77 906.644 801.77ZM955.211 867.44V839.5C959.061 843.79 965.111 846.43 972.261 846.43C988.981 846.43 997.891 833.67 997.891 819.7C997.891 805.73 988.981 792.97 972.261 792.97C965.111 792.97 959.061 795.61 955.211 799.9V794.4H945.751V867.44H955.211ZM954.881 819.7C954.881 807.71 963.131 801.77 971.931 801.77C981.721 801.77 988.431 810.02 988.431 819.7C988.431 829.38 981.721 837.63 971.931 837.63C963.131 837.63 954.881 831.69 954.881 819.7ZM1004.46 802.76H1024.04V845H1033.5V802.76H1053.08V794.4H1004.46V802.76ZM1116.6 794.4V845H1126.06V794.4H1116.6ZM1073.59 811.12V794.4H1064.13V845H1088.99C1102.08 845 1108.02 837.19 1108.02 828.06C1108.02 818.93 1102.08 811.12 1088.99 811.12H1073.59ZM1073.59 836.64V819.48H1088.66C1094.82 819.48 1098.56 822.45 1098.56 828.06C1098.56 833.67 1094.82 836.64 1088.66 836.64H1073.59Z" fill="#1A1A1A"/>
<path d="M639.72 808.48L639.037 807.75L638.256 808.48L639.037 809.21L639.72 808.48ZM678.77 771.96L679.453 772.69L681.303 770.96H678.77V771.96ZM665.57 771.96V770.96H665.18L664.893 771.224L665.57 771.96ZM631.25 803.53H630.25V805.809L631.927 804.266L631.25 803.53ZM631.25 771.96H632.25V770.96H631.25V771.96ZM621.35 771.96V770.96H620.35V771.96H621.35ZM621.35 845H620.35V846H621.35V845ZM631.25 845V846H632.25V845H631.25ZM631.25 813.43L631.927 812.694L630.25 811.151V813.43H631.25ZM665.57 845L664.893 845.736L665.18 846H665.57V845ZM678.77 845V846H681.303L679.453 844.27L678.77 845ZM640.403 809.21L679.453 772.69L678.087 771.23L639.037 807.75L640.403 809.21ZM678.77 770.96H665.57V772.96H678.77V770.96ZM664.893 771.224L630.573 802.794L631.927 804.266L666.247 772.696L664.893 771.224ZM632.25 803.53V771.96H630.25V803.53H632.25ZM631.25 770.96H621.35V772.96H631.25V770.96ZM620.35 771.96V845H622.35V771.96H620.35ZM621.35 846H631.25V844H621.35V846ZM632.25 845V813.43H630.25V845H632.25ZM630.573 814.166L664.893 845.736L666.247 844.264L631.927 812.694L630.573 814.166ZM665.57 846H678.77V844H665.57V846ZM679.453 844.27L640.403 807.75L639.037 809.21L678.087 845.73L679.453 844.27ZM708.033 791.97C692.18 791.97 680.523 803.869 680.523 819.7H682.523C682.523 804.951 693.307 793.97 708.033 793.97V791.97ZM680.523 819.7C680.523 835.531 692.18 847.43 708.033 847.43V845.43C693.307 845.43 682.523 834.449 682.523 819.7H680.523ZM708.033 847.43C723.774 847.43 735.543 835.534 735.543 819.7H733.543C733.543 834.446 722.653 845.43 708.033 845.43V847.43ZM735.543 819.7C735.543 803.866 723.774 791.97 708.033 791.97V793.97C722.653 793.97 733.543 804.954 733.543 819.7H735.543ZM708.033 836.63C698.645 836.63 691.983 829.119 691.983 819.7H689.983C689.983 830.081 697.402 838.63 708.033 838.63V836.63ZM691.983 819.7C691.983 810.069 698.637 802.77 708.033 802.77V800.77C697.41 800.77 689.983 809.091 689.983 819.7H691.983ZM708.033 802.77C717.43 802.77 724.083 810.069 724.083 819.7H726.083C726.083 809.091 718.657 800.77 708.033 800.77V802.77ZM724.083 819.7C724.083 829.119 717.422 836.63 708.033 836.63V838.63C718.665 838.63 726.083 830.081 726.083 819.7H724.083ZM787.897 794.4V793.4H786.897V794.4H787.897ZM787.897 815.3V816.3H788.897V815.3H787.897ZM758.307 815.3H757.307V816.3H758.307V815.3ZM758.307 794.4H759.307V793.4H758.307V794.4ZM748.847 794.4V793.4H747.847V794.4H748.847ZM748.847 845H747.847V846H748.847V845ZM758.307 845V846H759.307V845H758.307ZM758.307 823.66V822.66H757.307V823.66H758.307ZM787.897 823.66H788.897V822.66H787.897V823.66ZM787.897 845H786.897V846H787.897V845ZM797.357 845V846H798.357V845H797.357ZM797.357 794.4H798.357V793.4H797.357V794.4ZM786.897 794.4V815.3H788.897V794.4H786.897ZM787.897 814.3H758.307V816.3H787.897V814.3ZM759.307 815.3V794.4H757.307V815.3H759.307ZM758.307 793.4H748.847V795.4H758.307V793.4ZM747.847 794.4V845H749.847V794.4H747.847ZM748.847 846H758.307V844H748.847V846ZM759.307 845V823.66H757.307V845H759.307ZM758.307 824.66H787.897V822.66H758.307V824.66ZM786.897 823.66V845H788.897V823.66H786.897ZM787.897 846H797.357V844H787.897V846ZM798.357 845V794.4H796.357V845H798.357ZM797.357 793.4H787.897V795.4H797.357V793.4ZM870.791 858.86V859.86H871.791V858.86H870.791ZM870.791 836.64H871.791V835.64H870.791V836.64ZM862.541 836.64H861.541V837.64H862.541V836.64ZM862.541 794.4H863.541V793.4H862.541V794.4ZM853.081 794.4V793.4H852.081V794.4H853.081ZM853.081 836.64V837.64H854.081V836.64H853.081ZM824.371 836.64H823.371V837.64H824.371V836.64ZM824.371 794.4H825.371V793.4H824.371V794.4ZM814.911 794.4V793.4H813.911V794.4H814.911ZM814.911 845H813.911V846H814.911V845ZM861.331 845H862.331V844H861.331V845ZM861.331 858.86H860.331V859.86H861.331V858.86ZM871.791 858.86V836.64H869.791V858.86H871.791ZM870.791 835.64H862.541V837.64H870.791V835.64ZM863.541 836.64V794.4H861.541V836.64H863.541ZM862.541 793.4H853.081V795.4H862.541V793.4ZM852.081 794.4V836.64H854.081V794.4H852.081ZM853.081 835.64H824.371V837.64H853.081V835.64ZM825.371 836.64V794.4H823.371V836.64H825.371ZM824.371 793.4H814.911V795.4H824.371V793.4ZM813.911 794.4V845H815.911V794.4H813.911ZM814.911 846H861.331V844H814.911V846ZM860.331 845V858.86H862.331V845H860.331ZM861.331 859.86H870.791V857.86H861.331V859.86ZM890.474 823.22V822.22H889.316L889.484 823.365L890.474 823.22ZM931.284 823.22V824.22H932.079L932.258 823.445L931.284 823.22ZM930.844 830.81L931.785 831.148L932.266 829.81H930.844V830.81ZM920.614 830.81V829.81H920.04L919.751 830.305L920.614 830.81ZM921.604 814.97V815.97H922.768L922.592 814.819L921.604 814.97ZM890.584 814.97L889.595 814.819L889.419 815.97H890.584V814.97ZM907.194 836.63C898.904 836.63 892.603 830.848 891.463 823.075L889.484 823.365C890.764 832.092 897.883 838.63 907.194 838.63V836.63ZM890.474 824.22H931.284V822.22H890.474V824.22ZM932.258 823.445C932.622 821.869 932.504 820.147 932.504 819.04H930.504C930.504 820.353 930.606 821.711 930.309 822.995L932.258 823.445ZM932.504 819.04C932.504 804.028 921.665 791.97 906.644 791.97V793.97C920.443 793.97 930.504 805.012 930.504 819.04H932.504ZM906.644 791.97C890.766 791.97 879.684 803.894 879.684 819.59H881.684C881.684 804.926 891.942 793.97 906.644 793.97V791.97ZM879.684 819.59C879.684 835.754 891.343 847.43 907.194 847.43V845.43C892.464 845.43 881.684 834.666 881.684 819.59H879.684ZM907.194 847.43C918.672 847.43 928.105 841.383 931.785 831.148L929.903 830.472C926.542 839.817 917.935 845.43 907.194 845.43V847.43ZM930.844 829.81H920.614V831.81H930.844V829.81ZM919.751 830.305C917.33 834.439 912.976 836.63 907.194 836.63V838.63C913.511 838.63 918.617 836.201 921.477 831.315L919.751 830.305ZM906.644 802.77C910.604 802.77 913.793 804.016 916.133 806.14C918.478 808.27 920.039 811.347 920.615 815.121L922.592 814.819C921.959 810.673 920.219 807.15 917.477 804.66C914.729 802.164 911.044 800.77 906.644 800.77V802.77ZM921.604 813.97H890.584V815.97H921.604V813.97ZM891.572 815.121C892.144 811.38 893.848 808.308 896.409 806.167C898.97 804.026 902.447 802.77 906.644 802.77V800.77C902.04 800.77 898.092 802.154 895.126 804.633C892.159 807.112 890.234 810.64 889.595 814.819L891.572 815.121ZM955.211 867.44V868.44H956.211V867.44H955.211ZM955.211 839.5L955.955 838.832L954.211 836.889V839.5H955.211ZM955.211 799.9H954.211V802.511L955.955 800.568L955.211 799.9ZM955.211 794.4H956.211V793.4H955.211V794.4ZM945.751 794.4V793.4H944.751V794.4H945.751ZM945.751 867.44H944.751V868.44H945.751V867.44ZM956.211 867.44V839.5H954.211V867.44H956.211ZM954.467 840.168C958.532 844.698 964.868 847.43 972.261 847.43V845.43C965.355 845.43 959.59 842.882 955.955 838.832L954.467 840.168ZM972.261 847.43C980.897 847.43 987.584 844.125 992.099 838.962C996.599 833.817 998.891 826.89 998.891 819.7H996.891C996.891 826.48 994.729 832.918 990.593 837.645C986.474 842.355 980.345 845.43 972.261 845.43V847.43ZM998.891 819.7C998.891 812.51 996.599 805.583 992.099 800.438C987.584 795.275 980.897 791.97 972.261 791.97V793.97C980.345 793.97 986.474 797.045 990.593 801.755C994.729 806.482 996.891 812.92 996.891 819.7H998.891ZM972.261 791.97C964.868 791.97 958.532 794.702 954.467 799.232L955.955 800.568C959.59 796.518 965.355 793.97 972.261 793.97V791.97ZM956.211 799.9V794.4H954.211V799.9H956.211ZM955.211 793.4H945.751V795.4H955.211V793.4ZM944.751 794.4V867.44H946.751V794.4H944.751ZM945.751 868.44H955.211V866.44H945.751V868.44ZM955.881 819.7C955.881 813.948 957.852 809.74 960.792 806.966C963.745 804.18 967.751 802.77 971.931 802.77V800.77C967.311 800.77 962.792 802.33 959.42 805.511C956.035 808.705 953.881 813.462 953.881 819.7H955.881ZM971.931 802.77C981.059 802.77 987.431 810.456 987.431 819.7H989.431C989.431 809.584 982.383 800.77 971.931 800.77V802.77ZM987.431 819.7C987.431 828.944 981.059 836.63 971.931 836.63V838.63C982.383 838.63 989.431 829.816 989.431 819.7H987.431ZM971.931 836.63C967.751 836.63 963.745 835.22 960.792 832.434C957.852 829.66 955.881 825.452 955.881 819.7H953.881C953.881 825.938 956.035 830.695 959.42 833.889C962.792 837.07 967.311 838.63 971.931 838.63V836.63ZM1004.46 802.76H1003.46V803.76H1004.46V802.76ZM1024.04 802.76H1025.04V801.76H1024.04V802.76ZM1024.04 845H1023.04V846H1024.04V845ZM1033.5 845V846H1034.5V845H1033.5ZM1033.5 802.76V801.76H1032.5V802.76H1033.5ZM1053.08 802.76V803.76H1054.08V802.76H1053.08ZM1053.08 794.4H1054.08V793.4H1053.08V794.4ZM1004.46 794.4V793.4H1003.46V794.4H1004.46ZM1004.46 803.76H1024.04V801.76H1004.46V803.76ZM1023.04 802.76V845H1025.04V802.76H1023.04ZM1024.04 846H1033.5V844H1024.04V846ZM1034.5 845V802.76H1032.5V845H1034.5ZM1033.5 803.76H1053.08V801.76H1033.5V803.76ZM1054.08 802.76V794.4H1052.08V802.76H1054.08ZM1053.08 793.4H1004.46V795.4H1053.08V793.4ZM1003.46 794.4V802.76H1005.46V794.4H1003.46ZM1116.6 794.4V793.4H1115.6V794.4H1116.6ZM1116.6 845H1115.6V846H1116.6V845ZM1126.06 845V846H1127.06V845H1126.06ZM1126.06 794.4H1127.06V793.4H1126.06V794.4ZM1073.59 811.12H1072.59V812.12H1073.59V811.12ZM1073.59 794.4H1074.59V793.4H1073.59V794.4ZM1064.13 794.4V793.4H1063.13V794.4H1064.13ZM1064.13 845H1063.13V846H1064.13V845ZM1073.59 836.64H1072.59V837.64H1073.59V836.64ZM1073.59 819.48V818.48H1072.59V819.48H1073.59ZM1115.6 794.4V845H1117.6V794.4H1115.6ZM1116.6 846H1126.06V844H1116.6V846ZM1127.06 845V794.4H1125.06V845H1127.06ZM1126.06 793.4H1116.6V795.4H1126.06V793.4ZM1074.59 811.12V794.4H1072.59V811.12H1074.59ZM1073.59 793.4H1064.13V795.4H1073.59V793.4ZM1063.13 794.4V845H1065.13V794.4H1063.13ZM1064.13 846H1088.99V844H1064.13V846ZM1088.99 846C1095.74 846 1100.77 843.983 1104.12 840.664C1107.46 837.349 1109.02 832.841 1109.02 828.06H1107.02C1107.02 832.409 1105.61 836.371 1102.71 839.244C1099.82 842.112 1095.33 844 1088.99 844V846ZM1109.02 828.06C1109.02 823.279 1107.46 818.771 1104.12 815.456C1100.77 812.137 1095.74 810.12 1088.99 810.12V812.12C1095.33 812.12 1099.82 814.008 1102.71 816.876C1105.61 819.749 1107.02 823.711 1107.02 828.06H1109.02ZM1088.99 810.12H1073.59V812.12H1088.99V810.12ZM1074.59 836.64V819.48H1072.59V836.64H1074.59ZM1073.59 820.48H1088.66V818.48H1073.59V820.48ZM1088.66 820.48C1091.59 820.48 1093.81 821.188 1095.27 822.429C1096.71 823.649 1097.56 825.492 1097.56 828.06H1099.56C1099.56 825.018 1098.54 822.571 1096.57 820.903C1094.62 819.257 1091.89 818.48 1088.66 818.48V820.48ZM1097.56 828.06C1097.56 830.628 1096.71 832.471 1095.27 833.691C1093.81 834.932 1091.59 835.64 1088.66 835.64V837.64C1091.89 837.64 1094.62 836.863 1096.57 835.217C1098.54 833.549 1099.56 831.102 1099.56 828.06H1097.56ZM1088.66 835.64H1073.59V837.64H1088.66V835.64Z" fill="#1A1A1A"/>
<path fill-rule="evenodd" clip-rule="evenodd" d="M441.683 764H430V853.567H444.279L460.288 844.913L441.683 764ZM509.617 797.75C509.617 792.125 504.857 787.365 499.232 787.365C493.607 787.365 488.848 792.125 488.848 797.75C488.848 803.375 493.607 808.135 499.232 808.135C504.857 807.702 509.617 803.375 509.617 797.75ZM481.059 772.221L472.405 764H551.588V838.423L526.059 814.192H522.165V836.26H516.54V826.308L500.963 834.962V854H480.627V846.644L467.213 854H455.531L470.675 845.779L464.184 839.289L460.723 823.712L482.79 811.596L500.098 816.788L503.127 821.548L480.627 833.664V822.846L468.511 829.769L479.329 840.587L516.54 820.25V815.058L516.54 815.058C515.675 814.192 514.809 813.327 514.377 812.462C513.944 811.596 513.944 811.164 513.944 810.299V810.298C513.944 807.269 516.54 804.673 519.569 804.673C522.165 804.673 523.896 806.404 524.761 808.567L529.521 805.538C528.223 802.51 525.627 800.346 522.598 799.481C521.733 799.048 520.434 799.048 519.569 799.048C517.838 799.048 516.108 799.481 514.809 800.346C515.242 796.885 514.809 792.99 513.079 789.962C510.482 784.769 504.857 781.74 499.232 781.74C497.069 781.74 494.905 782.173 492.742 783.038L491.444 781.74L481.059 772.221Z" fill="#1A1A1A"/>
<rect x="4" y="4" width="1872" height="1032" stroke="#1A1A1A" stroke-width="8"/>
</g>
<defs>
<clipPath id="clip0_2471:7387">
<rect width="112.255" height="100" fill="white" transform="translate(190 471)"/>
</clipPath>
</defs>
</svg>
