<svg width="365" height="651" viewBox="0 0 365 651" fill="none" xmlns="http://www.w3.org/2000/svg">
<path d="M171 0H194V650H171V0Z" fill="black"/>
<path d="M52.747 22.6235C55.4223 17.2411 56.7599 14.5499 58.7612 12.5834C60.5308 10.8443 62.6657 9.5214 65.0107 8.71071C67.6624 7.79395 70.6677 7.79395 76.6783 7.79395H292.62C300.104 7.79395 303.846 7.79395 306.704 9.25034C309.218 10.5314 311.263 12.5756 312.544 15.0898C314 17.9482 314 21.6899 314 29.1735V174.599C314 182.082 314 185.824 312.544 188.683C311.263 191.197 309.218 193.241 306.704 194.522C303.846 195.978 300.104 195.978 292.62 195.978H76.6783C70.6677 195.978 67.6624 195.978 65.0107 195.062C62.6657 194.251 60.5308 192.928 58.7612 191.189C56.7599 189.222 55.4223 186.531 52.747 181.149L15.3209 105.851C14.5982 104.397 14.2368 103.67 14.0945 102.908C13.9685 102.233 13.9685 101.54 14.0945 100.865C14.2368 100.102 14.5982 99.3754 15.3209 97.9212L52.747 22.6235Z" fill="white"/>
<path fill-rule="evenodd" clip-rule="evenodd" d="M292.62 14.4751H76.6783C70.182 14.4751 68.5315 14.5626 67.1937 15.0251C65.7867 15.5115 64.5058 16.3053 63.444 17.3487C62.4344 18.3408 61.6213 19.7799 58.7298 25.5972L21.3038 100.895C21.1186 101.267 20.9774 101.552 20.858 101.798C20.8432 101.829 20.8291 101.858 20.8157 101.886C20.8291 101.914 20.8432 101.943 20.858 101.974C20.9774 102.221 21.1186 102.505 21.3038 102.877L58.7298 178.175C61.6213 183.992 62.4344 185.432 63.444 186.424C64.5058 187.467 65.7867 188.261 67.1937 188.747C68.5315 189.21 70.182 189.297 76.6783 189.297H292.62C296.472 189.297 298.96 189.292 300.853 189.137C302.668 188.989 303.341 188.737 303.671 188.569C304.928 187.929 305.95 186.907 306.591 185.649C306.759 185.319 307.011 184.646 307.159 182.831C307.314 180.938 307.319 178.451 307.319 174.599V29.1735C307.319 25.3215 307.314 22.8343 307.159 20.9413C307.011 19.1263 306.759 18.4533 306.591 18.123C305.95 16.8659 304.928 15.8438 303.671 15.2032C303.341 15.0349 302.668 14.7832 300.853 14.6349C298.96 14.4802 296.472 14.4751 292.62 14.4751ZM58.7612 12.5834C56.7599 14.5499 55.4223 17.2411 52.747 22.6235L15.3209 97.9212C14.5982 99.3754 14.2368 100.102 14.0945 100.865C13.9685 101.54 13.9685 102.233 14.0945 102.908C14.2368 103.67 14.5982 104.397 15.3209 105.851L52.7471 181.149C55.4223 186.531 56.76 189.222 58.7612 191.189C60.5308 192.928 62.6657 194.251 65.0107 195.062C67.6624 195.978 70.6677 195.978 76.6783 195.978H292.62C300.104 195.978 303.846 195.978 306.704 194.522C309.218 193.241 311.263 191.197 312.544 188.683C314 185.824 314 182.082 314 174.599V29.1735C314 21.6899 314 17.9482 312.544 15.0898C311.263 12.5756 309.218 10.5314 306.704 9.25034C303.846 7.79395 300.104 7.79395 292.62 7.79395H76.6783C70.6677 7.79395 67.6624 7.79395 65.0107 8.71071C62.6657 9.5214 60.5308 10.8443 58.7612 12.5834Z" fill="black"/>
<path fill-rule="evenodd" clip-rule="evenodd" d="M126.78 30.5372H135.001C135.425 30.5046 135.838 30.4883 136.241 30.4883C140.177 30.4883 142.656 31.8965 143.678 34.7129C143.885 35.4958 143.988 36.2407 143.988 36.9476C143.988 39.0789 143.037 40.7698 141.134 42.0204C143.211 42.5097 144.516 43.6841 145.049 45.5436C145.168 46.0221 145.25 46.4842 145.293 46.9301C145.348 47.3759 145.375 47.8054 145.375 48.2187C145.375 51.3069 143.852 53.5688 140.808 55.0042H140.612L140.155 55.1999H139.96C139.568 55.3521 139.198 55.4391 138.85 55.4609C138.676 55.4609 138.513 55.4663 138.361 55.4772C138.209 55.4881 138.067 55.5044 137.937 55.5261H126.78V30.5372ZM131.151 51.6114H137.089L138.524 51.4809C140.405 50.6654 141.346 49.442 141.346 47.8109C141.346 47.4194 141.297 47.0116 141.199 46.5875C140.742 45.4566 140.025 44.6519 139.046 44.1735C138.763 44.0973 138.497 44.0375 138.247 43.994C138.008 43.9505 137.796 43.9234 137.611 43.9125H131.151V51.6114ZM131.151 40.5197H137.35C137.578 40.4871 137.785 40.449 137.97 40.4056C138.154 40.3621 138.318 40.3131 138.459 40.2587C139.557 39.4867 140.106 38.508 140.106 37.3227V37.127C140.106 37.0617 140.101 36.9965 140.09 36.9312C139.786 35.9199 139.198 35.1587 138.328 34.6477L137.545 34.4519L137.154 34.3867H131.151V40.5197ZM165.797 44.9564L165.862 45.9351C165.905 45.9895 165.927 46.0547 165.927 46.1308V48.0882H153.987C154.237 50.3065 155.368 51.6114 157.38 52.0029C157.706 52.0355 158.027 52.0518 158.342 52.0518C159.984 52.0518 161.382 51.5135 162.534 50.437C162.676 50.6762 162.85 50.872 163.056 51.0242L163.122 51.2199L163.317 51.4157C163.47 51.557 163.6 51.693 163.709 51.8235C163.817 51.9431 163.904 52.0681 163.97 52.1986C164.046 52.2421 164.089 52.2856 164.1 52.3291L165.014 53.373C162.948 55.102 160.746 55.9665 158.408 55.9665C158.005 55.9665 157.597 55.9393 157.184 55.885C156.771 55.8306 156.358 55.7545 155.945 55.6566C152.182 54.4061 150.116 51.7093 149.746 47.5662C149.746 47.5118 149.741 47.4031 149.73 47.24V46.9301C149.73 41.2646 152.28 38.0404 157.38 37.2575C162.447 37.4315 165.253 39.9978 165.797 44.9564ZM153.922 45.0216H161.817V44.8259C161.773 44.6954 161.751 44.5649 161.751 44.4344V44.304C161.643 44.0647 161.577 43.8472 161.556 43.6515C160.751 41.792 159.424 40.8568 157.576 40.846C155.249 41.4005 154.031 42.7924 153.922 45.0216ZM179.759 41.4332V37.2575H178.911C177.128 37.2575 175.605 37.9752 174.344 39.4106C174.3 39.204 174.278 38.9484 174.278 38.6439V37.6489H170.299V55.3956H174.278V45.6089L174.344 45.1521L174.539 44.1082C175.486 42.314 177.041 41.4169 179.204 41.4169H179.482C179.58 41.4169 179.672 41.4223 179.759 41.4332ZM198.745 40.7807V40.9764C198.887 41.2374 198.974 41.4984 199.006 41.7594V55.3956H195.026V43.8472L194.961 43.4558C194.417 41.8138 193.504 40.9928 192.221 40.9928C191.829 40.9928 191.394 41.0743 190.916 41.2374C189.829 41.705 189.046 42.4445 188.567 43.4558L188.306 44.5649V55.3956H184.391V37.5837H188.306V39.0843C189.524 37.9969 190.851 37.3445 192.286 37.127H192.58C195.494 37.127 197.549 38.3449 198.745 40.7807ZM217.21 41.5637C217.068 40.8895 216.742 40.237 216.231 39.6063L216.035 39.2148C214.709 37.8556 213.007 37.1759 210.93 37.1759C210.734 37.1759 210.533 37.1868 210.326 37.2085C210.131 37.2194 209.924 37.2357 209.707 37.2575L208.271 37.5185C207.912 37.5402 207.543 37.6272 207.162 37.7794L206.64 37.9099C206.444 37.9317 206.227 37.9969 205.988 38.1057L205.661 38.1709C205.357 38.2688 205.009 38.421 204.617 38.6276H204.601C204.569 38.6276 204.53 38.6494 204.487 38.6929H204.291L204.161 38.8234L203.965 38.8886L203.835 38.9538L203.639 39.0191C203.715 39.3236 203.867 39.628 204.096 39.9325C204.15 40.1283 204.237 40.324 204.357 40.5197L204.487 40.9112L204.552 41.0417L204.683 41.1722L204.813 41.5637L205.074 42.1509C207.401 41.2483 209.234 40.797 210.571 40.797C212.496 40.797 213.458 41.705 213.458 43.521V43.8472C213.458 43.9451 213.447 44.0538 213.426 44.1735L211.794 44.3692H211.599L211.403 44.4344H210.946L210.751 44.4997C210.631 44.4997 210.522 44.5214 210.424 44.5649H210.375C205.449 44.5649 202.986 46.6691 202.986 50.8774V50.959C203.476 53.1664 204.889 54.6888 207.227 55.5261C208.01 55.798 208.804 55.9339 209.609 55.9339C211.099 55.9339 212.545 55.4283 213.948 54.417H214.143C214.872 55.2651 215.872 55.8523 217.145 56.1786C217.221 56.059 217.302 55.923 217.389 55.7708C217.476 55.6077 217.569 55.4174 217.667 55.1999C217.906 54.9933 218.101 54.6888 218.254 54.2865C218.406 54.1342 218.536 53.9385 218.645 53.6993L218.776 53.5688L218.841 53.373C218.884 53.3622 218.928 53.3187 218.971 53.2425L219.102 53.0468C218.33 52.8837 217.743 52.4052 217.34 51.6114V42.999C217.34 42.8142 217.329 42.6021 217.308 42.3629C217.286 42.1128 217.253 41.8464 217.21 41.5637ZM211.468 47.501H211.86C211.936 47.501 212.001 47.4792 212.055 47.4357H213.36V50.5022L213.426 50.7632L213.36 50.959C213.273 51.0568 213.186 51.2308 213.099 51.4809C212.175 52.2965 211.207 52.7043 210.196 52.7043C209.402 52.7043 208.587 52.4487 207.749 51.9376C207.173 51.3831 206.885 50.8176 206.885 50.2413C206.885 49.6106 207.238 48.9581 207.945 48.2839C208.162 48.2404 208.423 48.1317 208.728 47.9577H208.924L209.968 47.6967H210.163C210.239 47.6967 210.305 47.675 210.359 47.6315H210.555L210.816 47.5662H210.914C211.001 47.5662 211.088 47.5608 211.175 47.5499C211.272 47.539 211.37 47.5227 211.468 47.501ZM233.26 37.2575V41.4332C233.173 41.4223 233.081 41.4169 232.983 41.4169H232.706C230.542 41.4169 228.987 42.314 228.041 44.1082L227.845 45.1521L227.78 45.6089V55.3956H223.8V37.6489H227.78V38.6439C227.78 38.9484 227.801 39.204 227.845 39.4106C229.106 37.9752 230.629 37.2575 232.412 37.2575H233.26ZM253.095 30.6025H249.049V38.8234C247.755 37.7903 246.342 37.2738 244.809 37.2738C243.895 37.2738 242.916 37.4641 241.872 37.8447C239.176 38.9756 237.501 41.1287 236.849 44.304C236.794 44.7389 236.751 45.1576 236.718 45.5599C236.685 45.9623 236.669 46.3592 236.669 46.7506C236.669 51.5353 238.991 54.5692 243.634 55.8523C243.797 55.8741 243.955 55.8904 244.107 55.9013C244.27 55.9122 244.433 55.9176 244.596 55.9176C246.141 55.9176 247.603 55.3521 248.984 54.2212C249.028 54.4278 249.049 54.6834 249.049 54.9879V55.4609H253.095V30.6025ZM243.699 51.5462C242.079 50.6436 241.1 49.1647 240.763 47.1095C240.752 47.0008 240.747 46.8974 240.747 46.7996V46.4734C240.747 43.7657 242.036 41.9986 244.613 41.1722C247.592 41.2374 249.082 42.7326 249.082 45.6578C249.082 46.0928 249.049 46.5549 248.984 47.0442C248.995 47.1312 249.001 47.2182 249.001 47.3052V47.5336C249.001 50.3174 247.766 51.7093 245.298 51.7093C245.048 51.7093 244.792 51.6984 244.531 51.6767C244.27 51.644 243.993 51.6005 243.699 51.5462ZM163.073 76.4916C163.16 76.4372 163.225 76.372 163.268 76.2958C161.605 71.2828 157.983 68.7763 152.405 68.7763H152.03C151.91 68.7763 151.785 68.7818 151.655 68.7926C147.088 69.3037 143.978 71.8918 142.325 76.5568C141.716 78.3293 141.411 80.1127 141.411 81.9069C141.411 84.5167 142.064 87.17 143.369 89.8668C145.489 93.4118 148.702 95.1843 153.009 95.1843H153.563C153.759 95.1843 153.949 95.1734 154.134 95.1517C158.679 94.7059 161.724 92.1613 163.268 87.518L162.094 87.257L161.637 87.1918L161.376 87.1265L160.332 86.9308L160.202 86.8656C160.093 86.8547 159.979 86.8438 159.859 86.8329C159.74 86.8112 159.615 86.7786 159.484 86.7351L159.158 86.6698C158.168 89.7581 155.928 91.3022 152.438 91.3022H152.372C149.186 91.0086 147.164 89.247 146.305 86.0174C145.968 84.7342 145.799 83.4021 145.799 82.0211C145.799 80.2812 146.076 78.4816 146.631 76.6221C146.827 76.3611 147.001 76.0349 147.153 75.6434L147.283 75.5781L147.349 75.3824L147.675 75.0562L147.74 74.8604C147.892 74.7626 148.05 74.6375 148.213 74.4853C148.387 74.333 148.577 74.1536 148.784 73.947L148.98 73.8818L149.11 73.7513L149.306 73.6208L149.502 73.5555C149.545 73.5447 149.589 73.5012 149.632 73.4251C149.839 73.3707 150.056 73.2837 150.285 73.1641L150.741 72.9683C150.817 72.9683 150.883 72.9466 150.937 72.9031C151.742 72.7182 152.476 72.6258 153.139 72.6258C155.977 72.6258 157.983 74.1754 159.158 77.2745L160.202 77.0788L160.332 77.0135L160.789 76.9483L161.05 76.883C161.126 76.883 161.191 76.8613 161.246 76.8178H161.311C161.474 76.8178 161.67 76.7743 161.898 76.6873C162.018 76.6873 162.127 76.6656 162.224 76.6221H162.485L162.746 76.5568L163.073 76.4916ZM179.89 78.5794L179.694 78.188C178.367 76.8287 176.665 76.149 174.588 76.149C174.393 76.149 174.191 76.1599 173.985 76.1817C173.789 76.1925 173.583 76.2088 173.365 76.2306L171.93 76.4916C171.571 76.5133 171.201 76.6003 170.82 76.7526L170.299 76.883C170.103 76.9048 169.885 76.97 169.646 77.0788L169.32 77.144C169.015 77.2419 168.667 77.3941 168.276 77.6007H168.26C168.227 77.6007 168.189 77.6225 168.145 77.666H167.95L167.819 77.7965L167.623 77.8617L167.493 77.927L167.297 77.9922C167.373 78.2967 167.526 78.6012 167.754 78.9056C167.808 79.1014 167.895 79.2971 168.015 79.4929L168.145 79.8843L168.211 80.0148L168.341 80.1453L168.472 80.5368L168.733 81.124C171.06 80.2214 172.892 79.7701 174.23 79.7701C176.154 79.7701 177.117 80.6781 177.117 82.4941V82.8204C177.117 82.9182 177.106 83.027 177.084 83.1466L175.453 83.3423H175.257L175.061 83.4076H174.605L174.409 83.4728C174.289 83.4728 174.181 83.4946 174.083 83.5381H174.034C169.108 83.5381 166.645 85.6422 166.645 89.8505V89.9321C167.134 92.1395 168.548 93.6619 170.886 94.4992C171.669 94.7711 172.462 94.907 173.267 94.907C174.757 94.907 176.203 94.4014 177.606 93.3901H177.802C178.53 94.2383 179.531 94.8255 180.803 95.1517C180.879 95.0321 180.961 94.8962 181.048 94.7439C181.135 94.5808 181.227 94.3905 181.325 94.173C181.564 93.9664 181.76 93.6619 181.912 93.2596C182.064 93.1073 182.195 92.9116 182.304 92.6724L182.434 92.5419L182.499 92.3462C182.543 92.3353 182.586 92.2918 182.63 92.2157L182.76 92.0199C181.988 91.8568 181.401 91.3784 180.999 90.5845V81.9722C180.999 81.7873 180.988 81.5753 180.966 81.336C180.944 81.0859 180.912 80.8195 180.868 80.5368C180.727 79.8626 180.401 79.2101 179.89 78.5794ZM175.127 86.4741H175.518C175.594 86.4741 175.659 86.4523 175.714 86.4088H177.019V89.4754L177.084 89.7364L177.019 89.9321C176.932 90.03 176.845 90.2039 176.758 90.454C175.833 91.2696 174.866 91.6774 173.854 91.6774C173.061 91.6774 172.245 91.4218 171.408 90.9108C170.831 90.3562 170.543 89.7907 170.543 89.2144C170.543 88.5837 170.897 87.9312 171.603 87.257C171.821 87.2135 172.082 87.1048 172.386 86.9308H172.582L173.626 86.6698H173.822C173.898 86.6698 173.963 86.6481 174.017 86.6046H174.213L174.474 86.5393H174.572C174.659 86.5393 174.746 86.5339 174.833 86.523C174.931 86.5121 175.029 86.4958 175.127 86.4741ZM199.724 79.0361L199.528 79.2319L199.333 79.3624L199.072 79.7538L198.941 79.8843L198.811 79.9496C198.669 80.1453 198.539 80.2975 198.419 80.4063L197.571 81.385C195.766 80.2214 194.271 79.6397 193.085 79.6397C191.867 79.6397 190.97 80.2432 190.394 81.4502C190.416 82.157 190.699 82.679 191.242 83.0161C191.481 83.0813 191.655 83.1466 191.764 83.2118C192.188 83.2771 192.536 83.3641 192.808 83.4728C196.929 83.7773 199.235 85.4302 199.724 88.4314C199.746 88.5619 199.757 88.6924 199.757 88.8229V89.1818C199.757 91.3675 198.832 93.0095 196.984 94.1078C195.657 94.7059 194.325 95.0049 192.988 95.0049C190.443 95.0049 187.904 93.9229 185.37 91.7589L185.501 91.498L185.827 91.1717C186.044 90.9108 186.24 90.715 186.414 90.5845C186.458 90.5084 186.501 90.4649 186.545 90.454L186.675 90.2583C186.719 90.1822 186.762 90.1387 186.806 90.1278L186.871 89.9973L187.001 89.9321L187.849 88.9534C189.459 90.4758 191.144 91.237 192.906 91.237C193.645 91.237 194.396 91.1065 195.157 90.8455C195.353 90.5845 195.548 90.3888 195.744 90.2583C195.809 89.9973 195.842 89.7527 195.842 89.5243C195.842 88.9588 195.657 88.4858 195.287 88.1052L193.787 87.5833C189.307 87.3114 186.871 85.3975 186.479 81.8417C186.773 78.2641 188.796 76.3502 192.547 76.1001H192.775C195.657 76.1001 198.039 76.9918 199.92 78.7752L199.724 79.0361ZM210.033 76.6221V69.8366C210.033 69.7278 209.989 69.6191 209.902 69.5103L208.924 69.9018H208.907C208.875 69.9018 208.837 69.9236 208.793 69.9671H208.777C208.744 69.9671 208.706 69.9888 208.663 70.0323L208.141 70.1628L207.945 70.2933C207.869 70.2933 207.804 70.315 207.749 70.3585C207.673 70.3585 207.608 70.3803 207.554 70.4238C207.477 70.4238 207.412 70.4455 207.358 70.489L207.032 70.5543L206.836 70.6848L206.314 70.8152L206.053 70.9457V76.6221H202.921V80.0148H206.053V90.0136C206.053 90.1768 206.058 90.3562 206.069 90.5519C206.08 90.7368 206.096 90.9434 206.118 91.1717V91.3675C206.172 91.6067 206.259 91.8677 206.379 92.1504L206.51 92.5419L206.575 92.6724C207.51 94.0534 209.038 94.7439 211.158 94.7439C211.68 94.7439 212.235 94.7004 212.822 94.6134C213.42 94.5264 214.056 94.4014 214.73 94.2383L214.535 92.6071C214.524 92.5201 214.508 92.4223 214.486 92.3135C214.475 92.1939 214.448 92.0743 214.404 91.9547V91.7916C214.404 91.7046 214.399 91.6176 214.388 91.5306C214.377 91.4327 214.361 91.3349 214.339 91.237V90.8455L214.274 90.6498C213.578 90.9108 212.931 91.0413 212.333 91.0413C211.474 91.0413 210.729 90.7585 210.098 90.1931C210.076 90.0408 210.06 89.8832 210.049 89.72C210.038 89.5461 210.033 89.3558 210.033 89.1491V80.0148H214.73V76.6221H210.033ZM218.58 69.4451H222.56V87.518C222.549 87.6594 222.544 87.7953 222.544 87.9258V88.301C222.544 89.0404 222.593 89.6711 222.69 90.1931C223.158 90.7911 223.876 91.0902 224.843 91.0902C225.257 91.0902 225.735 91.0304 226.279 90.9108V91.3022L226.344 91.498L226.475 92.4114V92.8029L226.54 92.9334V93.3248L226.736 94.434C225.529 94.7276 224.452 94.8744 223.506 94.8744C220.983 94.8744 219.363 93.8359 218.645 91.7589C218.634 91.6502 218.623 91.5523 218.613 91.4653C218.613 91.3784 218.602 91.3022 218.58 91.237V69.4451ZM244.613 84.9082L244.548 83.9295C244.004 78.9709 241.198 76.4046 236.131 76.2306C231.031 77.0135 228.481 80.2377 228.481 85.9032V86.2131C228.492 86.3762 228.497 86.485 228.497 86.5393C228.867 90.6824 230.933 93.3792 234.696 94.6297C235.109 94.7276 235.522 94.8037 235.935 94.8581C236.348 94.9125 236.756 94.9397 237.159 94.9397C239.496 94.9397 241.698 94.0752 243.765 92.3462L242.851 91.3022C242.84 91.2587 242.797 91.2152 242.721 91.1717C242.655 91.0413 242.568 90.9162 242.46 90.7966C242.351 90.6661 242.22 90.5302 242.068 90.3888L241.872 90.1931L241.807 89.9973C241.601 89.8451 241.427 89.6494 241.285 89.4101C240.133 90.4867 238.735 91.0249 237.093 91.0249C236.778 91.0249 236.457 91.0086 236.131 90.976C234.119 90.5845 232.988 89.2796 232.738 87.0613H244.678V85.1039C244.678 85.0278 244.656 84.9626 244.613 84.9082ZM240.568 83.9948H232.673C232.782 81.7656 234 80.3737 236.327 79.8191C238.175 79.83 239.502 80.7651 240.307 82.6246C240.328 82.8204 240.394 83.0378 240.502 83.2771V83.4076C240.502 83.5381 240.524 83.6685 240.568 83.799V83.9948ZM192.286 108.418H188.306V130.21C188.328 130.275 188.339 130.351 188.339 130.438C188.35 130.525 188.361 130.623 188.371 130.732C189.089 132.809 190.709 133.848 193.232 133.848C194.178 133.848 195.255 133.701 196.462 133.407L196.266 132.298V131.906L196.201 131.776V131.385L196.07 130.471L196.005 130.275V129.884C195.461 130.004 194.983 130.063 194.57 130.063C193.602 130.063 192.884 129.764 192.417 129.166C192.319 128.644 192.27 128.014 192.27 127.274V126.899C192.27 126.768 192.275 126.632 192.286 126.491V108.418ZM142.423 108.483H126.764V133.472H143.14V129.623H131.331C131.157 129.623 131.07 129.514 131.07 129.297V122.772H141.444V118.923H131.315C131.162 118.923 131.081 118.836 131.07 118.662V112.398H142.423V108.483ZM158.685 115.66V116.9C157.347 115.813 155.733 115.269 153.84 115.269H153.596C151.258 115.606 149.474 116.911 148.246 119.184C147.484 120.554 147.104 122.011 147.104 123.555C147.104 124.099 147.147 124.653 147.234 125.219C147.332 125.784 147.474 126.361 147.658 126.948C148.3 129.221 149.822 130.83 152.226 131.776C152.943 131.993 153.639 132.102 154.313 132.102C155.825 132.102 157.282 131.58 158.685 130.536V133.277C158.609 133.635 158.435 134.005 158.163 134.386L158.098 134.582C156.923 135.299 155.656 135.658 154.297 135.658C152.796 135.658 151.171 135.212 149.42 134.321L149.29 134.777C149.159 134.973 149.029 135.234 148.898 135.56L148.768 135.821L148.702 136.017L148.441 136.669L148.115 137.387L147.985 137.648C150.051 138.833 152.307 139.426 154.754 139.426C156.102 139.426 157.5 139.247 158.946 138.888L160.316 138.235L160.577 137.909C161.001 137.594 161.371 137.159 161.686 136.604L161.947 136.213L162.143 135.821L162.404 135.038L162.469 134.647L162.534 134.516L162.6 133.799V115.66H158.685ZM154.248 119.184H154.542C154.564 119.184 154.596 119.162 154.64 119.118C157.228 119.151 158.554 120.608 158.62 123.49C158.631 123.577 158.636 123.664 158.636 123.751V123.996C158.636 126.54 157.478 127.959 155.162 128.253C152.835 128.155 151.53 126.872 151.247 124.403C151.214 124.153 151.198 123.909 151.198 123.669C151.198 122.234 151.736 120.913 152.813 119.706L154.248 119.184ZM178.78 116.9V115.66H182.695V133.799L182.63 134.516L182.565 134.647L182.499 135.038L182.238 135.821L182.043 136.213L181.782 136.604C181.466 137.159 181.097 137.594 180.673 137.909L180.412 138.235L179.041 138.888C177.595 139.247 176.198 139.426 174.849 139.426C172.403 139.426 170.146 138.833 168.08 137.648L168.211 137.387L168.537 136.669L168.798 136.017L168.863 135.821L168.994 135.56C169.124 135.234 169.255 134.973 169.385 134.777L169.516 134.321C171.266 135.212 172.892 135.658 174.393 135.658C175.752 135.658 177.019 135.299 178.193 134.582L178.258 134.386C178.53 134.005 178.704 133.635 178.78 133.277V130.536C177.378 131.58 175.92 132.102 174.409 132.102C173.735 132.102 173.039 131.993 172.321 131.776C169.918 130.83 168.396 129.221 167.754 126.948C167.569 126.361 167.428 125.784 167.33 125.219C167.243 124.653 167.199 124.099 167.199 123.555C167.199 122.011 167.58 120.554 168.341 119.184C169.57 116.911 171.353 115.606 173.691 115.269H173.936C175.828 115.269 177.443 115.813 178.78 116.9ZM174.637 119.184H174.344L172.908 119.706C171.832 120.913 171.294 122.234 171.294 123.669C171.294 123.909 171.31 124.153 171.342 124.403C171.625 126.872 172.93 128.155 175.257 128.253C177.573 127.959 178.731 126.54 178.731 123.996V123.751C178.731 123.664 178.726 123.577 178.715 123.49C178.65 120.608 177.323 119.151 174.735 119.118C174.692 119.162 174.659 119.184 174.637 119.184ZM214.274 122.903L214.339 123.881C214.383 123.936 214.404 124.001 214.404 124.077V126.034H202.464C202.715 128.253 203.845 129.558 205.857 129.949C206.183 129.982 206.504 129.998 206.82 129.998C208.462 129.998 209.859 129.46 211.012 128.383C211.153 128.622 211.327 128.818 211.533 128.97L211.599 129.166L211.794 129.362C211.947 129.503 212.077 129.639 212.186 129.77C212.295 129.889 212.382 130.014 212.447 130.145C212.523 130.188 212.567 130.232 212.577 130.275L213.491 131.319C211.425 133.048 209.223 133.913 206.885 133.913C206.482 133.913 206.075 133.886 205.661 133.831C205.248 133.777 204.835 133.701 204.422 133.603C200.659 132.352 198.593 129.656 198.223 125.512C198.223 125.458 198.218 125.349 198.207 125.186V124.876C198.207 119.211 200.757 115.987 205.857 115.204C210.925 115.378 213.73 117.944 214.274 122.903ZM202.399 122.968H210.294V122.772C210.25 122.642 210.229 122.511 210.229 122.381V122.25C210.12 122.011 210.055 121.793 210.033 121.598C209.228 119.738 207.901 118.803 206.053 118.792C203.726 119.347 202.508 120.739 202.399 122.968ZM231.042 118.009L231.238 117.748C229.356 115.965 226.975 115.073 224.093 115.073H223.865C220.113 115.323 218.091 117.237 217.797 120.815C218.188 124.371 220.624 126.285 225.104 126.556L226.605 127.078C226.975 127.459 227.16 127.932 227.16 128.497C227.16 128.726 227.127 128.97 227.062 129.231C226.866 129.362 226.67 129.558 226.475 129.819C225.713 130.08 224.963 130.21 224.224 130.21C222.462 130.21 220.777 129.449 219.167 127.927L218.319 128.905L218.188 128.97L218.123 129.101C218.08 129.112 218.036 129.155 217.993 129.231L217.862 129.427C217.819 129.438 217.775 129.482 217.732 129.558C217.558 129.688 217.362 129.884 217.145 130.145L216.818 130.471L216.688 130.732C219.222 132.896 221.761 133.978 224.305 133.978C225.643 133.978 226.975 133.679 228.301 133.081C230.15 131.983 231.074 130.341 231.074 128.155V127.796C231.074 127.666 231.064 127.535 231.042 127.405C230.552 124.403 228.247 122.75 224.126 122.446C223.854 122.337 223.506 122.25 223.082 122.185C222.973 122.12 222.799 122.054 222.56 121.989C222.016 121.652 221.733 121.13 221.712 120.423C222.288 119.216 223.185 118.613 224.403 118.613C225.588 118.613 227.084 119.195 228.889 120.358L229.737 119.379C229.856 119.271 229.987 119.118 230.128 118.923L230.259 118.857L230.389 118.727L230.65 118.335L230.846 118.205L231.042 118.009ZM241.351 108.81V115.595H246.048V118.988H241.351V128.122C241.351 128.329 241.356 128.519 241.367 128.693C241.378 128.856 241.394 129.014 241.416 129.166C242.046 129.732 242.791 130.014 243.65 130.014C244.248 130.014 244.896 129.884 245.591 129.623L245.657 129.819V130.21C245.678 130.308 245.695 130.406 245.706 130.504C245.717 130.591 245.722 130.678 245.722 130.765V130.928C245.765 131.047 245.793 131.167 245.804 131.287C245.825 131.395 245.842 131.493 245.852 131.58L246.048 133.211C245.374 133.375 244.738 133.5 244.14 133.587C243.553 133.674 242.998 133.717 242.476 133.717C240.356 133.717 238.828 133.027 237.893 131.646L237.827 131.515L237.697 131.124C237.577 130.841 237.49 130.58 237.436 130.341V130.145C237.414 129.917 237.398 129.71 237.387 129.525C237.376 129.329 237.371 129.15 237.371 128.987V118.988H234.239V115.595H237.371V109.919L237.632 109.788L238.154 109.658L238.349 109.527L238.675 109.462C238.73 109.419 238.795 109.397 238.871 109.397C238.926 109.353 238.991 109.332 239.067 109.332C239.121 109.288 239.187 109.266 239.263 109.266L239.458 109.136L239.98 109.005C240.024 108.962 240.062 108.94 240.095 108.94H240.111C240.154 108.897 240.192 108.875 240.225 108.875H240.241L241.22 108.483C241.307 108.592 241.351 108.701 241.351 108.81ZM266.03 124.42C266.03 122.68 265.654 120.913 264.904 119.118C263.164 116.324 260.533 114.926 257.009 114.926H256.716C256.618 114.926 256.52 114.932 256.422 114.943C251.453 116.052 248.968 119.325 248.968 124.762V125.203C248.968 125.344 248.973 125.491 248.984 125.643C249.126 128.546 250.452 130.873 252.964 132.624C254.302 133.505 255.775 133.945 257.385 133.945C257.798 133.935 258.216 133.907 258.64 133.864C259.065 133.809 259.5 133.722 259.945 133.603C262.979 132.798 264.871 130.776 265.622 127.535C265.894 126.524 266.03 125.485 266.03 124.42ZM257.466 130.08C254.867 129.819 253.388 128.231 253.029 125.317C252.997 124.969 252.98 124.637 252.98 124.322C252.98 121.32 254.367 119.477 257.14 118.792C260.413 119.021 262.05 120.782 262.05 124.077C262.06 124.36 262.05 124.653 262.017 124.958C261.984 125.262 261.946 125.578 261.903 125.904C261.609 128.438 260.13 129.83 257.466 130.08ZM285.391 118.727V118.923C285.532 119.184 285.619 119.445 285.652 119.706V133.342H281.672V121.793L281.607 121.402C281.063 119.76 280.15 118.939 278.867 118.939C278.475 118.939 278.04 119.021 277.562 119.184C276.474 119.651 275.691 120.391 275.213 121.402L274.952 122.511V133.342H271.037V115.53H274.952V117.031C276.17 115.943 277.496 115.291 278.932 115.073H279.225C282.14 115.073 284.195 116.291 285.391 118.727ZM211.615 151.893C211.887 152.752 212.023 153.578 212.023 154.372C212.023 156.514 210.995 158.188 208.94 159.395C211.071 160.787 212.224 162.614 212.398 164.876C212.409 164.941 212.414 165.011 212.414 165.088V165.283C212.414 167.273 211.735 168.899 210.375 170.16C208.298 171.932 206.08 172.818 203.72 172.818C202.687 172.818 201.643 172.65 200.589 172.313C197.283 171.269 195.325 169.203 194.717 166.115V165.822C194.717 162.929 195.869 160.831 198.175 159.526C196.152 158.025 195.141 156.242 195.141 154.176C195.141 153.633 195.217 153.045 195.369 152.415C196.522 149.316 198.914 147.533 202.546 147.065C202.676 147.054 202.801 147.049 202.921 147.049H203.296C207.265 147.049 210.038 148.663 211.615 151.893ZM199.414 155.09C200.121 157.014 201.41 157.976 203.28 157.976C203.443 157.976 203.606 157.971 203.769 157.96C203.943 157.938 204.123 157.917 204.308 157.895C206.472 157.58 207.624 156.449 207.766 154.502C207.494 152.099 206.069 150.898 203.492 150.898H203.215C203.128 150.898 203.035 150.903 202.937 150.914C200.589 151.349 199.414 152.627 199.414 154.747V155.09ZM199.023 165.463C199.479 167.833 200.899 169.018 203.28 169.018H203.622L203.981 168.986C206.591 168.812 207.983 167.529 208.157 165.137C207.733 162.614 206.183 161.353 203.508 161.353H203.198C200.545 161.69 199.153 163.06 199.023 165.463ZM168.211 152.676H167.95C167.71 152.806 167.471 152.893 167.232 152.937C166.993 153.045 166.775 153.111 166.58 153.132C166.525 153.176 166.46 153.198 166.384 153.198L166.188 153.328L165.992 153.393C165.873 153.437 165.759 153.464 165.65 153.475C165.541 153.486 165.438 153.502 165.34 153.524C165.003 153.698 164.698 153.807 164.426 153.85C163.48 151.838 162.072 150.833 160.202 150.833C159.81 150.833 159.392 150.882 158.946 150.979C156.271 151.904 154.933 153.942 154.933 157.096V157.552C154.944 157.705 154.955 157.862 154.966 158.025C156.88 156.427 158.799 155.628 160.724 155.628C162.442 155.628 164.176 156.275 165.927 157.569C167.776 159.472 168.7 161.57 168.7 163.864C168.7 164.484 168.624 165.147 168.472 165.854C167.71 169.257 165.797 171.476 162.73 172.509C161.773 172.737 160.86 172.851 159.99 172.851C157.445 172.851 155.314 171.867 153.596 169.899C151.725 167.616 150.79 165.158 150.79 162.527V162.201L150.66 161.744C150.638 161.461 150.622 161.19 150.611 160.929C150.6 160.657 150.594 160.39 150.594 160.129C150.594 156.976 151.29 154.165 152.682 151.697C154.139 148.946 156.293 147.402 159.142 147.065H159.484C163.801 147.065 166.71 148.935 168.211 152.676ZM155.227 164.876C155.575 166.561 156.423 167.779 157.771 168.529C158.598 168.768 159.365 168.888 160.071 168.888C162.388 168.888 163.774 167.529 164.231 164.81V164.517C164.231 161.059 162.534 159.33 159.142 159.33C156.51 160.048 155.194 161.646 155.194 164.125V164.5C155.205 164.62 155.216 164.745 155.227 164.876ZM126.78 147.457H135.001C135.425 147.424 135.838 147.408 136.241 147.408C140.177 147.408 142.656 148.816 143.678 151.632C143.885 152.415 143.988 153.16 143.988 153.866C143.988 155.998 143.037 157.688 141.134 158.939C143.211 159.428 144.516 160.602 145.049 162.462C145.168 162.94 145.25 163.402 145.293 163.848C145.348 164.294 145.375 164.723 145.375 165.137C145.375 168.225 143.852 170.486 140.808 171.921H140.612L140.155 172.117H139.96C139.568 172.269 139.198 172.356 138.85 172.378C138.676 172.378 138.513 172.384 138.361 172.394C138.209 172.405 138.067 172.422 137.937 172.443H126.78V147.457ZM131.151 168.529H137.089L138.524 168.398C140.405 167.583 141.346 166.36 141.346 164.729C141.346 164.337 141.297 163.93 141.199 163.506C140.742 162.375 140.025 161.57 139.046 161.092C138.763 161.016 138.497 160.956 138.247 160.912C138.008 160.869 137.796 160.842 137.611 160.831H131.151V168.529ZM131.151 157.438H137.35C137.578 157.406 137.785 157.368 137.97 157.324C138.154 157.281 138.318 157.232 138.459 157.177C139.557 156.405 140.106 155.427 140.106 154.241V154.046C140.106 153.981 140.101 153.915 140.09 153.85C139.786 152.839 139.198 152.078 138.328 151.567L137.545 151.371L137.154 151.306H131.151V157.438ZM189.448 154.829C189.426 154.546 189.394 154.263 189.35 153.981C188.687 149.414 185.87 147.13 180.901 147.13H180.477C175.42 147.728 172.892 150.561 172.892 155.628V156.019C172.892 156.139 172.897 156.264 172.908 156.394H177.084C177.019 155.97 176.986 155.573 176.986 155.204C176.986 153.41 177.736 152.154 179.237 151.436C179.911 151.11 180.569 150.947 181.211 150.947C182.244 150.947 183.261 151.349 184.261 152.154L184.718 152.806C184.946 153.687 185.06 154.535 185.06 155.351C185.06 158.232 183.641 160.711 180.803 162.788C180.607 163.016 180.346 163.255 180.02 163.506L179.89 163.701H179.873C179.841 163.701 179.803 163.723 179.759 163.766C179.716 163.777 179.672 163.821 179.629 163.897L179.237 164.158L179.041 164.354L178.193 165.006L178.063 165.071L177.997 165.202L177.541 165.463L177.41 165.658C177.334 165.669 177.269 165.713 177.215 165.789L177.019 165.854C176.954 165.909 176.877 165.968 176.79 166.034C176.703 166.099 176.606 166.169 176.497 166.246L176.366 166.311L176.236 166.441L175.844 166.702L175.649 166.898C175.42 166.985 175.203 167.115 174.996 167.289L174.735 167.42L174.539 167.616L173.169 168.333L172.908 168.529V172.378H189.481V168.529H179.694C179.846 168.442 180.015 168.328 180.199 168.186C180.384 168.034 180.586 167.866 180.803 167.681L181.39 167.355L181.521 167.159C181.597 167.148 181.662 167.105 181.716 167.028L181.912 166.963L182.043 166.768C182.238 166.691 182.434 166.539 182.63 166.311C182.782 166.235 182.934 166.104 183.087 165.919C183.304 165.8 183.522 165.604 183.739 165.332L183.935 165.267L184.652 164.484C184.696 164.473 184.739 164.43 184.783 164.354L184.979 164.223L185.109 164.027C185.479 163.756 185.892 163.342 186.349 162.788L186.414 162.657C186.458 162.647 186.501 162.603 186.545 162.527L187.132 162.005L187.262 161.809L187.393 161.679L187.523 161.483L187.588 161.287L187.784 161.157L188.371 160.048L188.502 159.917L188.698 159.395L188.763 159.2L188.893 159.004C189.285 157.938 189.481 156.824 189.481 155.66C189.481 155.389 189.47 155.111 189.448 154.829ZM233.684 154.829C233.662 154.546 233.63 154.263 233.586 153.981C232.923 149.414 230.107 147.13 225.137 147.13H224.713C219.657 147.728 217.128 150.561 217.128 155.628V156.019C217.128 156.139 217.134 156.264 217.145 156.394H221.32C221.255 155.97 221.222 155.573 221.222 155.204C221.222 153.41 221.973 152.154 223.473 151.436C224.148 151.11 224.805 150.947 225.447 150.947C226.48 150.947 227.497 151.349 228.497 152.154L228.954 152.806C229.182 153.687 229.296 154.535 229.296 155.351C229.296 158.232 227.877 160.711 225.039 162.788C224.843 163.016 224.583 163.255 224.256 163.506L224.126 163.701H224.109C224.077 163.701 224.039 163.723 223.995 163.766C223.952 163.777 223.908 163.821 223.865 163.897L223.473 164.158L223.278 164.354L222.429 165.006L222.299 165.071L222.234 165.202L221.777 165.463L221.646 165.658C221.57 165.669 221.505 165.713 221.451 165.789L221.255 165.854C221.19 165.909 221.114 165.968 221.027 166.034C220.94 166.099 220.842 166.169 220.733 166.246L220.603 166.311L220.472 166.441L220.081 166.702L219.885 166.898C219.657 166.985 219.439 167.115 219.232 167.289L218.971 167.42L218.776 167.616L217.406 168.333L217.145 168.529V172.378H233.717V168.529H223.93C224.082 168.442 224.251 168.328 224.436 168.186C224.621 168.034 224.822 167.866 225.039 167.681L225.626 167.355L225.757 167.159C225.833 167.148 225.898 167.105 225.953 167.028L226.148 166.963L226.279 166.768C226.475 166.691 226.67 166.539 226.866 166.311C227.018 166.235 227.171 166.104 227.323 165.919C227.54 165.8 227.758 165.604 227.975 165.332L228.171 165.267L228.889 164.484C228.932 164.473 228.976 164.43 229.019 164.354L229.215 164.223L229.345 164.027C229.715 163.756 230.128 163.342 230.585 162.788L230.65 162.657C230.694 162.647 230.737 162.603 230.781 162.527L231.368 162.005L231.498 161.809L231.629 161.679L231.759 161.483L231.825 161.287L232.02 161.157L232.608 160.048L232.738 159.917L232.934 159.395L232.999 159.2L233.13 159.004C233.521 157.938 233.717 156.824 233.717 155.66C233.717 155.389 233.706 155.111 233.684 154.829Z" fill="black"/>
<path d="M72.3662 24.498H105.772L69.0257 101.888L105.772 179.277H72.3662L35.6201 101.888L72.3662 24.498Z" fill="black"/>
<path d="M138.063 648H227.145V650.227H138.063V648Z" fill="black"/>
<path d="M0 632.215L1.47513 621.193L2.21252 629.189L3.58215 617.737L4.74106 639.777L6.11068 619.142L8.00708 629.189L8.74457 618.494L10.3249 631.134L12.3267 618.494L13.5085 627.785L15.698 618.494L18.648 631.675L19.7016 619.142L21.0712 627.785L22.8622 618.494L24.1265 632.215L25.3908 618.494L26.9711 627.785L29.0782 617.737L29.9211 627.785L31.6068 621.193L33.0119 627.785L34.4514 622.275L35.0835 637.293L37.1906 620.331L38.5602 631.134L40.9834 616.765L42.1423 629.189L44.3548 619.142L45.7244 629.189L47.6208 620.331L48.3583 637.293L50.044 619.142L51.519 630.053L53.5207 616.765L54.6796 627.785L56.3653 618.494L58.3671 627.785L59.9474 619.142L61.2917 632.215L63.6349 621.193L65.1099 630.053L66.7956 620.331L67.9545 629.189L69.3241 616.765L72.3794 627.785L73.3276 616.765L76.4883 633.078L79.1222 620.331C79.7192 623.751 80.9553 630.312 81.1239 629.189C81.2925 628.066 83.0906 618.997 83.9685 614.604L84.6007 626.056L86.3917 618.494L87.7613 630.053C88.8457 628.109 90.9209 623.075 90.5468 618.494C91.7648 621.734 92.1863 626.379 92.2916 633.078C94.6094 626.056 95.4523 625.517 95.1362 620.331C94.8202 615.144 98.6847 628.198 98.0365 635.621C99.1168 625.207 99.8596 617.737 100.298 617.737C100.737 617.737 102.034 631.675 102.034 631.675L103.978 619.142L106.355 628.42L108.191 622.275C108.731 623.154 109.812 625.14 109.812 626.056C109.812 626.972 110.604 620.244 111 616.765L112.404 631.675L114.808 620.779L116.634 633.436L119.18 619.142L121.781 632.074L123.774 618.494L125.157 622.275L126.541 616.239L128.146 634.06L131.854 620.779L134.013 633.078L137.057 617.737L138.441 627.874L140.987 618.849L142.481 630.257L143.699 621.801L146.023 636.047L150.285 617.26L151.779 626.795L152.941 618.849L155.709 633.436L157.092 616.765L158.864 629.52L160.413 620.439L161.852 628.611L162.959 621.801L164.952 628.271L166.667 617.737L168.715 622.709L169.49 618.494L170.708 630.711L172.922 620.779L175.191 637.011L176.962 620.779L178.678 627.874L179.895 618.849L180.67 623.957L181.832 617.26L183.05 630.711L185.098 618.849L186.149 629.52L187.533 617.737L189.028 626.795L190.854 617.737L192.238 624.412L194.839 617.737L196.057 629.52L197.772 619.303L198.879 630.711L201.259 618.849L202.089 628.895L203.805 618.849C204.378 621.894 205.391 627.465 205.6 629.275C205.738 626.733 206.96 616.765 206.96 616.765L208.011 625.944L209.45 621.233L210.336 628.271L211.72 621.233L212.937 628.611L215.368 617.737L215.76 631.222L218.14 621.233L219.081 630.711L221.793 619.303L223.01 627.476L225.778 620.779L226.387 630.711L229.017 618.494L229.89 624.412L231.54 616.765L232.705 631.222L235.423 619.303L236.005 623.957L237.849 617.26L239.791 631.746L243.382 618.849L245.614 626.795L247.944 618.494L248.526 628.895L250.856 615.92L252.991 634.134L255.515 619.303L256.679 625.944L258.329 617.737L259.785 627.476L261.824 615.92L263.151 624.412L264.735 618.849L266.288 629.52L269.783 616.765L271.044 631.746L275.315 617.737L275.897 623.385L277.936 617.737L279.974 627.476L281.333 620.779L282.886 625.944L285.118 617.737L286.477 636.424L288.515 619.901L289.389 625.944L290.748 617.737L291.719 622.091L292.406 615.621L294.824 633.537L297.736 618.494L299.386 628.895L301.23 620.779L302.158 625.575L303.366 617.26L304.239 624.412L306.084 618.849L307.442 623.957L308.898 619.303L310.257 630.054L312.101 618.849L313.266 624.412L315.596 615.621L316.954 623.957L318.993 619.303L320.158 628.362L323.166 616.765L324.234 623.957L325.884 619.901L326.855 624.412L328.602 617.737L330.438 628.895L331.999 617.737L332.873 622.788L335.299 618.494L337.143 630.054L339.376 618.849L340.443 625.944L343.064 619.901L344.423 627.476L345.782 615.92L346.849 620.779L348.402 617.26L349.082 626.669L352.091 618.849L353.256 630.054L354.906 617.26L355.876 622.788L358.206 617.737L358.982 628.362L361.312 618.494L363.059 623.385L365 615.621V650.739H0V632.215Z" fill="black"/>
<path fill-rule="evenodd" clip-rule="evenodd" d="M280.807 610.672C241.19 608.485 240.688 578.279 245.389 563.449L235.44 562.357C234.434 562.247 234.183 560.834 235.074 560.356C238.201 558.677 242.352 556.192 245.389 553.605L245.465 553.54L245.465 553.54L245.465 553.54C250.775 549.016 254.185 546.111 260.887 546.003C272.502 545.82 273.951 555.188 274.702 560.786C274.93 562.486 275.977 563.922 277.459 564.785C296.948 576.129 307.501 588.474 309.862 591.236C309.999 591.396 310.108 591.523 310.19 591.617C311.644 593.279 313.001 593.194 313.294 593.176L313.294 593.176C313.314 593.174 313.33 593.173 313.339 593.173C323.418 591.988 327.235 592.506 327.272 594.952C327.309 597.398 326.209 598.175 323.181 599.512C332.826 602.187 348.666 607.89 345.005 614.296C342.077 619.421 323.51 612.631 314.593 608.596C313.49 609.534 310.115 611.17 305.441 610.213C300.767 609.255 292.682 608.736 289.225 608.596L282.969 633.563H278.159C278.229 632.637 278.582 630.195 279.011 627.225L279.011 627.225C279.917 620.955 281.163 612.334 280.807 610.672ZM255.53 555.037C255.53 555.988 254.759 556.759 253.808 556.759C252.857 556.759 252.086 555.988 252.086 555.037C252.086 554.086 252.857 553.315 253.808 553.315C254.759 553.315 255.53 554.086 255.53 555.037ZM271.133 572.205C268.325 571.893 264.079 571.78 260.483 572.485C258.691 572.837 256.963 573.41 255.653 574.341C254.305 575.298 253.366 576.669 253.342 578.503C253.326 579.707 253.851 580.939 254.667 582.116C255.494 583.308 256.686 584.543 258.174 585.781C261.152 588.259 265.425 590.839 270.667 593.173C281.155 597.843 295.658 601.587 311.753 601.495C312.361 601.491 312.851 600.996 312.847 600.388C312.844 599.78 312.348 599.29 311.74 599.293C295.979 599.384 281.785 595.713 271.562 591.162C266.448 588.884 262.363 586.402 259.582 584.089C258.191 582.931 257.154 581.839 256.477 580.861C255.79 579.87 255.536 579.09 255.544 578.532C255.557 577.548 256.021 576.78 256.928 576.135C257.873 575.464 259.253 574.97 260.907 574.646C264.204 573.999 268.206 574.095 270.89 574.393C271.494 574.46 272.039 574.025 272.106 573.421C272.173 572.816 271.737 572.272 271.133 572.205Z" fill="black"/>
<path fill-rule="evenodd" clip-rule="evenodd" d="M71.0307 555.479C75.5756 558.394 86.0368 564.353 91.5226 564.857C92.1627 564.916 92.8806 564.976 93.6645 565.041C101.278 565.673 115.129 566.823 124.704 572.897C135.266 579.597 139.364 581.094 147.088 581.961C154.812 582.828 160.724 585.902 160.487 598.434C160.377 604.265 159.448 606.274 158.7 607.89C157.841 609.748 157.221 611.087 158.359 617.114C160.062 624.365 159.069 626.125 158.359 626.099C155.443 620.634 147.577 609.594 139.443 609.153C135.489 608.938 133.203 609.976 130.51 611.198C126.278 613.119 121.038 615.498 106.734 614.197C106.167 617.161 106.059 629.492 106.033 632.671H99.8852L99.8817 632.559C99.7212 627.352 99.2509 612.093 89.0005 604.503C80.8477 598.466 77.904 593.51 76.0173 590.334C75.5146 589.488 75.087 588.768 74.6558 588.188C74.3929 587.834 74.0924 587.384 73.747 586.867C71.4008 583.354 66.9874 576.747 58.2619 576.129C48.2522 575.419 37.0607 573.449 37.6124 566.04C38.136 559.009 49.0955 561.561 54.0511 562.716C54.317 562.777 54.5657 562.835 54.7946 562.888C55.3565 563.016 56.0715 563.161 56.9062 563.331C62.744 564.519 74.4403 566.898 80.6465 572.897C81.6504 573.868 82.8138 575.083 84.1255 576.453C92.0817 584.763 105.493 598.772 121.868 598.434C138.498 598.434 131.089 583.459 131.089 583.459C130.839 582.949 130.041 581.977 128.853 582.164C127.545 582.37 128.621 584.531 129.173 585.64C129.248 585.791 129.314 585.923 129.362 586.027C129.765 586.897 134.533 597.22 119.451 595.707C107.386 594.496 94.8015 584.139 90.0176 579.111C87.3213 576.363 81.2293 570.344 78.432 568.256C75.4287 566.105 69.7438 560.537 71.0307 555.479ZM153.292 599.439C154.227 599.439 154.986 598.681 154.986 597.745C154.986 596.81 154.227 596.052 153.292 596.052C152.357 596.052 151.599 596.81 151.599 597.745C151.599 598.681 152.357 599.439 153.292 599.439Z" fill="black"/>
</svg>
