<svg width="20" height="20" viewBox="0 0 20 20" fill="none" xmlns="http://www.w3.org/2000/svg">
<g clip-path="url(#clip0_3523_9690)">
<rect width="20" height="20" rx="4" fill="#D20A11"/>
<path fill-rule="evenodd" clip-rule="evenodd" d="M13.9203 10.7107C13.5681 11.0194 13.1274 11.3431 12.74 11.5566C12.6674 11.5958 12.3485 11.7443 12.2616 11.7759C10.7288 12.3377 8.93719 12.0066 7.70619 10.7756C6.01806 9.08747 6.01446 6.3416 7.70189 4.65417C9.37346 2.9826 12.0868 2.97198 13.779 4.61752L14.884 3.5126C12.5824 1.25616 8.87786 1.26691 6.59625 3.54853C4.30128 5.8435 4.30307 9.58066 6.6021 11.8797C8.18661 13.4642 10.4543 13.9527 12.4623 13.3536C12.8222 13.2428 13.2881 13.0344 13.4383 12.9543C13.9208 12.6941 14.4492 12.3111 14.8874 11.9365C15.0359 11.8096 15.5216 11.334 15.6627 11.1946L22.9373 3.91996L21.8342 2.81682L14.5721 10.0789C14.4711 10.1799 14.0263 10.618 13.9203 10.7107Z" fill="white"/>
<path fill-rule="evenodd" clip-rule="evenodd" d="M12.829 8.33945C12.7489 8.41956 12.3258 8.83766 12.2415 8.90859C12.0996 9.02874 11.8884 9.19979 11.7373 9.29406C11.562 9.39582 11.3834 9.47586 11.2932 9.50252C10.6603 9.69082 9.94618 9.53582 9.44559 9.03523C8.71686 8.30649 8.71603 7.1273 9.44374 6.39959C10.1564 5.68689 11.3022 5.67601 12.0343 6.36132L13.0958 5.29979C11.7779 4.02698 9.68009 4.0372 8.38072 5.33657C7.06633 6.65096 7.06783 8.78218 8.38323 10.0976C9.31087 11.0252 10.6431 11.2959 11.8095 10.9151C11.9982 10.8651 12.2954 10.715 12.3755 10.6683C12.6518 10.5073 12.984 10.2537 13.2394 10.0334C13.3354 9.95242 13.7694 9.52514 13.8603 9.43418L13.862 9.43585L21.155 2.14286L20.0903 1.07817L12.829 8.33945Z" fill="white"/>
<path fill-rule="evenodd" clip-rule="evenodd" d="M-0.23268 12.6023L1.39299 10.9766L8.63608 18.2197L9.74767 17.1081L1.39059 8.75101L-1.34668 11.4883L-0.23268 12.6023Z" fill="white"/>
<path fill-rule="evenodd" clip-rule="evenodd" d="M0.174546 15.4507L1.39547 14.2297L7.01059 19.8449L8.07963 18.7758L1.39396 12.0902L-0.895996 14.3801L0.174546 15.4507Z" fill="white"/>
</g>
<defs>
<clipPath id="clip0_3523_9690">
<rect width="20" height="20" rx="4" fill="white"/>
</clipPath>
</defs>
</svg>
