<svg width="39" height="39" viewBox="0 0 39 39" fill="none" xmlns="http://www.w3.org/2000/svg">
<rect width="14" height="2" rx="1" transform="matrix(0.707088 -0.707126 0.707088 0.707126 13.4355 23.334)" fill="#1A1A1A"/>
<path fill-rule="evenodd" clip-rule="evenodd" d="M21.2136 9.89955L24.7492 6.36409C26.7019 4.41151 29.8678 4.41151 31.8204 6.36409C33.7731 8.31667 33.7731 11.4824 31.8204 13.435L28.2848 16.9705C27.1278 18.1275 25.5448 18.5989 24.0406 18.3847L22.3961 20.0293C24.863 20.9076 27.7242 20.3594 29.6991 18.3847L33.2347 14.8492C35.9684 12.1156 35.9684 7.68352 33.2347 4.94991C30.5009 2.21629 26.0687 2.2163 23.335 4.94991L19.7993 8.48537C17.825 10.4596 17.2766 13.3197 18.154 15.7861L19.7989 14.1411C19.5856 12.6378 20.0572 11.0559 21.2136 9.89955Z" fill="#1A1A1A"/>
<path fill-rule="evenodd" clip-rule="evenodd" d="M9.89957 21.2133L6.36396 24.7487C4.4113 26.7013 4.4113 29.8671 6.36396 31.8197C8.31662 33.7722 11.4825 33.7722 13.4352 31.8197L16.9708 28.2842C18.1277 27.1274 18.5991 25.5447 18.3852 24.0408L20.0299 22.3961C20.908 24.8629 20.3597 27.7238 18.385 29.6984L14.8494 33.2338C12.1157 35.9674 7.68344 35.9674 4.94972 33.2338C2.21599 30.5002 2.21599 26.0682 4.94972 23.3345L8.48532 19.7991C10.4597 17.8248 13.3202 17.2764 15.7868 18.1539L14.142 19.7987C12.6383 19.5852 11.0561 20.0567 9.89957 21.2133Z" fill="#1A1A1A"/>
</svg>
