<svg width="50" height="50" viewBox="0 0 50 50" fill="none" xmlns="http://www.w3.org/2000/svg">
<rect width="50" height="50" rx="15" fill="#191919"/>
<path d="M24.7619 13C22.3716 13 20.3468 13.639 18.737 14.959L18.7322 14.963C17.1367 16.298 16.3358 18.0577 16.3358 20.1862V20.2748C16.3358 21.0086 16.4315 21.6939 16.6308 22.3251L16.6353 22.3393L16.6405 22.3533C16.8766 22.9943 17.2315 23.5683 17.7015 24.0718L17.7164 24.0878L17.7323 24.1026C18.1813 24.5217 18.5889 24.8842 18.9546 25.1889L18.9763 25.207L18.9995 25.223C19.4401 25.5281 20.0513 25.8292 20.8073 26.1316C21.546 26.4271 22.1101 26.6498 22.4979 26.7989L22.5181 26.8067L22.5389 26.8131C22.9292 26.9332 23.5395 27.1118 24.3667 27.3481C26.207 27.8739 27.5671 28.4033 28.4758 28.9265C29.2749 29.3866 29.6202 29.9857 29.6202 30.7695V30.858C29.6202 31.7834 29.2692 32.4774 28.5502 33.0047L28.542 33.0109C27.8264 33.5538 26.8375 33.8565 25.5147 33.8565C22.9307 33.8565 20.4208 32.9429 17.9734 31.0647L17.4523 30.6647L15 34.1231L15.4661 34.496C18.3801 36.8271 21.6775 38 25.3375 38C27.8108 38 29.9059 37.3642 31.5744 36.0487L31.5802 36.044C33.2766 34.6738 34.1179 32.8035 34.1179 30.5038V30.4152C34.1179 29.5385 33.9551 28.7245 33.6184 27.9837C33.2981 27.2791 32.8891 26.6805 32.3829 26.2037C31.9052 25.697 31.2675 25.2639 30.4963 24.8922C29.7732 24.5012 29.0986 24.1937 28.4741 23.9748C27.9006 23.7636 27.1834 23.5248 26.3251 23.2584C25.4998 22.9931 24.8924 22.8005 24.5051 22.6813C24.1489 22.5717 23.6541 22.3887 23.0137 22.1268C22.4147 21.8698 22.02 21.6461 21.7917 21.4635C21.5532 21.2728 21.3303 21.0278 21.1258 20.721C20.9567 20.4673 20.8778 20.205 20.8778 19.9205V19.832C20.8778 19.0629 21.1783 18.4481 21.8248 17.9435C22.5137 17.4286 23.4451 17.1435 24.6733 17.1435C26.7712 17.1435 28.9118 17.8321 31.1039 19.2555L31.6522 19.6116L33.8531 15.9643L33.3477 15.6293C30.7088 13.8803 27.8424 13 24.7619 13Z" fill="white"/>
</svg>
