<svg width="930" height="930" viewBox="0 0 930 930" fill="none" xmlns="http://www.w3.org/2000/svg">
<rect width="930" height="930" fill="#F0E8C9"/>
<path d="M407.923 283.102C432.366 268.967 444.587 261.9 457.84 260.403C462.599 259.866 467.403 259.866 472.162 260.403C485.416 261.9 497.637 268.967 522.079 283.102C546.521 297.238 558.742 304.305 566.663 315.054C569.507 318.914 571.909 323.082 573.824 327.479C579.157 339.724 579.157 353.859 579.157 382.13C579.157 410.401 579.157 424.536 573.824 436.781C571.909 441.178 569.507 445.346 566.663 449.205C558.742 459.954 546.521 467.022 522.079 481.157C497.637 495.293 485.416 502.36 472.162 503.857C467.403 504.394 462.599 504.394 457.84 503.857C444.587 502.36 432.366 495.293 407.923 481.157C383.481 467.022 371.26 459.954 363.34 449.205C360.495 445.346 358.093 441.178 356.178 436.781C350.845 424.536 350.845 410.401 350.845 382.13C350.845 353.859 350.845 339.724 356.178 327.479C358.093 323.082 360.495 318.914 363.34 315.054C371.26 304.305 383.481 297.238 407.923 283.102Z" fill="url(#paint0_radial_3035_9118)"/>
<path fill-rule="evenodd" clip-rule="evenodd" d="M424.039 314.115C413.004 314.115 407.486 314.115 403.575 316.851C402.128 317.864 400.869 319.121 399.856 320.567C397.117 324.475 397.117 329.988 397.117 341.013H409.737V335.129C409.737 331.167 409.737 329.185 410.969 327.955C412.201 326.724 414.184 326.724 418.15 326.724H424.039V314.115ZM505.646 449.446V436.838H511.535C515.501 436.838 517.484 436.838 518.716 435.607C519.948 434.376 519.948 432.394 519.948 428.432V422.548H532.568C532.568 433.574 532.568 439.086 529.829 442.994C528.816 444.44 527.557 445.697 526.11 446.71C522.199 449.446 516.681 449.446 505.646 449.446ZM505.646 326.724H511.535C515.501 326.724 517.484 326.724 518.716 327.955C519.948 329.185 519.948 331.167 519.948 335.129V341.013H532.568C532.568 329.988 532.568 324.475 529.829 320.567C528.816 319.121 527.557 317.864 526.11 316.851C522.199 314.115 516.681 314.115 505.646 314.115V326.724ZM397.117 422.548C397.117 433.574 397.117 439.086 399.856 442.994C400.869 444.44 402.128 445.697 403.575 446.71C407.486 449.446 413.004 449.446 424.039 449.446L424.039 436.838H418.15C414.184 436.838 412.201 436.838 410.969 435.607C409.737 434.376 409.737 432.394 409.737 428.432V422.548H397.117ZM433.294 400.693V413.302H445.913V400.693H458.533V413.302H471.152V400.693H483.772V413.302H496.392V400.693H509.011V413.302V425.91H433.294H420.674V413.302V400.693H433.294ZM458.533 375.476V362.868H471.152H483.772V375.476H471.152H458.533ZM458.533 350.259H471.152V337.651H483.772V350.259V362.868H496.392H509.011V375.476L540.981 375.476V388.085L509.011 388.085H496.392H471.152L420.674 388.085H389.546V375.476H420.674V337.651H433.294V350.259H445.913V362.868H433.294V375.476H445.913V362.868H458.533V350.259ZM458.533 350.259V337.651H445.913V350.259H458.533ZM509.011 337.651H496.392V350.259H509.011V337.651Z" fill="white"/>
<path d="M284.282 590.954H274.892V659.152H284.282V628.334H303.894L318.219 659.152H328.171L312.035 624.111L327.323 590.954H317.372L303.895 619.698H284.282V590.954Z" fill="black"/>
<path fill-rule="evenodd" clip-rule="evenodd" d="M420.763 609.52C413.214 609.52 408.497 612.496 405.751 615.834H404.348V610.745H395.712V678H404.631V654.062H406.025C408.68 657.495 413.22 660.377 420.763 660.377C427.449 660.377 432.787 657.653 436.444 653.091C440.092 648.539 442.045 642.188 442.045 634.948C442.045 627.848 440.092 621.498 436.445 616.913C432.79 612.317 427.453 609.52 420.763 609.52ZM404.536 634.948C404.536 630.345 405.607 625.948 407.938 622.715C410.254 619.502 413.838 617.402 418.973 617.402C423.6 617.402 427.116 619.205 429.487 622.268C431.869 625.346 433.126 629.737 433.126 634.948C433.126 640.16 431.869 644.551 429.487 647.629C427.116 650.692 423.6 652.494 418.973 652.494C413.838 652.494 410.254 650.395 407.938 647.182C405.607 643.949 404.536 639.552 404.536 634.948Z" fill="black"/>
<path fill-rule="evenodd" clip-rule="evenodd" d="M474.598 609.52C467.033 609.52 461.063 612.301 456.988 616.894C452.919 621.48 450.771 627.838 450.771 634.948C450.771 642.058 452.919 648.416 456.988 653.003C461.063 657.596 467.033 660.377 474.598 660.377C482.115 660.377 488.085 657.595 492.172 653.003C496.252 648.417 498.424 642.06 498.424 634.948C498.424 627.837 496.252 621.479 492.172 616.893C488.085 612.301 482.115 609.52 474.598 609.52ZM459.69 634.948C459.69 630.354 460.875 625.958 463.321 622.723C465.755 619.504 469.461 617.402 474.598 617.402C479.686 617.402 483.393 619.503 485.84 622.724C488.298 625.96 489.505 630.356 489.505 634.948C489.505 639.541 488.298 643.937 485.84 647.172C483.393 650.393 479.686 652.494 474.598 652.494C469.461 652.494 465.755 650.393 463.321 647.173C460.875 643.938 459.69 639.543 459.69 634.948Z" fill="black"/>
<path fill-rule="evenodd" clip-rule="evenodd" d="M635.051 609.52C629.659 609.52 625.011 610.808 621.616 613.245C618.21 615.69 616.09 619.276 615.75 623.794L615.713 624.282H624.628L624.666 623.869C624.842 621.931 625.758 620.337 627.467 619.212C629.192 618.077 631.756 617.402 635.24 617.402C639.316 617.402 642.085 618.421 643.834 620.07C645.579 621.716 646.377 624.055 646.377 626.843V628.274H631.376C624.682 628.274 620.008 630.333 617.008 633.418C614.013 636.498 612.733 640.554 612.733 644.467C612.733 652.829 619.069 660.377 630.245 660.377C637.04 660.377 642.216 657.864 645.258 654.157H646.66V659.152H655.108V626.372C655.108 620.929 653.151 616.693 649.627 613.827C646.116 610.972 641.102 609.52 635.051 609.52ZM621.652 644.184C621.652 641.458 622.511 639.338 624.256 637.889C626.016 636.428 628.746 635.591 632.601 635.591H646.377V639.472C646.377 646.722 639.93 652.494 632.224 652.494C628.756 652.494 626.113 651.662 624.346 650.228C622.591 648.804 621.652 646.749 621.652 644.184Z" fill="black"/>
<path d="M346.553 610.745H337.823V659.152H349.848L371.053 622.397H372.41V659.152H381.14V610.745H368.735L347.908 647.5H346.553V610.745Z" fill="black"/>
<path fill-rule="evenodd" clip-rule="evenodd" d="M534.032 610.745H510.017V659.152H534.88C540.349 659.152 544.657 658.06 547.608 655.807C550.58 653.538 552.11 650.141 552.11 645.692C552.11 639.535 548.856 635.52 544.382 634.224V632.765C547.073 631.206 549.471 627.815 549.471 623.168C549.471 619.279 548.055 616.149 545.378 614.002C542.715 611.866 538.855 610.745 534.032 610.745ZM518.842 630.442V618.439H533.278C536.084 618.439 537.884 619.129 538.983 620.185C540.079 621.239 540.552 622.728 540.552 624.487C540.552 626.098 540.084 627.568 538.982 628.638C537.879 629.709 536.076 630.442 533.278 630.442H518.842ZM534.409 638.135H518.842V651.458H534.409C537.792 651.458 539.975 650.715 541.309 649.555C542.631 648.405 543.191 646.781 543.191 644.844C543.191 642.906 542.63 641.256 541.306 640.083C539.971 638.9 537.789 638.135 534.409 638.135Z" fill="black"/>
<path d="M572.592 610.745H563.673V659.152H572.592V638.23H586.089L596.644 659.152H606.233L593.756 634.102L605.579 610.745H596.173L586.277 630.347H572.592V610.745Z" fill="black"/>
<defs>
<radialGradient id="paint0_radial_3035_9118" cx="0" cy="0" r="1" gradientUnits="userSpaceOnUse" gradientTransform="translate(526.229 288.159) rotate(123.675) scale(229.281 210.533)">
<stop stop-color="#F9D82F"/>
<stop offset="0.843252" stop-color="#DCB62F"/>
<stop offset="1" stop-color="#E3C629"/>
</radialGradient>
</defs>
</svg>
