<svg width="930" height="930" viewBox="0 0 930 930" fill="none" xmlns="http://www.w3.org/2000/svg">
<rect width="930" height="930" fill="url(#paint0_radial_2964_8890)"/>
<path fill-rule="evenodd" clip-rule="evenodd" d="M255.247 320.64C244.405 321.865 234.407 327.652 214.411 339.226C194.416 350.8 184.418 356.587 177.938 365.388C175.612 368.549 173.647 371.961 172.08 375.561C167.717 385.588 167.717 397.162 167.717 420.31C167.717 443.458 167.717 455.032 172.08 465.058C173.647 468.659 175.612 472.071 177.938 475.231C184.418 484.032 194.416 489.819 214.411 501.393C234.407 512.967 244.405 518.754 255.247 519.98C259.141 520.42 263.071 520.42 266.964 519.98C277.807 518.754 287.804 512.967 307.8 501.393C327.796 489.819 337.793 484.032 344.273 475.231C346.6 472.071 348.565 468.659 350.131 465.058C354.494 455.032 354.494 443.458 354.494 420.31C354.494 397.162 354.494 385.588 350.131 375.561C348.565 371.961 346.6 368.549 344.273 365.388C337.793 356.587 327.796 350.8 307.8 339.226C287.804 327.652 277.807 321.865 266.964 320.64C263.071 320.2 259.141 320.2 255.247 320.64ZM326.49 415.148H195.721V425.472H326.49V415.148ZM238.393 368.346H237.017C224.039 368.346 217.55 368.346 213.518 372.378C209.487 376.41 209.487 382.899 209.487 395.877V397.253H219.81V388.306C219.81 383.764 219.81 381.492 221.222 380.081C222.633 378.67 224.904 378.67 229.446 378.67H238.393V368.346ZM284.506 461.949V472.273H285.883C298.861 472.273 305.35 472.273 309.381 468.241C313.413 464.21 313.413 457.721 313.413 444.743V443.366L303.089 443.366V452.314C303.089 456.856 303.089 459.127 301.678 460.538C300.267 461.949 297.996 461.949 293.454 461.949H284.506ZM284.506 378.67H293.454C297.996 378.67 300.267 378.67 301.678 380.081C303.089 381.492 303.089 383.764 303.089 388.306V397.253H313.413V395.877C313.413 382.899 313.413 376.41 309.381 372.378C305.35 368.346 298.861 368.346 285.883 368.346H284.506V378.67ZM213.518 468.241C209.487 464.21 209.487 457.721 209.487 444.743V443.366L219.81 443.366V452.314C219.81 456.856 219.81 459.127 221.222 460.538C222.633 461.949 224.904 461.949 229.446 461.949H238.393V472.273H237.017C224.039 472.273 217.55 472.273 213.518 468.241Z" fill="white"/>
<path d="M440.327 377.735C428.271 377.735 418.818 382.233 412.387 389.779C405.964 397.315 402.594 407.843 402.594 419.85C402.594 431.854 405.907 442.382 412.287 449.919C418.677 457.466 428.103 461.964 440.214 461.964C449.14 461.964 456.399 459.433 461.845 455.061C467.29 450.691 470.887 444.511 472.54 437.274L472.691 436.612H460.926L460.816 437.008C459.552 441.569 457.144 445.224 453.701 447.741C450.257 450.26 445.739 451.668 440.214 451.668C431.058 451.668 424.507 447.927 420.229 442.113C415.935 436.278 413.902 428.312 413.902 419.85C413.902 411.445 415.963 403.479 420.285 397.629C424.592 391.8 431.171 388.032 440.327 388.032C445.813 388.032 449.966 389.195 453.109 391.363C456.25 393.529 458.439 396.737 459.929 400.93L460.057 401.29H471.797L471.64 400.624C469.984 393.599 466.293 387.867 460.93 383.895C455.569 379.924 448.569 377.735 440.327 377.735Z" fill="white"/>
<path d="M758.574 380.769H711.536V390.391H745.918V392.074L726.705 408.703V420.094L727.378 419.926C729.117 419.491 731.316 419.268 734.1 419.268C739.789 419.268 744.077 420.84 746.94 423.61C749.802 426.377 751.312 430.407 751.312 435.468C751.312 440.738 749.586 444.884 746.593 447.715C743.597 450.549 739.275 452.117 733.988 452.117C724.779 452.117 717.753 446.552 716.886 437.886L716.838 437.398H705.881L705.92 437.976C706.84 451.661 717.779 461.964 733.988 461.964C742.128 461.964 749.205 459.516 754.253 454.957C759.307 450.392 762.282 443.751 762.282 435.468C762.282 427.761 759.767 421.714 755.489 417.551C751.326 413.501 745.541 411.281 738.912 411.011V409.425L758.574 392.571V380.769Z" fill="white"/>
<path fill-rule="evenodd" clip-rule="evenodd" d="M571.377 401.331C564.948 401.331 559.407 402.866 555.359 405.772C551.298 408.687 548.77 412.962 548.365 418.348L548.321 418.931H558.95L558.995 418.438C559.205 416.128 560.297 414.227 562.334 412.886C564.391 411.533 567.448 410.728 571.601 410.728C576.461 410.728 579.763 411.943 581.848 413.909C583.928 415.872 584.88 418.66 584.88 421.985V423.69H566.995C559.014 423.69 553.442 426.145 549.865 429.823C546.294 433.496 544.768 438.331 544.768 442.996C544.768 452.966 552.322 461.964 565.646 461.964C573.748 461.964 579.919 458.969 583.545 454.548H585.217V460.504H595.289V421.423C595.289 414.933 592.956 409.883 588.755 406.466C584.569 403.062 578.59 401.331 571.377 401.331ZM555.401 442.659C555.401 439.408 556.425 436.882 558.506 435.154C560.605 433.412 563.859 432.414 568.455 432.414H584.88V437.041C584.88 445.684 577.193 452.567 568.006 452.567C563.872 452.567 560.721 451.574 558.614 449.865C556.521 448.167 555.401 445.717 555.401 442.659Z" fill="white"/>
<path d="M496.91 402.791H486.277V460.504H496.91V435.56H513.002L525.586 460.504H537.019L522.143 430.638L536.238 402.791H525.024L513.226 426.162H496.91V402.791Z" fill="white"/>
<path d="M622.327 402.791H611.694V460.504H622.327V435.56H652.592V460.504H663.226V402.791H652.592V426.162H622.327V402.791Z" fill="white"/>
<defs>
<radialGradient id="paint0_radial_2964_8890" cx="0" cy="0" r="1" gradientUnits="userSpaceOnUse" gradientTransform="translate(714.403 107.212) rotate(125.482) scale(892.163 839.134)">
<stop stop-color="#4672FF"/>
<stop offset="0.843252" stop-color="#173CCA"/>
<stop offset="1" stop-color="#2254F5"/>
</radialGradient>
</defs>
</svg>
