<svg width="930" height="930" viewBox="0 0 930 930" fill="none" xmlns="http://www.w3.org/2000/svg">
<rect width="930" height="930" fill="url(#paint0_radial_3542_9235)"/>
<path d="M406.813 283.082C431.212 268.959 443.411 261.898 456.642 260.403C461.392 259.866 466.188 259.866 470.938 260.403C484.169 261.898 496.368 268.959 520.767 283.082V283.082C545.166 297.205 557.365 304.266 565.272 315.005C568.111 318.862 570.509 323.025 572.42 327.418C577.744 339.653 577.744 353.776 577.744 382.021V382.021C577.744 410.266 577.744 424.389 572.42 436.624C570.509 441.017 568.111 445.181 565.272 449.037C557.365 459.776 545.166 466.838 520.767 480.96V480.96C496.368 495.083 484.169 502.144 470.938 503.639C466.188 504.176 461.392 504.176 456.642 503.639C443.411 502.144 431.212 495.083 406.813 480.96V480.96C382.414 466.838 370.215 459.776 362.308 449.037C359.469 445.181 357.071 441.017 355.16 436.624C349.836 424.389 349.836 410.266 349.836 382.021V382.021C349.836 353.776 349.836 339.653 355.16 327.418C357.071 323.025 359.469 318.862 362.308 315.005C370.215 304.266 382.414 297.205 406.813 283.082V283.082Z" fill="url(#paint1_radial_3542_9235)"/>
<path fill-rule="evenodd" clip-rule="evenodd" d="M417.834 327.9L522.891 337.475L518.551 365.757C518.499 366.097 518.448 366.433 518.397 366.765C517.531 372.442 516.867 376.788 514.967 380.383C512.143 385.724 507.409 389.797 501.713 391.782C497.881 393.118 493.495 393.115 487.766 393.111C487.432 393.11 487.093 393.11 486.749 393.11H442.31C437.868 393.11 433.98 396.102 432.833 400.404C432.491 401.687 432.317 403.008 432.317 404.336V407.807H498.975V420.404H419.752V404.336C419.752 401.909 420.069 399.493 420.694 397.149C423.312 387.337 432.179 380.513 442.31 380.513H486.749C493.977 380.513 496.03 380.427 497.587 379.884C500.284 378.943 502.527 377.014 503.864 374.484C504.636 373.024 505.033 371.003 506.132 363.841L508.439 348.807L416.696 340.446L417.834 327.9Z" fill="white"/>
<path fill-rule="evenodd" clip-rule="evenodd" d="M498.493 420.404C495.717 420.404 493.467 422.66 493.467 425.443C493.467 428.226 495.717 430.482 498.493 430.482C501.269 430.482 503.519 428.226 503.519 425.443C503.519 422.66 501.269 420.404 498.493 420.404ZM480.902 425.443C480.902 415.703 488.778 407.807 498.493 407.807C508.208 407.807 516.084 415.703 516.084 425.443C516.084 435.183 508.208 443.079 498.493 443.079C488.778 443.079 480.902 435.183 480.902 425.443Z" fill="white"/>
<path fill-rule="evenodd" clip-rule="evenodd" d="M429.131 420.404C426.356 420.404 424.105 422.66 424.105 425.443C424.105 428.226 426.356 430.482 429.131 430.482C431.907 430.482 434.157 428.226 434.157 425.443C434.157 422.66 431.907 420.404 429.131 420.404ZM411.54 425.443C411.54 415.703 419.416 407.807 429.131 407.807C438.847 407.807 446.722 415.703 446.722 425.443C446.722 435.183 438.847 443.079 429.131 443.079C419.416 443.079 411.54 435.183 411.54 425.443Z" fill="white"/>
<path fill-rule="evenodd" clip-rule="evenodd" d="M396.086 330.124H398.208H402.211C407.724 330.124 412.545 333.847 413.954 339.19L425.949 384.693L427.554 390.783L439.702 387.564L438.097 381.474L426.102 335.971C423.236 325.1 413.426 317.527 402.211 317.527H398.208H392.658L396.086 330.124Z" fill="white"/>
<path d="M233.482 590.639H218.633V658.776H227.827V601.151H229.174L246.405 633.071H255.797L273.028 601.151H274.375V658.776H283.568V590.639H268.623L251.957 622.182H250.43L233.482 590.639Z" fill="white"/>
<path d="M651.433 591.957H640.577L626.515 601.492V611.248L640.949 601.528H642.24V650.524V658.776H651.433V650.524V591.957Z" fill="white"/>
<path d="M707.883 591.957H669.349L666.354 627.609H675.373L675.508 627.411C678.233 623.415 682.409 621.395 688.221 621.395C692.531 621.395 696.007 622.951 698.408 625.579C700.814 628.211 702.174 631.956 702.174 636.383C702.174 641.188 700.72 645.023 698.237 647.653C695.756 650.281 692.209 651.748 687.939 651.748C684.014 651.748 680.783 650.733 678.413 648.758C676.046 646.786 674.489 643.816 673.983 639.81L673.932 639.413H664.855L664.888 639.898C665.271 645.551 667.43 650.586 671.365 654.207C675.301 657.829 680.974 660 688.315 660C695.108 660 700.88 657.654 704.954 653.46C709.027 649.266 711.367 643.262 711.367 636.007C711.367 629.788 709.334 624.166 705.598 620.093C701.858 616.016 696.438 613.52 689.728 613.52C683.575 613.52 679.906 615.396 676.842 618.133H675.436L676.87 600.021H707.883V591.957Z" fill="white"/>
<path fill-rule="evenodd" clip-rule="evenodd" d="M317.605 609.188C312.218 609.188 307.574 610.475 304.182 612.91C300.779 615.353 298.661 618.936 298.321 623.449L298.284 623.937H307.191L307.229 623.525C307.405 621.589 308.321 619.996 310.028 618.872C311.752 617.738 314.313 617.064 317.794 617.064C321.866 617.064 324.633 618.082 326.38 619.73C328.124 621.374 328.921 623.71 328.921 626.497V627.926H313.933C307.246 627.926 302.576 629.983 299.578 633.066C296.586 636.143 295.307 640.195 295.307 644.104C295.307 652.459 301.637 660 312.803 660C319.593 660 324.764 657.49 327.803 653.786H329.204V658.776H337.644V626.026C337.644 620.588 335.689 616.355 332.168 613.492C328.661 610.64 323.65 609.188 317.605 609.188ZM304.218 643.822C304.218 641.098 305.076 638.98 306.82 637.533C308.578 636.073 311.306 635.236 315.157 635.236H328.921V639.114C328.921 646.357 322.48 652.125 314.781 652.125C311.316 652.125 308.675 651.293 306.91 649.86C305.156 648.438 304.218 646.384 304.218 643.822Z" fill="white"/>
<path fill-rule="evenodd" clip-rule="evenodd" d="M414.89 609.188C409.503 609.188 404.859 610.475 401.467 612.91C398.064 615.353 395.946 618.936 395.606 623.449L395.569 623.937H404.476L404.514 623.525C404.69 621.589 405.606 619.996 407.313 618.872C409.036 617.738 411.598 617.064 415.078 617.064C419.151 617.064 421.918 618.082 423.665 619.73C425.409 621.374 426.206 623.71 426.206 626.497V627.926H411.218C404.53 627.926 399.86 629.983 396.863 633.066C393.871 636.143 392.592 640.195 392.592 644.104C392.592 652.459 398.922 660 410.088 660C416.878 660 422.049 657.49 425.088 653.786H426.489V658.776H434.929V626.026C434.929 620.588 432.974 616.355 429.453 613.492C425.945 610.64 420.935 609.188 414.89 609.188ZM401.503 643.822C401.503 641.098 402.361 638.98 404.105 637.533C405.863 636.073 408.59 635.236 412.442 635.236H426.206V639.114C426.206 646.357 419.765 652.125 412.065 652.125C408.601 652.125 405.96 651.293 404.195 649.86C402.441 648.438 401.503 646.384 401.503 643.822Z" fill="white"/>
<path d="M466.078 609.188C460.502 609.188 455.786 610.523 452.346 613.042C448.895 615.569 446.76 619.267 446.324 623.912L446.278 624.408H454.768L454.846 624.051C455.391 621.554 456.51 619.835 458.27 618.724C460.049 617.601 462.539 617.064 465.89 617.064C468.899 617.064 471.414 617.667 473.162 618.814C474.889 619.946 475.888 621.62 475.888 623.86C475.888 625.591 475.315 627.148 473.977 628.281C472.628 629.423 470.442 630.186 467.114 630.186H458.657V638.061H467.491C471.363 638.061 473.853 638.741 475.371 639.909C476.86 641.056 477.489 642.735 477.489 644.952C477.489 647.368 476.36 649.135 474.411 650.319C472.438 651.519 469.613 652.125 466.267 652.125C463.052 652.125 460.166 651.681 457.878 650.537C455.608 649.402 453.905 647.568 453.048 644.726L452.951 644.404H444.362L444.445 644.928C445.167 649.505 447.295 653.291 450.935 655.924C454.567 658.551 459.661 660 466.267 660C472.743 660 477.77 658.357 481.188 655.678C484.614 652.993 486.4 649.285 486.4 645.234C486.4 641.907 485.555 639.385 484.23 637.553C482.985 635.831 481.333 634.743 479.62 634.168V632.733C482.445 631.495 484.705 628.044 484.705 622.824C484.705 619.101 483.035 615.675 479.858 613.192C476.687 610.714 472.037 609.188 466.078 609.188Z" fill="white"/>
<path d="M387.891 610.413H351.391V658.776H360.302V618.288H387.891V610.413Z" fill="white"/>
<path d="M507.053 610.413H498.33V658.776H510.345L531.531 622.054H532.886V658.776H541.609V610.413H529.215L508.406 647.134H507.053V610.413Z" fill="white"/>
<path d="M565.079 610.413H556.168V658.776H565.079V637.873H590.441V658.776H599.352V610.413H590.441V629.997H565.079V610.413Z" fill="white"/>
<defs>
<radialGradient id="paint0_radial_3542_9235" cx="0" cy="0" r="1" gradientUnits="userSpaceOnUse" gradientTransform="translate(714.403 107.212) rotate(125.482) scale(892.163 839.134)">
<stop stop-color="#FF003D"/>
<stop offset="0.843252" stop-color="#CE1743"/>
<stop offset="1" stop-color="#EC073E"/>
</radialGradient>
<radialGradient id="paint1_radial_3542_9235" cx="0" cy="0" r="1" gradientUnits="userSpaceOnUse" gradientTransform="translate(524.909 288.134) rotate(123.652) scale(229.015 210.217)">
<stop stop-color="#FF003D"/>
<stop offset="0.843252" stop-color="#C5113C"/>
<stop offset="1" stop-color="#EC073E"/>
</radialGradient>
</defs>
</svg>
